<?xml version="1.0" encoding="utf-8" standalone="no"?>
<!DOCTYPE svg PUBLIC "-//W3C//DTD SVG 1.1//EN"
  "http://www.w3.org/Graphics/SVG/1.1/DTD/svg11.dtd">
<svg xmlns:xlink="http://www.w3.org/1999/xlink" width="746.005625pt" height="295.235469pt" viewBox="0 0 746.005625 295.235469" xmlns="http://www.w3.org/2000/svg" version="1.1">
 <metadata>
  <rdf:RDF xmlns:dc="http://purl.org/dc/elements/1.1/" xmlns:cc="http://creativecommons.org/ns#" xmlns:rdf="http://www.w3.org/1999/02/22-rdf-syntax-ns#">
   <cc:Work>
    <dc:type rdf:resource="http://purl.org/dc/dcmitype/StillImage"/>
    <dc:date>2026-07-13T03:16:49.290049</dc:date>
    <dc:format>image/svg+xml</dc:format>
    <dc:creator>
     <cc:Agent>
      <dc:title>Matplotlib v3.10.8, https://matplotlib.org/</dc:title>
     </cc:Agent>
    </dc:creator>
   </cc:Work>
  </rdf:RDF>
 </metadata>
 <defs>
  <style type="text/css">*{stroke-linejoin: round; stroke-linecap: butt}</style>
 </defs>
 <g id="figure_1">
  <g id="patch_1">
   <path d="M 0 295.235469 
L 746.005625 295.235469 
L 746.005625 0 
L 0 0 
z
" style="fill: #ffffff"/>
  </g>
  <g id="axes_1">
   <g id="patch_2">
    <path d="M 49.465625 271.357344 
L 738.805625 271.357344 
L 738.805625 46.117344 
L 49.465625 46.117344 
z
" style="fill: #ffffff"/>
   </g>
   <g id="FillBetweenPolyCollection_1">
    <defs>
     <path id="m56823b308e" d="M 59.504557 -23.878125 
L 59.504557 -64.146294 
L 63.170127 -59.838298 
L 66.480964 -54.618017 
L 70.146534 -39.768072 
L 73.69386 -48.434758 
L 77.35943 -46.711575 
L 80.906756 -44.684271 
L 84.572326 -45.849945 
L 88.237896 -68.251595 
L 91.785222 -56.189159 
L 95.450792 -67.440658 
L 98.998118 -76.462119 
L 102.663688 -71.951388 
L 106.329258 -69.16388 
L 109.758339 -70.177512 
L 113.423909 -69.467962 
L 116.971235 -91.007982 
L 120.636805 -83.963131 
L 124.184131 -88.980678 
L 127.849701 -81.935827 
L 131.515271 -75.296445 
L 135.062597 -75.195059 
L 138.728167 -76.360771 
L 142.275493 -74.434815 
L 145.941063 -71.596613 
L 149.606633 -85.63566 
L 152.91747 -90.754554 
L 156.58304 -84.3686 
L 160.130366 -92.731165 
L 163.795936 -91.666839 
L 167.343262 -82.94946 
L 171.008832 -86.193131 
L 174.674402 -76.715546 
L 178.221727 -76.61416 
L 181.887297 -79.046932 
L 185.434623 -75.803262 
L 189.100193 -82.037175 
L 192.765763 -74.485508 
L 196.076601 -76.107344 
L 199.742171 -73.015714 
L 203.289496 -77.47579 
L 206.955066 -74.485508 
L 210.502392 -83.000153 
L 214.167962 -89.538188 
L 217.833532 -105.705886 
L 221.380858 -110.470005 
L 225.046428 -117.971017 
L 228.593754 -127.651335 
L 232.259324 -150.610495 
L 235.924894 -152.891188 
L 239.235731 -168.653417 
L 242.901301 -149.596824 
L 246.448627 -161.304485 
L 250.114197 -154.107554 
L 253.661523 -163.63587 
L 257.327093 -156.43894 
L 260.992663 -158.466244 
L 264.539989 -161.50718 
L 268.205559 -177.826919 
L 271.752885 -170.021825 
L 275.418455 -174.988717 
L 279.084025 -167.893174 
L 282.513106 -149.546131 
L 286.178676 -141.893116 
L 289.726002 -156.134858 
L 293.391572 -157.401918 
L 296.938898 -154.310289 
L 300.604468 -156.793716 
L 304.270038 -153.955513 
L 307.817364 -169.10954 
L 311.482934 -184.567688 
L 315.030259 -189.078418 
L 318.695829 -174.481901 
L 322.361399 -182.641771 
L 325.672237 -178.739204 
L 329.337807 -172.150515 
L 332.885133 -161.355139 
L 336.550703 -154.969185 
L 340.098029 -140.778097 
L 343.763599 -139.815119 
L 347.429169 -141.893116 
L 350.976494 -149.343435 
L 354.642064 -141.538341 
L 358.18939 -137.02761 
L 361.85496 -121.873545 
L 365.52053 -129.374557 
L 368.831368 -126.130887 
L 372.496938 -135.608471 
L 376.044263 -146.505194 
L 379.709833 -149.748865 
L 383.257159 -149.039314 
L 386.922729 -152.333678 
L 390.588299 -152.587106 
L 394.135625 -162.419465 
L 397.801195 -163.129016 
L 401.348521 -157.553959 
L 405.014091 -154.563716 
L 408.679661 -157.503305 
L 411.990498 -163.179709 
L 415.656068 -164.19338 
L 419.203394 -165.561788 
L 422.868964 -157.351225 
L 426.41629 -169.464316 
L 430.08186 -171.491619 
L 433.74743 -173.823005 
L 437.294756 -163.534484 
L 440.960326 -168.197256 
L 444.507651 -158.668978 
L 448.173221 -163.737218 
L 451.838791 -167.487705 
L 455.267873 -172.150515 
L 458.933443 -171.998436 
L 462.480769 -168.552031 
L 466.146339 -163.737218 
L 469.693665 -143.971074 
L 473.359235 -137.128958 
L 477.024805 -145.998378 
L 480.572131 -146.758622 
L 484.237701 -135.76055 
L 487.785026 -125.978846 
L 491.450596 -129.222516 
L 495.116166 -130.996392 
L 498.427004 -142.65336 
L 502.092574 -132.770269 
L 505.6399 -125.471991 
L 509.30547 -138.649446 
L 512.852795 -137.280999 
L 516.518365 -139.612385 
L 520.183935 -147.822948 
L 523.731261 -147.16409 
L 527.396831 -156.641674 
L 530.944157 -155.019839 
L 534.609727 -159.429222 
L 538.275297 -160.290813 
L 541.586134 -168.39999 
L 545.251704 -191.967314 
L 548.79903 -185.834748 
L 552.4646 -200.735386 
L 556.011926 -206.867952 
L 559.677496 -221.059 
L 563.343066 -238.392411 
L 566.890392 -235.402129 
L 570.555962 -207.12134 
L 574.103288 -194.805516 
L 577.768858 -187.608624 
L 581.434428 -201.647671 
L 584.745265 -189.686621 
L 588.410835 -185.429279 
L 591.958161 -198.860123 
L 595.623731 -191.713925 
L 599.171057 -186.392257 
L 602.836627 -195.312371 
L 606.502197 -208.236359 
L 610.049523 -210.719825 
L 613.715093 -194.704168 
L 617.262418 -183.706096 
L 620.927988 -193.538456 
L 624.593558 -198.049225 
L 628.02264 -200.025835 
L 631.68821 -208.489787 
L 635.235536 -200.633999 
L 638.901106 -206.715911 
L 642.448432 -197.745104 
L 646.114002 -185.58132 
L 649.779572 -180.918549 
L 653.326897 -197.13694 
L 656.992467 -206.057015 
L 660.539793 -219.994675 
L 664.205363 -219.386511 
L 667.870933 -215.534637 
L 671.181771 -198.302614 
L 674.847341 -174.279167 
L 678.394666 -173.569616 
L 682.060236 -161.152405 
L 685.607562 -177.117369 
L 689.273132 -165.663136 
L 692.938702 -165.663136 
L 696.486028 -175.951695 
L 700.151598 -174.228474 
L 703.698924 -168.247949 
L 707.364494 -161.709915 
L 711.030064 -164.852237 
L 714.340901 -176.762594 
L 718.006471 -167.234316 
L 721.553797 -171.440965 
L 725.219367 -182.996546 
L 728.766693 -182.464364 
L 728.766693 -23.878125 
L 728.766693 -23.878125 
L 725.219367 -23.878125 
L 721.553797 -23.878125 
L 718.006471 -23.878125 
L 714.340901 -23.878125 
L 711.030064 -23.878125 
L 707.364494 -23.878125 
L 703.698924 -23.878125 
L 700.151598 -23.878125 
L 696.486028 -23.878125 
L 692.938702 -23.878125 
L 689.273132 -23.878125 
L 685.607562 -23.878125 
L 682.060236 -23.878125 
L 678.394666 -23.878125 
L 674.847341 -23.878125 
L 671.181771 -23.878125 
L 667.870933 -23.878125 
L 664.205363 -23.878125 
L 660.539793 -23.878125 
L 656.992467 -23.878125 
L 653.326897 -23.878125 
L 649.779572 -23.878125 
L 646.114002 -23.878125 
L 642.448432 -23.878125 
L 638.901106 -23.878125 
L 635.235536 -23.878125 
L 631.68821 -23.878125 
L 628.02264 -23.878125 
L 624.593558 -23.878125 
L 620.927988 -23.878125 
L 617.262418 -23.878125 
L 613.715093 -23.878125 
L 610.049523 -23.878125 
L 606.502197 -23.878125 
L 602.836627 -23.878125 
L 599.171057 -23.878125 
L 595.623731 -23.878125 
L 591.958161 -23.878125 
L 588.410835 -23.878125 
L 584.745265 -23.878125 
L 581.434428 -23.878125 
L 577.768858 -23.878125 
L 574.103288 -23.878125 
L 570.555962 -23.878125 
L 566.890392 -23.878125 
L 563.343066 -23.878125 
L 559.677496 -23.878125 
L 556.011926 -23.878125 
L 552.4646 -23.878125 
L 548.79903 -23.878125 
L 545.251704 -23.878125 
L 541.586134 -23.878125 
L 538.275297 -23.878125 
L 534.609727 -23.878125 
L 530.944157 -23.878125 
L 527.396831 -23.878125 
L 523.731261 -23.878125 
L 520.183935 -23.878125 
L 516.518365 -23.878125 
L 512.852795 -23.878125 
L 509.30547 -23.878125 
L 505.6399 -23.878125 
L 502.092574 -23.878125 
L 498.427004 -23.878125 
L 495.116166 -23.878125 
L 491.450596 -23.878125 
L 487.785026 -23.878125 
L 484.237701 -23.878125 
L 480.572131 -23.878125 
L 477.024805 -23.878125 
L 473.359235 -23.878125 
L 469.693665 -23.878125 
L 466.146339 -23.878125 
L 462.480769 -23.878125 
L 458.933443 -23.878125 
L 455.267873 -23.878125 
L 451.838791 -23.878125 
L 448.173221 -23.878125 
L 444.507651 -23.878125 
L 440.960326 -23.878125 
L 437.294756 -23.878125 
L 433.74743 -23.878125 
L 430.08186 -23.878125 
L 426.41629 -23.878125 
L 422.868964 -23.878125 
L 419.203394 -23.878125 
L 415.656068 -23.878125 
L 411.990498 -23.878125 
L 408.679661 -23.878125 
L 405.014091 -23.878125 
L 401.348521 -23.878125 
L 397.801195 -23.878125 
L 394.135625 -23.878125 
L 390.588299 -23.878125 
L 386.922729 -23.878125 
L 383.257159 -23.878125 
L 379.709833 -23.878125 
L 376.044263 -23.878125 
L 372.496938 -23.878125 
L 368.831368 -23.878125 
L 365.52053 -23.878125 
L 361.85496 -23.878125 
L 358.18939 -23.878125 
L 354.642064 -23.878125 
L 350.976494 -23.878125 
L 347.429169 -23.878125 
L 343.763599 -23.878125 
L 340.098029 -23.878125 
L 336.550703 -23.878125 
L 332.885133 -23.878125 
L 329.337807 -23.878125 
L 325.672237 -23.878125 
L 322.361399 -23.878125 
L 318.695829 -23.878125 
L 315.030259 -23.878125 
L 311.482934 -23.878125 
L 307.817364 -23.878125 
L 304.270038 -23.878125 
L 300.604468 -23.878125 
L 296.938898 -23.878125 
L 293.391572 -23.878125 
L 289.726002 -23.878125 
L 286.178676 -23.878125 
L 282.513106 -23.878125 
L 279.084025 -23.878125 
L 275.418455 -23.878125 
L 271.752885 -23.878125 
L 268.205559 -23.878125 
L 264.539989 -23.878125 
L 260.992663 -23.878125 
L 257.327093 -23.878125 
L 253.661523 -23.878125 
L 250.114197 -23.878125 
L 246.448627 -23.878125 
L 242.901301 -23.878125 
L 239.235731 -23.878125 
L 235.924894 -23.878125 
L 232.259324 -23.878125 
L 228.593754 -23.878125 
L 225.046428 -23.878125 
L 221.380858 -23.878125 
L 217.833532 -23.878125 
L 214.167962 -23.878125 
L 210.502392 -23.878125 
L 206.955066 -23.878125 
L 203.289496 -23.878125 
L 199.742171 -23.878125 
L 196.076601 -23.878125 
L 192.765763 -23.878125 
L 189.100193 -23.878125 
L 185.434623 -23.878125 
L 181.887297 -23.878125 
L 178.221727 -23.878125 
L 174.674402 -23.878125 
L 171.008832 -23.878125 
L 167.343262 -23.878125 
L 163.795936 -23.878125 
L 160.130366 -23.878125 
L 156.58304 -23.878125 
L 152.91747 -23.878125 
L 149.606633 -23.878125 
L 145.941063 -23.878125 
L 142.275493 -23.878125 
L 138.728167 -23.878125 
L 135.062597 -23.878125 
L 131.515271 -23.878125 
L 127.849701 -23.878125 
L 124.184131 -23.878125 
L 120.636805 -23.878125 
L 116.971235 -23.878125 
L 113.423909 -23.878125 
L 109.758339 -23.878125 
L 106.329258 -23.878125 
L 102.663688 -23.878125 
L 98.998118 -23.878125 
L 95.450792 -23.878125 
L 91.785222 -23.878125 
L 88.237896 -23.878125 
L 84.572326 -23.878125 
L 80.906756 -23.878125 
L 77.35943 -23.878125 
L 73.69386 -23.878125 
L 70.146534 -23.878125 
L 66.480964 -23.878125 
L 63.170127 -23.878125 
L 59.504557 -23.878125 
z
" style="stroke: #3b8d8a; stroke-opacity: 0.09"/>
    </defs>
    <g clip-path="url(#pc08c09b78a)">
     <use xlink:href="#m56823b308e" x="0" y="295.235469" style="fill: #3b8d8a; fill-opacity: 0.09; stroke: #3b8d8a; stroke-opacity: 0.09"/>
    </g>
   </g>
   <g id="matplotlib.axis_1">
    <g id="xtick_1">
     <g id="line2d_1">
      <defs>
       <path id="ma5ae1ab218" d="M 0 0 
L 0 3.5 
" style="stroke: #687486; stroke-width: 0.8"/>
      </defs>
      <g>
       <use xlink:href="#ma5ae1ab218" x="145.941063" y="271.357344" style="fill: #687486; stroke: #687486; stroke-width: 0.8"/>
      </g>
     </g>
     <g id="text_1">
      <!-- 2013 -->
      <g style="fill: #687486" transform="translate(133.216063 285.955781) scale(0.1 -0.1)">
       <defs>
        <path id="DejaVuSans-32" d="M 1228 531 
L 3431 531 
L 3431 0 
L 469 0 
L 469 531 
Q 828 903 1448 1529 
Q 2069 2156 2228 2338 
Q 2531 2678 2651 2914 
Q 2772 3150 2772 3378 
Q 2772 3750 2511 3984 
Q 2250 4219 1831 4219 
Q 1534 4219 1204 4116 
Q 875 4013 500 3803 
L 500 4441 
Q 881 4594 1212 4672 
Q 1544 4750 1819 4750 
Q 2544 4750 2975 4387 
Q 3406 4025 3406 3419 
Q 3406 3131 3298 2873 
Q 3191 2616 2906 2266 
Q 2828 2175 2409 1742 
Q 1991 1309 1228 531 
z
" transform="scale(0.015625)"/>
        <path id="DejaVuSans-30" d="M 2034 4250 
Q 1547 4250 1301 3770 
Q 1056 3291 1056 2328 
Q 1056 1369 1301 889 
Q 1547 409 2034 409 
Q 2525 409 2770 889 
Q 3016 1369 3016 2328 
Q 3016 3291 2770 3770 
Q 2525 4250 2034 4250 
z
M 2034 4750 
Q 2819 4750 3233 4129 
Q 3647 3509 3647 2328 
Q 3647 1150 3233 529 
Q 2819 -91 2034 -91 
Q 1250 -91 836 529 
Q 422 1150 422 2328 
Q 422 3509 836 4129 
Q 1250 4750 2034 4750 
z
" transform="scale(0.015625)"/>
        <path id="DejaVuSans-31" d="M 794 531 
L 1825 531 
L 1825 4091 
L 703 3866 
L 703 4441 
L 1819 4666 
L 2450 4666 
L 2450 531 
L 3481 531 
L 3481 0 
L 794 0 
L 794 531 
z
" transform="scale(0.015625)"/>
        <path id="DejaVuSans-33" d="M 2597 2516 
Q 3050 2419 3304 2112 
Q 3559 1806 3559 1356 
Q 3559 666 3084 287 
Q 2609 -91 1734 -91 
Q 1441 -91 1130 -33 
Q 819 25 488 141 
L 488 750 
Q 750 597 1062 519 
Q 1375 441 1716 441 
Q 2309 441 2620 675 
Q 2931 909 2931 1356 
Q 2931 1769 2642 2001 
Q 2353 2234 1838 2234 
L 1294 2234 
L 1294 2753 
L 1863 2753 
Q 2328 2753 2575 2939 
Q 2822 3125 2822 3475 
Q 2822 3834 2567 4026 
Q 2313 4219 1838 4219 
Q 1578 4219 1281 4162 
Q 984 4106 628 3988 
L 628 4550 
Q 988 4650 1302 4700 
Q 1616 4750 1894 4750 
Q 2613 4750 3031 4423 
Q 3450 4097 3450 3541 
Q 3450 3153 3228 2886 
Q 3006 2619 2597 2516 
z
" transform="scale(0.015625)"/>
       </defs>
       <use xlink:href="#DejaVuSans-32"/>
       <use xlink:href="#DejaVuSans-30" transform="translate(63.623047 0)"/>
       <use xlink:href="#DejaVuSans-31" transform="translate(127.246094 0)"/>
       <use xlink:href="#DejaVuSans-33" transform="translate(190.869141 0)"/>
      </g>
     </g>
    </g>
    <g id="xtick_2">
     <g id="line2d_2">
      <g>
       <use xlink:href="#ma5ae1ab218" x="275.418455" y="271.357344" style="fill: #687486; stroke: #687486; stroke-width: 0.8"/>
      </g>
     </g>
     <g id="text_2">
      <!-- 2016 -->
      <g style="fill: #687486" transform="translate(262.693455 285.955781) scale(0.1 -0.1)">
       <defs>
        <path id="DejaVuSans-36" d="M 2113 2584 
Q 1688 2584 1439 2293 
Q 1191 2003 1191 1497 
Q 1191 994 1439 701 
Q 1688 409 2113 409 
Q 2538 409 2786 701 
Q 3034 994 3034 1497 
Q 3034 2003 2786 2293 
Q 2538 2584 2113 2584 
z
M 3366 4563 
L 3366 3988 
Q 3128 4100 2886 4159 
Q 2644 4219 2406 4219 
Q 1781 4219 1451 3797 
Q 1122 3375 1075 2522 
Q 1259 2794 1537 2939 
Q 1816 3084 2150 3084 
Q 2853 3084 3261 2657 
Q 3669 2231 3669 1497 
Q 3669 778 3244 343 
Q 2819 -91 2113 -91 
Q 1303 -91 875 529 
Q 447 1150 447 2328 
Q 447 3434 972 4092 
Q 1497 4750 2381 4750 
Q 2619 4750 2861 4703 
Q 3103 4656 3366 4563 
z
" transform="scale(0.015625)"/>
       </defs>
       <use xlink:href="#DejaVuSans-32"/>
       <use xlink:href="#DejaVuSans-30" transform="translate(63.623047 0)"/>
       <use xlink:href="#DejaVuSans-31" transform="translate(127.246094 0)"/>
       <use xlink:href="#DejaVuSans-36" transform="translate(190.869141 0)"/>
      </g>
     </g>
    </g>
    <g id="xtick_3">
     <g id="line2d_3">
      <g>
       <use xlink:href="#ma5ae1ab218" x="405.014091" y="271.357344" style="fill: #687486; stroke: #687486; stroke-width: 0.8"/>
      </g>
     </g>
     <g id="text_3">
      <!-- 2019 -->
      <g style="fill: #687486" transform="translate(392.289091 285.955781) scale(0.1 -0.1)">
       <defs>
        <path id="DejaVuSans-39" d="M 703 97 
L 703 672 
Q 941 559 1184 500 
Q 1428 441 1663 441 
Q 2288 441 2617 861 
Q 2947 1281 2994 2138 
Q 2813 1869 2534 1725 
Q 2256 1581 1919 1581 
Q 1219 1581 811 2004 
Q 403 2428 403 3163 
Q 403 3881 828 4315 
Q 1253 4750 1959 4750 
Q 2769 4750 3195 4129 
Q 3622 3509 3622 2328 
Q 3622 1225 3098 567 
Q 2575 -91 1691 -91 
Q 1453 -91 1209 -44 
Q 966 3 703 97 
z
M 1959 2075 
Q 2384 2075 2632 2365 
Q 2881 2656 2881 3163 
Q 2881 3666 2632 3958 
Q 2384 4250 1959 4250 
Q 1534 4250 1286 3958 
Q 1038 3666 1038 3163 
Q 1038 2656 1286 2365 
Q 1534 2075 1959 2075 
z
" transform="scale(0.015625)"/>
       </defs>
       <use xlink:href="#DejaVuSans-32"/>
       <use xlink:href="#DejaVuSans-30" transform="translate(63.623047 0)"/>
       <use xlink:href="#DejaVuSans-31" transform="translate(127.246094 0)"/>
       <use xlink:href="#DejaVuSans-39" transform="translate(190.869141 0)"/>
      </g>
     </g>
    </g>
    <g id="xtick_4">
     <g id="line2d_4">
      <g>
       <use xlink:href="#ma5ae1ab218" x="534.609727" y="271.357344" style="fill: #687486; stroke: #687486; stroke-width: 0.8"/>
      </g>
     </g>
     <g id="text_4">
      <!-- 2022 -->
      <g style="fill: #687486" transform="translate(521.884727 285.955781) scale(0.1 -0.1)">
       <use xlink:href="#DejaVuSans-32"/>
       <use xlink:href="#DejaVuSans-30" transform="translate(63.623047 0)"/>
       <use xlink:href="#DejaVuSans-32" transform="translate(127.246094 0)"/>
       <use xlink:href="#DejaVuSans-32" transform="translate(190.869141 0)"/>
      </g>
     </g>
    </g>
    <g id="xtick_5">
     <g id="line2d_5">
      <g>
       <use xlink:href="#ma5ae1ab218" x="664.205363" y="271.357344" style="fill: #687486; stroke: #687486; stroke-width: 0.8"/>
      </g>
     </g>
     <g id="text_5">
      <!-- 2025 -->
      <g style="fill: #687486" transform="translate(651.480363 285.955781) scale(0.1 -0.1)">
       <defs>
        <path id="DejaVuSans-35" d="M 691 4666 
L 3169 4666 
L 3169 4134 
L 1269 4134 
L 1269 2991 
Q 1406 3038 1543 3061 
Q 1681 3084 1819 3084 
Q 2600 3084 3056 2656 
Q 3513 2228 3513 1497 
Q 3513 744 3044 326 
Q 2575 -91 1722 -91 
Q 1428 -91 1123 -41 
Q 819 9 494 109 
L 494 744 
Q 775 591 1075 516 
Q 1375 441 1709 441 
Q 2250 441 2565 725 
Q 2881 1009 2881 1497 
Q 2881 1984 2565 2268 
Q 2250 2553 1709 2553 
Q 1456 2553 1204 2497 
Q 953 2441 691 2322 
L 691 4666 
z
" transform="scale(0.015625)"/>
       </defs>
       <use xlink:href="#DejaVuSans-32"/>
       <use xlink:href="#DejaVuSans-30" transform="translate(63.623047 0)"/>
       <use xlink:href="#DejaVuSans-32" transform="translate(127.246094 0)"/>
       <use xlink:href="#DejaVuSans-35" transform="translate(190.869141 0)"/>
      </g>
     </g>
    </g>
   </g>
   <g id="matplotlib.axis_2">
    <g id="ytick_1">
     <g id="line2d_6">
      <path d="M 49.465625 270.317341 
L 738.805625 270.317341 
" clip-path="url(#pc08c09b78a)" style="fill: none; stroke: #e9eef2; stroke-width: 0.85; stroke-linecap: square"/>
     </g>
     <g id="line2d_7"/>
     <g id="text_6">
      <!-- 70 -->
      <g style="fill: #687486" transform="translate(33.240625 274.11656) scale(0.1 -0.1)">
       <defs>
        <path id="DejaVuSans-37" d="M 525 4666 
L 3525 4666 
L 3525 4397 
L 1831 0 
L 1172 0 
L 2766 4134 
L 525 4134 
L 525 4666 
z
" transform="scale(0.015625)"/>
       </defs>
       <use xlink:href="#DejaVuSans-37"/>
       <use xlink:href="#DejaVuSans-30" transform="translate(63.623047 0)"/>
      </g>
     </g>
    </g>
    <g id="ytick_2">
     <g id="line2d_8">
      <path d="M 49.465625 244.976141 
L 738.805625 244.976141 
" clip-path="url(#pc08c09b78a)" style="fill: none; stroke: #e9eef2; stroke-width: 0.85; stroke-linecap: square"/>
     </g>
     <g id="line2d_9"/>
     <g id="text_7">
      <!-- 75 -->
      <g style="fill: #687486" transform="translate(33.240625 248.77536) scale(0.1 -0.1)">
       <use xlink:href="#DejaVuSans-37"/>
       <use xlink:href="#DejaVuSans-35" transform="translate(63.623047 0)"/>
      </g>
     </g>
    </g>
    <g id="ytick_3">
     <g id="line2d_10">
      <path d="M 49.465625 219.634941 
L 738.805625 219.634941 
" clip-path="url(#pc08c09b78a)" style="fill: none; stroke: #e9eef2; stroke-width: 0.85; stroke-linecap: square"/>
     </g>
     <g id="line2d_11"/>
     <g id="text_8">
      <!-- 80 -->
      <g style="fill: #687486" transform="translate(33.240625 223.43416) scale(0.1 -0.1)">
       <defs>
        <path id="DejaVuSans-38" d="M 2034 2216 
Q 1584 2216 1326 1975 
Q 1069 1734 1069 1313 
Q 1069 891 1326 650 
Q 1584 409 2034 409 
Q 2484 409 2743 651 
Q 3003 894 3003 1313 
Q 3003 1734 2745 1975 
Q 2488 2216 2034 2216 
z
M 1403 2484 
Q 997 2584 770 2862 
Q 544 3141 544 3541 
Q 544 4100 942 4425 
Q 1341 4750 2034 4750 
Q 2731 4750 3128 4425 
Q 3525 4100 3525 3541 
Q 3525 3141 3298 2862 
Q 3072 2584 2669 2484 
Q 3125 2378 3379 2068 
Q 3634 1759 3634 1313 
Q 3634 634 3220 271 
Q 2806 -91 2034 -91 
Q 1263 -91 848 271 
Q 434 634 434 1313 
Q 434 1759 690 2068 
Q 947 2378 1403 2484 
z
M 1172 3481 
Q 1172 3119 1398 2916 
Q 1625 2713 2034 2713 
Q 2441 2713 2670 2916 
Q 2900 3119 2900 3481 
Q 2900 3844 2670 4047 
Q 2441 4250 2034 4250 
Q 1625 4250 1398 4047 
Q 1172 3844 1172 3481 
z
" transform="scale(0.015625)"/>
       </defs>
       <use xlink:href="#DejaVuSans-38"/>
       <use xlink:href="#DejaVuSans-30" transform="translate(63.623047 0)"/>
      </g>
     </g>
    </g>
    <g id="ytick_4">
     <g id="line2d_12">
      <path d="M 49.465625 194.293741 
L 738.805625 194.293741 
" clip-path="url(#pc08c09b78a)" style="fill: none; stroke: #e9eef2; stroke-width: 0.85; stroke-linecap: square"/>
     </g>
     <g id="line2d_13"/>
     <g id="text_9">
      <!-- 85 -->
      <g style="fill: #687486" transform="translate(33.240625 198.09296) scale(0.1 -0.1)">
       <use xlink:href="#DejaVuSans-38"/>
       <use xlink:href="#DejaVuSans-35" transform="translate(63.623047 0)"/>
      </g>
     </g>
    </g>
    <g id="ytick_5">
     <g id="line2d_14">
      <path d="M 49.465625 168.952541 
L 738.805625 168.952541 
" clip-path="url(#pc08c09b78a)" style="fill: none; stroke: #e9eef2; stroke-width: 0.85; stroke-linecap: square"/>
     </g>
     <g id="line2d_15"/>
     <g id="text_10">
      <!-- 90 -->
      <g style="fill: #687486" transform="translate(33.240625 172.75176) scale(0.1 -0.1)">
       <use xlink:href="#DejaVuSans-39"/>
       <use xlink:href="#DejaVuSans-30" transform="translate(63.623047 0)"/>
      </g>
     </g>
    </g>
    <g id="ytick_6">
     <g id="line2d_16">
      <path d="M 49.465625 143.611341 
L 738.805625 143.611341 
" clip-path="url(#pc08c09b78a)" style="fill: none; stroke: #e9eef2; stroke-width: 0.85; stroke-linecap: square"/>
     </g>
     <g id="line2d_17"/>
     <g id="text_11">
      <!-- 95 -->
      <g style="fill: #687486" transform="translate(33.240625 147.41056) scale(0.1 -0.1)">
       <use xlink:href="#DejaVuSans-39"/>
       <use xlink:href="#DejaVuSans-35" transform="translate(63.623047 0)"/>
      </g>
     </g>
    </g>
    <g id="ytick_7">
     <g id="line2d_18">
      <path d="M 49.465625 118.270141 
L 738.805625 118.270141 
" clip-path="url(#pc08c09b78a)" style="fill: none; stroke: #e9eef2; stroke-width: 0.85; stroke-linecap: square"/>
     </g>
     <g id="line2d_19"/>
     <g id="text_12">
      <!-- 100 -->
      <g style="fill: #687486" transform="translate(26.878125 122.06936) scale(0.1 -0.1)">
       <use xlink:href="#DejaVuSans-31"/>
       <use xlink:href="#DejaVuSans-30" transform="translate(63.623047 0)"/>
       <use xlink:href="#DejaVuSans-30" transform="translate(127.246094 0)"/>
      </g>
     </g>
    </g>
    <g id="ytick_8">
     <g id="line2d_20">
      <path d="M 49.465625 92.928941 
L 738.805625 92.928941 
" clip-path="url(#pc08c09b78a)" style="fill: none; stroke: #e9eef2; stroke-width: 0.85; stroke-linecap: square"/>
     </g>
     <g id="line2d_21"/>
     <g id="text_13">
      <!-- 105 -->
      <g style="fill: #687486" transform="translate(26.878125 96.72816) scale(0.1 -0.1)">
       <use xlink:href="#DejaVuSans-31"/>
       <use xlink:href="#DejaVuSans-30" transform="translate(63.623047 0)"/>
       <use xlink:href="#DejaVuSans-35" transform="translate(127.246094 0)"/>
      </g>
     </g>
    </g>
    <g id="ytick_9">
     <g id="line2d_22">
      <path d="M 49.465625 67.587741 
L 738.805625 67.587741 
" clip-path="url(#pc08c09b78a)" style="fill: none; stroke: #e9eef2; stroke-width: 0.85; stroke-linecap: square"/>
     </g>
     <g id="line2d_23"/>
     <g id="text_14">
      <!-- 110 -->
      <g style="fill: #687486" transform="translate(26.878125 71.38696) scale(0.1 -0.1)">
       <use xlink:href="#DejaVuSans-31"/>
       <use xlink:href="#DejaVuSans-31" transform="translate(63.623047 0)"/>
       <use xlink:href="#DejaVuSans-30" transform="translate(127.246094 0)"/>
      </g>
     </g>
    </g>
    <g id="text_15">
     <!-- Index level -->
     <g style="fill: #687486" transform="translate(14.798438 185.983437) rotate(-90) scale(0.1 -0.1)">
      <defs>
       <path id="DejaVuSans-49" d="M 628 4666 
L 1259 4666 
L 1259 0 
L 628 0 
L 628 4666 
z
" transform="scale(0.015625)"/>
       <path id="DejaVuSans-6e" d="M 3513 2113 
L 3513 0 
L 2938 0 
L 2938 2094 
Q 2938 2591 2744 2837 
Q 2550 3084 2163 3084 
Q 1697 3084 1428 2787 
Q 1159 2491 1159 1978 
L 1159 0 
L 581 0 
L 581 3500 
L 1159 3500 
L 1159 2956 
Q 1366 3272 1645 3428 
Q 1925 3584 2291 3584 
Q 2894 3584 3203 3211 
Q 3513 2838 3513 2113 
z
" transform="scale(0.015625)"/>
       <path id="DejaVuSans-64" d="M 2906 2969 
L 2906 4863 
L 3481 4863 
L 3481 0 
L 2906 0 
L 2906 525 
Q 2725 213 2448 61 
Q 2172 -91 1784 -91 
Q 1150 -91 751 415 
Q 353 922 353 1747 
Q 353 2572 751 3078 
Q 1150 3584 1784 3584 
Q 2172 3584 2448 3432 
Q 2725 3281 2906 2969 
z
M 947 1747 
Q 947 1113 1208 752 
Q 1469 391 1925 391 
Q 2381 391 2643 752 
Q 2906 1113 2906 1747 
Q 2906 2381 2643 2742 
Q 2381 3103 1925 3103 
Q 1469 3103 1208 2742 
Q 947 2381 947 1747 
z
" transform="scale(0.015625)"/>
       <path id="DejaVuSans-65" d="M 3597 1894 
L 3597 1613 
L 953 1613 
Q 991 1019 1311 708 
Q 1631 397 2203 397 
Q 2534 397 2845 478 
Q 3156 559 3463 722 
L 3463 178 
Q 3153 47 2828 -22 
Q 2503 -91 2169 -91 
Q 1331 -91 842 396 
Q 353 884 353 1716 
Q 353 2575 817 3079 
Q 1281 3584 2069 3584 
Q 2775 3584 3186 3129 
Q 3597 2675 3597 1894 
z
M 3022 2063 
Q 3016 2534 2758 2815 
Q 2500 3097 2075 3097 
Q 1594 3097 1305 2825 
Q 1016 2553 972 2059 
L 3022 2063 
z
" transform="scale(0.015625)"/>
       <path id="DejaVuSans-78" d="M 3513 3500 
L 2247 1797 
L 3578 0 
L 2900 0 
L 1881 1375 
L 863 0 
L 184 0 
L 1544 1831 
L 300 3500 
L 978 3500 
L 1906 2253 
L 2834 3500 
L 3513 3500 
z
" transform="scale(0.015625)"/>
       <path id="DejaVuSans-20" transform="scale(0.015625)"/>
       <path id="DejaVuSans-6c" d="M 603 4863 
L 1178 4863 
L 1178 0 
L 603 0 
L 603 4863 
z
" transform="scale(0.015625)"/>
       <path id="DejaVuSans-76" d="M 191 3500 
L 800 3500 
L 1894 563 
L 2988 3500 
L 3597 3500 
L 2284 0 
L 1503 0 
L 191 3500 
z
" transform="scale(0.015625)"/>
      </defs>
      <use xlink:href="#DejaVuSans-49"/>
      <use xlink:href="#DejaVuSans-6e" transform="translate(29.492188 0)"/>
      <use xlink:href="#DejaVuSans-64" transform="translate(92.871094 0)"/>
      <use xlink:href="#DejaVuSans-65" transform="translate(156.347656 0)"/>
      <use xlink:href="#DejaVuSans-78" transform="translate(216.121094 0)"/>
      <use xlink:href="#DejaVuSans-20" transform="translate(275.300781 0)"/>
      <use xlink:href="#DejaVuSans-6c" transform="translate(307.087891 0)"/>
      <use xlink:href="#DejaVuSans-65" transform="translate(334.871094 0)"/>
      <use xlink:href="#DejaVuSans-76" transform="translate(396.394531 0)"/>
      <use xlink:href="#DejaVuSans-65" transform="translate(455.574219 0)"/>
      <use xlink:href="#DejaVuSans-6c" transform="translate(517.097656 0)"/>
     </g>
    </g>
   </g>
   <g id="line2d_24">
    <path d="M 59.504557 231.089175 
L 63.170127 235.397171 
L 66.480964 240.617452 
L 70.146534 255.467397 
L 73.69386 246.800711 
L 77.35943 248.523894 
L 80.906756 250.551198 
L 84.572326 249.385524 
L 88.237896 226.983874 
L 91.785222 239.04631 
L 95.450792 227.794811 
L 98.998118 218.77335 
L 102.663688 223.28408 
L 106.329258 226.071589 
L 109.758339 225.057957 
L 113.423909 225.767507 
L 116.971235 204.227487 
L 120.636805 211.272338 
L 124.184131 206.254791 
L 127.849701 213.299641 
L 131.515271 219.939023 
L 135.062597 220.04041 
L 138.728167 218.874698 
L 142.275493 220.800654 
L 145.941063 223.638856 
L 149.606633 209.599809 
L 152.91747 204.480914 
L 156.58304 210.866869 
L 160.130366 202.504304 
L 163.795936 203.56863 
L 167.343262 212.286009 
L 171.008832 209.042338 
L 174.674402 218.519922 
L 178.221727 218.621309 
L 181.887297 216.188537 
L 185.434623 219.432207 
L 189.100193 213.198293 
L 192.765763 220.74996 
L 196.076601 219.128125 
L 199.742171 222.219755 
L 203.289496 217.759679 
L 206.955066 220.74996 
L 210.502392 212.235316 
L 214.167962 205.697281 
L 217.833532 189.529583 
L 221.380858 184.765464 
L 225.046428 177.264452 
L 228.593754 167.584133 
L 232.259324 144.624974 
L 235.924894 142.344281 
L 239.235731 126.582051 
L 242.901301 145.638645 
L 246.448627 133.930984 
L 250.114197 141.127914 
L 253.661523 131.599598 
L 257.327093 138.796528 
L 260.992663 136.769225 
L 264.539989 133.728288 
L 268.205559 117.408549 
L 271.752885 125.213644 
L 275.418455 120.246751 
L 279.084025 127.342295 
L 282.513106 145.689338 
L 286.178676 153.342353 
L 289.726002 139.100611 
L 293.391572 137.833551 
L 296.938898 140.92518 
L 300.604468 138.441753 
L 304.270038 141.279955 
L 311.482934 110.667781 
L 315.030259 106.15705 
L 318.695829 120.753568 
L 322.361399 112.593698 
L 325.672237 116.496265 
L 329.337807 123.084954 
L 332.885133 133.880329 
L 336.550703 140.266284 
L 340.098029 154.457372 
L 343.763599 155.42035 
L 347.429169 153.342353 
L 350.976494 145.892034 
L 354.642064 153.697128 
L 358.18939 158.207858 
L 361.85496 173.361924 
L 365.52053 165.860912 
L 368.831368 169.104582 
L 372.496938 159.626998 
L 376.044263 148.730274 
L 379.709833 145.486604 
L 383.257159 146.196154 
L 386.922729 142.901791 
L 390.588299 142.648363 
L 394.135625 132.816004 
L 397.801195 132.106453 
L 401.348521 137.68151 
L 405.014091 140.671753 
L 408.679661 137.732164 
L 411.990498 132.05576 
L 415.656068 131.042089 
L 419.203394 129.673681 
L 422.868964 137.884244 
L 426.41629 125.771153 
L 430.08186 123.743849 
L 433.74743 121.412464 
L 437.294756 131.700985 
L 440.960326 127.038213 
L 444.507651 136.566491 
L 448.173221 131.49825 
L 451.838791 127.747764 
L 455.267873 123.084954 
L 458.933443 123.237033 
L 462.480769 126.683438 
L 466.146339 131.49825 
L 469.693665 151.264394 
L 473.359235 158.106511 
L 477.024805 149.237091 
L 480.572131 148.476847 
L 484.237701 159.474918 
L 487.785026 169.256623 
L 491.450596 166.012953 
L 495.116166 164.239076 
L 498.427004 152.582109 
L 502.092574 162.4652 
L 505.6399 169.763478 
L 509.30547 156.586023 
L 512.852795 157.95447 
L 516.518365 155.623084 
L 520.183935 147.412521 
L 523.731261 148.071378 
L 527.396831 138.593794 
L 530.944157 140.21563 
L 534.609727 135.806247 
L 538.275297 134.944655 
L 541.586134 126.835479 
L 545.251704 103.268155 
L 548.79903 109.400721 
L 552.4646 94.500083 
L 556.011926 88.367517 
L 559.677496 74.176468 
L 563.343066 56.843058 
L 566.890392 59.83334 
L 570.555962 88.114128 
L 574.103288 100.429953 
L 577.768858 107.626845 
L 581.434428 93.587798 
L 584.745265 105.548848 
L 588.410835 109.806189 
L 591.958161 96.375346 
L 595.623731 103.521544 
L 599.171057 108.843211 
L 602.836627 99.923098 
L 606.502197 86.999109 
L 610.049523 84.515644 
L 613.715093 100.531301 
L 617.262418 111.529372 
L 620.927988 101.697013 
L 624.593558 97.186244 
L 628.02264 95.209633 
L 631.68821 86.745682 
L 635.235536 94.601469 
L 638.901106 88.519558 
L 642.448432 97.490365 
L 646.114002 109.654148 
L 649.779572 114.31692 
L 653.326897 98.098529 
L 656.992467 89.178454 
L 660.539793 75.240794 
L 664.205363 75.848958 
L 667.870933 79.700831 
L 671.181771 96.932855 
L 674.847341 120.956302 
L 678.394666 121.665852 
L 682.060236 134.083064 
L 685.607562 118.1181 
L 689.273132 129.572333 
L 692.938702 129.572333 
L 696.486028 119.283773 
L 700.151598 121.006995 
L 703.698924 126.98752 
L 707.364494 133.525554 
L 711.030064 130.383232 
L 714.340901 118.472875 
L 718.006471 128.001153 
L 721.553797 123.794504 
L 725.219367 112.238923 
L 728.766693 112.771105 
L 728.766693 112.771105 
" clip-path="url(#pc08c09b78a)" style="fill: none; opacity: 0.1; stroke: #3b8d8a; stroke-width: 4.5; stroke-linecap: round"/>
    <path d="M 59.504557 231.089175 
L 63.170127 235.397171 
L 66.480964 240.617452 
L 70.146534 255.467397 
L 73.69386 246.800711 
L 77.35943 248.523894 
L 80.906756 250.551198 
L 84.572326 249.385524 
L 88.237896 226.983874 
L 91.785222 239.04631 
L 95.450792 227.794811 
L 98.998118 218.77335 
L 102.663688 223.28408 
L 106.329258 226.071589 
L 109.758339 225.057957 
L 113.423909 225.767507 
L 116.971235 204.227487 
L 120.636805 211.272338 
L 124.184131 206.254791 
L 127.849701 213.299641 
L 131.515271 219.939023 
L 135.062597 220.04041 
L 138.728167 218.874698 
L 142.275493 220.800654 
L 145.941063 223.638856 
L 149.606633 209.599809 
L 152.91747 204.480914 
L 156.58304 210.866869 
L 160.130366 202.504304 
L 163.795936 203.56863 
L 167.343262 212.286009 
L 171.008832 209.042338 
L 174.674402 218.519922 
L 178.221727 218.621309 
L 181.887297 216.188537 
L 185.434623 219.432207 
L 189.100193 213.198293 
L 192.765763 220.74996 
L 196.076601 219.128125 
L 199.742171 222.219755 
L 203.289496 217.759679 
L 206.955066 220.74996 
L 210.502392 212.235316 
L 214.167962 205.697281 
L 217.833532 189.529583 
L 221.380858 184.765464 
L 225.046428 177.264452 
L 228.593754 167.584133 
L 232.259324 144.624974 
L 235.924894 142.344281 
L 239.235731 126.582051 
L 242.901301 145.638645 
L 246.448627 133.930984 
L 250.114197 141.127914 
L 253.661523 131.599598 
L 257.327093 138.796528 
L 260.992663 136.769225 
L 264.539989 133.728288 
L 268.205559 117.408549 
L 271.752885 125.213644 
L 275.418455 120.246751 
L 279.084025 127.342295 
L 282.513106 145.689338 
L 286.178676 153.342353 
L 289.726002 139.100611 
L 293.391572 137.833551 
L 296.938898 140.92518 
L 300.604468 138.441753 
L 304.270038 141.279955 
L 311.482934 110.667781 
L 315.030259 106.15705 
L 318.695829 120.753568 
L 322.361399 112.593698 
L 325.672237 116.496265 
L 329.337807 123.084954 
L 332.885133 133.880329 
L 336.550703 140.266284 
L 340.098029 154.457372 
L 343.763599 155.42035 
L 347.429169 153.342353 
L 350.976494 145.892034 
L 354.642064 153.697128 
L 358.18939 158.207858 
L 361.85496 173.361924 
L 365.52053 165.860912 
L 368.831368 169.104582 
L 372.496938 159.626998 
L 376.044263 148.730274 
L 379.709833 145.486604 
L 383.257159 146.196154 
L 386.922729 142.901791 
L 390.588299 142.648363 
L 394.135625 132.816004 
L 397.801195 132.106453 
L 401.348521 137.68151 
L 405.014091 140.671753 
L 408.679661 137.732164 
L 411.990498 132.05576 
L 415.656068 131.042089 
L 419.203394 129.673681 
L 422.868964 137.884244 
L 426.41629 125.771153 
L 430.08186 123.743849 
L 433.74743 121.412464 
L 437.294756 131.700985 
L 440.960326 127.038213 
L 444.507651 136.566491 
L 448.173221 131.49825 
L 451.838791 127.747764 
L 455.267873 123.084954 
L 458.933443 123.237033 
L 462.480769 126.683438 
L 466.146339 131.49825 
L 469.693665 151.264394 
L 473.359235 158.106511 
L 477.024805 149.237091 
L 480.572131 148.476847 
L 484.237701 159.474918 
L 487.785026 169.256623 
L 491.450596 166.012953 
L 495.116166 164.239076 
L 498.427004 152.582109 
L 502.092574 162.4652 
L 505.6399 169.763478 
L 509.30547 156.586023 
L 512.852795 157.95447 
L 516.518365 155.623084 
L 520.183935 147.412521 
L 523.731261 148.071378 
L 527.396831 138.593794 
L 530.944157 140.21563 
L 534.609727 135.806247 
L 538.275297 134.944655 
L 541.586134 126.835479 
L 545.251704 103.268155 
L 548.79903 109.400721 
L 552.4646 94.500083 
L 556.011926 88.367517 
L 559.677496 74.176468 
L 563.343066 56.843058 
L 566.890392 59.83334 
L 570.555962 88.114128 
L 574.103288 100.429953 
L 577.768858 107.626845 
L 581.434428 93.587798 
L 584.745265 105.548848 
L 588.410835 109.806189 
L 591.958161 96.375346 
L 595.623731 103.521544 
L 599.171057 108.843211 
L 602.836627 99.923098 
L 606.502197 86.999109 
L 610.049523 84.515644 
L 613.715093 100.531301 
L 617.262418 111.529372 
L 620.927988 101.697013 
L 624.593558 97.186244 
L 628.02264 95.209633 
L 631.68821 86.745682 
L 635.235536 94.601469 
L 638.901106 88.519558 
L 642.448432 97.490365 
L 646.114002 109.654148 
L 649.779572 114.31692 
L 653.326897 98.098529 
L 656.992467 89.178454 
L 660.539793 75.240794 
L 664.205363 75.848958 
L 667.870933 79.700831 
L 671.181771 96.932855 
L 674.847341 120.956302 
L 678.394666 121.665852 
L 682.060236 134.083064 
L 685.607562 118.1181 
L 689.273132 129.572333 
L 692.938702 129.572333 
L 696.486028 119.283773 
L 700.151598 121.006995 
L 703.698924 126.98752 
L 707.364494 133.525554 
L 711.030064 130.383232 
L 714.340901 118.472875 
L 718.006471 128.001153 
L 721.553797 123.794504 
L 725.219367 112.238923 
L 728.766693 112.771105 
L 728.766693 112.771105 
" clip-path="url(#pc08c09b78a)" style="fill: none; stroke: #3b8d8a; stroke-width: 2.7; stroke-linecap: round"/>
   </g>
   <g id="patch_3">
    <path d="M 49.465625 271.357344 
L 738.805625 271.357344 
" style="fill: none; stroke: #dce4eb; stroke-width: 0.8; stroke-linejoin: miter; stroke-linecap: square"/>
   </g>
   <g id="text_16">
    <!-- Monthly trend · Jan 2011 to Jul 2026 -->
    <g style="fill: #7a8594" transform="translate(49.465625 38.614625) scale(0.09 -0.09)">
     <defs>
      <path id="DejaVuSans-4d" d="M 628 4666 
L 1569 4666 
L 2759 1491 
L 3956 4666 
L 4897 4666 
L 4897 0 
L 4281 0 
L 4281 4097 
L 3078 897 
L 2444 897 
L 1241 4097 
L 1241 0 
L 628 0 
L 628 4666 
z
" transform="scale(0.015625)"/>
      <path id="DejaVuSans-6f" d="M 1959 3097 
Q 1497 3097 1228 2736 
Q 959 2375 959 1747 
Q 959 1119 1226 758 
Q 1494 397 1959 397 
Q 2419 397 2687 759 
Q 2956 1122 2956 1747 
Q 2956 2369 2687 2733 
Q 2419 3097 1959 3097 
z
M 1959 3584 
Q 2709 3584 3137 3096 
Q 3566 2609 3566 1747 
Q 3566 888 3137 398 
Q 2709 -91 1959 -91 
Q 1206 -91 779 398 
Q 353 888 353 1747 
Q 353 2609 779 3096 
Q 1206 3584 1959 3584 
z
" transform="scale(0.015625)"/>
      <path id="DejaVuSans-74" d="M 1172 4494 
L 1172 3500 
L 2356 3500 
L 2356 3053 
L 1172 3053 
L 1172 1153 
Q 1172 725 1289 603 
Q 1406 481 1766 481 
L 2356 481 
L 2356 0 
L 1766 0 
Q 1100 0 847 248 
Q 594 497 594 1153 
L 594 3053 
L 172 3053 
L 172 3500 
L 594 3500 
L 594 4494 
L 1172 4494 
z
" transform="scale(0.015625)"/>
      <path id="DejaVuSans-68" d="M 3513 2113 
L 3513 0 
L 2938 0 
L 2938 2094 
Q 2938 2591 2744 2837 
Q 2550 3084 2163 3084 
Q 1697 3084 1428 2787 
Q 1159 2491 1159 1978 
L 1159 0 
L 581 0 
L 581 4863 
L 1159 4863 
L 1159 2956 
Q 1366 3272 1645 3428 
Q 1925 3584 2291 3584 
Q 2894 3584 3203 3211 
Q 3513 2838 3513 2113 
z
" transform="scale(0.015625)"/>
      <path id="DejaVuSans-79" d="M 2059 -325 
Q 1816 -950 1584 -1140 
Q 1353 -1331 966 -1331 
L 506 -1331 
L 506 -850 
L 844 -850 
Q 1081 -850 1212 -737 
Q 1344 -625 1503 -206 
L 1606 56 
L 191 3500 
L 800 3500 
L 1894 763 
L 2988 3500 
L 3597 3500 
L 2059 -325 
z
" transform="scale(0.015625)"/>
      <path id="DejaVuSans-72" d="M 2631 2963 
Q 2534 3019 2420 3045 
Q 2306 3072 2169 3072 
Q 1681 3072 1420 2755 
Q 1159 2438 1159 1844 
L 1159 0 
L 581 0 
L 581 3500 
L 1159 3500 
L 1159 2956 
Q 1341 3275 1631 3429 
Q 1922 3584 2338 3584 
Q 2397 3584 2469 3576 
Q 2541 3569 2628 3553 
L 2631 2963 
z
" transform="scale(0.015625)"/>
      <path id="DejaVuSans-b7" d="M 684 2619 
L 1344 2619 
L 1344 1825 
L 684 1825 
L 684 2619 
z
" transform="scale(0.015625)"/>
      <path id="DejaVuSans-4a" d="M 628 4666 
L 1259 4666 
L 1259 325 
Q 1259 -519 939 -900 
Q 619 -1281 -91 -1281 
L -331 -1281 
L -331 -750 
L -134 -750 
Q 284 -750 456 -515 
Q 628 -281 628 325 
L 628 4666 
z
" transform="scale(0.015625)"/>
      <path id="DejaVuSans-61" d="M 2194 1759 
Q 1497 1759 1228 1600 
Q 959 1441 959 1056 
Q 959 750 1161 570 
Q 1363 391 1709 391 
Q 2188 391 2477 730 
Q 2766 1069 2766 1631 
L 2766 1759 
L 2194 1759 
z
M 3341 1997 
L 3341 0 
L 2766 0 
L 2766 531 
Q 2569 213 2275 61 
Q 1981 -91 1556 -91 
Q 1019 -91 701 211 
Q 384 513 384 1019 
Q 384 1609 779 1909 
Q 1175 2209 1959 2209 
L 2766 2209 
L 2766 2266 
Q 2766 2663 2505 2880 
Q 2244 3097 1772 3097 
Q 1472 3097 1187 3025 
Q 903 2953 641 2809 
L 641 3341 
Q 956 3463 1253 3523 
Q 1550 3584 1831 3584 
Q 2591 3584 2966 3190 
Q 3341 2797 3341 1997 
z
" transform="scale(0.015625)"/>
      <path id="DejaVuSans-75" d="M 544 1381 
L 544 3500 
L 1119 3500 
L 1119 1403 
Q 1119 906 1312 657 
Q 1506 409 1894 409 
Q 2359 409 2629 706 
Q 2900 1003 2900 1516 
L 2900 3500 
L 3475 3500 
L 3475 0 
L 2900 0 
L 2900 538 
Q 2691 219 2414 64 
Q 2138 -91 1772 -91 
Q 1169 -91 856 284 
Q 544 659 544 1381 
z
M 1991 3584 
L 1991 3584 
z
" transform="scale(0.015625)"/>
     </defs>
     <use xlink:href="#DejaVuSans-4d"/>
     <use xlink:href="#DejaVuSans-6f" transform="translate(86.279297 0)"/>
     <use xlink:href="#DejaVuSans-6e" transform="translate(147.460938 0)"/>
     <use xlink:href="#DejaVuSans-74" transform="translate(210.839844 0)"/>
     <use xlink:href="#DejaVuSans-68" transform="translate(250.048828 0)"/>
     <use xlink:href="#DejaVuSans-6c" transform="translate(313.427734 0)"/>
     <use xlink:href="#DejaVuSans-79" transform="translate(341.210938 0)"/>
     <use xlink:href="#DejaVuSans-20" transform="translate(400.390625 0)"/>
     <use xlink:href="#DejaVuSans-74" transform="translate(432.177734 0)"/>
     <use xlink:href="#DejaVuSans-72" transform="translate(471.386719 0)"/>
     <use xlink:href="#DejaVuSans-65" transform="translate(510.25 0)"/>
     <use xlink:href="#DejaVuSans-6e" transform="translate(571.773438 0)"/>
     <use xlink:href="#DejaVuSans-64" transform="translate(635.152344 0)"/>
     <use xlink:href="#DejaVuSans-20" transform="translate(698.628906 0)"/>
     <use xlink:href="#DejaVuSans-b7" transform="translate(730.416016 0)"/>
     <use xlink:href="#DejaVuSans-20" transform="translate(762.203125 0)"/>
     <use xlink:href="#DejaVuSans-4a" transform="translate(793.990234 0)"/>
     <use xlink:href="#DejaVuSans-61" transform="translate(823.482422 0)"/>
     <use xlink:href="#DejaVuSans-6e" transform="translate(884.761719 0)"/>
     <use xlink:href="#DejaVuSans-20" transform="translate(948.140625 0)"/>
     <use xlink:href="#DejaVuSans-32" transform="translate(979.927734 0)"/>
     <use xlink:href="#DejaVuSans-30" transform="translate(1043.550781 0)"/>
     <use xlink:href="#DejaVuSans-31" transform="translate(1107.173828 0)"/>
     <use xlink:href="#DejaVuSans-31" transform="translate(1170.796875 0)"/>
     <use xlink:href="#DejaVuSans-20" transform="translate(1234.419922 0)"/>
     <use xlink:href="#DejaVuSans-74" transform="translate(1266.207031 0)"/>
     <use xlink:href="#DejaVuSans-6f" transform="translate(1305.416016 0)"/>
     <use xlink:href="#DejaVuSans-20" transform="translate(1366.597656 0)"/>
     <use xlink:href="#DejaVuSans-4a" transform="translate(1398.384766 0)"/>
     <use xlink:href="#DejaVuSans-75" transform="translate(1427.876953 0)"/>
     <use xlink:href="#DejaVuSans-6c" transform="translate(1491.255859 0)"/>
     <use xlink:href="#DejaVuSans-20" transform="translate(1519.039062 0)"/>
     <use xlink:href="#DejaVuSans-32" transform="translate(1550.826172 0)"/>
     <use xlink:href="#DejaVuSans-30" transform="translate(1614.449219 0)"/>
     <use xlink:href="#DejaVuSans-32" transform="translate(1678.072266 0)"/>
     <use xlink:href="#DejaVuSans-36" transform="translate(1741.695312 0)"/>
    </g>
   </g>
   <g id="text_17">
    <!-- 101.08 -->
    <g style="fill: #3b8d8a" transform="translate(680.924375 24.978612) scale(0.15 -0.15)">
     <defs>
      <path id="DejaVuSans-Bold-31" d="M 750 831 
L 1813 831 
L 1813 3847 
L 722 3622 
L 722 4441 
L 1806 4666 
L 2950 4666 
L 2950 831 
L 4013 831 
L 4013 0 
L 750 0 
L 750 831 
z
" transform="scale(0.015625)"/>
      <path id="DejaVuSans-Bold-30" d="M 2944 2338 
Q 2944 3213 2780 3570 
Q 2616 3928 2228 3928 
Q 1841 3928 1675 3570 
Q 1509 3213 1509 2338 
Q 1509 1453 1675 1090 
Q 1841 728 2228 728 
Q 2613 728 2778 1090 
Q 2944 1453 2944 2338 
z
M 4147 2328 
Q 4147 1169 3647 539 
Q 3147 -91 2228 -91 
Q 1306 -91 806 539 
Q 306 1169 306 2328 
Q 306 3491 806 4120 
Q 1306 4750 2228 4750 
Q 3147 4750 3647 4120 
Q 4147 3491 4147 2328 
z
" transform="scale(0.015625)"/>
      <path id="DejaVuSans-Bold-2e" d="M 653 1209 
L 1778 1209 
L 1778 0 
L 653 0 
L 653 1209 
z
" transform="scale(0.015625)"/>
      <path id="DejaVuSans-Bold-38" d="M 2228 2088 
Q 1891 2088 1709 1903 
Q 1528 1719 1528 1375 
Q 1528 1031 1709 848 
Q 1891 666 2228 666 
Q 2563 666 2741 848 
Q 2919 1031 2919 1375 
Q 2919 1722 2741 1905 
Q 2563 2088 2228 2088 
z
M 1350 2484 
Q 925 2613 709 2878 
Q 494 3144 494 3541 
Q 494 4131 934 4440 
Q 1375 4750 2228 4750 
Q 3075 4750 3515 4442 
Q 3956 4134 3956 3541 
Q 3956 3144 3739 2878 
Q 3522 2613 3097 2484 
Q 3572 2353 3814 2058 
Q 4056 1763 4056 1313 
Q 4056 619 3595 264 
Q 3134 -91 2228 -91 
Q 1319 -91 855 264 
Q 391 619 391 1313 
Q 391 1763 633 2058 
Q 875 2353 1350 2484 
z
M 1631 3419 
Q 1631 3141 1786 2991 
Q 1941 2841 2228 2841 
Q 2509 2841 2662 2991 
Q 2816 3141 2816 3419 
Q 2816 3697 2662 3845 
Q 2509 3994 2228 3994 
Q 1941 3994 1786 3844 
Q 1631 3694 1631 3419 
z
" transform="scale(0.015625)"/>
     </defs>
     <use xlink:href="#DejaVuSans-Bold-31"/>
     <use xlink:href="#DejaVuSans-Bold-30" transform="translate(69.580078 0)"/>
     <use xlink:href="#DejaVuSans-Bold-31" transform="translate(139.160156 0)"/>
     <use xlink:href="#DejaVuSans-Bold-2e" transform="translate(208.740234 0)"/>
     <use xlink:href="#DejaVuSans-Bold-30" transform="translate(246.728516 0)"/>
     <use xlink:href="#DejaVuSans-Bold-38" transform="translate(316.308594 0)"/>
    </g>
   </g>
   <g id="text_18">
    <!-- U.S. Dollar Index -->
    <g style="fill: #10233f" transform="translate(49.465625 20.117344) scale(0.17 -0.17)">
     <defs>
      <path id="DejaVuSans-Bold-55" d="M 588 4666 
L 1791 4666 
L 1791 1869 
Q 1791 1291 1980 1042 
Q 2169 794 2597 794 
Q 3028 794 3217 1042 
Q 3406 1291 3406 1869 
L 3406 4666 
L 4609 4666 
L 4609 1869 
Q 4609 878 4112 393 
Q 3616 -91 2597 -91 
Q 1581 -91 1084 393 
Q 588 878 588 1869 
L 588 4666 
z
" transform="scale(0.015625)"/>
      <path id="DejaVuSans-Bold-53" d="M 3834 4519 
L 3834 3531 
Q 3450 3703 3084 3790 
Q 2719 3878 2394 3878 
Q 1963 3878 1756 3759 
Q 1550 3641 1550 3391 
Q 1550 3203 1689 3098 
Q 1828 2994 2194 2919 
L 2706 2816 
Q 3484 2659 3812 2340 
Q 4141 2022 4141 1434 
Q 4141 663 3683 286 
Q 3225 -91 2284 -91 
Q 1841 -91 1394 -6 
Q 947 78 500 244 
L 500 1259 
Q 947 1022 1364 901 
Q 1781 781 2169 781 
Q 2563 781 2772 912 
Q 2981 1044 2981 1288 
Q 2981 1506 2839 1625 
Q 2697 1744 2272 1838 
L 1806 1941 
Q 1106 2091 782 2419 
Q 459 2747 459 3303 
Q 459 4000 909 4375 
Q 1359 4750 2203 4750 
Q 2588 4750 2994 4692 
Q 3400 4634 3834 4519 
z
" transform="scale(0.015625)"/>
      <path id="DejaVuSans-Bold-20" transform="scale(0.015625)"/>
      <path id="DejaVuSans-Bold-44" d="M 1791 3756 
L 1791 909 
L 2222 909 
Q 2959 909 3348 1275 
Q 3738 1641 3738 2338 
Q 3738 3031 3350 3393 
Q 2963 3756 2222 3756 
L 1791 3756 
z
M 588 4666 
L 1856 4666 
Q 2919 4666 3439 4514 
Q 3959 4363 4331 4000 
Q 4659 3684 4818 3271 
Q 4978 2859 4978 2338 
Q 4978 1809 4818 1395 
Q 4659 981 4331 666 
Q 3956 303 3431 151 
Q 2906 0 1856 0 
L 588 0 
L 588 4666 
z
" transform="scale(0.015625)"/>
      <path id="DejaVuSans-Bold-6f" d="M 2203 2784 
Q 1831 2784 1636 2517 
Q 1441 2250 1441 1747 
Q 1441 1244 1636 976 
Q 1831 709 2203 709 
Q 2569 709 2762 976 
Q 2956 1244 2956 1747 
Q 2956 2250 2762 2517 
Q 2569 2784 2203 2784 
z
M 2203 3584 
Q 3106 3584 3614 3096 
Q 4122 2609 4122 1747 
Q 4122 884 3614 396 
Q 3106 -91 2203 -91 
Q 1297 -91 786 396 
Q 275 884 275 1747 
Q 275 2609 786 3096 
Q 1297 3584 2203 3584 
z
" transform="scale(0.015625)"/>
      <path id="DejaVuSans-Bold-6c" d="M 538 4863 
L 1656 4863 
L 1656 0 
L 538 0 
L 538 4863 
z
" transform="scale(0.015625)"/>
      <path id="DejaVuSans-Bold-61" d="M 2106 1575 
Q 1756 1575 1579 1456 
Q 1403 1338 1403 1106 
Q 1403 894 1545 773 
Q 1688 653 1941 653 
Q 2256 653 2472 879 
Q 2688 1106 2688 1447 
L 2688 1575 
L 2106 1575 
z
M 3816 1997 
L 3816 0 
L 2688 0 
L 2688 519 
Q 2463 200 2181 54 
Q 1900 -91 1497 -91 
Q 953 -91 614 226 
Q 275 544 275 1050 
Q 275 1666 698 1953 
Q 1122 2241 2028 2241 
L 2688 2241 
L 2688 2328 
Q 2688 2594 2478 2717 
Q 2269 2841 1825 2841 
Q 1466 2841 1156 2769 
Q 847 2697 581 2553 
L 581 3406 
Q 941 3494 1303 3539 
Q 1666 3584 2028 3584 
Q 2975 3584 3395 3211 
Q 3816 2838 3816 1997 
z
" transform="scale(0.015625)"/>
      <path id="DejaVuSans-Bold-72" d="M 3138 2547 
Q 2991 2616 2845 2648 
Q 2700 2681 2553 2681 
Q 2122 2681 1889 2404 
Q 1656 2128 1656 1613 
L 1656 0 
L 538 0 
L 538 3500 
L 1656 3500 
L 1656 2925 
Q 1872 3269 2151 3426 
Q 2431 3584 2822 3584 
Q 2878 3584 2943 3579 
Q 3009 3575 3134 3559 
L 3138 2547 
z
" transform="scale(0.015625)"/>
      <path id="DejaVuSans-Bold-49" d="M 588 4666 
L 1791 4666 
L 1791 0 
L 588 0 
L 588 4666 
z
" transform="scale(0.015625)"/>
      <path id="DejaVuSans-Bold-6e" d="M 4056 2131 
L 4056 0 
L 2931 0 
L 2931 347 
L 2931 1631 
Q 2931 2084 2911 2256 
Q 2891 2428 2841 2509 
Q 2775 2619 2662 2680 
Q 2550 2741 2406 2741 
Q 2056 2741 1856 2470 
Q 1656 2200 1656 1722 
L 1656 0 
L 538 0 
L 538 3500 
L 1656 3500 
L 1656 2988 
Q 1909 3294 2193 3439 
Q 2478 3584 2822 3584 
Q 3428 3584 3742 3212 
Q 4056 2841 4056 2131 
z
" transform="scale(0.015625)"/>
      <path id="DejaVuSans-Bold-64" d="M 2919 2988 
L 2919 4863 
L 4044 4863 
L 4044 0 
L 2919 0 
L 2919 506 
Q 2688 197 2409 53 
Q 2131 -91 1766 -91 
Q 1119 -91 703 423 
Q 288 938 288 1747 
Q 288 2556 703 3070 
Q 1119 3584 1766 3584 
Q 2128 3584 2408 3439 
Q 2688 3294 2919 2988 
z
M 2181 722 
Q 2541 722 2730 984 
Q 2919 1247 2919 1747 
Q 2919 2247 2730 2509 
Q 2541 2772 2181 2772 
Q 1825 2772 1636 2509 
Q 1447 2247 1447 1747 
Q 1447 1247 1636 984 
Q 1825 722 2181 722 
z
" transform="scale(0.015625)"/>
      <path id="DejaVuSans-Bold-65" d="M 4031 1759 
L 4031 1441 
L 1416 1441 
Q 1456 1047 1700 850 
Q 1944 653 2381 653 
Q 2734 653 3104 758 
Q 3475 863 3866 1075 
L 3866 213 
Q 3469 63 3072 -14 
Q 2675 -91 2278 -91 
Q 1328 -91 801 392 
Q 275 875 275 1747 
Q 275 2603 792 3093 
Q 1309 3584 2216 3584 
Q 3041 3584 3536 3087 
Q 4031 2591 4031 1759 
z
M 2881 2131 
Q 2881 2450 2695 2645 
Q 2509 2841 2209 2841 
Q 1884 2841 1681 2658 
Q 1478 2475 1428 2131 
L 2881 2131 
z
" transform="scale(0.015625)"/>
      <path id="DejaVuSans-Bold-78" d="M 1422 1791 
L 159 3500 
L 1344 3500 
L 2059 2463 
L 2784 3500 
L 3969 3500 
L 2706 1797 
L 4031 0 
L 2847 0 
L 2059 1106 
L 1281 0 
L 97 0 
L 1422 1791 
z
" transform="scale(0.015625)"/>
     </defs>
     <use xlink:href="#DejaVuSans-Bold-55"/>
     <use xlink:href="#DejaVuSans-Bold-2e" transform="translate(81.201172 0)"/>
     <use xlink:href="#DejaVuSans-Bold-53" transform="translate(119.189453 0)"/>
     <use xlink:href="#DejaVuSans-Bold-2e" transform="translate(191.210938 0)"/>
     <use xlink:href="#DejaVuSans-Bold-20" transform="translate(229.199219 0)"/>
     <use xlink:href="#DejaVuSans-Bold-44" transform="translate(264.013672 0)"/>
     <use xlink:href="#DejaVuSans-Bold-6f" transform="translate(347.021484 0)"/>
     <use xlink:href="#DejaVuSans-Bold-6c" transform="translate(415.722656 0)"/>
     <use xlink:href="#DejaVuSans-Bold-6c" transform="translate(450 0)"/>
     <use xlink:href="#DejaVuSans-Bold-61" transform="translate(484.277344 0)"/>
     <use xlink:href="#DejaVuSans-Bold-72" transform="translate(551.757812 0)"/>
     <use xlink:href="#DejaVuSans-Bold-20" transform="translate(601.074219 0)"/>
     <use xlink:href="#DejaVuSans-Bold-49" transform="translate(635.888672 0)"/>
     <use xlink:href="#DejaVuSans-Bold-6e" transform="translate(673.095703 0)"/>
     <use xlink:href="#DejaVuSans-Bold-64" transform="translate(744.287109 0)"/>
     <use xlink:href="#DejaVuSans-Bold-65" transform="translate(815.869141 0)"/>
     <use xlink:href="#DejaVuSans-Bold-78" transform="translate(883.691406 0)"/>
    </g>
   </g>
   <g id="PathCollection_1">
    <defs>
     <path id="m8a48eab4f5" d="M 0 4.062019 
C 1.07726 4.062019 2.110543 3.634019 2.872281 2.872281 
C 3.634019 2.110543 4.062019 1.07726 4.062019 0 
C 4.062019 -1.07726 3.634019 -2.110543 2.872281 -2.872281 
C 2.110543 -3.634019 1.07726 -4.062019 0 -4.062019 
C -1.07726 -4.062019 -2.110543 -3.634019 -2.872281 -2.872281 
C -3.634019 -2.110543 -4.062019 -1.07726 -4.062019 0 
C -4.062019 1.07726 -3.634019 2.110543 -2.872281 2.872281 
C -2.110543 3.634019 -1.07726 4.062019 0 4.062019 
z
" style="stroke: #3b8d8a; stroke-width: 2.5"/>
    </defs>
    <g clip-path="url(#pc08c09b78a)">
     <use xlink:href="#m8a48eab4f5" x="728.766693" y="112.771105" style="fill: #ffffff; stroke: #3b8d8a; stroke-width: 2.5"/>
    </g>
   </g>
  </g>
 </g>
 <defs>
  <clipPath id="pc08c09b78a">
   <rect x="49.465625" y="46.117344" width="689.34" height="225.24"/>
  </clipPath>
 </defs>
</svg>
