<?xml version="1.0" encoding="utf-8" standalone="no"?>
<!DOCTYPE svg PUBLIC "-//W3C//DTD SVG 1.1//EN"
  "http://www.w3.org/Graphics/SVG/1.1/DTD/svg11.dtd">
<svg xmlns:xlink="http://www.w3.org/1999/xlink" width="712.405625pt" height="291.835625pt" viewBox="0 0 712.405625 291.835625" xmlns="http://www.w3.org/2000/svg" version="1.1">
 <metadata>
  <rdf:RDF xmlns:dc="http://purl.org/dc/elements/1.1/" xmlns:cc="http://creativecommons.org/ns#" xmlns:rdf="http://www.w3.org/1999/02/22-rdf-syntax-ns#">
   <cc:Work>
    <dc:type rdf:resource="http://purl.org/dc/dcmitype/StillImage"/>
    <dc:date>2026-07-13T02:43:40.385674</dc:date>
    <dc:format>image/svg+xml</dc:format>
    <dc:creator>
     <cc:Agent>
      <dc:title>Matplotlib v3.10.8, https://matplotlib.org/</dc:title>
     </cc:Agent>
    </dc:creator>
   </cc:Work>
  </rdf:RDF>
 </metadata>
 <defs>
  <style type="text/css">*{stroke-linejoin: round; stroke-linecap: butt}</style>
 </defs>
 <g id="figure_1">
  <g id="patch_1">
   <path d="M 0 291.835625 
L 712.405625 291.835625 
L 712.405625 0 
L 0 0 
z
" style="fill: #ffffff"/>
  </g>
  <g id="axes_1">
   <g id="patch_2">
    <path d="M 46.965625 267.9575 
L 705.205625 267.9575 
L 705.205625 33.3575 
L 46.965625 33.3575 
z
" style="fill: #ffffff"/>
   </g>
   <g id="FillBetweenPolyCollection_1">
    <defs>
     <path id="m740240aee0" d="M 53.418958 -34.541761 
L 53.418958 -60.717858 
L 56.95347 -56.092151 
L 60.145931 -50.486878 
L 63.680442 -34.541761 
L 67.100937 -43.847608 
L 70.635448 -41.997342 
L 74.055943 -39.820526 
L 77.590454 -41.072167 
L 81.124965 -65.125922 
L 84.54546 -52.17389 
L 88.079971 -64.255179 
L 91.500466 -73.941965 
L 95.034977 -69.098572 
L 98.569488 -66.105487 
L 101.875967 -67.193874 
L 105.410478 -66.431994 
L 108.830972 -89.560574 
L 112.365484 -81.996171 
L 115.785978 -87.383758 
L 119.32049 -79.819356 
L 122.855001 -72.690324 
L 126.275495 -72.581461 
L 129.810007 -73.833143 
L 133.230501 -71.76515 
L 136.765013 -68.717632 
L 140.299524 -83.792047 
L 143.491985 -89.288456 
L 147.026497 -82.431543 
L 150.446991 -91.41084 
L 153.981503 -90.268022 
L 157.401997 -80.907743 
L 160.936508 -84.390631 
L 164.47102 -74.214083 
L 167.891514 -74.105219 
L 171.426025 -76.717407 
L 174.84652 -73.234518 
L 178.381031 -79.928178 
L 181.915543 -71.819581 
L 185.108004 -73.561026 
L 188.642515 -70.241391 
L 192.06301 -75.030394 
L 195.597521 -71.819581 
L 199.018016 -80.962174 
L 202.552527 -87.982384 
L 206.087038 -105.342437 
L 209.507533 -110.457906 
L 213.042044 -118.512112 
L 216.462539 -128.906346 
L 219.99705 -153.558726 
L 223.531561 -156.007618 
L 226.724023 -172.932299 
L 230.258534 -152.470297 
L 233.679029 -165.041389 
L 237.21354 -157.313691 
L 240.634035 -167.544712 
L 244.168546 -159.817014 
L 247.703057 -161.99383 
L 251.123552 -165.259033 
L 254.658063 -182.78234 
L 258.078558 -174.401626 
L 261.613069 -179.734823 
L 265.14758 -172.115988 
L 268.454058 -152.415865 
L 271.98857 -144.198447 
L 275.409064 -159.490506 
L 278.943576 -160.851011 
L 282.36407 -157.531376 
L 285.898581 -160.197954 
L 289.433093 -157.150437 
L 292.853587 -173.422061 
L 296.388098 -190.020235 
L 299.808593 -194.863628 
L 303.343104 -179.190629 
L 306.877616 -187.952283 
L 310.070077 -183.761905 
L 313.604588 -176.687306 
L 317.025083 -165.095779 
L 320.559594 -158.238865 
L 323.980089 -143.001196 
L 327.5146 -141.967199 
L 331.049111 -144.198447 
L 334.469606 -152.198221 
L 338.004117 -143.817507 
L 341.424612 -138.974114 
L 344.959123 -122.702448 
L 348.493634 -130.756654 
L 351.686096 -127.273765 
L 355.220607 -137.450314 
L 358.641102 -149.150663 
L 362.175613 -152.633551 
L 365.596108 -151.871672 
L 369.130619 -155.408992 
L 372.66513 -155.68111 
L 376.085625 -166.238598 
L 379.620136 -167.000477 
L 383.040631 -161.014265 
L 386.575142 -157.803494 
L 390.109653 -160.959875 
L 393.302115 -167.054909 
L 396.836626 -168.143338 
L 400.257121 -169.612665 
L 403.791632 -160.796579 
L 407.212127 -173.803001 
L 410.746638 -175.979817 
L 414.281149 -178.48314 
L 417.701644 -167.435849 
L 421.236155 -172.442496 
L 424.65665 -162.211516 
L 428.191161 -167.653534 
L 431.725672 -171.680617 
L 435.03215 -176.687306 
L 438.566662 -176.52401 
L 441.987156 -172.823436 
L 445.521667 -167.653534 
L 448.942162 -146.429653 
L 452.476673 -139.082936 
L 456.011184 -148.606469 
L 459.431679 -149.42278 
L 462.96619 -137.613609 
L 466.386685 -127.110512 
L 469.921196 -130.5934 
L 473.455707 -132.498098 
L 476.648169 -145.014758 
L 480.18268 -134.402797 
L 483.603175 -126.566276 
L 487.137686 -140.715558 
L 490.558181 -139.24619 
L 494.092692 -141.749514 
L 497.627203 -150.565599 
L 501.047698 -149.858152 
L 504.582209 -160.0347 
L 508.002704 -158.293256 
L 511.537215 -163.027827 
L 515.071726 -163.95296 
L 518.264188 -172.660182 
L 521.798699 -197.965577 
L 525.219194 -191.380739 
L 528.753705 -207.380288 
L 532.1742 -213.965125 
L 535.708711 -229.202753 
L 539.243222 -247.814489 
L 542.663717 -244.603676 
L 546.198228 -214.237202 
L 549.618723 -201.013094 
L 553.153234 -193.285438 
L 556.687745 -208.359853 
L 559.880207 -195.516685 
L 563.414718 -190.945368 
L 566.835213 -205.366726 
L 570.369724 -197.693501 
L 573.790219 -191.979365 
L 577.32473 -201.557329 
L 580.859241 -215.434452 
L 584.279736 -218.101071 
L 587.814247 -200.904272 
L 591.234742 -189.095102 
L 594.769253 -199.65259 
L 598.303764 -204.496025 
L 601.610242 -206.618409 
L 605.144753 -215.70657 
L 608.565248 -207.271424 
L 612.099759 -213.801872 
L 615.520254 -204.169475 
L 619.054765 -191.108622 
L 622.589276 -186.101975 
L 626.009771 -203.51646 
L 629.544282 -213.094383 
L 632.964777 -228.059934 
L 636.499288 -227.406918 
L 640.033799 -223.270973 
L 643.226261 -204.768101 
L 646.760772 -178.972943 
L 650.181267 -178.211064 
L 653.715778 -164.878093 
L 657.136273 -182.020461 
L 660.670784 -169.721487 
L 664.205295 -169.721487 
L 667.62579 -180.76882 
L 671.160301 -178.918512 
L 674.580796 -172.496928 
L 678.115307 -165.476719 
L 681.649818 -168.850785 
L 684.84228 -181.639521 
L 688.376791 -171.408541 
L 691.797286 -175.925426 
L 695.331797 -188.333222 
L 698.752292 -187.761792 
L 698.752292 -34.541761 
L 698.752292 -34.541761 
L 695.331797 -34.541761 
L 691.797286 -34.541761 
L 688.376791 -34.541761 
L 684.84228 -34.541761 
L 681.649818 -34.541761 
L 678.115307 -34.541761 
L 674.580796 -34.541761 
L 671.160301 -34.541761 
L 667.62579 -34.541761 
L 664.205295 -34.541761 
L 660.670784 -34.541761 
L 657.136273 -34.541761 
L 653.715778 -34.541761 
L 650.181267 -34.541761 
L 646.760772 -34.541761 
L 643.226261 -34.541761 
L 640.033799 -34.541761 
L 636.499288 -34.541761 
L 632.964777 -34.541761 
L 629.544282 -34.541761 
L 626.009771 -34.541761 
L 622.589276 -34.541761 
L 619.054765 -34.541761 
L 615.520254 -34.541761 
L 612.099759 -34.541761 
L 608.565248 -34.541761 
L 605.144753 -34.541761 
L 601.610242 -34.541761 
L 598.303764 -34.541761 
L 594.769253 -34.541761 
L 591.234742 -34.541761 
L 587.814247 -34.541761 
L 584.279736 -34.541761 
L 580.859241 -34.541761 
L 577.32473 -34.541761 
L 573.790219 -34.541761 
L 570.369724 -34.541761 
L 566.835213 -34.541761 
L 563.414718 -34.541761 
L 559.880207 -34.541761 
L 556.687745 -34.541761 
L 553.153234 -34.541761 
L 549.618723 -34.541761 
L 546.198228 -34.541761 
L 542.663717 -34.541761 
L 539.243222 -34.541761 
L 535.708711 -34.541761 
L 532.1742 -34.541761 
L 528.753705 -34.541761 
L 525.219194 -34.541761 
L 521.798699 -34.541761 
L 518.264188 -34.541761 
L 515.071726 -34.541761 
L 511.537215 -34.541761 
L 508.002704 -34.541761 
L 504.582209 -34.541761 
L 501.047698 -34.541761 
L 497.627203 -34.541761 
L 494.092692 -34.541761 
L 490.558181 -34.541761 
L 487.137686 -34.541761 
L 483.603175 -34.541761 
L 480.18268 -34.541761 
L 476.648169 -34.541761 
L 473.455707 -34.541761 
L 469.921196 -34.541761 
L 466.386685 -34.541761 
L 462.96619 -34.541761 
L 459.431679 -34.541761 
L 456.011184 -34.541761 
L 452.476673 -34.541761 
L 448.942162 -34.541761 
L 445.521667 -34.541761 
L 441.987156 -34.541761 
L 438.566662 -34.541761 
L 435.03215 -34.541761 
L 431.725672 -34.541761 
L 428.191161 -34.541761 
L 424.65665 -34.541761 
L 421.236155 -34.541761 
L 417.701644 -34.541761 
L 414.281149 -34.541761 
L 410.746638 -34.541761 
L 407.212127 -34.541761 
L 403.791632 -34.541761 
L 400.257121 -34.541761 
L 396.836626 -34.541761 
L 393.302115 -34.541761 
L 390.109653 -34.541761 
L 386.575142 -34.541761 
L 383.040631 -34.541761 
L 379.620136 -34.541761 
L 376.085625 -34.541761 
L 372.66513 -34.541761 
L 369.130619 -34.541761 
L 365.596108 -34.541761 
L 362.175613 -34.541761 
L 358.641102 -34.541761 
L 355.220607 -34.541761 
L 351.686096 -34.541761 
L 348.493634 -34.541761 
L 344.959123 -34.541761 
L 341.424612 -34.541761 
L 338.004117 -34.541761 
L 334.469606 -34.541761 
L 331.049111 -34.541761 
L 327.5146 -34.541761 
L 323.980089 -34.541761 
L 320.559594 -34.541761 
L 317.025083 -34.541761 
L 313.604588 -34.541761 
L 310.070077 -34.541761 
L 306.877616 -34.541761 
L 303.343104 -34.541761 
L 299.808593 -34.541761 
L 296.388098 -34.541761 
L 292.853587 -34.541761 
L 289.433093 -34.541761 
L 285.898581 -34.541761 
L 282.36407 -34.541761 
L 278.943576 -34.541761 
L 275.409064 -34.541761 
L 271.98857 -34.541761 
L 268.454058 -34.541761 
L 265.14758 -34.541761 
L 261.613069 -34.541761 
L 258.078558 -34.541761 
L 254.658063 -34.541761 
L 251.123552 -34.541761 
L 247.703057 -34.541761 
L 244.168546 -34.541761 
L 240.634035 -34.541761 
L 237.21354 -34.541761 
L 233.679029 -34.541761 
L 230.258534 -34.541761 
L 226.724023 -34.541761 
L 223.531561 -34.541761 
L 219.99705 -34.541761 
L 216.462539 -34.541761 
L 213.042044 -34.541761 
L 209.507533 -34.541761 
L 206.087038 -34.541761 
L 202.552527 -34.541761 
L 199.018016 -34.541761 
L 195.597521 -34.541761 
L 192.06301 -34.541761 
L 188.642515 -34.541761 
L 185.108004 -34.541761 
L 181.915543 -34.541761 
L 178.381031 -34.541761 
L 174.84652 -34.541761 
L 171.426025 -34.541761 
L 167.891514 -34.541761 
L 164.47102 -34.541761 
L 160.936508 -34.541761 
L 157.401997 -34.541761 
L 153.981503 -34.541761 
L 150.446991 -34.541761 
L 147.026497 -34.541761 
L 143.491985 -34.541761 
L 140.299524 -34.541761 
L 136.765013 -34.541761 
L 133.230501 -34.541761 
L 129.810007 -34.541761 
L 126.275495 -34.541761 
L 122.855001 -34.541761 
L 119.32049 -34.541761 
L 115.785978 -34.541761 
L 112.365484 -34.541761 
L 108.830972 -34.541761 
L 105.410478 -34.541761 
L 101.875967 -34.541761 
L 98.569488 -34.541761 
L 95.034977 -34.541761 
L 91.500466 -34.541761 
L 88.079971 -34.541761 
L 84.54546 -34.541761 
L 81.124965 -34.541761 
L 77.590454 -34.541761 
L 74.055943 -34.541761 
L 70.635448 -34.541761 
L 67.100937 -34.541761 
L 63.680442 -34.541761 
L 60.145931 -34.541761 
L 56.95347 -34.541761 
L 53.418958 -34.541761 
z
" style="stroke: #3b8d8a; stroke-opacity: 0.08"/>
    </defs>
    <g clip-path="url(#p27385b59ae)">
     <use xlink:href="#m740240aee0" x="0" y="291.835625" style="fill: #3b8d8a; fill-opacity: 0.08; stroke: #3b8d8a; stroke-opacity: 0.08"/>
    </g>
   </g>
   <g id="matplotlib.axis_1">
    <g id="xtick_1">
     <g id="line2d_1">
      <defs>
       <path id="m7167bcecd8" d="M 0 0 
L 0 3.5 
" style="stroke: #5d6878; stroke-width: 0.8"/>
      </defs>
      <g>
       <use xlink:href="#m7167bcecd8" x="136.765013" y="267.9575" style="fill: #5d6878; stroke: #5d6878; stroke-width: 0.8"/>
      </g>
     </g>
     <g id="text_1">
      <!-- 2013 -->
      <g style="fill: #5d6878" transform="translate(124.040013 282.555938) scale(0.1 -0.1)">
       <defs>
        <path id="DejaVuSans-32" d="M 1228 531 
L 3431 531 
L 3431 0 
L 469 0 
L 469 531 
Q 828 903 1448 1529 
Q 2069 2156 2228 2338 
Q 2531 2678 2651 2914 
Q 2772 3150 2772 3378 
Q 2772 3750 2511 3984 
Q 2250 4219 1831 4219 
Q 1534 4219 1204 4116 
Q 875 4013 500 3803 
L 500 4441 
Q 881 4594 1212 4672 
Q 1544 4750 1819 4750 
Q 2544 4750 2975 4387 
Q 3406 4025 3406 3419 
Q 3406 3131 3298 2873 
Q 3191 2616 2906 2266 
Q 2828 2175 2409 1742 
Q 1991 1309 1228 531 
z
" transform="scale(0.015625)"/>
        <path id="DejaVuSans-30" d="M 2034 4250 
Q 1547 4250 1301 3770 
Q 1056 3291 1056 2328 
Q 1056 1369 1301 889 
Q 1547 409 2034 409 
Q 2525 409 2770 889 
Q 3016 1369 3016 2328 
Q 3016 3291 2770 3770 
Q 2525 4250 2034 4250 
z
M 2034 4750 
Q 2819 4750 3233 4129 
Q 3647 3509 3647 2328 
Q 3647 1150 3233 529 
Q 2819 -91 2034 -91 
Q 1250 -91 836 529 
Q 422 1150 422 2328 
Q 422 3509 836 4129 
Q 1250 4750 2034 4750 
z
" transform="scale(0.015625)"/>
        <path id="DejaVuSans-31" d="M 794 531 
L 1825 531 
L 1825 4091 
L 703 3866 
L 703 4441 
L 1819 4666 
L 2450 4666 
L 2450 531 
L 3481 531 
L 3481 0 
L 794 0 
L 794 531 
z
" transform="scale(0.015625)"/>
        <path id="DejaVuSans-33" d="M 2597 2516 
Q 3050 2419 3304 2112 
Q 3559 1806 3559 1356 
Q 3559 666 3084 287 
Q 2609 -91 1734 -91 
Q 1441 -91 1130 -33 
Q 819 25 488 141 
L 488 750 
Q 750 597 1062 519 
Q 1375 441 1716 441 
Q 2309 441 2620 675 
Q 2931 909 2931 1356 
Q 2931 1769 2642 2001 
Q 2353 2234 1838 2234 
L 1294 2234 
L 1294 2753 
L 1863 2753 
Q 2328 2753 2575 2939 
Q 2822 3125 2822 3475 
Q 2822 3834 2567 4026 
Q 2313 4219 1838 4219 
Q 1578 4219 1281 4162 
Q 984 4106 628 3988 
L 628 4550 
Q 988 4650 1302 4700 
Q 1616 4750 1894 4750 
Q 2613 4750 3031 4423 
Q 3450 4097 3450 3541 
Q 3450 3153 3228 2886 
Q 3006 2619 2597 2516 
z
" transform="scale(0.015625)"/>
       </defs>
       <use xlink:href="#DejaVuSans-32"/>
       <use xlink:href="#DejaVuSans-30" transform="translate(63.623047 0)"/>
       <use xlink:href="#DejaVuSans-31" transform="translate(127.246094 0)"/>
       <use xlink:href="#DejaVuSans-33" transform="translate(190.869141 0)"/>
      </g>
     </g>
    </g>
    <g id="xtick_2">
     <g id="line2d_2">
      <g>
       <use xlink:href="#m7167bcecd8" x="261.613069" y="267.9575" style="fill: #5d6878; stroke: #5d6878; stroke-width: 0.8"/>
      </g>
     </g>
     <g id="text_2">
      <!-- 2016 -->
      <g style="fill: #5d6878" transform="translate(248.888069 282.555938) scale(0.1 -0.1)">
       <defs>
        <path id="DejaVuSans-36" d="M 2113 2584 
Q 1688 2584 1439 2293 
Q 1191 2003 1191 1497 
Q 1191 994 1439 701 
Q 1688 409 2113 409 
Q 2538 409 2786 701 
Q 3034 994 3034 1497 
Q 3034 2003 2786 2293 
Q 2538 2584 2113 2584 
z
M 3366 4563 
L 3366 3988 
Q 3128 4100 2886 4159 
Q 2644 4219 2406 4219 
Q 1781 4219 1451 3797 
Q 1122 3375 1075 2522 
Q 1259 2794 1537 2939 
Q 1816 3084 2150 3084 
Q 2853 3084 3261 2657 
Q 3669 2231 3669 1497 
Q 3669 778 3244 343 
Q 2819 -91 2113 -91 
Q 1303 -91 875 529 
Q 447 1150 447 2328 
Q 447 3434 972 4092 
Q 1497 4750 2381 4750 
Q 2619 4750 2861 4703 
Q 3103 4656 3366 4563 
z
" transform="scale(0.015625)"/>
       </defs>
       <use xlink:href="#DejaVuSans-32"/>
       <use xlink:href="#DejaVuSans-30" transform="translate(63.623047 0)"/>
       <use xlink:href="#DejaVuSans-31" transform="translate(127.246094 0)"/>
       <use xlink:href="#DejaVuSans-36" transform="translate(190.869141 0)"/>
      </g>
     </g>
    </g>
    <g id="xtick_3">
     <g id="line2d_3">
      <g>
       <use xlink:href="#m7167bcecd8" x="386.575142" y="267.9575" style="fill: #5d6878; stroke: #5d6878; stroke-width: 0.8"/>
      </g>
     </g>
     <g id="text_3">
      <!-- 2019 -->
      <g style="fill: #5d6878" transform="translate(373.850142 282.555938) scale(0.1 -0.1)">
       <defs>
        <path id="DejaVuSans-39" d="M 703 97 
L 703 672 
Q 941 559 1184 500 
Q 1428 441 1663 441 
Q 2288 441 2617 861 
Q 2947 1281 2994 2138 
Q 2813 1869 2534 1725 
Q 2256 1581 1919 1581 
Q 1219 1581 811 2004 
Q 403 2428 403 3163 
Q 403 3881 828 4315 
Q 1253 4750 1959 4750 
Q 2769 4750 3195 4129 
Q 3622 3509 3622 2328 
Q 3622 1225 3098 567 
Q 2575 -91 1691 -91 
Q 1453 -91 1209 -44 
Q 966 3 703 97 
z
M 1959 2075 
Q 2384 2075 2632 2365 
Q 2881 2656 2881 3163 
Q 2881 3666 2632 3958 
Q 2384 4250 1959 4250 
Q 1534 4250 1286 3958 
Q 1038 3666 1038 3163 
Q 1038 2656 1286 2365 
Q 1534 2075 1959 2075 
z
" transform="scale(0.015625)"/>
       </defs>
       <use xlink:href="#DejaVuSans-32"/>
       <use xlink:href="#DejaVuSans-30" transform="translate(63.623047 0)"/>
       <use xlink:href="#DejaVuSans-31" transform="translate(127.246094 0)"/>
       <use xlink:href="#DejaVuSans-39" transform="translate(190.869141 0)"/>
      </g>
     </g>
    </g>
    <g id="xtick_4">
     <g id="line2d_4">
      <g>
       <use xlink:href="#m7167bcecd8" x="511.537215" y="267.9575" style="fill: #5d6878; stroke: #5d6878; stroke-width: 0.8"/>
      </g>
     </g>
     <g id="text_4">
      <!-- 2022 -->
      <g style="fill: #5d6878" transform="translate(498.812215 282.555938) scale(0.1 -0.1)">
       <use xlink:href="#DejaVuSans-32"/>
       <use xlink:href="#DejaVuSans-30" transform="translate(63.623047 0)"/>
       <use xlink:href="#DejaVuSans-32" transform="translate(127.246094 0)"/>
       <use xlink:href="#DejaVuSans-32" transform="translate(190.869141 0)"/>
      </g>
     </g>
    </g>
    <g id="xtick_5">
     <g id="line2d_5">
      <g>
       <use xlink:href="#m7167bcecd8" x="636.499288" y="267.9575" style="fill: #5d6878; stroke: #5d6878; stroke-width: 0.8"/>
      </g>
     </g>
     <g id="text_5">
      <!-- 2025 -->
      <g style="fill: #5d6878" transform="translate(623.774288 282.555938) scale(0.1 -0.1)">
       <defs>
        <path id="DejaVuSans-35" d="M 691 4666 
L 3169 4666 
L 3169 4134 
L 1269 4134 
L 1269 2991 
Q 1406 3038 1543 3061 
Q 1681 3084 1819 3084 
Q 2600 3084 3056 2656 
Q 3513 2228 3513 1497 
Q 3513 744 3044 326 
Q 2575 -91 1722 -91 
Q 1428 -91 1123 -41 
Q 819 9 494 109 
L 494 744 
Q 775 591 1075 516 
Q 1375 441 1709 441 
Q 2250 441 2565 725 
Q 2881 1009 2881 1497 
Q 2881 1984 2565 2268 
Q 2250 2553 1709 2553 
Q 1456 2553 1204 2497 
Q 953 2441 691 2322 
L 691 4666 
z
" transform="scale(0.015625)"/>
       </defs>
       <use xlink:href="#DejaVuSans-32"/>
       <use xlink:href="#DejaVuSans-30" transform="translate(63.623047 0)"/>
       <use xlink:href="#DejaVuSans-32" transform="translate(127.246094 0)"/>
       <use xlink:href="#DejaVuSans-35" transform="translate(190.869141 0)"/>
      </g>
     </g>
    </g>
   </g>
   <g id="matplotlib.axis_2">
    <g id="ytick_1">
     <g id="line2d_6">
      <path d="M 46.965625 246.028887 
L 705.205625 246.028887 
" clip-path="url(#p27385b59ae)" style="fill: none; stroke: #e7edf1; stroke-width: 0.8; stroke-linecap: square"/>
     </g>
     <g id="line2d_7">
      <defs>
       <path id="m8d49e6d022" d="M 0 0 
L -3.5 0 
" style="stroke: #5d6878; stroke-width: 0.8"/>
      </defs>
      <g>
       <use xlink:href="#m8d49e6d022" x="46.965625" y="246.028887" style="fill: #5d6878; stroke: #5d6878; stroke-width: 0.8"/>
      </g>
     </g>
     <g id="text_6">
      <!-- 75 -->
      <g style="fill: #5d6878" transform="translate(27.240625 249.828105) scale(0.1 -0.1)">
       <defs>
        <path id="DejaVuSans-37" d="M 525 4666 
L 3525 4666 
L 3525 4397 
L 1831 0 
L 1172 0 
L 2766 4134 
L 525 4134 
L 525 4666 
z
" transform="scale(0.015625)"/>
       </defs>
       <use xlink:href="#DejaVuSans-37"/>
       <use xlink:href="#DejaVuSans-35" transform="translate(63.623047 0)"/>
      </g>
     </g>
    </g>
    <g id="ytick_2">
     <g id="line2d_8">
      <path d="M 46.965625 218.818793 
L 705.205625 218.818793 
" clip-path="url(#p27385b59ae)" style="fill: none; stroke: #e7edf1; stroke-width: 0.8; stroke-linecap: square"/>
     </g>
     <g id="line2d_9">
      <g>
       <use xlink:href="#m8d49e6d022" x="46.965625" y="218.818793" style="fill: #5d6878; stroke: #5d6878; stroke-width: 0.8"/>
      </g>
     </g>
     <g id="text_7">
      <!-- 80 -->
      <g style="fill: #5d6878" transform="translate(27.240625 222.618012) scale(0.1 -0.1)">
       <defs>
        <path id="DejaVuSans-38" d="M 2034 2216 
Q 1584 2216 1326 1975 
Q 1069 1734 1069 1313 
Q 1069 891 1326 650 
Q 1584 409 2034 409 
Q 2484 409 2743 651 
Q 3003 894 3003 1313 
Q 3003 1734 2745 1975 
Q 2488 2216 2034 2216 
z
M 1403 2484 
Q 997 2584 770 2862 
Q 544 3141 544 3541 
Q 544 4100 942 4425 
Q 1341 4750 2034 4750 
Q 2731 4750 3128 4425 
Q 3525 4100 3525 3541 
Q 3525 3141 3298 2862 
Q 3072 2584 2669 2484 
Q 3125 2378 3379 2068 
Q 3634 1759 3634 1313 
Q 3634 634 3220 271 
Q 2806 -91 2034 -91 
Q 1263 -91 848 271 
Q 434 634 434 1313 
Q 434 1759 690 2068 
Q 947 2378 1403 2484 
z
M 1172 3481 
Q 1172 3119 1398 2916 
Q 1625 2713 2034 2713 
Q 2441 2713 2670 2916 
Q 2900 3119 2900 3481 
Q 2900 3844 2670 4047 
Q 2441 4250 2034 4250 
Q 1625 4250 1398 4047 
Q 1172 3844 1172 3481 
z
" transform="scale(0.015625)"/>
       </defs>
       <use xlink:href="#DejaVuSans-38"/>
       <use xlink:href="#DejaVuSans-30" transform="translate(63.623047 0)"/>
      </g>
     </g>
    </g>
    <g id="ytick_3">
     <g id="line2d_10">
      <path d="M 46.965625 191.608699 
L 705.205625 191.608699 
" clip-path="url(#p27385b59ae)" style="fill: none; stroke: #e7edf1; stroke-width: 0.8; stroke-linecap: square"/>
     </g>
     <g id="line2d_11">
      <g>
       <use xlink:href="#m8d49e6d022" x="46.965625" y="191.608699" style="fill: #5d6878; stroke: #5d6878; stroke-width: 0.8"/>
      </g>
     </g>
     <g id="text_8">
      <!-- 85 -->
      <g style="fill: #5d6878" transform="translate(27.240625 195.407918) scale(0.1 -0.1)">
       <use xlink:href="#DejaVuSans-38"/>
       <use xlink:href="#DejaVuSans-35" transform="translate(63.623047 0)"/>
      </g>
     </g>
    </g>
    <g id="ytick_4">
     <g id="line2d_12">
      <path d="M 46.965625 164.398606 
L 705.205625 164.398606 
" clip-path="url(#p27385b59ae)" style="fill: none; stroke: #e7edf1; stroke-width: 0.8; stroke-linecap: square"/>
     </g>
     <g id="line2d_13">
      <g>
       <use xlink:href="#m8d49e6d022" x="46.965625" y="164.398606" style="fill: #5d6878; stroke: #5d6878; stroke-width: 0.8"/>
      </g>
     </g>
     <g id="text_9">
      <!-- 90 -->
      <g style="fill: #5d6878" transform="translate(27.240625 168.197824) scale(0.1 -0.1)">
       <use xlink:href="#DejaVuSans-39"/>
       <use xlink:href="#DejaVuSans-30" transform="translate(63.623047 0)"/>
      </g>
     </g>
    </g>
    <g id="ytick_5">
     <g id="line2d_14">
      <path d="M 46.965625 137.188512 
L 705.205625 137.188512 
" clip-path="url(#p27385b59ae)" style="fill: none; stroke: #e7edf1; stroke-width: 0.8; stroke-linecap: square"/>
     </g>
     <g id="line2d_15">
      <g>
       <use xlink:href="#m8d49e6d022" x="46.965625" y="137.188512" style="fill: #5d6878; stroke: #5d6878; stroke-width: 0.8"/>
      </g>
     </g>
     <g id="text_10">
      <!-- 95 -->
      <g style="fill: #5d6878" transform="translate(27.240625 140.987731) scale(0.1 -0.1)">
       <use xlink:href="#DejaVuSans-39"/>
       <use xlink:href="#DejaVuSans-35" transform="translate(63.623047 0)"/>
      </g>
     </g>
    </g>
    <g id="ytick_6">
     <g id="line2d_16">
      <path d="M 46.965625 109.978418 
L 705.205625 109.978418 
" clip-path="url(#p27385b59ae)" style="fill: none; stroke: #e7edf1; stroke-width: 0.8; stroke-linecap: square"/>
     </g>
     <g id="line2d_17">
      <g>
       <use xlink:href="#m8d49e6d022" x="46.965625" y="109.978418" style="fill: #5d6878; stroke: #5d6878; stroke-width: 0.8"/>
      </g>
     </g>
     <g id="text_11">
      <!-- 100 -->
      <g style="fill: #5d6878" transform="translate(20.878125 113.777637) scale(0.1 -0.1)">
       <use xlink:href="#DejaVuSans-31"/>
       <use xlink:href="#DejaVuSans-30" transform="translate(63.623047 0)"/>
       <use xlink:href="#DejaVuSans-30" transform="translate(127.246094 0)"/>
      </g>
     </g>
    </g>
    <g id="ytick_7">
     <g id="line2d_18">
      <path d="M 46.965625 82.768325 
L 705.205625 82.768325 
" clip-path="url(#p27385b59ae)" style="fill: none; stroke: #e7edf1; stroke-width: 0.8; stroke-linecap: square"/>
     </g>
     <g id="line2d_19">
      <g>
       <use xlink:href="#m8d49e6d022" x="46.965625" y="82.768325" style="fill: #5d6878; stroke: #5d6878; stroke-width: 0.8"/>
      </g>
     </g>
     <g id="text_12">
      <!-- 105 -->
      <g style="fill: #5d6878" transform="translate(20.878125 86.567543) scale(0.1 -0.1)">
       <use xlink:href="#DejaVuSans-31"/>
       <use xlink:href="#DejaVuSans-30" transform="translate(63.623047 0)"/>
       <use xlink:href="#DejaVuSans-35" transform="translate(127.246094 0)"/>
      </g>
     </g>
    </g>
    <g id="ytick_8">
     <g id="line2d_20">
      <path d="M 46.965625 55.558231 
L 705.205625 55.558231 
" clip-path="url(#p27385b59ae)" style="fill: none; stroke: #e7edf1; stroke-width: 0.8; stroke-linecap: square"/>
     </g>
     <g id="line2d_21">
      <g>
       <use xlink:href="#m8d49e6d022" x="46.965625" y="55.558231" style="fill: #5d6878; stroke: #5d6878; stroke-width: 0.8"/>
      </g>
     </g>
     <g id="text_13">
      <!-- 110 -->
      <g style="fill: #5d6878" transform="translate(20.878125 59.35745) scale(0.1 -0.1)">
       <use xlink:href="#DejaVuSans-31"/>
       <use xlink:href="#DejaVuSans-31" transform="translate(63.623047 0)"/>
       <use xlink:href="#DejaVuSans-30" transform="translate(127.246094 0)"/>
      </g>
     </g>
    </g>
    <g id="text_14">
     <!-- Index level -->
     <g style="fill: #5d6878" transform="translate(14.798438 177.903594) rotate(-90) scale(0.1 -0.1)">
      <defs>
       <path id="DejaVuSans-49" d="M 628 4666 
L 1259 4666 
L 1259 0 
L 628 0 
L 628 4666 
z
" transform="scale(0.015625)"/>
       <path id="DejaVuSans-6e" d="M 3513 2113 
L 3513 0 
L 2938 0 
L 2938 2094 
Q 2938 2591 2744 2837 
Q 2550 3084 2163 3084 
Q 1697 3084 1428 2787 
Q 1159 2491 1159 1978 
L 1159 0 
L 581 0 
L 581 3500 
L 1159 3500 
L 1159 2956 
Q 1366 3272 1645 3428 
Q 1925 3584 2291 3584 
Q 2894 3584 3203 3211 
Q 3513 2838 3513 2113 
z
" transform="scale(0.015625)"/>
       <path id="DejaVuSans-64" d="M 2906 2969 
L 2906 4863 
L 3481 4863 
L 3481 0 
L 2906 0 
L 2906 525 
Q 2725 213 2448 61 
Q 2172 -91 1784 -91 
Q 1150 -91 751 415 
Q 353 922 353 1747 
Q 353 2572 751 3078 
Q 1150 3584 1784 3584 
Q 2172 3584 2448 3432 
Q 2725 3281 2906 2969 
z
M 947 1747 
Q 947 1113 1208 752 
Q 1469 391 1925 391 
Q 2381 391 2643 752 
Q 2906 1113 2906 1747 
Q 2906 2381 2643 2742 
Q 2381 3103 1925 3103 
Q 1469 3103 1208 2742 
Q 947 2381 947 1747 
z
" transform="scale(0.015625)"/>
       <path id="DejaVuSans-65" d="M 3597 1894 
L 3597 1613 
L 953 1613 
Q 991 1019 1311 708 
Q 1631 397 2203 397 
Q 2534 397 2845 478 
Q 3156 559 3463 722 
L 3463 178 
Q 3153 47 2828 -22 
Q 2503 -91 2169 -91 
Q 1331 -91 842 396 
Q 353 884 353 1716 
Q 353 2575 817 3079 
Q 1281 3584 2069 3584 
Q 2775 3584 3186 3129 
Q 3597 2675 3597 1894 
z
M 3022 2063 
Q 3016 2534 2758 2815 
Q 2500 3097 2075 3097 
Q 1594 3097 1305 2825 
Q 1016 2553 972 2059 
L 3022 2063 
z
" transform="scale(0.015625)"/>
       <path id="DejaVuSans-78" d="M 3513 3500 
L 2247 1797 
L 3578 0 
L 2900 0 
L 1881 1375 
L 863 0 
L 184 0 
L 1544 1831 
L 300 3500 
L 978 3500 
L 1906 2253 
L 2834 3500 
L 3513 3500 
z
" transform="scale(0.015625)"/>
       <path id="DejaVuSans-20" transform="scale(0.015625)"/>
       <path id="DejaVuSans-6c" d="M 603 4863 
L 1178 4863 
L 1178 0 
L 603 0 
L 603 4863 
z
" transform="scale(0.015625)"/>
       <path id="DejaVuSans-76" d="M 191 3500 
L 800 3500 
L 1894 563 
L 2988 3500 
L 3597 3500 
L 2284 0 
L 1503 0 
L 191 3500 
z
" transform="scale(0.015625)"/>
      </defs>
      <use xlink:href="#DejaVuSans-49"/>
      <use xlink:href="#DejaVuSans-6e" transform="translate(29.492188 0)"/>
      <use xlink:href="#DejaVuSans-64" transform="translate(92.871094 0)"/>
      <use xlink:href="#DejaVuSans-65" transform="translate(156.347656 0)"/>
      <use xlink:href="#DejaVuSans-78" transform="translate(216.121094 0)"/>
      <use xlink:href="#DejaVuSans-20" transform="translate(275.300781 0)"/>
      <use xlink:href="#DejaVuSans-6c" transform="translate(307.087891 0)"/>
      <use xlink:href="#DejaVuSans-65" transform="translate(334.871094 0)"/>
      <use xlink:href="#DejaVuSans-76" transform="translate(396.394531 0)"/>
      <use xlink:href="#DejaVuSans-65" transform="translate(455.574219 0)"/>
      <use xlink:href="#DejaVuSans-6c" transform="translate(517.097656 0)"/>
     </g>
    </g>
   </g>
   <g id="line2d_22">
    <path d="M 53.418958 231.117767 
L 56.95347 235.743474 
L 60.145931 241.348747 
L 63.680442 257.293864 
L 67.100937 247.988017 
L 70.635448 249.838283 
L 74.055943 252.015099 
L 77.590454 250.763458 
L 81.124965 226.709703 
L 84.54546 239.661735 
L 88.079971 227.580446 
L 91.500466 217.89366 
L 95.034977 222.737053 
L 98.569488 225.730138 
L 101.875967 224.641751 
L 105.410478 225.403631 
L 108.830972 202.275051 
L 112.365484 209.839454 
L 115.785978 204.451867 
L 119.32049 212.016269 
L 122.855001 219.145301 
L 126.275495 219.254164 
L 129.810007 218.002482 
L 133.230501 220.070475 
L 136.765013 223.117993 
L 140.299524 208.043578 
L 143.491985 202.547169 
L 147.026497 209.404082 
L 150.446991 200.424785 
L 153.981503 201.567603 
L 157.401997 210.927882 
L 160.936508 207.444994 
L 164.47102 217.621542 
L 167.891514 217.730406 
L 171.426025 215.118218 
L 174.84652 218.601107 
L 178.381031 211.907447 
L 181.915543 220.016044 
L 185.108004 218.274599 
L 188.642515 221.594234 
L 192.06301 216.805231 
L 195.597521 220.016044 
L 199.018016 210.873451 
L 202.552527 203.853241 
L 206.087038 186.493188 
L 209.507533 181.377719 
L 213.042044 173.323513 
L 216.462539 162.929279 
L 219.99705 138.276899 
L 223.531561 135.828007 
L 226.724023 118.903326 
L 230.258534 139.365328 
L 233.679029 126.794236 
L 237.21354 134.521934 
L 240.634035 124.290913 
L 244.168546 132.018611 
L 247.703057 129.841795 
L 251.123552 126.576592 
L 254.658063 109.053285 
L 258.078558 117.433999 
L 261.613069 112.100802 
L 265.14758 119.719637 
L 268.454058 139.41976 
L 271.98857 147.637178 
L 275.409064 132.345119 
L 278.943576 130.984614 
L 282.36407 134.304249 
L 285.898581 131.637671 
L 289.433093 134.685188 
L 296.388098 101.81539 
L 299.808593 96.971997 
L 303.343104 112.644996 
L 306.877616 103.883342 
L 310.070077 108.07372 
L 313.604588 115.148319 
L 317.025083 126.739846 
L 320.559594 133.59676 
L 323.980089 148.834429 
L 327.5146 149.868426 
L 331.049111 147.637178 
L 334.469606 139.637404 
L 338.004117 148.018118 
L 341.424612 152.861511 
L 344.959123 169.133177 
L 348.493634 161.078971 
L 351.686096 164.56186 
L 355.220607 154.385311 
L 358.641102 142.684962 
L 362.175613 139.202074 
L 365.596108 139.963953 
L 369.130619 136.426633 
L 372.66513 136.154515 
L 376.085625 125.597027 
L 379.620136 124.835148 
L 383.040631 130.82136 
L 386.575142 134.032131 
L 390.109653 130.87575 
L 393.302115 124.780716 
L 396.836626 123.692287 
L 400.257121 122.22296 
L 403.791632 131.039046 
L 407.212127 118.032624 
L 410.746638 115.855808 
L 414.281149 113.352485 
L 417.701644 124.399776 
L 421.236155 119.393129 
L 424.65665 129.624109 
L 428.191161 124.182091 
L 431.725672 120.155008 
L 435.03215 115.148319 
L 438.566662 115.311615 
L 441.987156 119.012189 
L 445.521667 124.182091 
L 448.942162 145.405972 
L 452.476673 152.752689 
L 456.011184 143.229156 
L 459.431679 142.412845 
L 462.96619 154.222016 
L 466.386685 164.725113 
L 469.921196 161.242225 
L 473.455707 159.337527 
L 476.648169 146.820867 
L 480.18268 157.432828 
L 483.603175 165.269349 
L 487.137686 151.120067 
L 490.558181 152.589435 
L 494.092692 150.086111 
L 497.627203 141.270026 
L 501.047698 141.977473 
L 504.582209 131.800925 
L 508.002704 133.542369 
L 511.537215 128.807798 
L 515.071726 127.882665 
L 518.264188 119.175443 
L 521.798699 93.870048 
L 525.219194 100.454886 
L 528.753705 84.455337 
L 532.1742 77.8705 
L 535.708711 62.632872 
L 539.243222 44.021136 
L 542.663717 47.231949 
L 546.198228 77.598423 
L 549.618723 90.822531 
L 553.153234 98.550187 
L 556.687745 83.475772 
L 559.880207 96.31894 
L 563.414718 100.890257 
L 566.835213 86.468899 
L 570.369724 94.142124 
L 573.790219 99.85626 
L 577.32473 90.278296 
L 580.859241 76.401173 
L 584.279736 73.734554 
L 587.814247 90.931353 
L 591.234742 102.740523 
L 594.769253 92.183035 
L 598.303764 87.3396 
L 601.610242 85.217216 
L 605.144753 76.129055 
L 608.565248 84.564201 
L 612.099759 78.033753 
L 615.520254 87.66615 
L 619.054765 100.727003 
L 622.589276 105.73365 
L 626.009771 88.319165 
L 629.544282 78.741242 
L 632.964777 63.775691 
L 636.499288 64.428707 
L 640.033799 68.564652 
L 643.226261 87.067524 
L 646.760772 112.862682 
L 650.181267 113.624561 
L 653.715778 126.957532 
L 657.136273 109.815164 
L 660.670784 122.114138 
L 664.205295 122.114138 
L 667.62579 111.066805 
L 671.160301 112.917113 
L 674.580796 119.338697 
L 678.115307 126.358906 
L 681.649818 122.98484 
L 684.84228 110.196104 
L 688.376791 120.427084 
L 691.797286 115.910199 
L 695.331797 103.502403 
L 698.752292 104.073833 
L 698.752292 104.073833 
" clip-path="url(#p27385b59ae)" style="fill: none; stroke: #3b8d8a; stroke-width: 2.25; stroke-linecap: square"/>
   </g>
   <g id="patch_3">
    <path d="M 46.965625 267.9575 
L 46.965625 33.3575 
" style="fill: none; stroke: #dce4eb; stroke-width: 0.8; stroke-linejoin: miter; stroke-linecap: square"/>
   </g>
   <g id="patch_4">
    <path d="M 46.965625 267.9575 
L 705.205625 267.9575 
" style="fill: none; stroke: #dce4eb; stroke-width: 0.8; stroke-linejoin: miter; stroke-linecap: square"/>
   </g>
   <g id="text_15">
    <!-- U.S. Dollar Index -->
    <g style="fill: #10233f" transform="translate(46.965625 19.3575) scale(0.16 -0.16)">
     <defs>
      <path id="DejaVuSans-55" d="M 556 4666 
L 1191 4666 
L 1191 1831 
Q 1191 1081 1462 751 
Q 1734 422 2344 422 
Q 2950 422 3222 751 
Q 3494 1081 3494 1831 
L 3494 4666 
L 4128 4666 
L 4128 1753 
Q 4128 841 3676 375 
Q 3225 -91 2344 -91 
Q 1459 -91 1007 375 
Q 556 841 556 1753 
L 556 4666 
z
" transform="scale(0.015625)"/>
      <path id="DejaVuSans-2e" d="M 684 794 
L 1344 794 
L 1344 0 
L 684 0 
L 684 794 
z
" transform="scale(0.015625)"/>
      <path id="DejaVuSans-53" d="M 3425 4513 
L 3425 3897 
Q 3066 4069 2747 4153 
Q 2428 4238 2131 4238 
Q 1616 4238 1336 4038 
Q 1056 3838 1056 3469 
Q 1056 3159 1242 3001 
Q 1428 2844 1947 2747 
L 2328 2669 
Q 3034 2534 3370 2195 
Q 3706 1856 3706 1288 
Q 3706 609 3251 259 
Q 2797 -91 1919 -91 
Q 1588 -91 1214 -16 
Q 841 59 441 206 
L 441 856 
Q 825 641 1194 531 
Q 1563 422 1919 422 
Q 2459 422 2753 634 
Q 3047 847 3047 1241 
Q 3047 1584 2836 1778 
Q 2625 1972 2144 2069 
L 1759 2144 
Q 1053 2284 737 2584 
Q 422 2884 422 3419 
Q 422 4038 858 4394 
Q 1294 4750 2059 4750 
Q 2388 4750 2728 4690 
Q 3069 4631 3425 4513 
z
" transform="scale(0.015625)"/>
      <path id="DejaVuSans-44" d="M 1259 4147 
L 1259 519 
L 2022 519 
Q 2988 519 3436 956 
Q 3884 1394 3884 2338 
Q 3884 3275 3436 3711 
Q 2988 4147 2022 4147 
L 1259 4147 
z
M 628 4666 
L 1925 4666 
Q 3281 4666 3915 4102 
Q 4550 3538 4550 2338 
Q 4550 1131 3912 565 
Q 3275 0 1925 0 
L 628 0 
L 628 4666 
z
" transform="scale(0.015625)"/>
      <path id="DejaVuSans-6f" d="M 1959 3097 
Q 1497 3097 1228 2736 
Q 959 2375 959 1747 
Q 959 1119 1226 758 
Q 1494 397 1959 397 
Q 2419 397 2687 759 
Q 2956 1122 2956 1747 
Q 2956 2369 2687 2733 
Q 2419 3097 1959 3097 
z
M 1959 3584 
Q 2709 3584 3137 3096 
Q 3566 2609 3566 1747 
Q 3566 888 3137 398 
Q 2709 -91 1959 -91 
Q 1206 -91 779 398 
Q 353 888 353 1747 
Q 353 2609 779 3096 
Q 1206 3584 1959 3584 
z
" transform="scale(0.015625)"/>
      <path id="DejaVuSans-61" d="M 2194 1759 
Q 1497 1759 1228 1600 
Q 959 1441 959 1056 
Q 959 750 1161 570 
Q 1363 391 1709 391 
Q 2188 391 2477 730 
Q 2766 1069 2766 1631 
L 2766 1759 
L 2194 1759 
z
M 3341 1997 
L 3341 0 
L 2766 0 
L 2766 531 
Q 2569 213 2275 61 
Q 1981 -91 1556 -91 
Q 1019 -91 701 211 
Q 384 513 384 1019 
Q 384 1609 779 1909 
Q 1175 2209 1959 2209 
L 2766 2209 
L 2766 2266 
Q 2766 2663 2505 2880 
Q 2244 3097 1772 3097 
Q 1472 3097 1187 3025 
Q 903 2953 641 2809 
L 641 3341 
Q 956 3463 1253 3523 
Q 1550 3584 1831 3584 
Q 2591 3584 2966 3190 
Q 3341 2797 3341 1997 
z
" transform="scale(0.015625)"/>
      <path id="DejaVuSans-72" d="M 2631 2963 
Q 2534 3019 2420 3045 
Q 2306 3072 2169 3072 
Q 1681 3072 1420 2755 
Q 1159 2438 1159 1844 
L 1159 0 
L 581 0 
L 581 3500 
L 1159 3500 
L 1159 2956 
Q 1341 3275 1631 3429 
Q 1922 3584 2338 3584 
Q 2397 3584 2469 3576 
Q 2541 3569 2628 3553 
L 2631 2963 
z
" transform="scale(0.015625)"/>
     </defs>
     <use xlink:href="#DejaVuSans-55"/>
     <use xlink:href="#DejaVuSans-2e" transform="translate(73.193359 0)"/>
     <use xlink:href="#DejaVuSans-53" transform="translate(104.980469 0)"/>
     <use xlink:href="#DejaVuSans-2e" transform="translate(168.457031 0)"/>
     <use xlink:href="#DejaVuSans-20" transform="translate(200.244141 0)"/>
     <use xlink:href="#DejaVuSans-44" transform="translate(232.03125 0)"/>
     <use xlink:href="#DejaVuSans-6f" transform="translate(309.033203 0)"/>
     <use xlink:href="#DejaVuSans-6c" transform="translate(370.214844 0)"/>
     <use xlink:href="#DejaVuSans-6c" transform="translate(397.998047 0)"/>
     <use xlink:href="#DejaVuSans-61" transform="translate(425.78125 0)"/>
     <use xlink:href="#DejaVuSans-72" transform="translate(487.060547 0)"/>
     <use xlink:href="#DejaVuSans-20" transform="translate(528.173828 0)"/>
     <use xlink:href="#DejaVuSans-49" transform="translate(559.960938 0)"/>
     <use xlink:href="#DejaVuSans-6e" transform="translate(589.453125 0)"/>
     <use xlink:href="#DejaVuSans-64" transform="translate(652.832031 0)"/>
     <use xlink:href="#DejaVuSans-65" transform="translate(716.308594 0)"/>
     <use xlink:href="#DejaVuSans-78" transform="translate(776.082031 0)"/>
    </g>
   </g>
  </g>
 </g>
 <defs>
  <clipPath id="p27385b59ae">
   <rect x="46.965625" y="33.3575" width="658.24" height="234.6"/>
  </clipPath>
 </defs>
</svg>
