<?xml version="1.0" encoding="utf-8" standalone="no"?>
<!DOCTYPE svg PUBLIC "-//W3C//DTD SVG 1.1//EN"
  "http://www.w3.org/Graphics/SVG/1.1/DTD/svg11.dtd">
<svg xmlns:xlink="http://www.w3.org/1999/xlink" width="712.370625pt" height="291.835625pt" viewBox="0 0 712.370625 291.835625" xmlns="http://www.w3.org/2000/svg" version="1.1">
 <metadata>
  <rdf:RDF xmlns:dc="http://purl.org/dc/elements/1.1/" xmlns:cc="http://creativecommons.org/ns#" xmlns:rdf="http://www.w3.org/1999/02/22-rdf-syntax-ns#">
   <cc:Work>
    <dc:type rdf:resource="http://purl.org/dc/dcmitype/StillImage"/>
    <dc:date>2026-07-13T02:43:40.161427</dc:date>
    <dc:format>image/svg+xml</dc:format>
    <dc:creator>
     <cc:Agent>
      <dc:title>Matplotlib v3.10.8, https://matplotlib.org/</dc:title>
     </cc:Agent>
    </dc:creator>
   </cc:Work>
  </rdf:RDF>
 </metadata>
 <defs>
  <style type="text/css">*{stroke-linejoin: round; stroke-linecap: butt}</style>
 </defs>
 <g id="figure_1">
  <g id="patch_1">
   <path d="M 0 291.835625 
L 712.370625 291.835625 
L 712.370625 0 
L 0 0 
z
" style="fill: #ffffff"/>
  </g>
  <g id="axes_1">
   <g id="patch_2">
    <path d="M 34.240625 267.9575 
L 705.170625 267.9575 
L 705.170625 33.3575 
L 34.240625 33.3575 
z
" style="fill: #ffffff"/>
   </g>
   <g id="FillBetweenPolyCollection_1">
    <defs>
     <path id="m56ff813180" d="M 40.81837 -34.541761 
L 40.81837 -39.388869 
L 44.440219 -38.984943 
L 47.711567 -38.177092 
L 51.333416 -36.561389 
L 54.838431 -36.157464 
L 58.46028 -36.157464 
L 61.965295 -35.349613 
L 65.587144 -36.561389 
L 69.208993 -35.753538 
L 72.714008 -35.349613 
L 76.335857 -35.753538 
L 79.840872 -35.349613 
L 83.462721 -35.753538 
L 87.08457 -36.561389 
L 90.472751 -37.773166 
L 94.0946 -38.177092 
L 97.599616 -38.984943 
L 101.221465 -38.984943 
L 104.72648 -38.984943 
L 108.348329 -37.773166 
L 111.970178 -38.177092 
L 115.475193 -38.984943 
L 119.097042 -38.984943 
L 122.602057 -38.984943 
L 126.223906 -38.177092 
L 129.845755 -38.581018 
L 133.117102 -38.177092 
L 136.738951 -38.581018 
L 140.243967 -36.965315 
L 143.865816 -36.157464 
L 147.370831 -36.157464 
L 150.99268 -35.753538 
L 154.614529 -35.753538 
L 158.119544 -36.157464 
L 161.741393 -35.753538 
L 165.246408 -36.157464 
L 168.868257 -35.349613 
L 172.490106 -35.349613 
L 175.761453 -35.753538 
L 179.383302 -36.157464 
L 182.888318 -36.157464 
L 186.510166 -36.561389 
L 190.015182 -36.157464 
L 193.637031 -36.157464 
L 197.25888 -36.157464 
L 200.763895 -36.157464 
L 204.385744 -36.157464 
L 207.890759 -37.369241 
L 211.512608 -36.965315 
L 215.134457 -36.965315 
L 218.405804 -36.965315 
L 222.027653 -37.369241 
L 225.532668 -37.369241 
L 229.154517 -37.773166 
L 232.659533 -37.773166 
L 236.281382 -38.177092 
L 239.903231 -38.177092 
L 243.408246 -37.369241 
L 247.030095 -37.369241 
L 250.53511 -42.216348 
L 254.156959 -46.255604 
L 257.778808 -47.871307 
L 261.166989 -47.063456 
L 264.788838 -47.467381 
L 268.293853 -47.467381 
L 271.915702 -47.871307 
L 275.420717 -48.275232 
L 279.042566 -48.679158 
L 282.664415 -48.679158 
L 286.169431 -48.679158 
L 289.79128 -49.083084 
L 293.296295 -54.334117 
L 296.918144 -58.777299 
L 300.539993 -59.181224 
L 303.81134 -64.432257 
L 307.433189 -68.875439 
L 310.938204 -69.279365 
L 314.560053 -74.530398 
L 318.065068 -78.97358 
L 321.686917 -79.377505 
L 325.308766 -78.97358 
L 328.813782 -78.97358 
L 332.435631 -79.377505 
L 335.940646 -85.032464 
L 339.562495 -89.475646 
L 343.184344 -89.879571 
L 346.455691 -93.514902 
L 350.07754 -100.785563 
L 353.582555 -101.189489 
L 357.204404 -106.036596 
L 360.709419 -109.671927 
L 364.331268 -109.671927 
L 367.953117 -111.287629 
L 371.458133 -120.981844 
L 375.079982 -121.38577 
L 378.584997 -124.213249 
L 382.206846 -129.464282 
L 385.828695 -129.464282 
L 389.100042 -129.868208 
L 392.721891 -130.272133 
L 396.226906 -129.060356 
L 399.848755 -128.656431 
L 403.35377 -129.464282 
L 406.975619 -118.55829 
L 410.597468 -114.92296 
L 414.102484 -106.440522 
L 417.724333 -95.130604 
L 421.229348 -95.130604 
L 424.851197 -95.130604 
L 428.473046 -96.342381 
L 431.861227 -58.777299 
L 435.483076 -34.541761 
L 438.988091 -34.541761 
L 442.60994 -35.753538 
L 446.114955 -36.157464 
L 449.736804 -36.561389 
L 453.358653 -36.157464 
L 456.863668 -36.157464 
L 460.485517 -36.157464 
L 463.990533 -36.157464 
L 467.612382 -36.157464 
L 471.234231 -35.753538 
L 474.505578 -35.349613 
L 478.127427 -35.349613 
L 481.632442 -34.945687 
L 485.254291 -35.753538 
L 488.759306 -36.561389 
L 492.381155 -36.157464 
L 496.003004 -35.753538 
L 499.508019 -35.753538 
L 503.129868 -35.753538 
L 506.634884 -35.753538 
L 510.256733 -35.753538 
L 513.878582 -35.753538 
L 517.149929 -40.600646 
L 520.771778 -45.851679 
L 524.276793 -63.624406 
L 527.898642 -81.397133 
L 531.403657 -100.381637 
L 535.025506 -126.636803 
L 538.647355 -135.927092 
L 542.15237 -156.931224 
L 545.774219 -185.206018 
L 549.279235 -198.131637 
L 552.901084 -207.421927 
L 556.522932 -217.116142 
L 559.79428 -220.347546 
L 563.416129 -227.618208 
L 566.921144 -236.908497 
L 570.542993 -237.716348 
L 574.048008 -239.332051 
L 577.669857 -247.814489 
L 581.291706 -247.814489 
L 584.796721 -247.814489 
L 588.41857 -247.814489 
L 591.923586 -247.814489 
L 595.545434 -247.814489 
L 599.167283 -247.814489 
L 602.555465 -247.814489 
L 606.177314 -247.814489 
L 609.682329 -247.814489 
L 613.304178 -247.814489 
L 616.809193 -247.814489 
L 620.431042 -247.814489 
L 624.052891 -239.735976 
L 627.557906 -227.618208 
L 631.179755 -219.943621 
L 634.68477 -213.480811 
L 638.306619 -207.421927 
L 641.928468 -207.421927 
L 645.199816 -207.421927 
L 648.821665 -207.421927 
L 652.32668 -207.421927 
L 655.948529 -207.421927 
L 659.453544 -207.421927 
L 663.075393 -207.421927 
L 666.697242 -202.978745 
L 670.202257 -197.727712 
L 673.824106 -189.245274 
L 677.329121 -182.782464 
L 680.95097 -179.551059 
L 684.572819 -179.551059 
L 687.844167 -179.551059 
L 691.466016 -179.551059 
L 694.971031 -179.147133 
L 698.59288 -179.147133 
L 698.59288 -34.541761 
L 698.59288 -34.541761 
L 694.971031 -34.541761 
L 691.466016 -34.541761 
L 687.844167 -34.541761 
L 684.572819 -34.541761 
L 680.95097 -34.541761 
L 677.329121 -34.541761 
L 673.824106 -34.541761 
L 670.202257 -34.541761 
L 666.697242 -34.541761 
L 663.075393 -34.541761 
L 659.453544 -34.541761 
L 655.948529 -34.541761 
L 652.32668 -34.541761 
L 648.821665 -34.541761 
L 645.199816 -34.541761 
L 641.928468 -34.541761 
L 638.306619 -34.541761 
L 634.68477 -34.541761 
L 631.179755 -34.541761 
L 627.557906 -34.541761 
L 624.052891 -34.541761 
L 620.431042 -34.541761 
L 616.809193 -34.541761 
L 613.304178 -34.541761 
L 609.682329 -34.541761 
L 606.177314 -34.541761 
L 602.555465 -34.541761 
L 599.167283 -34.541761 
L 595.545434 -34.541761 
L 591.923586 -34.541761 
L 588.41857 -34.541761 
L 584.796721 -34.541761 
L 581.291706 -34.541761 
L 577.669857 -34.541761 
L 574.048008 -34.541761 
L 570.542993 -34.541761 
L 566.921144 -34.541761 
L 563.416129 -34.541761 
L 559.79428 -34.541761 
L 556.522932 -34.541761 
L 552.901084 -34.541761 
L 549.279235 -34.541761 
L 545.774219 -34.541761 
L 542.15237 -34.541761 
L 538.647355 -34.541761 
L 535.025506 -34.541761 
L 531.403657 -34.541761 
L 527.898642 -34.541761 
L 524.276793 -34.541761 
L 520.771778 -34.541761 
L 517.149929 -34.541761 
L 513.878582 -34.541761 
L 510.256733 -34.541761 
L 506.634884 -34.541761 
L 503.129868 -34.541761 
L 499.508019 -34.541761 
L 496.003004 -34.541761 
L 492.381155 -34.541761 
L 488.759306 -34.541761 
L 485.254291 -34.541761 
L 481.632442 -34.541761 
L 478.127427 -34.541761 
L 474.505578 -34.541761 
L 471.234231 -34.541761 
L 467.612382 -34.541761 
L 463.990533 -34.541761 
L 460.485517 -34.541761 
L 456.863668 -34.541761 
L 453.358653 -34.541761 
L 449.736804 -34.541761 
L 446.114955 -34.541761 
L 442.60994 -34.541761 
L 438.988091 -34.541761 
L 435.483076 -34.541761 
L 431.861227 -34.541761 
L 428.473046 -34.541761 
L 424.851197 -34.541761 
L 421.229348 -34.541761 
L 417.724333 -34.541761 
L 414.102484 -34.541761 
L 410.597468 -34.541761 
L 406.975619 -34.541761 
L 403.35377 -34.541761 
L 399.848755 -34.541761 
L 396.226906 -34.541761 
L 392.721891 -34.541761 
L 389.100042 -34.541761 
L 385.828695 -34.541761 
L 382.206846 -34.541761 
L 378.584997 -34.541761 
L 375.079982 -34.541761 
L 371.458133 -34.541761 
L 367.953117 -34.541761 
L 364.331268 -34.541761 
L 360.709419 -34.541761 
L 357.204404 -34.541761 
L 353.582555 -34.541761 
L 350.07754 -34.541761 
L 346.455691 -34.541761 
L 343.184344 -34.541761 
L 339.562495 -34.541761 
L 335.940646 -34.541761 
L 332.435631 -34.541761 
L 328.813782 -34.541761 
L 325.308766 -34.541761 
L 321.686917 -34.541761 
L 318.065068 -34.541761 
L 314.560053 -34.541761 
L 310.938204 -34.541761 
L 307.433189 -34.541761 
L 303.81134 -34.541761 
L 300.539993 -34.541761 
L 296.918144 -34.541761 
L 293.296295 -34.541761 
L 289.79128 -34.541761 
L 286.169431 -34.541761 
L 282.664415 -34.541761 
L 279.042566 -34.541761 
L 275.420717 -34.541761 
L 271.915702 -34.541761 
L 268.293853 -34.541761 
L 264.788838 -34.541761 
L 261.166989 -34.541761 
L 257.778808 -34.541761 
L 254.156959 -34.541761 
L 250.53511 -34.541761 
L 247.030095 -34.541761 
L 243.408246 -34.541761 
L 239.903231 -34.541761 
L 236.281382 -34.541761 
L 232.659533 -34.541761 
L 229.154517 -34.541761 
L 225.532668 -34.541761 
L 222.027653 -34.541761 
L 218.405804 -34.541761 
L 215.134457 -34.541761 
L 211.512608 -34.541761 
L 207.890759 -34.541761 
L 204.385744 -34.541761 
L 200.763895 -34.541761 
L 197.25888 -34.541761 
L 193.637031 -34.541761 
L 190.015182 -34.541761 
L 186.510166 -34.541761 
L 182.888318 -34.541761 
L 179.383302 -34.541761 
L 175.761453 -34.541761 
L 172.490106 -34.541761 
L 168.868257 -34.541761 
L 165.246408 -34.541761 
L 161.741393 -34.541761 
L 158.119544 -34.541761 
L 154.614529 -34.541761 
L 150.99268 -34.541761 
L 147.370831 -34.541761 
L 143.865816 -34.541761 
L 140.243967 -34.541761 
L 136.738951 -34.541761 
L 133.117102 -34.541761 
L 129.845755 -34.541761 
L 126.223906 -34.541761 
L 122.602057 -34.541761 
L 119.097042 -34.541761 
L 115.475193 -34.541761 
L 111.970178 -34.541761 
L 108.348329 -34.541761 
L 104.72648 -34.541761 
L 101.221465 -34.541761 
L 97.599616 -34.541761 
L 94.0946 -34.541761 
L 90.472751 -34.541761 
L 87.08457 -34.541761 
L 83.462721 -34.541761 
L 79.840872 -34.541761 
L 76.335857 -34.541761 
L 72.714008 -34.541761 
L 69.208993 -34.541761 
L 65.587144 -34.541761 
L 61.965295 -34.541761 
L 58.46028 -34.541761 
L 54.838431 -34.541761 
L 51.333416 -34.541761 
L 47.711567 -34.541761 
L 44.440219 -34.541761 
L 40.81837 -34.541761 
z
" style="stroke: #8b4f74; stroke-opacity: 0.08"/>
    </defs>
    <g clip-path="url(#p8034478945)">
     <use xlink:href="#m56ff813180" x="0" y="291.835625" style="fill: #8b4f74; fill-opacity: 0.08; stroke: #8b4f74; stroke-opacity: 0.08"/>
    </g>
   </g>
   <g id="matplotlib.axis_1">
    <g id="xtick_1">
     <g id="line2d_1">
      <defs>
       <path id="m6bb6b43c89" d="M 0 0 
L 0 3.5 
" style="stroke: #5d6878; stroke-width: 0.8"/>
      </defs>
      <g>
       <use xlink:href="#m6bb6b43c89" x="126.223906" y="267.9575" style="fill: #5d6878; stroke: #5d6878; stroke-width: 0.8"/>
      </g>
     </g>
     <g id="text_1">
      <!-- 2013 -->
      <g style="fill: #5d6878" transform="translate(113.498906 282.555938) scale(0.1 -0.1)">
       <defs>
        <path id="DejaVuSans-32" d="M 1228 531 
L 3431 531 
L 3431 0 
L 469 0 
L 469 531 
Q 828 903 1448 1529 
Q 2069 2156 2228 2338 
Q 2531 2678 2651 2914 
Q 2772 3150 2772 3378 
Q 2772 3750 2511 3984 
Q 2250 4219 1831 4219 
Q 1534 4219 1204 4116 
Q 875 4013 500 3803 
L 500 4441 
Q 881 4594 1212 4672 
Q 1544 4750 1819 4750 
Q 2544 4750 2975 4387 
Q 3406 4025 3406 3419 
Q 3406 3131 3298 2873 
Q 3191 2616 2906 2266 
Q 2828 2175 2409 1742 
Q 1991 1309 1228 531 
z
" transform="scale(0.015625)"/>
        <path id="DejaVuSans-30" d="M 2034 4250 
Q 1547 4250 1301 3770 
Q 1056 3291 1056 2328 
Q 1056 1369 1301 889 
Q 1547 409 2034 409 
Q 2525 409 2770 889 
Q 3016 1369 3016 2328 
Q 3016 3291 2770 3770 
Q 2525 4250 2034 4250 
z
M 2034 4750 
Q 2819 4750 3233 4129 
Q 3647 3509 3647 2328 
Q 3647 1150 3233 529 
Q 2819 -91 2034 -91 
Q 1250 -91 836 529 
Q 422 1150 422 2328 
Q 422 3509 836 4129 
Q 1250 4750 2034 4750 
z
" transform="scale(0.015625)"/>
        <path id="DejaVuSans-31" d="M 794 531 
L 1825 531 
L 1825 4091 
L 703 3866 
L 703 4441 
L 1819 4666 
L 2450 4666 
L 2450 531 
L 3481 531 
L 3481 0 
L 794 0 
L 794 531 
z
" transform="scale(0.015625)"/>
        <path id="DejaVuSans-33" d="M 2597 2516 
Q 3050 2419 3304 2112 
Q 3559 1806 3559 1356 
Q 3559 666 3084 287 
Q 2609 -91 1734 -91 
Q 1441 -91 1130 -33 
Q 819 25 488 141 
L 488 750 
Q 750 597 1062 519 
Q 1375 441 1716 441 
Q 2309 441 2620 675 
Q 2931 909 2931 1356 
Q 2931 1769 2642 2001 
Q 2353 2234 1838 2234 
L 1294 2234 
L 1294 2753 
L 1863 2753 
Q 2328 2753 2575 2939 
Q 2822 3125 2822 3475 
Q 2822 3834 2567 4026 
Q 2313 4219 1838 4219 
Q 1578 4219 1281 4162 
Q 984 4106 628 3988 
L 628 4550 
Q 988 4650 1302 4700 
Q 1616 4750 1894 4750 
Q 2613 4750 3031 4423 
Q 3450 4097 3450 3541 
Q 3450 3153 3228 2886 
Q 3006 2619 2597 2516 
z
" transform="scale(0.015625)"/>
       </defs>
       <use xlink:href="#DejaVuSans-32"/>
       <use xlink:href="#DejaVuSans-30" transform="translate(63.623047 0)"/>
       <use xlink:href="#DejaVuSans-31" transform="translate(127.246094 0)"/>
       <use xlink:href="#DejaVuSans-33" transform="translate(190.869141 0)"/>
      </g>
     </g>
    </g>
    <g id="xtick_2">
     <g id="line2d_2">
      <g>
       <use xlink:href="#m6bb6b43c89" x="254.156959" y="267.9575" style="fill: #5d6878; stroke: #5d6878; stroke-width: 0.8"/>
      </g>
     </g>
     <g id="text_2">
      <!-- 2016 -->
      <g style="fill: #5d6878" transform="translate(241.431959 282.555938) scale(0.1 -0.1)">
       <defs>
        <path id="DejaVuSans-36" d="M 2113 2584 
Q 1688 2584 1439 2293 
Q 1191 2003 1191 1497 
Q 1191 994 1439 701 
Q 1688 409 2113 409 
Q 2538 409 2786 701 
Q 3034 994 3034 1497 
Q 3034 2003 2786 2293 
Q 2538 2584 2113 2584 
z
M 3366 4563 
L 3366 3988 
Q 3128 4100 2886 4159 
Q 2644 4219 2406 4219 
Q 1781 4219 1451 3797 
Q 1122 3375 1075 2522 
Q 1259 2794 1537 2939 
Q 1816 3084 2150 3084 
Q 2853 3084 3261 2657 
Q 3669 2231 3669 1497 
Q 3669 778 3244 343 
Q 2819 -91 2113 -91 
Q 1303 -91 875 529 
Q 447 1150 447 2328 
Q 447 3434 972 4092 
Q 1497 4750 2381 4750 
Q 2619 4750 2861 4703 
Q 3103 4656 3366 4563 
z
" transform="scale(0.015625)"/>
       </defs>
       <use xlink:href="#DejaVuSans-32"/>
       <use xlink:href="#DejaVuSans-30" transform="translate(63.623047 0)"/>
       <use xlink:href="#DejaVuSans-31" transform="translate(127.246094 0)"/>
       <use xlink:href="#DejaVuSans-36" transform="translate(190.869141 0)"/>
      </g>
     </g>
    </g>
    <g id="xtick_3">
     <g id="line2d_3">
      <g>
       <use xlink:href="#m6bb6b43c89" x="382.206846" y="267.9575" style="fill: #5d6878; stroke: #5d6878; stroke-width: 0.8"/>
      </g>
     </g>
     <g id="text_3">
      <!-- 2019 -->
      <g style="fill: #5d6878" transform="translate(369.481846 282.555938) scale(0.1 -0.1)">
       <defs>
        <path id="DejaVuSans-39" d="M 703 97 
L 703 672 
Q 941 559 1184 500 
Q 1428 441 1663 441 
Q 2288 441 2617 861 
Q 2947 1281 2994 2138 
Q 2813 1869 2534 1725 
Q 2256 1581 1919 1581 
Q 1219 1581 811 2004 
Q 403 2428 403 3163 
Q 403 3881 828 4315 
Q 1253 4750 1959 4750 
Q 2769 4750 3195 4129 
Q 3622 3509 3622 2328 
Q 3622 1225 3098 567 
Q 2575 -91 1691 -91 
Q 1453 -91 1209 -44 
Q 966 3 703 97 
z
M 1959 2075 
Q 2384 2075 2632 2365 
Q 2881 2656 2881 3163 
Q 2881 3666 2632 3958 
Q 2384 4250 1959 4250 
Q 1534 4250 1286 3958 
Q 1038 3666 1038 3163 
Q 1038 2656 1286 2365 
Q 1534 2075 1959 2075 
z
" transform="scale(0.015625)"/>
       </defs>
       <use xlink:href="#DejaVuSans-32"/>
       <use xlink:href="#DejaVuSans-30" transform="translate(63.623047 0)"/>
       <use xlink:href="#DejaVuSans-31" transform="translate(127.246094 0)"/>
       <use xlink:href="#DejaVuSans-39" transform="translate(190.869141 0)"/>
      </g>
     </g>
    </g>
    <g id="xtick_4">
     <g id="line2d_4">
      <g>
       <use xlink:href="#m6bb6b43c89" x="510.256733" y="267.9575" style="fill: #5d6878; stroke: #5d6878; stroke-width: 0.8"/>
      </g>
     </g>
     <g id="text_4">
      <!-- 2022 -->
      <g style="fill: #5d6878" transform="translate(497.531733 282.555938) scale(0.1 -0.1)">
       <use xlink:href="#DejaVuSans-32"/>
       <use xlink:href="#DejaVuSans-30" transform="translate(63.623047 0)"/>
       <use xlink:href="#DejaVuSans-32" transform="translate(127.246094 0)"/>
       <use xlink:href="#DejaVuSans-32" transform="translate(190.869141 0)"/>
      </g>
     </g>
    </g>
    <g id="xtick_5">
     <g id="line2d_5">
      <g>
       <use xlink:href="#m6bb6b43c89" x="638.306619" y="267.9575" style="fill: #5d6878; stroke: #5d6878; stroke-width: 0.8"/>
      </g>
     </g>
     <g id="text_5">
      <!-- 2025 -->
      <g style="fill: #5d6878" transform="translate(625.581619 282.555938) scale(0.1 -0.1)">
       <defs>
        <path id="DejaVuSans-35" d="M 691 4666 
L 3169 4666 
L 3169 4134 
L 1269 4134 
L 1269 2991 
Q 1406 3038 1543 3061 
Q 1681 3084 1819 3084 
Q 2600 3084 3056 2656 
Q 3513 2228 3513 1497 
Q 3513 744 3044 326 
Q 2575 -91 1722 -91 
Q 1428 -91 1123 -41 
Q 819 9 494 109 
L 494 744 
Q 775 591 1075 516 
Q 1375 441 1709 441 
Q 2250 441 2565 725 
Q 2881 1009 2881 1497 
Q 2881 1984 2565 2268 
Q 2250 2553 1709 2553 
Q 1456 2553 1204 2497 
Q 953 2441 691 2322 
L 691 4666 
z
" transform="scale(0.015625)"/>
       </defs>
       <use xlink:href="#DejaVuSans-32"/>
       <use xlink:href="#DejaVuSans-30" transform="translate(63.623047 0)"/>
       <use xlink:href="#DejaVuSans-32" transform="translate(127.246094 0)"/>
       <use xlink:href="#DejaVuSans-35" transform="translate(190.869141 0)"/>
      </g>
     </g>
    </g>
   </g>
   <g id="matplotlib.axis_2">
    <g id="ytick_1">
     <g id="line2d_6">
      <path d="M 34.240625 259.313492 
L 705.170625 259.313492 
" clip-path="url(#p8034478945)" style="fill: none; stroke: #e7edf1; stroke-width: 0.8; stroke-linecap: square"/>
     </g>
     <g id="line2d_7">
      <defs>
       <path id="m9a1ba9cf5f" d="M 0 0 
L -3.5 0 
" style="stroke: #5d6878; stroke-width: 0.8"/>
      </defs>
      <g>
       <use xlink:href="#m9a1ba9cf5f" x="34.240625" y="259.313492" style="fill: #5d6878; stroke: #5d6878; stroke-width: 0.8"/>
      </g>
     </g>
     <g id="text_6">
      <!-- 0 -->
      <g style="fill: #5d6878" transform="translate(20.878125 263.11271) scale(0.1 -0.1)">
       <use xlink:href="#DejaVuSans-30"/>
      </g>
     </g>
    </g>
    <g id="ytick_2">
     <g id="line2d_8">
      <path d="M 34.240625 218.92093 
L 705.170625 218.92093 
" clip-path="url(#p8034478945)" style="fill: none; stroke: #e7edf1; stroke-width: 0.8; stroke-linecap: square"/>
     </g>
     <g id="line2d_9">
      <g>
       <use xlink:href="#m9a1ba9cf5f" x="34.240625" y="218.92093" style="fill: #5d6878; stroke: #5d6878; stroke-width: 0.8"/>
      </g>
     </g>
     <g id="text_7">
      <!-- 1 -->
      <g style="fill: #5d6878" transform="translate(20.878125 222.720149) scale(0.1 -0.1)">
       <use xlink:href="#DejaVuSans-31"/>
      </g>
     </g>
    </g>
    <g id="ytick_3">
     <g id="line2d_10">
      <path d="M 34.240625 178.528368 
L 705.170625 178.528368 
" clip-path="url(#p8034478945)" style="fill: none; stroke: #e7edf1; stroke-width: 0.8; stroke-linecap: square"/>
     </g>
     <g id="line2d_11">
      <g>
       <use xlink:href="#m9a1ba9cf5f" x="34.240625" y="178.528368" style="fill: #5d6878; stroke: #5d6878; stroke-width: 0.8"/>
      </g>
     </g>
     <g id="text_8">
      <!-- 2 -->
      <g style="fill: #5d6878" transform="translate(20.878125 182.327587) scale(0.1 -0.1)">
       <use xlink:href="#DejaVuSans-32"/>
      </g>
     </g>
    </g>
    <g id="ytick_4">
     <g id="line2d_12">
      <path d="M 34.240625 138.135806 
L 705.170625 138.135806 
" clip-path="url(#p8034478945)" style="fill: none; stroke: #e7edf1; stroke-width: 0.8; stroke-linecap: square"/>
     </g>
     <g id="line2d_13">
      <g>
       <use xlink:href="#m9a1ba9cf5f" x="34.240625" y="138.135806" style="fill: #5d6878; stroke: #5d6878; stroke-width: 0.8"/>
      </g>
     </g>
     <g id="text_9">
      <!-- 3 -->
      <g style="fill: #5d6878" transform="translate(20.878125 141.935025) scale(0.1 -0.1)">
       <use xlink:href="#DejaVuSans-33"/>
      </g>
     </g>
    </g>
    <g id="ytick_5">
     <g id="line2d_14">
      <path d="M 34.240625 97.743244 
L 705.170625 97.743244 
" clip-path="url(#p8034478945)" style="fill: none; stroke: #e7edf1; stroke-width: 0.8; stroke-linecap: square"/>
     </g>
     <g id="line2d_15">
      <g>
       <use xlink:href="#m9a1ba9cf5f" x="34.240625" y="97.743244" style="fill: #5d6878; stroke: #5d6878; stroke-width: 0.8"/>
      </g>
     </g>
     <g id="text_10">
      <!-- 4 -->
      <g style="fill: #5d6878" transform="translate(20.878125 101.542463) scale(0.1 -0.1)">
       <defs>
        <path id="DejaVuSans-34" d="M 2419 4116 
L 825 1625 
L 2419 1625 
L 2419 4116 
z
M 2253 4666 
L 3047 4666 
L 3047 1625 
L 3713 1625 
L 3713 1100 
L 3047 1100 
L 3047 0 
L 2419 0 
L 2419 1100 
L 313 1100 
L 313 1709 
L 2253 4666 
z
" transform="scale(0.015625)"/>
       </defs>
       <use xlink:href="#DejaVuSans-34"/>
      </g>
     </g>
    </g>
    <g id="ytick_6">
     <g id="line2d_16">
      <path d="M 34.240625 57.350682 
L 705.170625 57.350682 
" clip-path="url(#p8034478945)" style="fill: none; stroke: #e7edf1; stroke-width: 0.8; stroke-linecap: square"/>
     </g>
     <g id="line2d_17">
      <g>
       <use xlink:href="#m9a1ba9cf5f" x="34.240625" y="57.350682" style="fill: #5d6878; stroke: #5d6878; stroke-width: 0.8"/>
      </g>
     </g>
     <g id="text_11">
      <!-- 5 -->
      <g style="fill: #5d6878" transform="translate(20.878125 61.149901) scale(0.1 -0.1)">
       <use xlink:href="#DejaVuSans-35"/>
      </g>
     </g>
    </g>
    <g id="text_12">
     <!-- Percent -->
     <g style="fill: #5d6878" transform="translate(14.798438 169.465313) rotate(-90) scale(0.1 -0.1)">
      <defs>
       <path id="DejaVuSans-50" d="M 1259 4147 
L 1259 2394 
L 2053 2394 
Q 2494 2394 2734 2622 
Q 2975 2850 2975 3272 
Q 2975 3691 2734 3919 
Q 2494 4147 2053 4147 
L 1259 4147 
z
M 628 4666 
L 2053 4666 
Q 2838 4666 3239 4311 
Q 3641 3956 3641 3272 
Q 3641 2581 3239 2228 
Q 2838 1875 2053 1875 
L 1259 1875 
L 1259 0 
L 628 0 
L 628 4666 
z
" transform="scale(0.015625)"/>
       <path id="DejaVuSans-65" d="M 3597 1894 
L 3597 1613 
L 953 1613 
Q 991 1019 1311 708 
Q 1631 397 2203 397 
Q 2534 397 2845 478 
Q 3156 559 3463 722 
L 3463 178 
Q 3153 47 2828 -22 
Q 2503 -91 2169 -91 
Q 1331 -91 842 396 
Q 353 884 353 1716 
Q 353 2575 817 3079 
Q 1281 3584 2069 3584 
Q 2775 3584 3186 3129 
Q 3597 2675 3597 1894 
z
M 3022 2063 
Q 3016 2534 2758 2815 
Q 2500 3097 2075 3097 
Q 1594 3097 1305 2825 
Q 1016 2553 972 2059 
L 3022 2063 
z
" transform="scale(0.015625)"/>
       <path id="DejaVuSans-72" d="M 2631 2963 
Q 2534 3019 2420 3045 
Q 2306 3072 2169 3072 
Q 1681 3072 1420 2755 
Q 1159 2438 1159 1844 
L 1159 0 
L 581 0 
L 581 3500 
L 1159 3500 
L 1159 2956 
Q 1341 3275 1631 3429 
Q 1922 3584 2338 3584 
Q 2397 3584 2469 3576 
Q 2541 3569 2628 3553 
L 2631 2963 
z
" transform="scale(0.015625)"/>
       <path id="DejaVuSans-63" d="M 3122 3366 
L 3122 2828 
Q 2878 2963 2633 3030 
Q 2388 3097 2138 3097 
Q 1578 3097 1268 2742 
Q 959 2388 959 1747 
Q 959 1106 1268 751 
Q 1578 397 2138 397 
Q 2388 397 2633 464 
Q 2878 531 3122 666 
L 3122 134 
Q 2881 22 2623 -34 
Q 2366 -91 2075 -91 
Q 1284 -91 818 406 
Q 353 903 353 1747 
Q 353 2603 823 3093 
Q 1294 3584 2113 3584 
Q 2378 3584 2631 3529 
Q 2884 3475 3122 3366 
z
" transform="scale(0.015625)"/>
       <path id="DejaVuSans-6e" d="M 3513 2113 
L 3513 0 
L 2938 0 
L 2938 2094 
Q 2938 2591 2744 2837 
Q 2550 3084 2163 3084 
Q 1697 3084 1428 2787 
Q 1159 2491 1159 1978 
L 1159 0 
L 581 0 
L 581 3500 
L 1159 3500 
L 1159 2956 
Q 1366 3272 1645 3428 
Q 1925 3584 2291 3584 
Q 2894 3584 3203 3211 
Q 3513 2838 3513 2113 
z
" transform="scale(0.015625)"/>
       <path id="DejaVuSans-74" d="M 1172 4494 
L 1172 3500 
L 2356 3500 
L 2356 3053 
L 1172 3053 
L 1172 1153 
Q 1172 725 1289 603 
Q 1406 481 1766 481 
L 2356 481 
L 2356 0 
L 1766 0 
Q 1100 0 847 248 
Q 594 497 594 1153 
L 594 3053 
L 172 3053 
L 172 3500 
L 594 3500 
L 594 4494 
L 1172 4494 
z
" transform="scale(0.015625)"/>
      </defs>
      <use xlink:href="#DejaVuSans-50"/>
      <use xlink:href="#DejaVuSans-65" transform="translate(56.677734 0)"/>
      <use xlink:href="#DejaVuSans-72" transform="translate(118.201172 0)"/>
      <use xlink:href="#DejaVuSans-63" transform="translate(157.064453 0)"/>
      <use xlink:href="#DejaVuSans-65" transform="translate(212.044922 0)"/>
      <use xlink:href="#DejaVuSans-6e" transform="translate(273.568359 0)"/>
      <use xlink:href="#DejaVuSans-74" transform="translate(336.947266 0)"/>
     </g>
    </g>
   </g>
   <g id="line2d_18">
    <path d="M 40.81837 252.446756 
L 44.440219 252.850682 
L 47.711567 253.658533 
L 51.333416 255.274236 
L 54.838431 255.678161 
L 58.46028 255.678161 
L 61.965295 256.486012 
L 65.587144 255.274236 
L 69.208993 256.082087 
L 72.714008 256.486012 
L 76.335857 256.082087 
L 79.840872 256.486012 
L 83.462721 256.082087 
L 87.08457 255.274236 
L 90.472751 254.062459 
L 94.0946 253.658533 
L 97.599616 252.850682 
L 104.72648 252.850682 
L 108.348329 254.062459 
L 111.970178 253.658533 
L 115.475193 252.850682 
L 122.602057 252.850682 
L 126.223906 253.658533 
L 129.845755 253.254607 
L 133.117102 253.658533 
L 136.738951 253.254607 
L 140.243967 254.87031 
L 143.865816 255.678161 
L 147.370831 255.678161 
L 150.99268 256.082087 
L 154.614529 256.082087 
L 158.119544 255.678161 
L 161.741393 256.082087 
L 165.246408 255.678161 
L 168.868257 256.486012 
L 172.490106 256.486012 
L 179.383302 255.678161 
L 182.888318 255.678161 
L 186.510166 255.274236 
L 190.015182 255.678161 
L 204.385744 255.678161 
L 207.890759 254.466384 
L 211.512608 254.87031 
L 218.405804 254.87031 
L 222.027653 254.466384 
L 225.532668 254.466384 
L 229.154517 254.062459 
L 232.659533 254.062459 
L 236.281382 253.658533 
L 239.903231 253.658533 
L 243.408246 254.466384 
L 247.030095 254.466384 
L 250.53511 249.619277 
L 254.156959 245.580021 
L 257.778808 243.964318 
L 261.166989 244.772169 
L 264.788838 244.368244 
L 268.293853 244.368244 
L 279.042566 243.156467 
L 286.169431 243.156467 
L 289.79128 242.752541 
L 293.296295 237.501508 
L 296.918144 233.058326 
L 300.539993 232.654401 
L 303.81134 227.403368 
L 307.433189 222.960186 
L 310.938204 222.55626 
L 314.560053 217.305227 
L 318.065068 212.862045 
L 321.686917 212.45812 
L 325.308766 212.862045 
L 328.813782 212.862045 
L 332.435631 212.45812 
L 335.940646 206.803161 
L 339.562495 202.359979 
L 343.184344 201.956054 
L 346.455691 198.320723 
L 350.07754 191.050062 
L 353.582555 190.646136 
L 357.204404 185.799029 
L 360.709419 182.163698 
L 364.331268 182.163698 
L 367.953117 180.547996 
L 371.458133 170.853781 
L 375.079982 170.449855 
L 378.584997 167.622376 
L 382.206846 162.371343 
L 385.828695 162.371343 
L 392.721891 161.563492 
L 396.226906 162.775269 
L 399.848755 163.179194 
L 403.35377 162.371343 
L 406.975619 173.277335 
L 410.597468 176.912665 
L 414.102484 185.395103 
L 417.724333 196.705021 
L 424.851197 196.705021 
L 428.473046 195.493244 
L 431.861227 233.058326 
L 435.483076 257.293864 
L 438.988091 257.293864 
L 442.60994 256.082087 
L 449.736804 255.274236 
L 453.358653 255.678161 
L 467.612382 255.678161 
L 474.505578 256.486012 
L 478.127427 256.486012 
L 481.632442 256.889938 
L 488.759306 255.274236 
L 496.003004 256.082087 
L 513.878582 256.082087 
L 520.771778 245.983946 
L 524.276793 228.211219 
L 527.898642 210.438492 
L 531.403657 191.453988 
L 535.025506 165.198822 
L 538.647355 155.908533 
L 542.15237 134.904401 
L 545.774219 106.629607 
L 549.279235 93.703988 
L 552.901084 84.413698 
L 556.522932 74.719483 
L 559.79428 71.488079 
L 563.416129 64.217417 
L 566.921144 54.927128 
L 570.542993 54.119277 
L 574.048008 52.503574 
L 577.669857 44.021136 
L 620.431042 44.021136 
L 624.052891 52.099649 
L 627.557906 64.217417 
L 631.179755 71.892004 
L 634.68477 78.354814 
L 638.306619 84.413698 
L 663.075393 84.413698 
L 666.697242 88.85688 
L 670.202257 94.107913 
L 673.824106 102.590351 
L 677.329121 109.053161 
L 680.95097 112.284566 
L 691.466016 112.284566 
L 694.971031 112.688492 
L 698.59288 112.688492 
L 698.59288 112.688492 
" clip-path="url(#p8034478945)" style="fill: none; stroke: #8b4f74; stroke-width: 2.25; stroke-linecap: square"/>
   </g>
   <g id="patch_3">
    <path d="M 34.240625 267.9575 
L 34.240625 33.3575 
" style="fill: none; stroke: #dce4eb; stroke-width: 0.8; stroke-linejoin: miter; stroke-linecap: square"/>
   </g>
   <g id="patch_4">
    <path d="M 34.240625 267.9575 
L 705.170625 267.9575 
" style="fill: none; stroke: #dce4eb; stroke-width: 0.8; stroke-linejoin: miter; stroke-linecap: square"/>
   </g>
   <g id="text_13">
    <!-- Effective Federal Funds Rate -->
    <g style="fill: #10233f" transform="translate(34.240625 19.3575) scale(0.16 -0.16)">
     <defs>
      <path id="DejaVuSans-45" d="M 628 4666 
L 3578 4666 
L 3578 4134 
L 1259 4134 
L 1259 2753 
L 3481 2753 
L 3481 2222 
L 1259 2222 
L 1259 531 
L 3634 531 
L 3634 0 
L 628 0 
L 628 4666 
z
" transform="scale(0.015625)"/>
      <path id="DejaVuSans-66" d="M 2375 4863 
L 2375 4384 
L 1825 4384 
Q 1516 4384 1395 4259 
Q 1275 4134 1275 3809 
L 1275 3500 
L 2222 3500 
L 2222 3053 
L 1275 3053 
L 1275 0 
L 697 0 
L 697 3053 
L 147 3053 
L 147 3500 
L 697 3500 
L 697 3744 
Q 697 4328 969 4595 
Q 1241 4863 1831 4863 
L 2375 4863 
z
" transform="scale(0.015625)"/>
      <path id="DejaVuSans-69" d="M 603 3500 
L 1178 3500 
L 1178 0 
L 603 0 
L 603 3500 
z
M 603 4863 
L 1178 4863 
L 1178 4134 
L 603 4134 
L 603 4863 
z
" transform="scale(0.015625)"/>
      <path id="DejaVuSans-76" d="M 191 3500 
L 800 3500 
L 1894 563 
L 2988 3500 
L 3597 3500 
L 2284 0 
L 1503 0 
L 191 3500 
z
" transform="scale(0.015625)"/>
      <path id="DejaVuSans-20" transform="scale(0.015625)"/>
      <path id="DejaVuSans-46" d="M 628 4666 
L 3309 4666 
L 3309 4134 
L 1259 4134 
L 1259 2759 
L 3109 2759 
L 3109 2228 
L 1259 2228 
L 1259 0 
L 628 0 
L 628 4666 
z
" transform="scale(0.015625)"/>
      <path id="DejaVuSans-64" d="M 2906 2969 
L 2906 4863 
L 3481 4863 
L 3481 0 
L 2906 0 
L 2906 525 
Q 2725 213 2448 61 
Q 2172 -91 1784 -91 
Q 1150 -91 751 415 
Q 353 922 353 1747 
Q 353 2572 751 3078 
Q 1150 3584 1784 3584 
Q 2172 3584 2448 3432 
Q 2725 3281 2906 2969 
z
M 947 1747 
Q 947 1113 1208 752 
Q 1469 391 1925 391 
Q 2381 391 2643 752 
Q 2906 1113 2906 1747 
Q 2906 2381 2643 2742 
Q 2381 3103 1925 3103 
Q 1469 3103 1208 2742 
Q 947 2381 947 1747 
z
" transform="scale(0.015625)"/>
      <path id="DejaVuSans-61" d="M 2194 1759 
Q 1497 1759 1228 1600 
Q 959 1441 959 1056 
Q 959 750 1161 570 
Q 1363 391 1709 391 
Q 2188 391 2477 730 
Q 2766 1069 2766 1631 
L 2766 1759 
L 2194 1759 
z
M 3341 1997 
L 3341 0 
L 2766 0 
L 2766 531 
Q 2569 213 2275 61 
Q 1981 -91 1556 -91 
Q 1019 -91 701 211 
Q 384 513 384 1019 
Q 384 1609 779 1909 
Q 1175 2209 1959 2209 
L 2766 2209 
L 2766 2266 
Q 2766 2663 2505 2880 
Q 2244 3097 1772 3097 
Q 1472 3097 1187 3025 
Q 903 2953 641 2809 
L 641 3341 
Q 956 3463 1253 3523 
Q 1550 3584 1831 3584 
Q 2591 3584 2966 3190 
Q 3341 2797 3341 1997 
z
" transform="scale(0.015625)"/>
      <path id="DejaVuSans-6c" d="M 603 4863 
L 1178 4863 
L 1178 0 
L 603 0 
L 603 4863 
z
" transform="scale(0.015625)"/>
      <path id="DejaVuSans-75" d="M 544 1381 
L 544 3500 
L 1119 3500 
L 1119 1403 
Q 1119 906 1312 657 
Q 1506 409 1894 409 
Q 2359 409 2629 706 
Q 2900 1003 2900 1516 
L 2900 3500 
L 3475 3500 
L 3475 0 
L 2900 0 
L 2900 538 
Q 2691 219 2414 64 
Q 2138 -91 1772 -91 
Q 1169 -91 856 284 
Q 544 659 544 1381 
z
M 1991 3584 
L 1991 3584 
z
" transform="scale(0.015625)"/>
      <path id="DejaVuSans-73" d="M 2834 3397 
L 2834 2853 
Q 2591 2978 2328 3040 
Q 2066 3103 1784 3103 
Q 1356 3103 1142 2972 
Q 928 2841 928 2578 
Q 928 2378 1081 2264 
Q 1234 2150 1697 2047 
L 1894 2003 
Q 2506 1872 2764 1633 
Q 3022 1394 3022 966 
Q 3022 478 2636 193 
Q 2250 -91 1575 -91 
Q 1294 -91 989 -36 
Q 684 19 347 128 
L 347 722 
Q 666 556 975 473 
Q 1284 391 1588 391 
Q 1994 391 2212 530 
Q 2431 669 2431 922 
Q 2431 1156 2273 1281 
Q 2116 1406 1581 1522 
L 1381 1569 
Q 847 1681 609 1914 
Q 372 2147 372 2553 
Q 372 3047 722 3315 
Q 1072 3584 1716 3584 
Q 2034 3584 2315 3537 
Q 2597 3491 2834 3397 
z
" transform="scale(0.015625)"/>
      <path id="DejaVuSans-52" d="M 2841 2188 
Q 3044 2119 3236 1894 
Q 3428 1669 3622 1275 
L 4263 0 
L 3584 0 
L 2988 1197 
Q 2756 1666 2539 1819 
Q 2322 1972 1947 1972 
L 1259 1972 
L 1259 0 
L 628 0 
L 628 4666 
L 2053 4666 
Q 2853 4666 3247 4331 
Q 3641 3997 3641 3322 
Q 3641 2881 3436 2590 
Q 3231 2300 2841 2188 
z
M 1259 4147 
L 1259 2491 
L 2053 2491 
Q 2509 2491 2742 2702 
Q 2975 2913 2975 3322 
Q 2975 3731 2742 3939 
Q 2509 4147 2053 4147 
L 1259 4147 
z
" transform="scale(0.015625)"/>
     </defs>
     <use xlink:href="#DejaVuSans-45"/>
     <use xlink:href="#DejaVuSans-66" transform="translate(63.183594 0)"/>
     <use xlink:href="#DejaVuSans-66" transform="translate(98.388672 0)"/>
     <use xlink:href="#DejaVuSans-65" transform="translate(133.59375 0)"/>
     <use xlink:href="#DejaVuSans-63" transform="translate(195.117188 0)"/>
     <use xlink:href="#DejaVuSans-74" transform="translate(250.097656 0)"/>
     <use xlink:href="#DejaVuSans-69" transform="translate(289.306641 0)"/>
     <use xlink:href="#DejaVuSans-76" transform="translate(317.089844 0)"/>
     <use xlink:href="#DejaVuSans-65" transform="translate(376.269531 0)"/>
     <use xlink:href="#DejaVuSans-20" transform="translate(437.792969 0)"/>
     <use xlink:href="#DejaVuSans-46" transform="translate(469.580078 0)"/>
     <use xlink:href="#DejaVuSans-65" transform="translate(521.599609 0)"/>
     <use xlink:href="#DejaVuSans-64" transform="translate(583.123047 0)"/>
     <use xlink:href="#DejaVuSans-65" transform="translate(646.599609 0)"/>
     <use xlink:href="#DejaVuSans-72" transform="translate(708.123047 0)"/>
     <use xlink:href="#DejaVuSans-61" transform="translate(749.236328 0)"/>
     <use xlink:href="#DejaVuSans-6c" transform="translate(810.515625 0)"/>
     <use xlink:href="#DejaVuSans-20" transform="translate(838.298828 0)"/>
     <use xlink:href="#DejaVuSans-46" transform="translate(870.085938 0)"/>
     <use xlink:href="#DejaVuSans-75" transform="translate(922.105469 0)"/>
     <use xlink:href="#DejaVuSans-6e" transform="translate(985.484375 0)"/>
     <use xlink:href="#DejaVuSans-64" transform="translate(1048.863281 0)"/>
     <use xlink:href="#DejaVuSans-73" transform="translate(1112.339844 0)"/>
     <use xlink:href="#DejaVuSans-20" transform="translate(1164.439453 0)"/>
     <use xlink:href="#DejaVuSans-52" transform="translate(1196.226562 0)"/>
     <use xlink:href="#DejaVuSans-61" transform="translate(1263.458984 0)"/>
     <use xlink:href="#DejaVuSans-74" transform="translate(1324.738281 0)"/>
     <use xlink:href="#DejaVuSans-65" transform="translate(1363.947266 0)"/>
    </g>
   </g>
  </g>
 </g>
 <defs>
  <clipPath id="p8034478945">
   <rect x="34.240625" y="33.3575" width="670.93" height="234.6"/>
  </clipPath>
 </defs>
</svg>
