<?xml version="1.0" encoding="utf-8" standalone="no"?>
<!DOCTYPE svg PUBLIC "-//W3C//DTD SVG 1.1//EN"
  "http://www.w3.org/Graphics/SVG/1.1/DTD/svg11.dtd">
<svg xmlns:xlink="http://www.w3.org/1999/xlink" width="745.970625pt" height="295.235469pt" viewBox="0 0 745.970625 295.235469" xmlns="http://www.w3.org/2000/svg" version="1.1">
 <metadata>
  <rdf:RDF xmlns:dc="http://purl.org/dc/elements/1.1/" xmlns:cc="http://creativecommons.org/ns#" xmlns:rdf="http://www.w3.org/1999/02/22-rdf-syntax-ns#">
   <cc:Work>
    <dc:type rdf:resource="http://purl.org/dc/dcmitype/StillImage"/>
    <dc:date>2026-07-13T03:16:49.106437</dc:date>
    <dc:format>image/svg+xml</dc:format>
    <dc:creator>
     <cc:Agent>
      <dc:title>Matplotlib v3.10.8, https://matplotlib.org/</dc:title>
     </cc:Agent>
    </dc:creator>
   </cc:Work>
  </rdf:RDF>
 </metadata>
 <defs>
  <style type="text/css">*{stroke-linejoin: round; stroke-linecap: butt}</style>
 </defs>
 <g id="figure_1">
  <g id="patch_1">
   <path d="M 0 295.235469 
L 745.970625 295.235469 
L 745.970625 0 
L 0 0 
z
" style="fill: #ffffff"/>
  </g>
  <g id="axes_1">
   <g id="patch_2">
    <path d="M 36.740625 271.357344 
L 738.770625 271.357344 
L 738.770625 46.117344 
L 36.740625 46.117344 
z
" style="fill: #ffffff"/>
   </g>
   <g id="FillBetweenPolyCollection_1">
    <defs>
     <path id="mefa8028780" d="M 46.964363 -23.878125 
L 46.964363 -44.282262 
L 50.717304 -43.906079 
L 54.107057 -43.153714 
L 57.859998 -41.648984 
L 61.491877 -41.272802 
L 65.244818 -41.272802 
L 68.876696 -40.520437 
L 72.629637 -41.648984 
L 76.382578 -40.896619 
L 80.014457 -40.520437 
L 83.767398 -40.896619 
L 87.399276 -40.520437 
L 91.152217 -40.896619 
L 94.905159 -41.648984 
L 98.415974 -42.777532 
L 102.168915 -43.153714 
L 105.800794 -43.906079 
L 109.553735 -43.906079 
L 113.185613 -43.906079 
L 116.938555 -42.777532 
L 120.691496 -43.153714 
L 124.323374 -43.906079 
L 128.076315 -43.906079 
L 131.708194 -43.906079 
L 135.461135 -43.153714 
L 139.214076 -43.529897 
L 142.603829 -43.153714 
L 146.35677 -43.529897 
L 149.988649 -42.025167 
L 153.74159 -41.272802 
L 157.373468 -41.272802 
L 161.126409 -40.896619 
L 164.87935 -40.896619 
L 168.511229 -41.272802 
L 172.26417 -40.896619 
L 175.896048 -41.272802 
L 179.648989 -40.520437 
L 183.40193 -40.520437 
L 186.791684 -40.896619 
L 190.544625 -41.272802 
L 194.176503 -41.272802 
L 197.929444 -41.648984 
L 201.561323 -41.272802 
L 205.314264 -41.272802 
L 209.067205 -41.272802 
L 212.699083 -41.272802 
L 216.452024 -41.272802 
L 220.083903 -42.401349 
L 223.836844 -42.025167 
L 227.589785 -42.025167 
L 230.979538 -42.025167 
L 234.732479 -42.401349 
L 238.364358 -42.401349 
L 242.117299 -42.777532 
L 245.749177 -42.777532 
L 249.502118 -43.153714 
L 253.255059 -43.153714 
L 256.886938 -42.401349 
L 260.639879 -42.401349 
L 264.271757 -46.915539 
L 268.024698 -50.677363 
L 271.77764 -52.182093 
L 275.288455 -51.429728 
L 279.041396 -51.805911 
L 282.673275 -51.805911 
L 286.426216 -52.182093 
L 290.058094 -52.558276 
L 293.811036 -52.934458 
L 297.563977 -52.934458 
L 301.195855 -52.934458 
L 304.948796 -53.310641 
L 308.580675 -58.201013 
L 312.333616 -62.33902 
L 316.086557 -62.715202 
L 319.47631 -67.605574 
L 323.229251 -71.743581 
L 326.861129 -72.119764 
L 330.614071 -77.010136 
L 334.245949 -81.148143 
L 337.99889 -81.524325 
L 341.751831 -81.148143 
L 345.38371 -81.148143 
L 349.136651 -81.524325 
L 352.768529 -86.79088 
L 356.52147 -90.928887 
L 360.274411 -91.305069 
L 363.664165 -94.690711 
L 367.417106 -101.461995 
L 371.048984 -101.838178 
L 374.801925 -106.352367 
L 378.433804 -109.73801 
L 382.186745 -109.73801 
L 385.939686 -111.242739 
L 389.571564 -120.271118 
L 393.324505 -120.647301 
L 396.956384 -123.280578 
L 400.709325 -128.17095 
L 404.462266 -128.17095 
L 407.852019 -128.547133 
L 411.60496 -128.923315 
L 415.236839 -127.794768 
L 418.98978 -127.418585 
L 422.621658 -128.17095 
L 426.374599 -118.014024 
L 430.12754 -114.628382 
L 433.759419 -106.72855 
L 437.51236 -96.195441 
L 441.144238 -96.195441 
L 444.897179 -96.195441 
L 448.650121 -97.323988 
L 452.160936 -62.33902 
L 455.913877 -39.768072 
L 459.545756 -39.768072 
L 463.298697 -40.896619 
L 466.930575 -41.272802 
L 470.683516 -41.648984 
L 474.436458 -41.272802 
L 478.068336 -41.272802 
L 481.821277 -41.272802 
L 485.453156 -41.272802 
L 489.206097 -41.272802 
L 492.959038 -40.896619 
L 496.348791 -40.520437 
L 500.101732 -40.520437 
L 503.73361 -40.144255 
L 507.486552 -40.896619 
L 511.11843 -41.648984 
L 514.871371 -41.272802 
L 518.624312 -40.896619 
L 522.256191 -40.896619 
L 526.009132 -40.896619 
L 529.64101 -40.896619 
L 533.393951 -40.896619 
L 537.146892 -40.896619 
L 540.536646 -45.410809 
L 544.289587 -50.301181 
L 547.921465 -66.853209 
L 551.674406 -83.405237 
L 555.306285 -101.085813 
L 559.059226 -125.537673 
L 562.812167 -134.189869 
L 566.444045 -153.751357 
L 570.196986 -180.084129 
L 573.828865 -192.121968 
L 577.581806 -200.774165 
L 581.334747 -209.802544 
L 584.7245 -212.812003 
L 588.477441 -219.583288 
L 592.10932 -228.235484 
L 595.862261 -228.987849 
L 599.494139 -230.492579 
L 603.24708 -238.392411 
L 607.000021 -238.392411 
L 610.6319 -238.392411 
L 614.384841 -238.392411 
L 618.016719 -238.392411 
L 621.76966 -238.392411 
L 625.522601 -238.392411 
L 629.033417 -238.392411 
L 632.786358 -238.392411 
L 636.418237 -238.392411 
L 640.171178 -238.392411 
L 643.803056 -238.392411 
L 647.555997 -238.392411 
L 651.308939 -230.868762 
L 654.940817 -219.583288 
L 658.693758 -212.435821 
L 662.325637 -206.416902 
L 666.078578 -200.774165 
L 669.831519 -200.774165 
L 673.221272 -200.774165 
L 676.974213 -200.774165 
L 680.606091 -200.774165 
L 684.359033 -200.774165 
L 687.990911 -200.774165 
L 691.743852 -200.774165 
L 695.496793 -196.636158 
L 699.128672 -191.745786 
L 702.881613 -183.845954 
L 706.513491 -177.827035 
L 710.266432 -174.817575 
L 714.019373 -174.817575 
L 717.409127 -174.817575 
L 721.162068 -174.817575 
L 724.793946 -174.441393 
L 728.546887 -174.441393 
L 728.546887 -23.878125 
L 728.546887 -23.878125 
L 724.793946 -23.878125 
L 721.162068 -23.878125 
L 717.409127 -23.878125 
L 714.019373 -23.878125 
L 710.266432 -23.878125 
L 706.513491 -23.878125 
L 702.881613 -23.878125 
L 699.128672 -23.878125 
L 695.496793 -23.878125 
L 691.743852 -23.878125 
L 687.990911 -23.878125 
L 684.359033 -23.878125 
L 680.606091 -23.878125 
L 676.974213 -23.878125 
L 673.221272 -23.878125 
L 669.831519 -23.878125 
L 666.078578 -23.878125 
L 662.325637 -23.878125 
L 658.693758 -23.878125 
L 654.940817 -23.878125 
L 651.308939 -23.878125 
L 647.555997 -23.878125 
L 643.803056 -23.878125 
L 640.171178 -23.878125 
L 636.418237 -23.878125 
L 632.786358 -23.878125 
L 629.033417 -23.878125 
L 625.522601 -23.878125 
L 621.76966 -23.878125 
L 618.016719 -23.878125 
L 614.384841 -23.878125 
L 610.6319 -23.878125 
L 607.000021 -23.878125 
L 603.24708 -23.878125 
L 599.494139 -23.878125 
L 595.862261 -23.878125 
L 592.10932 -23.878125 
L 588.477441 -23.878125 
L 584.7245 -23.878125 
L 581.334747 -23.878125 
L 577.581806 -23.878125 
L 573.828865 -23.878125 
L 570.196986 -23.878125 
L 566.444045 -23.878125 
L 562.812167 -23.878125 
L 559.059226 -23.878125 
L 555.306285 -23.878125 
L 551.674406 -23.878125 
L 547.921465 -23.878125 
L 544.289587 -23.878125 
L 540.536646 -23.878125 
L 537.146892 -23.878125 
L 533.393951 -23.878125 
L 529.64101 -23.878125 
L 526.009132 -23.878125 
L 522.256191 -23.878125 
L 518.624312 -23.878125 
L 514.871371 -23.878125 
L 511.11843 -23.878125 
L 507.486552 -23.878125 
L 503.73361 -23.878125 
L 500.101732 -23.878125 
L 496.348791 -23.878125 
L 492.959038 -23.878125 
L 489.206097 -23.878125 
L 485.453156 -23.878125 
L 481.821277 -23.878125 
L 478.068336 -23.878125 
L 474.436458 -23.878125 
L 470.683516 -23.878125 
L 466.930575 -23.878125 
L 463.298697 -23.878125 
L 459.545756 -23.878125 
L 455.913877 -23.878125 
L 452.160936 -23.878125 
L 448.650121 -23.878125 
L 444.897179 -23.878125 
L 441.144238 -23.878125 
L 437.51236 -23.878125 
L 433.759419 -23.878125 
L 430.12754 -23.878125 
L 426.374599 -23.878125 
L 422.621658 -23.878125 
L 418.98978 -23.878125 
L 415.236839 -23.878125 
L 411.60496 -23.878125 
L 407.852019 -23.878125 
L 404.462266 -23.878125 
L 400.709325 -23.878125 
L 396.956384 -23.878125 
L 393.324505 -23.878125 
L 389.571564 -23.878125 
L 385.939686 -23.878125 
L 382.186745 -23.878125 
L 378.433804 -23.878125 
L 374.801925 -23.878125 
L 371.048984 -23.878125 
L 367.417106 -23.878125 
L 363.664165 -23.878125 
L 360.274411 -23.878125 
L 356.52147 -23.878125 
L 352.768529 -23.878125 
L 349.136651 -23.878125 
L 345.38371 -23.878125 
L 341.751831 -23.878125 
L 337.99889 -23.878125 
L 334.245949 -23.878125 
L 330.614071 -23.878125 
L 326.861129 -23.878125 
L 323.229251 -23.878125 
L 319.47631 -23.878125 
L 316.086557 -23.878125 
L 312.333616 -23.878125 
L 308.580675 -23.878125 
L 304.948796 -23.878125 
L 301.195855 -23.878125 
L 297.563977 -23.878125 
L 293.811036 -23.878125 
L 290.058094 -23.878125 
L 286.426216 -23.878125 
L 282.673275 -23.878125 
L 279.041396 -23.878125 
L 275.288455 -23.878125 
L 271.77764 -23.878125 
L 268.024698 -23.878125 
L 264.271757 -23.878125 
L 260.639879 -23.878125 
L 256.886938 -23.878125 
L 253.255059 -23.878125 
L 249.502118 -23.878125 
L 245.749177 -23.878125 
L 242.117299 -23.878125 
L 238.364358 -23.878125 
L 234.732479 -23.878125 
L 230.979538 -23.878125 
L 227.589785 -23.878125 
L 223.836844 -23.878125 
L 220.083903 -23.878125 
L 216.452024 -23.878125 
L 212.699083 -23.878125 
L 209.067205 -23.878125 
L 205.314264 -23.878125 
L 201.561323 -23.878125 
L 197.929444 -23.878125 
L 194.176503 -23.878125 
L 190.544625 -23.878125 
L 186.791684 -23.878125 
L 183.40193 -23.878125 
L 179.648989 -23.878125 
L 175.896048 -23.878125 
L 172.26417 -23.878125 
L 168.511229 -23.878125 
L 164.87935 -23.878125 
L 161.126409 -23.878125 
L 157.373468 -23.878125 
L 153.74159 -23.878125 
L 149.988649 -23.878125 
L 146.35677 -23.878125 
L 142.603829 -23.878125 
L 139.214076 -23.878125 
L 135.461135 -23.878125 
L 131.708194 -23.878125 
L 128.076315 -23.878125 
L 124.323374 -23.878125 
L 120.691496 -23.878125 
L 116.938555 -23.878125 
L 113.185613 -23.878125 
L 109.553735 -23.878125 
L 105.800794 -23.878125 
L 102.168915 -23.878125 
L 98.415974 -23.878125 
L 94.905159 -23.878125 
L 91.152217 -23.878125 
L 87.399276 -23.878125 
L 83.767398 -23.878125 
L 80.014457 -23.878125 
L 76.382578 -23.878125 
L 72.629637 -23.878125 
L 68.876696 -23.878125 
L 65.244818 -23.878125 
L 61.491877 -23.878125 
L 57.859998 -23.878125 
L 54.107057 -23.878125 
L 50.717304 -23.878125 
L 46.964363 -23.878125 
z
" style="stroke: #8b4f74; stroke-opacity: 0.09"/>
    </defs>
    <g clip-path="url(#p087c08b7b9)">
     <use xlink:href="#mefa8028780" x="0" y="295.235469" style="fill: #8b4f74; fill-opacity: 0.09; stroke: #8b4f74; stroke-opacity: 0.09"/>
    </g>
   </g>
   <g id="matplotlib.axis_1">
    <g id="xtick_1">
     <g id="line2d_1">
      <defs>
       <path id="m273d33f7ce" d="M 0 0 
L 0 3.5 
" style="stroke: #687486; stroke-width: 0.8"/>
      </defs>
      <g>
       <use xlink:href="#m273d33f7ce" x="135.461135" y="271.357344" style="fill: #687486; stroke: #687486; stroke-width: 0.8"/>
      </g>
     </g>
     <g id="text_1">
      <!-- 2013 -->
      <g style="fill: #687486" transform="translate(122.736135 285.955781) scale(0.1 -0.1)">
       <defs>
        <path id="DejaVuSans-32" d="M 1228 531 
L 3431 531 
L 3431 0 
L 469 0 
L 469 531 
Q 828 903 1448 1529 
Q 2069 2156 2228 2338 
Q 2531 2678 2651 2914 
Q 2772 3150 2772 3378 
Q 2772 3750 2511 3984 
Q 2250 4219 1831 4219 
Q 1534 4219 1204 4116 
Q 875 4013 500 3803 
L 500 4441 
Q 881 4594 1212 4672 
Q 1544 4750 1819 4750 
Q 2544 4750 2975 4387 
Q 3406 4025 3406 3419 
Q 3406 3131 3298 2873 
Q 3191 2616 2906 2266 
Q 2828 2175 2409 1742 
Q 1991 1309 1228 531 
z
" transform="scale(0.015625)"/>
        <path id="DejaVuSans-30" d="M 2034 4250 
Q 1547 4250 1301 3770 
Q 1056 3291 1056 2328 
Q 1056 1369 1301 889 
Q 1547 409 2034 409 
Q 2525 409 2770 889 
Q 3016 1369 3016 2328 
Q 3016 3291 2770 3770 
Q 2525 4250 2034 4250 
z
M 2034 4750 
Q 2819 4750 3233 4129 
Q 3647 3509 3647 2328 
Q 3647 1150 3233 529 
Q 2819 -91 2034 -91 
Q 1250 -91 836 529 
Q 422 1150 422 2328 
Q 422 3509 836 4129 
Q 1250 4750 2034 4750 
z
" transform="scale(0.015625)"/>
        <path id="DejaVuSans-31" d="M 794 531 
L 1825 531 
L 1825 4091 
L 703 3866 
L 703 4441 
L 1819 4666 
L 2450 4666 
L 2450 531 
L 3481 531 
L 3481 0 
L 794 0 
L 794 531 
z
" transform="scale(0.015625)"/>
        <path id="DejaVuSans-33" d="M 2597 2516 
Q 3050 2419 3304 2112 
Q 3559 1806 3559 1356 
Q 3559 666 3084 287 
Q 2609 -91 1734 -91 
Q 1441 -91 1130 -33 
Q 819 25 488 141 
L 488 750 
Q 750 597 1062 519 
Q 1375 441 1716 441 
Q 2309 441 2620 675 
Q 2931 909 2931 1356 
Q 2931 1769 2642 2001 
Q 2353 2234 1838 2234 
L 1294 2234 
L 1294 2753 
L 1863 2753 
Q 2328 2753 2575 2939 
Q 2822 3125 2822 3475 
Q 2822 3834 2567 4026 
Q 2313 4219 1838 4219 
Q 1578 4219 1281 4162 
Q 984 4106 628 3988 
L 628 4550 
Q 988 4650 1302 4700 
Q 1616 4750 1894 4750 
Q 2613 4750 3031 4423 
Q 3450 4097 3450 3541 
Q 3450 3153 3228 2886 
Q 3006 2619 2597 2516 
z
" transform="scale(0.015625)"/>
       </defs>
       <use xlink:href="#DejaVuSans-32"/>
       <use xlink:href="#DejaVuSans-30" transform="translate(63.623047 0)"/>
       <use xlink:href="#DejaVuSans-31" transform="translate(127.246094 0)"/>
       <use xlink:href="#DejaVuSans-33" transform="translate(190.869141 0)"/>
      </g>
     </g>
    </g>
    <g id="xtick_2">
     <g id="line2d_2">
      <g>
       <use xlink:href="#m273d33f7ce" x="268.024698" y="271.357344" style="fill: #687486; stroke: #687486; stroke-width: 0.8"/>
      </g>
     </g>
     <g id="text_2">
      <!-- 2016 -->
      <g style="fill: #687486" transform="translate(255.299698 285.955781) scale(0.1 -0.1)">
       <defs>
        <path id="DejaVuSans-36" d="M 2113 2584 
Q 1688 2584 1439 2293 
Q 1191 2003 1191 1497 
Q 1191 994 1439 701 
Q 1688 409 2113 409 
Q 2538 409 2786 701 
Q 3034 994 3034 1497 
Q 3034 2003 2786 2293 
Q 2538 2584 2113 2584 
z
M 3366 4563 
L 3366 3988 
Q 3128 4100 2886 4159 
Q 2644 4219 2406 4219 
Q 1781 4219 1451 3797 
Q 1122 3375 1075 2522 
Q 1259 2794 1537 2939 
Q 1816 3084 2150 3084 
Q 2853 3084 3261 2657 
Q 3669 2231 3669 1497 
Q 3669 778 3244 343 
Q 2819 -91 2113 -91 
Q 1303 -91 875 529 
Q 447 1150 447 2328 
Q 447 3434 972 4092 
Q 1497 4750 2381 4750 
Q 2619 4750 2861 4703 
Q 3103 4656 3366 4563 
z
" transform="scale(0.015625)"/>
       </defs>
       <use xlink:href="#DejaVuSans-32"/>
       <use xlink:href="#DejaVuSans-30" transform="translate(63.623047 0)"/>
       <use xlink:href="#DejaVuSans-31" transform="translate(127.246094 0)"/>
       <use xlink:href="#DejaVuSans-36" transform="translate(190.869141 0)"/>
      </g>
     </g>
    </g>
    <g id="xtick_3">
     <g id="line2d_3">
      <g>
       <use xlink:href="#m273d33f7ce" x="400.709325" y="271.357344" style="fill: #687486; stroke: #687486; stroke-width: 0.8"/>
      </g>
     </g>
     <g id="text_3">
      <!-- 2019 -->
      <g style="fill: #687486" transform="translate(387.984325 285.955781) scale(0.1 -0.1)">
       <defs>
        <path id="DejaVuSans-39" d="M 703 97 
L 703 672 
Q 941 559 1184 500 
Q 1428 441 1663 441 
Q 2288 441 2617 861 
Q 2947 1281 2994 2138 
Q 2813 1869 2534 1725 
Q 2256 1581 1919 1581 
Q 1219 1581 811 2004 
Q 403 2428 403 3163 
Q 403 3881 828 4315 
Q 1253 4750 1959 4750 
Q 2769 4750 3195 4129 
Q 3622 3509 3622 2328 
Q 3622 1225 3098 567 
Q 2575 -91 1691 -91 
Q 1453 -91 1209 -44 
Q 966 3 703 97 
z
M 1959 2075 
Q 2384 2075 2632 2365 
Q 2881 2656 2881 3163 
Q 2881 3666 2632 3958 
Q 2384 4250 1959 4250 
Q 1534 4250 1286 3958 
Q 1038 3666 1038 3163 
Q 1038 2656 1286 2365 
Q 1534 2075 1959 2075 
z
" transform="scale(0.015625)"/>
       </defs>
       <use xlink:href="#DejaVuSans-32"/>
       <use xlink:href="#DejaVuSans-30" transform="translate(63.623047 0)"/>
       <use xlink:href="#DejaVuSans-31" transform="translate(127.246094 0)"/>
       <use xlink:href="#DejaVuSans-39" transform="translate(190.869141 0)"/>
      </g>
     </g>
    </g>
    <g id="xtick_4">
     <g id="line2d_4">
      <g>
       <use xlink:href="#m273d33f7ce" x="533.393951" y="271.357344" style="fill: #687486; stroke: #687486; stroke-width: 0.8"/>
      </g>
     </g>
     <g id="text_4">
      <!-- 2022 -->
      <g style="fill: #687486" transform="translate(520.668951 285.955781) scale(0.1 -0.1)">
       <use xlink:href="#DejaVuSans-32"/>
       <use xlink:href="#DejaVuSans-30" transform="translate(63.623047 0)"/>
       <use xlink:href="#DejaVuSans-32" transform="translate(127.246094 0)"/>
       <use xlink:href="#DejaVuSans-32" transform="translate(190.869141 0)"/>
      </g>
     </g>
    </g>
    <g id="xtick_5">
     <g id="line2d_5">
      <g>
       <use xlink:href="#m273d33f7ce" x="666.078578" y="271.357344" style="fill: #687486; stroke: #687486; stroke-width: 0.8"/>
      </g>
     </g>
     <g id="text_5">
      <!-- 2025 -->
      <g style="fill: #687486" transform="translate(653.353578 285.955781) scale(0.1 -0.1)">
       <defs>
        <path id="DejaVuSans-35" d="M 691 4666 
L 3169 4666 
L 3169 4134 
L 1269 4134 
L 1269 2991 
Q 1406 3038 1543 3061 
Q 1681 3084 1819 3084 
Q 2600 3084 3056 2656 
Q 3513 2228 3513 1497 
Q 3513 744 3044 326 
Q 2575 -91 1722 -91 
Q 1428 -91 1123 -41 
Q 819 9 494 109 
L 494 744 
Q 775 591 1075 516 
Q 1375 441 1709 441 
Q 2250 441 2565 725 
Q 2881 1009 2881 1497 
Q 2881 1984 2565 2268 
Q 2250 2553 1709 2553 
Q 1456 2553 1204 2497 
Q 953 2441 691 2322 
L 691 4666 
z
" transform="scale(0.015625)"/>
       </defs>
       <use xlink:href="#DejaVuSans-32"/>
       <use xlink:href="#DejaVuSans-30" transform="translate(63.623047 0)"/>
       <use xlink:href="#DejaVuSans-32" transform="translate(127.246094 0)"/>
       <use xlink:href="#DejaVuSans-35" transform="translate(190.869141 0)"/>
      </g>
     </g>
    </g>
   </g>
   <g id="matplotlib.axis_2">
    <g id="ytick_1">
     <g id="line2d_6">
      <path d="M 36.740625 257.348309 
L 738.770625 257.348309 
" clip-path="url(#p087c08b7b9)" style="fill: none; stroke: #e9eef2; stroke-width: 0.85; stroke-linecap: square"/>
     </g>
     <g id="line2d_7"/>
     <g id="text_6">
      <!-- 0 -->
      <g style="fill: #687486" transform="translate(26.878125 261.147528) scale(0.1 -0.1)">
       <use xlink:href="#DejaVuSans-30"/>
      </g>
     </g>
    </g>
    <g id="ytick_2">
     <g id="line2d_8">
      <path d="M 36.740625 219.730063 
L 738.770625 219.730063 
" clip-path="url(#p087c08b7b9)" style="fill: none; stroke: #e9eef2; stroke-width: 0.85; stroke-linecap: square"/>
     </g>
     <g id="line2d_9"/>
     <g id="text_7">
      <!-- 1 -->
      <g style="fill: #687486" transform="translate(26.878125 223.529282) scale(0.1 -0.1)">
       <use xlink:href="#DejaVuSans-31"/>
      </g>
     </g>
    </g>
    <g id="ytick_3">
     <g id="line2d_10">
      <path d="M 36.740625 182.111817 
L 738.770625 182.111817 
" clip-path="url(#p087c08b7b9)" style="fill: none; stroke: #e9eef2; stroke-width: 0.85; stroke-linecap: square"/>
     </g>
     <g id="line2d_11"/>
     <g id="text_8">
      <!-- 2 -->
      <g style="fill: #687486" transform="translate(26.878125 185.911036) scale(0.1 -0.1)">
       <use xlink:href="#DejaVuSans-32"/>
      </g>
     </g>
    </g>
    <g id="ytick_4">
     <g id="line2d_12">
      <path d="M 36.740625 144.493571 
L 738.770625 144.493571 
" clip-path="url(#p087c08b7b9)" style="fill: none; stroke: #e9eef2; stroke-width: 0.85; stroke-linecap: square"/>
     </g>
     <g id="line2d_13"/>
     <g id="text_9">
      <!-- 3 -->
      <g style="fill: #687486" transform="translate(26.878125 148.29279) scale(0.1 -0.1)">
       <use xlink:href="#DejaVuSans-33"/>
      </g>
     </g>
    </g>
    <g id="ytick_5">
     <g id="line2d_14">
      <path d="M 36.740625 106.875325 
L 738.770625 106.875325 
" clip-path="url(#p087c08b7b9)" style="fill: none; stroke: #e9eef2; stroke-width: 0.85; stroke-linecap: square"/>
     </g>
     <g id="line2d_15"/>
     <g id="text_10">
      <!-- 4 -->
      <g style="fill: #687486" transform="translate(26.878125 110.674544) scale(0.1 -0.1)">
       <defs>
        <path id="DejaVuSans-34" d="M 2419 4116 
L 825 1625 
L 2419 1625 
L 2419 4116 
z
M 2253 4666 
L 3047 4666 
L 3047 1625 
L 3713 1625 
L 3713 1100 
L 3047 1100 
L 3047 0 
L 2419 0 
L 2419 1100 
L 313 1100 
L 313 1709 
L 2253 4666 
z
" transform="scale(0.015625)"/>
       </defs>
       <use xlink:href="#DejaVuSans-34"/>
      </g>
     </g>
    </g>
    <g id="ytick_6">
     <g id="line2d_16">
      <path d="M 36.740625 69.257079 
L 738.770625 69.257079 
" clip-path="url(#p087c08b7b9)" style="fill: none; stroke: #e9eef2; stroke-width: 0.85; stroke-linecap: square"/>
     </g>
     <g id="line2d_17"/>
     <g id="text_11">
      <!-- 5 -->
      <g style="fill: #687486" transform="translate(26.878125 73.056298) scale(0.1 -0.1)">
       <use xlink:href="#DejaVuSans-35"/>
      </g>
     </g>
    </g>
    <g id="text_12">
     <!-- Percent -->
     <g style="fill: #687486" transform="translate(14.798437 177.545156) rotate(-90) scale(0.1 -0.1)">
      <defs>
       <path id="DejaVuSans-50" d="M 1259 4147 
L 1259 2394 
L 2053 2394 
Q 2494 2394 2734 2622 
Q 2975 2850 2975 3272 
Q 2975 3691 2734 3919 
Q 2494 4147 2053 4147 
L 1259 4147 
z
M 628 4666 
L 2053 4666 
Q 2838 4666 3239 4311 
Q 3641 3956 3641 3272 
Q 3641 2581 3239 2228 
Q 2838 1875 2053 1875 
L 1259 1875 
L 1259 0 
L 628 0 
L 628 4666 
z
" transform="scale(0.015625)"/>
       <path id="DejaVuSans-65" d="M 3597 1894 
L 3597 1613 
L 953 1613 
Q 991 1019 1311 708 
Q 1631 397 2203 397 
Q 2534 397 2845 478 
Q 3156 559 3463 722 
L 3463 178 
Q 3153 47 2828 -22 
Q 2503 -91 2169 -91 
Q 1331 -91 842 396 
Q 353 884 353 1716 
Q 353 2575 817 3079 
Q 1281 3584 2069 3584 
Q 2775 3584 3186 3129 
Q 3597 2675 3597 1894 
z
M 3022 2063 
Q 3016 2534 2758 2815 
Q 2500 3097 2075 3097 
Q 1594 3097 1305 2825 
Q 1016 2553 972 2059 
L 3022 2063 
z
" transform="scale(0.015625)"/>
       <path id="DejaVuSans-72" d="M 2631 2963 
Q 2534 3019 2420 3045 
Q 2306 3072 2169 3072 
Q 1681 3072 1420 2755 
Q 1159 2438 1159 1844 
L 1159 0 
L 581 0 
L 581 3500 
L 1159 3500 
L 1159 2956 
Q 1341 3275 1631 3429 
Q 1922 3584 2338 3584 
Q 2397 3584 2469 3576 
Q 2541 3569 2628 3553 
L 2631 2963 
z
" transform="scale(0.015625)"/>
       <path id="DejaVuSans-63" d="M 3122 3366 
L 3122 2828 
Q 2878 2963 2633 3030 
Q 2388 3097 2138 3097 
Q 1578 3097 1268 2742 
Q 959 2388 959 1747 
Q 959 1106 1268 751 
Q 1578 397 2138 397 
Q 2388 397 2633 464 
Q 2878 531 3122 666 
L 3122 134 
Q 2881 22 2623 -34 
Q 2366 -91 2075 -91 
Q 1284 -91 818 406 
Q 353 903 353 1747 
Q 353 2603 823 3093 
Q 1294 3584 2113 3584 
Q 2378 3584 2631 3529 
Q 2884 3475 3122 3366 
z
" transform="scale(0.015625)"/>
       <path id="DejaVuSans-6e" d="M 3513 2113 
L 3513 0 
L 2938 0 
L 2938 2094 
Q 2938 2591 2744 2837 
Q 2550 3084 2163 3084 
Q 1697 3084 1428 2787 
Q 1159 2491 1159 1978 
L 1159 0 
L 581 0 
L 581 3500 
L 1159 3500 
L 1159 2956 
Q 1366 3272 1645 3428 
Q 1925 3584 2291 3584 
Q 2894 3584 3203 3211 
Q 3513 2838 3513 2113 
z
" transform="scale(0.015625)"/>
       <path id="DejaVuSans-74" d="M 1172 4494 
L 1172 3500 
L 2356 3500 
L 2356 3053 
L 1172 3053 
L 1172 1153 
Q 1172 725 1289 603 
Q 1406 481 1766 481 
L 2356 481 
L 2356 0 
L 1766 0 
Q 1100 0 847 248 
Q 594 497 594 1153 
L 594 3053 
L 172 3053 
L 172 3500 
L 594 3500 
L 594 4494 
L 1172 4494 
z
" transform="scale(0.015625)"/>
      </defs>
      <use xlink:href="#DejaVuSans-50"/>
      <use xlink:href="#DejaVuSans-65" transform="translate(56.677734 0)"/>
      <use xlink:href="#DejaVuSans-72" transform="translate(118.201172 0)"/>
      <use xlink:href="#DejaVuSans-63" transform="translate(157.064453 0)"/>
      <use xlink:href="#DejaVuSans-65" transform="translate(212.044922 0)"/>
      <use xlink:href="#DejaVuSans-6e" transform="translate(273.568359 0)"/>
      <use xlink:href="#DejaVuSans-74" transform="translate(336.947266 0)"/>
     </g>
    </g>
   </g>
   <g id="line2d_18">
    <path d="M 46.964363 250.953207 
L 50.717304 251.32939 
L 54.107057 252.081755 
L 57.859998 253.586484 
L 61.491877 253.962667 
L 65.244818 253.962667 
L 68.876696 254.715032 
L 72.629637 253.586484 
L 76.382578 254.338849 
L 80.014457 254.715032 
L 83.767398 254.338849 
L 87.399276 254.715032 
L 91.152217 254.338849 
L 94.905159 253.586484 
L 98.415974 252.457937 
L 102.168915 252.081755 
L 105.800794 251.32939 
L 113.185613 251.32939 
L 116.938555 252.457937 
L 120.691496 252.081755 
L 124.323374 251.32939 
L 131.708194 251.32939 
L 135.461135 252.081755 
L 139.214076 251.705572 
L 142.603829 252.081755 
L 146.35677 251.705572 
L 149.988649 253.210302 
L 153.74159 253.962667 
L 157.373468 253.962667 
L 161.126409 254.338849 
L 164.87935 254.338849 
L 168.511229 253.962667 
L 172.26417 254.338849 
L 175.896048 253.962667 
L 179.648989 254.715032 
L 183.40193 254.715032 
L 190.544625 253.962667 
L 194.176503 253.962667 
L 197.929444 253.586484 
L 201.561323 253.962667 
L 216.452024 253.962667 
L 220.083903 252.834119 
L 223.836844 253.210302 
L 230.979538 253.210302 
L 234.732479 252.834119 
L 238.364358 252.834119 
L 242.117299 252.457937 
L 245.749177 252.457937 
L 249.502118 252.081755 
L 253.255059 252.081755 
L 256.886938 252.834119 
L 260.639879 252.834119 
L 264.271757 248.31993 
L 268.024698 244.558105 
L 271.77764 243.053375 
L 275.288455 243.80574 
L 279.041396 243.429558 
L 282.673275 243.429558 
L 293.811036 242.301011 
L 301.195855 242.301011 
L 304.948796 241.924828 
L 308.580675 237.034456 
L 312.333616 232.896449 
L 316.086557 232.520267 
L 319.47631 227.629895 
L 323.229251 223.491888 
L 326.861129 223.115705 
L 330.614071 218.225333 
L 334.245949 214.087326 
L 337.99889 213.711144 
L 341.751831 214.087326 
L 345.38371 214.087326 
L 349.136651 213.711144 
L 352.768529 208.444589 
L 356.52147 204.306582 
L 360.274411 203.9304 
L 363.664165 200.544758 
L 367.417106 193.773473 
L 371.048984 193.397291 
L 374.801925 188.883101 
L 378.433804 185.497459 
L 382.186745 185.497459 
L 385.939686 183.992729 
L 389.571564 174.96435 
L 393.324505 174.588168 
L 396.956384 171.954891 
L 400.709325 167.064519 
L 404.462266 167.064519 
L 411.60496 166.312154 
L 415.236839 167.440701 
L 418.98978 167.816884 
L 422.621658 167.064519 
L 426.374599 177.221445 
L 430.12754 180.607087 
L 433.759419 188.506919 
L 437.51236 199.040028 
L 444.897179 199.040028 
L 448.650121 197.91148 
L 452.160936 232.896449 
L 455.913877 255.467397 
L 459.545756 255.467397 
L 463.298697 254.338849 
L 470.683516 253.586484 
L 474.436458 253.962667 
L 489.206097 253.962667 
L 496.348791 254.715032 
L 500.101732 254.715032 
L 503.73361 255.091214 
L 511.11843 253.586484 
L 518.624312 254.338849 
L 537.146892 254.338849 
L 544.289587 244.934288 
L 547.921465 228.38226 
L 551.674406 211.830231 
L 555.306285 194.149656 
L 559.059226 169.697796 
L 562.812167 161.045599 
L 566.444045 141.484111 
L 570.196986 115.151339 
L 573.828865 103.113501 
L 577.581806 94.461304 
L 581.334747 85.432925 
L 584.7245 82.423465 
L 588.477441 75.652181 
L 592.10932 66.999984 
L 595.862261 66.24762 
L 599.494139 64.74289 
L 603.24708 56.843058 
L 647.555997 56.843058 
L 651.308939 64.366707 
L 654.940817 75.652181 
L 658.693758 82.799648 
L 662.325637 88.818567 
L 666.078578 94.461304 
L 691.743852 94.461304 
L 695.496793 98.599311 
L 699.128672 103.489683 
L 702.881613 111.389515 
L 706.513491 117.408434 
L 710.266432 120.417894 
L 721.162068 120.417894 
L 724.793946 120.794076 
L 728.546887 120.794076 
L 728.546887 120.794076 
" clip-path="url(#p087c08b7b9)" style="fill: none; opacity: 0.1; stroke: #8b4f74; stroke-width: 4.5; stroke-linecap: round"/>
    <path d="M 46.964363 250.953207 
L 50.717304 251.32939 
L 54.107057 252.081755 
L 57.859998 253.586484 
L 61.491877 253.962667 
L 65.244818 253.962667 
L 68.876696 254.715032 
L 72.629637 253.586484 
L 76.382578 254.338849 
L 80.014457 254.715032 
L 83.767398 254.338849 
L 87.399276 254.715032 
L 91.152217 254.338849 
L 94.905159 253.586484 
L 98.415974 252.457937 
L 102.168915 252.081755 
L 105.800794 251.32939 
L 113.185613 251.32939 
L 116.938555 252.457937 
L 120.691496 252.081755 
L 124.323374 251.32939 
L 131.708194 251.32939 
L 135.461135 252.081755 
L 139.214076 251.705572 
L 142.603829 252.081755 
L 146.35677 251.705572 
L 149.988649 253.210302 
L 153.74159 253.962667 
L 157.373468 253.962667 
L 161.126409 254.338849 
L 164.87935 254.338849 
L 168.511229 253.962667 
L 172.26417 254.338849 
L 175.896048 253.962667 
L 179.648989 254.715032 
L 183.40193 254.715032 
L 190.544625 253.962667 
L 194.176503 253.962667 
L 197.929444 253.586484 
L 201.561323 253.962667 
L 216.452024 253.962667 
L 220.083903 252.834119 
L 223.836844 253.210302 
L 230.979538 253.210302 
L 234.732479 252.834119 
L 238.364358 252.834119 
L 242.117299 252.457937 
L 245.749177 252.457937 
L 249.502118 252.081755 
L 253.255059 252.081755 
L 256.886938 252.834119 
L 260.639879 252.834119 
L 264.271757 248.31993 
L 268.024698 244.558105 
L 271.77764 243.053375 
L 275.288455 243.80574 
L 279.041396 243.429558 
L 282.673275 243.429558 
L 293.811036 242.301011 
L 301.195855 242.301011 
L 304.948796 241.924828 
L 308.580675 237.034456 
L 312.333616 232.896449 
L 316.086557 232.520267 
L 319.47631 227.629895 
L 323.229251 223.491888 
L 326.861129 223.115705 
L 330.614071 218.225333 
L 334.245949 214.087326 
L 337.99889 213.711144 
L 341.751831 214.087326 
L 345.38371 214.087326 
L 349.136651 213.711144 
L 352.768529 208.444589 
L 356.52147 204.306582 
L 360.274411 203.9304 
L 363.664165 200.544758 
L 367.417106 193.773473 
L 371.048984 193.397291 
L 374.801925 188.883101 
L 378.433804 185.497459 
L 382.186745 185.497459 
L 385.939686 183.992729 
L 389.571564 174.96435 
L 393.324505 174.588168 
L 396.956384 171.954891 
L 400.709325 167.064519 
L 404.462266 167.064519 
L 411.60496 166.312154 
L 415.236839 167.440701 
L 418.98978 167.816884 
L 422.621658 167.064519 
L 426.374599 177.221445 
L 430.12754 180.607087 
L 433.759419 188.506919 
L 437.51236 199.040028 
L 444.897179 199.040028 
L 448.650121 197.91148 
L 452.160936 232.896449 
L 455.913877 255.467397 
L 459.545756 255.467397 
L 463.298697 254.338849 
L 470.683516 253.586484 
L 474.436458 253.962667 
L 489.206097 253.962667 
L 496.348791 254.715032 
L 500.101732 254.715032 
L 503.73361 255.091214 
L 511.11843 253.586484 
L 518.624312 254.338849 
L 537.146892 254.338849 
L 544.289587 244.934288 
L 547.921465 228.38226 
L 551.674406 211.830231 
L 555.306285 194.149656 
L 559.059226 169.697796 
L 562.812167 161.045599 
L 566.444045 141.484111 
L 570.196986 115.151339 
L 573.828865 103.113501 
L 577.581806 94.461304 
L 581.334747 85.432925 
L 584.7245 82.423465 
L 588.477441 75.652181 
L 592.10932 66.999984 
L 595.862261 66.24762 
L 599.494139 64.74289 
L 603.24708 56.843058 
L 647.555997 56.843058 
L 651.308939 64.366707 
L 654.940817 75.652181 
L 658.693758 82.799648 
L 662.325637 88.818567 
L 666.078578 94.461304 
L 691.743852 94.461304 
L 695.496793 98.599311 
L 699.128672 103.489683 
L 702.881613 111.389515 
L 706.513491 117.408434 
L 710.266432 120.417894 
L 721.162068 120.417894 
L 724.793946 120.794076 
L 728.546887 120.794076 
L 728.546887 120.794076 
" clip-path="url(#p087c08b7b9)" style="fill: none; stroke: #8b4f74; stroke-width: 2.7; stroke-linecap: round"/>
   </g>
   <g id="patch_3">
    <path d="M 36.740625 271.357344 
L 738.770625 271.357344 
" style="fill: none; stroke: #dce4eb; stroke-width: 0.8; stroke-linejoin: miter; stroke-linecap: square"/>
   </g>
   <g id="text_13">
    <!-- Monthly trend · Jan 2011 to Jun 2026 -->
    <g style="fill: #7a8594" transform="translate(36.740625 38.614625) scale(0.09 -0.09)">
     <defs>
      <path id="DejaVuSans-4d" d="M 628 4666 
L 1569 4666 
L 2759 1491 
L 3956 4666 
L 4897 4666 
L 4897 0 
L 4281 0 
L 4281 4097 
L 3078 897 
L 2444 897 
L 1241 4097 
L 1241 0 
L 628 0 
L 628 4666 
z
" transform="scale(0.015625)"/>
      <path id="DejaVuSans-6f" d="M 1959 3097 
Q 1497 3097 1228 2736 
Q 959 2375 959 1747 
Q 959 1119 1226 758 
Q 1494 397 1959 397 
Q 2419 397 2687 759 
Q 2956 1122 2956 1747 
Q 2956 2369 2687 2733 
Q 2419 3097 1959 3097 
z
M 1959 3584 
Q 2709 3584 3137 3096 
Q 3566 2609 3566 1747 
Q 3566 888 3137 398 
Q 2709 -91 1959 -91 
Q 1206 -91 779 398 
Q 353 888 353 1747 
Q 353 2609 779 3096 
Q 1206 3584 1959 3584 
z
" transform="scale(0.015625)"/>
      <path id="DejaVuSans-68" d="M 3513 2113 
L 3513 0 
L 2938 0 
L 2938 2094 
Q 2938 2591 2744 2837 
Q 2550 3084 2163 3084 
Q 1697 3084 1428 2787 
Q 1159 2491 1159 1978 
L 1159 0 
L 581 0 
L 581 4863 
L 1159 4863 
L 1159 2956 
Q 1366 3272 1645 3428 
Q 1925 3584 2291 3584 
Q 2894 3584 3203 3211 
Q 3513 2838 3513 2113 
z
" transform="scale(0.015625)"/>
      <path id="DejaVuSans-6c" d="M 603 4863 
L 1178 4863 
L 1178 0 
L 603 0 
L 603 4863 
z
" transform="scale(0.015625)"/>
      <path id="DejaVuSans-79" d="M 2059 -325 
Q 1816 -950 1584 -1140 
Q 1353 -1331 966 -1331 
L 506 -1331 
L 506 -850 
L 844 -850 
Q 1081 -850 1212 -737 
Q 1344 -625 1503 -206 
L 1606 56 
L 191 3500 
L 800 3500 
L 1894 763 
L 2988 3500 
L 3597 3500 
L 2059 -325 
z
" transform="scale(0.015625)"/>
      <path id="DejaVuSans-20" transform="scale(0.015625)"/>
      <path id="DejaVuSans-64" d="M 2906 2969 
L 2906 4863 
L 3481 4863 
L 3481 0 
L 2906 0 
L 2906 525 
Q 2725 213 2448 61 
Q 2172 -91 1784 -91 
Q 1150 -91 751 415 
Q 353 922 353 1747 
Q 353 2572 751 3078 
Q 1150 3584 1784 3584 
Q 2172 3584 2448 3432 
Q 2725 3281 2906 2969 
z
M 947 1747 
Q 947 1113 1208 752 
Q 1469 391 1925 391 
Q 2381 391 2643 752 
Q 2906 1113 2906 1747 
Q 2906 2381 2643 2742 
Q 2381 3103 1925 3103 
Q 1469 3103 1208 2742 
Q 947 2381 947 1747 
z
" transform="scale(0.015625)"/>
      <path id="DejaVuSans-b7" d="M 684 2619 
L 1344 2619 
L 1344 1825 
L 684 1825 
L 684 2619 
z
" transform="scale(0.015625)"/>
      <path id="DejaVuSans-4a" d="M 628 4666 
L 1259 4666 
L 1259 325 
Q 1259 -519 939 -900 
Q 619 -1281 -91 -1281 
L -331 -1281 
L -331 -750 
L -134 -750 
Q 284 -750 456 -515 
Q 628 -281 628 325 
L 628 4666 
z
" transform="scale(0.015625)"/>
      <path id="DejaVuSans-61" d="M 2194 1759 
Q 1497 1759 1228 1600 
Q 959 1441 959 1056 
Q 959 750 1161 570 
Q 1363 391 1709 391 
Q 2188 391 2477 730 
Q 2766 1069 2766 1631 
L 2766 1759 
L 2194 1759 
z
M 3341 1997 
L 3341 0 
L 2766 0 
L 2766 531 
Q 2569 213 2275 61 
Q 1981 -91 1556 -91 
Q 1019 -91 701 211 
Q 384 513 384 1019 
Q 384 1609 779 1909 
Q 1175 2209 1959 2209 
L 2766 2209 
L 2766 2266 
Q 2766 2663 2505 2880 
Q 2244 3097 1772 3097 
Q 1472 3097 1187 3025 
Q 903 2953 641 2809 
L 641 3341 
Q 956 3463 1253 3523 
Q 1550 3584 1831 3584 
Q 2591 3584 2966 3190 
Q 3341 2797 3341 1997 
z
" transform="scale(0.015625)"/>
      <path id="DejaVuSans-75" d="M 544 1381 
L 544 3500 
L 1119 3500 
L 1119 1403 
Q 1119 906 1312 657 
Q 1506 409 1894 409 
Q 2359 409 2629 706 
Q 2900 1003 2900 1516 
L 2900 3500 
L 3475 3500 
L 3475 0 
L 2900 0 
L 2900 538 
Q 2691 219 2414 64 
Q 2138 -91 1772 -91 
Q 1169 -91 856 284 
Q 544 659 544 1381 
z
M 1991 3584 
L 1991 3584 
z
" transform="scale(0.015625)"/>
     </defs>
     <use xlink:href="#DejaVuSans-4d"/>
     <use xlink:href="#DejaVuSans-6f" transform="translate(86.279297 0)"/>
     <use xlink:href="#DejaVuSans-6e" transform="translate(147.460938 0)"/>
     <use xlink:href="#DejaVuSans-74" transform="translate(210.839844 0)"/>
     <use xlink:href="#DejaVuSans-68" transform="translate(250.048828 0)"/>
     <use xlink:href="#DejaVuSans-6c" transform="translate(313.427734 0)"/>
     <use xlink:href="#DejaVuSans-79" transform="translate(341.210938 0)"/>
     <use xlink:href="#DejaVuSans-20" transform="translate(400.390625 0)"/>
     <use xlink:href="#DejaVuSans-74" transform="translate(432.177734 0)"/>
     <use xlink:href="#DejaVuSans-72" transform="translate(471.386719 0)"/>
     <use xlink:href="#DejaVuSans-65" transform="translate(510.25 0)"/>
     <use xlink:href="#DejaVuSans-6e" transform="translate(571.773438 0)"/>
     <use xlink:href="#DejaVuSans-64" transform="translate(635.152344 0)"/>
     <use xlink:href="#DejaVuSans-20" transform="translate(698.628906 0)"/>
     <use xlink:href="#DejaVuSans-b7" transform="translate(730.416016 0)"/>
     <use xlink:href="#DejaVuSans-20" transform="translate(762.203125 0)"/>
     <use xlink:href="#DejaVuSans-4a" transform="translate(793.990234 0)"/>
     <use xlink:href="#DejaVuSans-61" transform="translate(823.482422 0)"/>
     <use xlink:href="#DejaVuSans-6e" transform="translate(884.761719 0)"/>
     <use xlink:href="#DejaVuSans-20" transform="translate(948.140625 0)"/>
     <use xlink:href="#DejaVuSans-32" transform="translate(979.927734 0)"/>
     <use xlink:href="#DejaVuSans-30" transform="translate(1043.550781 0)"/>
     <use xlink:href="#DejaVuSans-31" transform="translate(1107.173828 0)"/>
     <use xlink:href="#DejaVuSans-31" transform="translate(1170.796875 0)"/>
     <use xlink:href="#DejaVuSans-20" transform="translate(1234.419922 0)"/>
     <use xlink:href="#DejaVuSans-74" transform="translate(1266.207031 0)"/>
     <use xlink:href="#DejaVuSans-6f" transform="translate(1305.416016 0)"/>
     <use xlink:href="#DejaVuSans-20" transform="translate(1366.597656 0)"/>
     <use xlink:href="#DejaVuSans-4a" transform="translate(1398.384766 0)"/>
     <use xlink:href="#DejaVuSans-75" transform="translate(1427.876953 0)"/>
     <use xlink:href="#DejaVuSans-6e" transform="translate(1491.255859 0)"/>
     <use xlink:href="#DejaVuSans-20" transform="translate(1554.634766 0)"/>
     <use xlink:href="#DejaVuSans-32" transform="translate(1586.421875 0)"/>
     <use xlink:href="#DejaVuSans-30" transform="translate(1650.044922 0)"/>
     <use xlink:href="#DejaVuSans-32" transform="translate(1713.667969 0)"/>
     <use xlink:href="#DejaVuSans-36" transform="translate(1777.291016 0)"/>
    </g>
   </g>
   <g id="text_14">
    <!-- 3.63% -->
    <g style="fill: #8b4f74" transform="translate(686.732344 24.978612) scale(0.15 -0.15)">
     <defs>
      <path id="DejaVuSans-Bold-33" d="M 2981 2516 
Q 3453 2394 3698 2092 
Q 3944 1791 3944 1325 
Q 3944 631 3412 270 
Q 2881 -91 1863 -91 
Q 1503 -91 1142 -33 
Q 781 25 428 141 
L 428 1069 
Q 766 900 1098 814 
Q 1431 728 1753 728 
Q 2231 728 2486 893 
Q 2741 1059 2741 1369 
Q 2741 1688 2480 1852 
Q 2219 2016 1709 2016 
L 1228 2016 
L 1228 2791 
L 1734 2791 
Q 2188 2791 2409 2933 
Q 2631 3075 2631 3366 
Q 2631 3634 2415 3781 
Q 2200 3928 1806 3928 
Q 1516 3928 1219 3862 
Q 922 3797 628 3669 
L 628 4550 
Q 984 4650 1334 4700 
Q 1684 4750 2022 4750 
Q 2931 4750 3382 4451 
Q 3834 4153 3834 3553 
Q 3834 3144 3618 2883 
Q 3403 2622 2981 2516 
z
" transform="scale(0.015625)"/>
      <path id="DejaVuSans-Bold-2e" d="M 653 1209 
L 1778 1209 
L 1778 0 
L 653 0 
L 653 1209 
z
" transform="scale(0.015625)"/>
      <path id="DejaVuSans-Bold-36" d="M 2316 2303 
Q 2000 2303 1842 2098 
Q 1684 1894 1684 1484 
Q 1684 1075 1842 870 
Q 2000 666 2316 666 
Q 2634 666 2792 870 
Q 2950 1075 2950 1484 
Q 2950 1894 2792 2098 
Q 2634 2303 2316 2303 
z
M 3803 4544 
L 3803 3681 
Q 3506 3822 3243 3889 
Q 2981 3956 2731 3956 
Q 2194 3956 1894 3657 
Q 1594 3359 1544 2772 
Q 1750 2925 1990 3001 
Q 2231 3078 2516 3078 
Q 3231 3078 3670 2659 
Q 4109 2241 4109 1563 
Q 4109 813 3618 361 
Q 3128 -91 2303 -91 
Q 1394 -91 895 523 
Q 397 1138 397 2266 
Q 397 3422 980 4083 
Q 1563 4744 2578 4744 
Q 2900 4744 3203 4694 
Q 3506 4644 3803 4544 
z
" transform="scale(0.015625)"/>
      <path id="DejaVuSans-Bold-25" d="M 4959 1925 
Q 4738 1925 4616 1733 
Q 4494 1541 4494 1184 
Q 4494 825 4614 633 
Q 4734 441 4959 441 
Q 5184 441 5303 633 
Q 5422 825 5422 1184 
Q 5422 1541 5301 1733 
Q 5181 1925 4959 1925 
z
M 4959 2450 
Q 5541 2450 5875 2112 
Q 6209 1775 6209 1184 
Q 6209 594 5875 251 
Q 5541 -91 4959 -91 
Q 4378 -91 4042 251 
Q 3706 594 3706 1184 
Q 3706 1772 4042 2111 
Q 4378 2450 4959 2450 
z
M 2094 -91 
L 1403 -91 
L 4319 4750 
L 5013 4750 
L 2094 -91 
z
M 1453 4750 
Q 2034 4750 2367 4411 
Q 2700 4072 2700 3481 
Q 2700 2891 2367 2550 
Q 2034 2209 1453 2209 
Q 872 2209 539 2550 
Q 206 2891 206 3481 
Q 206 4072 539 4411 
Q 872 4750 1453 4750 
z
M 1453 4225 
Q 1228 4225 1106 4031 
Q 984 3838 984 3481 
Q 984 3122 1106 2926 
Q 1228 2731 1453 2731 
Q 1678 2731 1798 2926 
Q 1919 3122 1919 3481 
Q 1919 3838 1797 4031 
Q 1675 4225 1453 4225 
z
" transform="scale(0.015625)"/>
     </defs>
     <use xlink:href="#DejaVuSans-Bold-33"/>
     <use xlink:href="#DejaVuSans-Bold-2e" transform="translate(69.580078 0)"/>
     <use xlink:href="#DejaVuSans-Bold-36" transform="translate(107.568359 0)"/>
     <use xlink:href="#DejaVuSans-Bold-33" transform="translate(177.148438 0)"/>
     <use xlink:href="#DejaVuSans-Bold-25" transform="translate(246.728516 0)"/>
    </g>
   </g>
   <g id="text_15">
    <!-- Effective Federal Funds Rate -->
    <g style="fill: #10233f" transform="translate(36.740625 20.117344) scale(0.17 -0.17)">
     <defs>
      <path id="DejaVuSans-Bold-45" d="M 588 4666 
L 3834 4666 
L 3834 3756 
L 1791 3756 
L 1791 2888 
L 3713 2888 
L 3713 1978 
L 1791 1978 
L 1791 909 
L 3903 909 
L 3903 0 
L 588 0 
L 588 4666 
z
" transform="scale(0.015625)"/>
      <path id="DejaVuSans-Bold-66" d="M 2841 4863 
L 2841 4128 
L 2222 4128 
Q 1984 4128 1890 4042 
Q 1797 3956 1797 3744 
L 1797 3500 
L 2753 3500 
L 2753 2700 
L 1797 2700 
L 1797 0 
L 678 0 
L 678 2700 
L 122 2700 
L 122 3500 
L 678 3500 
L 678 3744 
Q 678 4316 997 4589 
Q 1316 4863 1984 4863 
L 2841 4863 
z
" transform="scale(0.015625)"/>
      <path id="DejaVuSans-Bold-65" d="M 4031 1759 
L 4031 1441 
L 1416 1441 
Q 1456 1047 1700 850 
Q 1944 653 2381 653 
Q 2734 653 3104 758 
Q 3475 863 3866 1075 
L 3866 213 
Q 3469 63 3072 -14 
Q 2675 -91 2278 -91 
Q 1328 -91 801 392 
Q 275 875 275 1747 
Q 275 2603 792 3093 
Q 1309 3584 2216 3584 
Q 3041 3584 3536 3087 
Q 4031 2591 4031 1759 
z
M 2881 2131 
Q 2881 2450 2695 2645 
Q 2509 2841 2209 2841 
Q 1884 2841 1681 2658 
Q 1478 2475 1428 2131 
L 2881 2131 
z
" transform="scale(0.015625)"/>
      <path id="DejaVuSans-Bold-63" d="M 3366 3391 
L 3366 2478 
Q 3138 2634 2908 2709 
Q 2678 2784 2431 2784 
Q 1963 2784 1702 2511 
Q 1441 2238 1441 1747 
Q 1441 1256 1702 982 
Q 1963 709 2431 709 
Q 2694 709 2930 787 
Q 3166 866 3366 1019 
L 3366 103 
Q 3103 6 2833 -42 
Q 2563 -91 2291 -91 
Q 1344 -91 809 395 
Q 275 881 275 1747 
Q 275 2613 809 3098 
Q 1344 3584 2291 3584 
Q 2566 3584 2833 3536 
Q 3100 3488 3366 3391 
z
" transform="scale(0.015625)"/>
      <path id="DejaVuSans-Bold-74" d="M 1759 4494 
L 1759 3500 
L 2913 3500 
L 2913 2700 
L 1759 2700 
L 1759 1216 
Q 1759 972 1856 886 
Q 1953 800 2241 800 
L 2816 800 
L 2816 0 
L 1856 0 
Q 1194 0 917 276 
Q 641 553 641 1216 
L 641 2700 
L 84 2700 
L 84 3500 
L 641 3500 
L 641 4494 
L 1759 4494 
z
" transform="scale(0.015625)"/>
      <path id="DejaVuSans-Bold-69" d="M 538 3500 
L 1656 3500 
L 1656 0 
L 538 0 
L 538 3500 
z
M 538 4863 
L 1656 4863 
L 1656 3950 
L 538 3950 
L 538 4863 
z
" transform="scale(0.015625)"/>
      <path id="DejaVuSans-Bold-76" d="M 97 3500 
L 1216 3500 
L 2088 1081 
L 2956 3500 
L 4078 3500 
L 2700 0 
L 1472 0 
L 97 3500 
z
" transform="scale(0.015625)"/>
      <path id="DejaVuSans-Bold-20" transform="scale(0.015625)"/>
      <path id="DejaVuSans-Bold-46" d="M 588 4666 
L 3834 4666 
L 3834 3756 
L 1791 3756 
L 1791 2888 
L 3713 2888 
L 3713 1978 
L 1791 1978 
L 1791 0 
L 588 0 
L 588 4666 
z
" transform="scale(0.015625)"/>
      <path id="DejaVuSans-Bold-64" d="M 2919 2988 
L 2919 4863 
L 4044 4863 
L 4044 0 
L 2919 0 
L 2919 506 
Q 2688 197 2409 53 
Q 2131 -91 1766 -91 
Q 1119 -91 703 423 
Q 288 938 288 1747 
Q 288 2556 703 3070 
Q 1119 3584 1766 3584 
Q 2128 3584 2408 3439 
Q 2688 3294 2919 2988 
z
M 2181 722 
Q 2541 722 2730 984 
Q 2919 1247 2919 1747 
Q 2919 2247 2730 2509 
Q 2541 2772 2181 2772 
Q 1825 2772 1636 2509 
Q 1447 2247 1447 1747 
Q 1447 1247 1636 984 
Q 1825 722 2181 722 
z
" transform="scale(0.015625)"/>
      <path id="DejaVuSans-Bold-72" d="M 3138 2547 
Q 2991 2616 2845 2648 
Q 2700 2681 2553 2681 
Q 2122 2681 1889 2404 
Q 1656 2128 1656 1613 
L 1656 0 
L 538 0 
L 538 3500 
L 1656 3500 
L 1656 2925 
Q 1872 3269 2151 3426 
Q 2431 3584 2822 3584 
Q 2878 3584 2943 3579 
Q 3009 3575 3134 3559 
L 3138 2547 
z
" transform="scale(0.015625)"/>
      <path id="DejaVuSans-Bold-61" d="M 2106 1575 
Q 1756 1575 1579 1456 
Q 1403 1338 1403 1106 
Q 1403 894 1545 773 
Q 1688 653 1941 653 
Q 2256 653 2472 879 
Q 2688 1106 2688 1447 
L 2688 1575 
L 2106 1575 
z
M 3816 1997 
L 3816 0 
L 2688 0 
L 2688 519 
Q 2463 200 2181 54 
Q 1900 -91 1497 -91 
Q 953 -91 614 226 
Q 275 544 275 1050 
Q 275 1666 698 1953 
Q 1122 2241 2028 2241 
L 2688 2241 
L 2688 2328 
Q 2688 2594 2478 2717 
Q 2269 2841 1825 2841 
Q 1466 2841 1156 2769 
Q 847 2697 581 2553 
L 581 3406 
Q 941 3494 1303 3539 
Q 1666 3584 2028 3584 
Q 2975 3584 3395 3211 
Q 3816 2838 3816 1997 
z
" transform="scale(0.015625)"/>
      <path id="DejaVuSans-Bold-6c" d="M 538 4863 
L 1656 4863 
L 1656 0 
L 538 0 
L 538 4863 
z
" transform="scale(0.015625)"/>
      <path id="DejaVuSans-Bold-75" d="M 500 1363 
L 500 3500 
L 1625 3500 
L 1625 3150 
Q 1625 2866 1622 2436 
Q 1619 2006 1619 1863 
Q 1619 1441 1641 1255 
Q 1663 1069 1716 984 
Q 1784 875 1895 815 
Q 2006 756 2150 756 
Q 2500 756 2700 1025 
Q 2900 1294 2900 1772 
L 2900 3500 
L 4019 3500 
L 4019 0 
L 2900 0 
L 2900 506 
Q 2647 200 2364 54 
Q 2081 -91 1741 -91 
Q 1134 -91 817 281 
Q 500 653 500 1363 
z
" transform="scale(0.015625)"/>
      <path id="DejaVuSans-Bold-6e" d="M 4056 2131 
L 4056 0 
L 2931 0 
L 2931 347 
L 2931 1631 
Q 2931 2084 2911 2256 
Q 2891 2428 2841 2509 
Q 2775 2619 2662 2680 
Q 2550 2741 2406 2741 
Q 2056 2741 1856 2470 
Q 1656 2200 1656 1722 
L 1656 0 
L 538 0 
L 538 3500 
L 1656 3500 
L 1656 2988 
Q 1909 3294 2193 3439 
Q 2478 3584 2822 3584 
Q 3428 3584 3742 3212 
Q 4056 2841 4056 2131 
z
" transform="scale(0.015625)"/>
      <path id="DejaVuSans-Bold-73" d="M 3272 3391 
L 3272 2541 
Q 2913 2691 2578 2766 
Q 2244 2841 1947 2841 
Q 1628 2841 1473 2761 
Q 1319 2681 1319 2516 
Q 1319 2381 1436 2309 
Q 1553 2238 1856 2203 
L 2053 2175 
Q 2913 2066 3209 1816 
Q 3506 1566 3506 1031 
Q 3506 472 3093 190 
Q 2681 -91 1863 -91 
Q 1516 -91 1145 -36 
Q 775 19 384 128 
L 384 978 
Q 719 816 1070 734 
Q 1422 653 1784 653 
Q 2113 653 2278 743 
Q 2444 834 2444 1013 
Q 2444 1163 2330 1236 
Q 2216 1309 1875 1350 
L 1678 1375 
Q 931 1469 631 1722 
Q 331 1975 331 2491 
Q 331 3047 712 3315 
Q 1094 3584 1881 3584 
Q 2191 3584 2531 3537 
Q 2872 3491 3272 3391 
z
" transform="scale(0.015625)"/>
      <path id="DejaVuSans-Bold-52" d="M 2297 2597 
Q 2675 2597 2839 2737 
Q 3003 2878 3003 3200 
Q 3003 3519 2839 3656 
Q 2675 3794 2297 3794 
L 1791 3794 
L 1791 2597 
L 2297 2597 
z
M 1791 1766 
L 1791 0 
L 588 0 
L 588 4666 
L 2425 4666 
Q 3347 4666 3776 4356 
Q 4206 4047 4206 3378 
Q 4206 2916 3982 2619 
Q 3759 2322 3309 2181 
Q 3556 2125 3751 1926 
Q 3947 1728 4147 1325 
L 4800 0 
L 3519 0 
L 2950 1159 
Q 2778 1509 2601 1637 
Q 2425 1766 2131 1766 
L 1791 1766 
z
" transform="scale(0.015625)"/>
     </defs>
     <use xlink:href="#DejaVuSans-Bold-45"/>
     <use xlink:href="#DejaVuSans-Bold-66" transform="translate(68.310547 0)"/>
     <use xlink:href="#DejaVuSans-Bold-66" transform="translate(111.816406 0)"/>
     <use xlink:href="#DejaVuSans-Bold-65" transform="translate(155.322266 0)"/>
     <use xlink:href="#DejaVuSans-Bold-63" transform="translate(223.144531 0)"/>
     <use xlink:href="#DejaVuSans-Bold-74" transform="translate(282.421875 0)"/>
     <use xlink:href="#DejaVuSans-Bold-69" transform="translate(330.224609 0)"/>
     <use xlink:href="#DejaVuSans-Bold-76" transform="translate(364.501953 0)"/>
     <use xlink:href="#DejaVuSans-Bold-65" transform="translate(429.6875 0)"/>
     <use xlink:href="#DejaVuSans-Bold-20" transform="translate(497.509766 0)"/>
     <use xlink:href="#DejaVuSans-Bold-46" transform="translate(532.324219 0)"/>
     <use xlink:href="#DejaVuSans-Bold-65" transform="translate(596.634766 0)"/>
     <use xlink:href="#DejaVuSans-Bold-64" transform="translate(664.457031 0)"/>
     <use xlink:href="#DejaVuSans-Bold-65" transform="translate(736.039062 0)"/>
     <use xlink:href="#DejaVuSans-Bold-72" transform="translate(803.861328 0)"/>
     <use xlink:href="#DejaVuSans-Bold-61" transform="translate(853.177734 0)"/>
     <use xlink:href="#DejaVuSans-Bold-6c" transform="translate(920.658203 0)"/>
     <use xlink:href="#DejaVuSans-Bold-20" transform="translate(954.935547 0)"/>
     <use xlink:href="#DejaVuSans-Bold-46" transform="translate(989.75 0)"/>
     <use xlink:href="#DejaVuSans-Bold-75" transform="translate(1053.060547 0)"/>
     <use xlink:href="#DejaVuSans-Bold-6e" transform="translate(1124.251953 0)"/>
     <use xlink:href="#DejaVuSans-Bold-64" transform="translate(1195.443359 0)"/>
     <use xlink:href="#DejaVuSans-Bold-73" transform="translate(1267.025391 0)"/>
     <use xlink:href="#DejaVuSans-Bold-20" transform="translate(1326.546875 0)"/>
     <use xlink:href="#DejaVuSans-Bold-52" transform="translate(1361.361328 0)"/>
     <use xlink:href="#DejaVuSans-Bold-61" transform="translate(1438.363281 0)"/>
     <use xlink:href="#DejaVuSans-Bold-74" transform="translate(1505.84375 0)"/>
     <use xlink:href="#DejaVuSans-Bold-65" transform="translate(1553.646484 0)"/>
    </g>
   </g>
   <g id="PathCollection_1">
    <defs>
     <path id="md4bcc39a1b" d="M 0 4.062019 
C 1.07726 4.062019 2.110543 3.634019 2.872281 2.872281 
C 3.634019 2.110543 4.062019 1.07726 4.062019 0 
C 4.062019 -1.07726 3.634019 -2.110543 2.872281 -2.872281 
C 2.110543 -3.634019 1.07726 -4.062019 0 -4.062019 
C -1.07726 -4.062019 -2.110543 -3.634019 -2.872281 -2.872281 
C -3.634019 -2.110543 -4.062019 -1.07726 -4.062019 0 
C -4.062019 1.07726 -3.634019 2.110543 -2.872281 2.872281 
C -2.110543 3.634019 -1.07726 4.062019 0 4.062019 
z
" style="stroke: #8b4f74; stroke-width: 2.5"/>
    </defs>
    <g clip-path="url(#p087c08b7b9)">
     <use xlink:href="#md4bcc39a1b" x="728.546887" y="120.794076" style="fill: #ffffff; stroke: #8b4f74; stroke-width: 2.5"/>
    </g>
   </g>
  </g>
 </g>
 <defs>
  <clipPath id="p087c08b7b9">
   <rect x="36.740625" y="46.117344" width="702.03" height="225.24"/>
  </clipPath>
 </defs>
</svg>
