<?xml version="1.0" encoding="utf-8" standalone="no"?>
<!DOCTYPE svg PUBLIC "-//W3C//DTD SVG 1.1//EN"
  "http://www.w3.org/Graphics/SVG/1.1/DTD/svg11.dtd">
<svg xmlns:xlink="http://www.w3.org/1999/xlink" width="746.130625pt" height="295.235469pt" viewBox="0 0 746.130625 295.235469" xmlns="http://www.w3.org/2000/svg" version="1.1">
 <metadata>
  <rdf:RDF xmlns:dc="http://purl.org/dc/elements/1.1/" xmlns:cc="http://creativecommons.org/ns#" xmlns:rdf="http://www.w3.org/1999/02/22-rdf-syntax-ns#">
   <cc:Work>
    <dc:type rdf:resource="http://purl.org/dc/dcmitype/StillImage"/>
    <dc:date>2026-07-13T03:16:48.906736</dc:date>
    <dc:format>image/svg+xml</dc:format>
    <dc:creator>
     <cc:Agent>
      <dc:title>Matplotlib v3.10.8, https://matplotlib.org/</dc:title>
     </cc:Agent>
    </dc:creator>
   </cc:Work>
  </rdf:RDF>
 </metadata>
 <defs>
  <style type="text/css">*{stroke-linejoin: round; stroke-linecap: butt}</style>
 </defs>
 <g id="figure_1">
  <g id="patch_1">
   <path d="M 0 295.235469 
L 746.130625 295.235469 
L 746.130625 0 
L 0 0 
z
" style="fill: #ffffff"/>
  </g>
  <g id="axes_1">
   <g id="patch_2">
    <path d="M 62.190625 271.357344 
L 738.930625 271.357344 
L 738.930625 46.117344 
L 62.190625 46.117344 
z
" style="fill: #ffffff"/>
   </g>
   <g id="FillBetweenPolyCollection_1">
    <defs>
     <path id="mba71f5441c" d="M 72.046062 -23.878125 
L 72.046062 -39.768072 
L 75.644631 -41.153808 
L 78.894952 -41.1393 
L 82.493521 -44.511839 
L 89.574577 -42.388602 
L 93.057064 -46.962559 
L 96.655633 -54.615625 
L 100.254203 -49.064623 
L 107.335259 -55.276971 
L 110.817745 -51.270868 
L 118.014884 -51.752053 
L 121.381288 -53.752822 
L 128.462344 -53.240719 
L 132.060913 -54.368324 
L 139.141969 -54.450958 
L 142.740539 -57.892674 
L 149.821595 -56.975198 
L 153.304081 -55.858009 
L 156.90265 -54.180994 
L 160.50122 -52.315587 
L 163.751541 -53.111119 
L 167.35011 -51.277335 
L 170.832597 -51.222698 
L 174.431166 -46.758671 
L 177.913653 -52.973833 
L 181.512222 -53.819667 
L 192.191847 -48.659564 
L 199.272903 -48.261127 
L 202.871473 -50.726401 
L 206.121793 -48.403186 
L 209.720363 -47.75582 
L 213.202849 -46.951623 
L 220.283905 -48.400474 
L 223.882475 -49.247859 
L 227.481044 -46.731196 
L 234.5621 -45.849348 
L 238.044587 -47.083181 
L 241.643156 -49.320917 
L 252.090616 -47.311392 
L 255.573102 -47.483361 
L 259.171672 -47.125835 
L 262.654158 -45.707371 
L 266.252728 -46.852508 
L 269.851297 -46.014208 
L 280.41484 -44.676675 
L 284.013409 -47.602189 
L 287.611978 -52.22829 
L 290.978382 -50.736858 
L 294.576951 -53.145365 
L 301.658007 -53.840767 
L 305.140494 -55.254385 
L 308.739063 -53.553046 
L 312.337633 -53.754052 
L 319.418689 -49.869837 
L 322.901175 -48.716997 
L 330.098314 -51.561744 
L 333.348635 -49.776719 
L 336.947204 -50.652893 
L 340.429691 -50.965116 
L 344.02826 -49.465381 
L 347.510747 -50.241529 
L 351.109316 -52.871052 
L 354.707886 -51.327797 
L 361.788942 -50.757828 
L 365.271428 -51.485585 
L 368.869998 -52.53467 
L 372.468567 -52.535308 
L 375.718888 -53.968692 
L 382.799944 -54.669366 
L 386.398513 -52.828256 
L 393.479569 -53.401176 
L 397.078138 -53.780353 
L 404.159194 -52.497017 
L 407.641681 -54.637434 
L 411.24025 -56.99348 
L 414.83882 -56.783508 
L 418.089141 -55.103217 
L 421.68771 -54.841926 
L 425.170197 -55.239011 
L 428.768766 -58.847456 
L 432.251252 -61.39801 
L 435.849822 -63.96271 
L 446.529447 -62.920911 
L 453.610503 -67.281812 
L 457.209073 -66.992702 
L 464.174046 -74.536841 
L 467.656532 -76.802793 
L 471.255102 -78.368394 
L 474.737588 -83.148357 
L 478.336158 -84.075578 
L 481.934727 -81.377852 
L 492.49827 -80.470566 
L 496.096839 -78.485957 
L 499.695408 -74.537762 
L 502.945729 -74.443756 
L 506.544299 -74.937864 
L 510.026785 -81.987961 
L 513.625354 -76.803907 
L 517.107841 -77.63558 
L 524.30498 -76.701819 
L 531.386036 -77.663077 
L 534.868522 -79.192828 
L 538.467092 -78.493665 
L 542.065661 -82.647113 
L 545.315982 -86.176136 
L 548.914551 -85.504028 
L 555.995607 -83.158207 
L 559.478094 -81.53507 
L 563.076663 -81.054951 
L 566.675233 -79.556848 
L 573.756289 -82.617306 
L 577.238775 -86.84676 
L 584.435914 -87.163265 
L 587.686235 -92.319803 
L 591.284804 -94.211184 
L 594.767291 -92.441519 
L 598.36586 -90.771522 
L 601.848347 -93.375097 
L 605.446916 -92.471416 
L 609.045486 -88.625823 
L 616.126541 -96.99427 
L 619.609028 -96.943812 
L 623.207597 -97.208243 
L 626.806167 -96.877074 
L 630.172571 -105.001431 
L 633.77114 -108.095547 
L 637.253626 -109.63632 
L 640.852196 -110.200271 
L 644.334682 -114.755447 
L 647.933252 -117.493381 
L 658.612877 -125.869081 
L 665.693933 -135.879351 
L 669.292503 -138.003444 
L 672.542823 -147.607481 
L 676.141393 -156.377349 
L 679.623879 -155.548077 
L 686.704935 -160.443055 
L 690.303505 -169.804451 
L 693.902074 -186.80676 
L 700.98313 -205.997384 
L 704.465617 -212.013966 
L 708.064186 -235.112896 
L 718.511646 -238.392411 
L 721.994132 -235.171278 
L 725.592702 -209.912661 
L 729.075188 -212.426728 
L 729.075188 -23.878125 
L 729.075188 -23.878125 
L 725.592702 -23.878125 
L 721.994132 -23.878125 
L 718.511646 -23.878125 
L 708.064186 -23.878125 
L 704.465617 -23.878125 
L 700.98313 -23.878125 
L 693.902074 -23.878125 
L 690.303505 -23.878125 
L 686.704935 -23.878125 
L 679.623879 -23.878125 
L 676.141393 -23.878125 
L 672.542823 -23.878125 
L 669.292503 -23.878125 
L 665.693933 -23.878125 
L 658.612877 -23.878125 
L 647.933252 -23.878125 
L 644.334682 -23.878125 
L 640.852196 -23.878125 
L 637.253626 -23.878125 
L 633.77114 -23.878125 
L 630.172571 -23.878125 
L 626.806167 -23.878125 
L 623.207597 -23.878125 
L 619.609028 -23.878125 
L 616.126541 -23.878125 
L 609.045486 -23.878125 
L 605.446916 -23.878125 
L 601.848347 -23.878125 
L 598.36586 -23.878125 
L 594.767291 -23.878125 
L 591.284804 -23.878125 
L 587.686235 -23.878125 
L 584.435914 -23.878125 
L 577.238775 -23.878125 
L 573.756289 -23.878125 
L 566.675233 -23.878125 
L 563.076663 -23.878125 
L 559.478094 -23.878125 
L 555.995607 -23.878125 
L 548.914551 -23.878125 
L 545.315982 -23.878125 
L 542.065661 -23.878125 
L 538.467092 -23.878125 
L 534.868522 -23.878125 
L 531.386036 -23.878125 
L 524.30498 -23.878125 
L 517.107841 -23.878125 
L 513.625354 -23.878125 
L 510.026785 -23.878125 
L 506.544299 -23.878125 
L 502.945729 -23.878125 
L 499.695408 -23.878125 
L 496.096839 -23.878125 
L 492.49827 -23.878125 
L 481.934727 -23.878125 
L 478.336158 -23.878125 
L 474.737588 -23.878125 
L 471.255102 -23.878125 
L 467.656532 -23.878125 
L 464.174046 -23.878125 
L 457.209073 -23.878125 
L 453.610503 -23.878125 
L 446.529447 -23.878125 
L 435.849822 -23.878125 
L 432.251252 -23.878125 
L 428.768766 -23.878125 
L 425.170197 -23.878125 
L 421.68771 -23.878125 
L 418.089141 -23.878125 
L 414.83882 -23.878125 
L 411.24025 -23.878125 
L 407.641681 -23.878125 
L 404.159194 -23.878125 
L 397.078138 -23.878125 
L 393.479569 -23.878125 
L 386.398513 -23.878125 
L 382.799944 -23.878125 
L 375.718888 -23.878125 
L 372.468567 -23.878125 
L 368.869998 -23.878125 
L 365.271428 -23.878125 
L 361.788942 -23.878125 
L 354.707886 -23.878125 
L 351.109316 -23.878125 
L 347.510747 -23.878125 
L 344.02826 -23.878125 
L 340.429691 -23.878125 
L 336.947204 -23.878125 
L 333.348635 -23.878125 
L 330.098314 -23.878125 
L 322.901175 -23.878125 
L 319.418689 -23.878125 
L 312.337633 -23.878125 
L 308.739063 -23.878125 
L 305.140494 -23.878125 
L 301.658007 -23.878125 
L 294.576951 -23.878125 
L 290.978382 -23.878125 
L 287.611978 -23.878125 
L 284.013409 -23.878125 
L 280.41484 -23.878125 
L 269.851297 -23.878125 
L 266.252728 -23.878125 
L 262.654158 -23.878125 
L 259.171672 -23.878125 
L 255.573102 -23.878125 
L 252.090616 -23.878125 
L 241.643156 -23.878125 
L 238.044587 -23.878125 
L 234.5621 -23.878125 
L 227.481044 -23.878125 
L 223.882475 -23.878125 
L 220.283905 -23.878125 
L 213.202849 -23.878125 
L 209.720363 -23.878125 
L 206.121793 -23.878125 
L 202.871473 -23.878125 
L 199.272903 -23.878125 
L 192.191847 -23.878125 
L 181.512222 -23.878125 
L 177.913653 -23.878125 
L 174.431166 -23.878125 
L 170.832597 -23.878125 
L 167.35011 -23.878125 
L 163.751541 -23.878125 
L 160.50122 -23.878125 
L 156.90265 -23.878125 
L 153.304081 -23.878125 
L 149.821595 -23.878125 
L 142.740539 -23.878125 
L 139.141969 -23.878125 
L 132.060913 -23.878125 
L 128.462344 -23.878125 
L 121.381288 -23.878125 
L 118.014884 -23.878125 
L 110.817745 -23.878125 
L 107.335259 -23.878125 
L 100.254203 -23.878125 
L 96.655633 -23.878125 
L 93.057064 -23.878125 
L 89.574577 -23.878125 
L 82.493521 -23.878125 
L 78.894952 -23.878125 
L 75.644631 -23.878125 
L 72.046062 -23.878125 
z
" style="stroke: #b8872e; stroke-opacity: 0.09"/>
    </defs>
    <g clip-path="url(#pf61d867631)">
     <use xlink:href="#mba71f5441c" x="0" y="295.235469" style="fill: #b8872e; fill-opacity: 0.09; stroke: #b8872e; stroke-opacity: 0.09"/>
    </g>
   </g>
   <g id="matplotlib.axis_1">
    <g id="xtick_1">
     <g id="line2d_1">
      <defs>
       <path id="m1a8886ee9d" d="M 0 0 
L 0 3.5 
" style="stroke: #687486; stroke-width: 0.8"/>
      </defs>
      <g>
       <use xlink:href="#m1a8886ee9d" x="156.90265" y="271.357344" style="fill: #687486; stroke: #687486; stroke-width: 0.8"/>
      </g>
     </g>
     <g id="text_1">
      <!-- 2013 -->
      <g style="fill: #687486" transform="translate(144.17765 285.955781) scale(0.1 -0.1)">
       <defs>
        <path id="DejaVuSans-32" d="M 1228 531 
L 3431 531 
L 3431 0 
L 469 0 
L 469 531 
Q 828 903 1448 1529 
Q 2069 2156 2228 2338 
Q 2531 2678 2651 2914 
Q 2772 3150 2772 3378 
Q 2772 3750 2511 3984 
Q 2250 4219 1831 4219 
Q 1534 4219 1204 4116 
Q 875 4013 500 3803 
L 500 4441 
Q 881 4594 1212 4672 
Q 1544 4750 1819 4750 
Q 2544 4750 2975 4387 
Q 3406 4025 3406 3419 
Q 3406 3131 3298 2873 
Q 3191 2616 2906 2266 
Q 2828 2175 2409 1742 
Q 1991 1309 1228 531 
z
" transform="scale(0.015625)"/>
        <path id="DejaVuSans-30" d="M 2034 4250 
Q 1547 4250 1301 3770 
Q 1056 3291 1056 2328 
Q 1056 1369 1301 889 
Q 1547 409 2034 409 
Q 2525 409 2770 889 
Q 3016 1369 3016 2328 
Q 3016 3291 2770 3770 
Q 2525 4250 2034 4250 
z
M 2034 4750 
Q 2819 4750 3233 4129 
Q 3647 3509 3647 2328 
Q 3647 1150 3233 529 
Q 2819 -91 2034 -91 
Q 1250 -91 836 529 
Q 422 1150 422 2328 
Q 422 3509 836 4129 
Q 1250 4750 2034 4750 
z
" transform="scale(0.015625)"/>
        <path id="DejaVuSans-31" d="M 794 531 
L 1825 531 
L 1825 4091 
L 703 3866 
L 703 4441 
L 1819 4666 
L 2450 4666 
L 2450 531 
L 3481 531 
L 3481 0 
L 794 0 
L 794 531 
z
" transform="scale(0.015625)"/>
        <path id="DejaVuSans-33" d="M 2597 2516 
Q 3050 2419 3304 2112 
Q 3559 1806 3559 1356 
Q 3559 666 3084 287 
Q 2609 -91 1734 -91 
Q 1441 -91 1130 -33 
Q 819 25 488 141 
L 488 750 
Q 750 597 1062 519 
Q 1375 441 1716 441 
Q 2309 441 2620 675 
Q 2931 909 2931 1356 
Q 2931 1769 2642 2001 
Q 2353 2234 1838 2234 
L 1294 2234 
L 1294 2753 
L 1863 2753 
Q 2328 2753 2575 2939 
Q 2822 3125 2822 3475 
Q 2822 3834 2567 4026 
Q 2313 4219 1838 4219 
Q 1578 4219 1281 4162 
Q 984 4106 628 3988 
L 628 4550 
Q 988 4650 1302 4700 
Q 1616 4750 1894 4750 
Q 2613 4750 3031 4423 
Q 3450 4097 3450 3541 
Q 3450 3153 3228 2886 
Q 3006 2619 2597 2516 
z
" transform="scale(0.015625)"/>
       </defs>
       <use xlink:href="#DejaVuSans-32"/>
       <use xlink:href="#DejaVuSans-30" transform="translate(63.623047 0)"/>
       <use xlink:href="#DejaVuSans-31" transform="translate(127.246094 0)"/>
       <use xlink:href="#DejaVuSans-33" transform="translate(190.869141 0)"/>
      </g>
     </g>
    </g>
    <g id="xtick_2">
     <g id="line2d_2">
      <g>
       <use xlink:href="#m1a8886ee9d" x="284.013409" y="271.357344" style="fill: #687486; stroke: #687486; stroke-width: 0.8"/>
      </g>
     </g>
     <g id="text_2">
      <!-- 2016 -->
      <g style="fill: #687486" transform="translate(271.288409 285.955781) scale(0.1 -0.1)">
       <defs>
        <path id="DejaVuSans-36" d="M 2113 2584 
Q 1688 2584 1439 2293 
Q 1191 2003 1191 1497 
Q 1191 994 1439 701 
Q 1688 409 2113 409 
Q 2538 409 2786 701 
Q 3034 994 3034 1497 
Q 3034 2003 2786 2293 
Q 2538 2584 2113 2584 
z
M 3366 4563 
L 3366 3988 
Q 3128 4100 2886 4159 
Q 2644 4219 2406 4219 
Q 1781 4219 1451 3797 
Q 1122 3375 1075 2522 
Q 1259 2794 1537 2939 
Q 1816 3084 2150 3084 
Q 2853 3084 3261 2657 
Q 3669 2231 3669 1497 
Q 3669 778 3244 343 
Q 2819 -91 2113 -91 
Q 1303 -91 875 529 
Q 447 1150 447 2328 
Q 447 3434 972 4092 
Q 1497 4750 2381 4750 
Q 2619 4750 2861 4703 
Q 3103 4656 3366 4563 
z
" transform="scale(0.015625)"/>
       </defs>
       <use xlink:href="#DejaVuSans-32"/>
       <use xlink:href="#DejaVuSans-30" transform="translate(63.623047 0)"/>
       <use xlink:href="#DejaVuSans-31" transform="translate(127.246094 0)"/>
       <use xlink:href="#DejaVuSans-36" transform="translate(190.869141 0)"/>
      </g>
     </g>
    </g>
    <g id="xtick_3">
     <g id="line2d_3">
      <g>
       <use xlink:href="#m1a8886ee9d" x="411.24025" y="271.357344" style="fill: #687486; stroke: #687486; stroke-width: 0.8"/>
      </g>
     </g>
     <g id="text_3">
      <!-- 2019 -->
      <g style="fill: #687486" transform="translate(398.51525 285.955781) scale(0.1 -0.1)">
       <defs>
        <path id="DejaVuSans-39" d="M 703 97 
L 703 672 
Q 941 559 1184 500 
Q 1428 441 1663 441 
Q 2288 441 2617 861 
Q 2947 1281 2994 2138 
Q 2813 1869 2534 1725 
Q 2256 1581 1919 1581 
Q 1219 1581 811 2004 
Q 403 2428 403 3163 
Q 403 3881 828 4315 
Q 1253 4750 1959 4750 
Q 2769 4750 3195 4129 
Q 3622 3509 3622 2328 
Q 3622 1225 3098 567 
Q 2575 -91 1691 -91 
Q 1453 -91 1209 -44 
Q 966 3 703 97 
z
M 1959 2075 
Q 2384 2075 2632 2365 
Q 2881 2656 2881 3163 
Q 2881 3666 2632 3958 
Q 2384 4250 1959 4250 
Q 1534 4250 1286 3958 
Q 1038 3666 1038 3163 
Q 1038 2656 1286 2365 
Q 1534 2075 1959 2075 
z
" transform="scale(0.015625)"/>
       </defs>
       <use xlink:href="#DejaVuSans-32"/>
       <use xlink:href="#DejaVuSans-30" transform="translate(63.623047 0)"/>
       <use xlink:href="#DejaVuSans-31" transform="translate(127.246094 0)"/>
       <use xlink:href="#DejaVuSans-39" transform="translate(190.869141 0)"/>
      </g>
     </g>
    </g>
    <g id="xtick_4">
     <g id="line2d_4">
      <g>
       <use xlink:href="#m1a8886ee9d" x="538.467092" y="271.357344" style="fill: #687486; stroke: #687486; stroke-width: 0.8"/>
      </g>
     </g>
     <g id="text_4">
      <!-- 2022 -->
      <g style="fill: #687486" transform="translate(525.742092 285.955781) scale(0.1 -0.1)">
       <use xlink:href="#DejaVuSans-32"/>
       <use xlink:href="#DejaVuSans-30" transform="translate(63.623047 0)"/>
       <use xlink:href="#DejaVuSans-32" transform="translate(127.246094 0)"/>
       <use xlink:href="#DejaVuSans-32" transform="translate(190.869141 0)"/>
      </g>
     </g>
    </g>
    <g id="xtick_5">
     <g id="line2d_5">
      <g>
       <use xlink:href="#m1a8886ee9d" x="665.693933" y="271.357344" style="fill: #687486; stroke: #687486; stroke-width: 0.8"/>
      </g>
     </g>
     <g id="text_5">
      <!-- 2025 -->
      <g style="fill: #687486" transform="translate(652.968933 285.955781) scale(0.1 -0.1)">
       <defs>
        <path id="DejaVuSans-35" d="M 691 4666 
L 3169 4666 
L 3169 4134 
L 1269 4134 
L 1269 2991 
Q 1406 3038 1543 3061 
Q 1681 3084 1819 3084 
Q 2600 3084 3056 2656 
Q 3513 2228 3513 1497 
Q 3513 744 3044 326 
Q 2575 -91 1722 -91 
Q 1428 -91 1123 -41 
Q 819 9 494 109 
L 494 744 
Q 775 591 1075 516 
Q 1375 441 1709 441 
Q 2250 441 2565 725 
Q 2881 1009 2881 1497 
Q 2881 1984 2565 2268 
Q 2250 2553 1709 2553 
Q 1456 2553 1204 2497 
Q 953 2441 691 2322 
L 691 4666 
z
" transform="scale(0.015625)"/>
       </defs>
       <use xlink:href="#DejaVuSans-32"/>
       <use xlink:href="#DejaVuSans-30" transform="translate(63.623047 0)"/>
       <use xlink:href="#DejaVuSans-32" transform="translate(127.246094 0)"/>
       <use xlink:href="#DejaVuSans-35" transform="translate(190.869141 0)"/>
      </g>
     </g>
    </g>
   </g>
   <g id="matplotlib.axis_2">
    <g id="ytick_1">
     <g id="line2d_6">
      <path d="M 62.190625 257.492714 
L 738.930625 257.492714 
" clip-path="url(#pf61d867631)" style="fill: none; stroke: #e9eef2; stroke-width: 0.85; stroke-linecap: square"/>
     </g>
     <g id="line2d_7"/>
     <g id="text_6">
      <!-- 2000 -->
      <g style="fill: #687486" transform="translate(33.240625 261.291932) scale(0.1 -0.1)">
       <use xlink:href="#DejaVuSans-32"/>
       <use xlink:href="#DejaVuSans-30" transform="translate(63.623047 0)"/>
       <use xlink:href="#DejaVuSans-30" transform="translate(127.246094 0)"/>
       <use xlink:href="#DejaVuSans-30" transform="translate(190.869141 0)"/>
      </g>
     </g>
    </g>
    <g id="ytick_2">
     <g id="line2d_8">
      <path d="M 62.190625 227.329976 
L 738.930625 227.329976 
" clip-path="url(#pf61d867631)" style="fill: none; stroke: #e9eef2; stroke-width: 0.85; stroke-linecap: square"/>
     </g>
     <g id="line2d_9"/>
     <g id="text_7">
      <!-- 4000 -->
      <g style="fill: #687486" transform="translate(33.240625 231.129195) scale(0.1 -0.1)">
       <defs>
        <path id="DejaVuSans-34" d="M 2419 4116 
L 825 1625 
L 2419 1625 
L 2419 4116 
z
M 2253 4666 
L 3047 4666 
L 3047 1625 
L 3713 1625 
L 3713 1100 
L 3047 1100 
L 3047 0 
L 2419 0 
L 2419 1100 
L 313 1100 
L 313 1709 
L 2253 4666 
z
" transform="scale(0.015625)"/>
       </defs>
       <use xlink:href="#DejaVuSans-34"/>
       <use xlink:href="#DejaVuSans-30" transform="translate(63.623047 0)"/>
       <use xlink:href="#DejaVuSans-30" transform="translate(127.246094 0)"/>
       <use xlink:href="#DejaVuSans-30" transform="translate(190.869141 0)"/>
      </g>
     </g>
    </g>
    <g id="ytick_3">
     <g id="line2d_10">
      <path d="M 62.190625 197.167239 
L 738.930625 197.167239 
" clip-path="url(#pf61d867631)" style="fill: none; stroke: #e9eef2; stroke-width: 0.85; stroke-linecap: square"/>
     </g>
     <g id="line2d_11"/>
     <g id="text_8">
      <!-- 6000 -->
      <g style="fill: #687486" transform="translate(33.240625 200.966458) scale(0.1 -0.1)">
       <use xlink:href="#DejaVuSans-36"/>
       <use xlink:href="#DejaVuSans-30" transform="translate(63.623047 0)"/>
       <use xlink:href="#DejaVuSans-30" transform="translate(127.246094 0)"/>
       <use xlink:href="#DejaVuSans-30" transform="translate(190.869141 0)"/>
      </g>
     </g>
    </g>
    <g id="ytick_4">
     <g id="line2d_12">
      <path d="M 62.190625 167.004502 
L 738.930625 167.004502 
" clip-path="url(#pf61d867631)" style="fill: none; stroke: #e9eef2; stroke-width: 0.85; stroke-linecap: square"/>
     </g>
     <g id="line2d_13"/>
     <g id="text_9">
      <!-- 8000 -->
      <g style="fill: #687486" transform="translate(33.240625 170.803721) scale(0.1 -0.1)">
       <defs>
        <path id="DejaVuSans-38" d="M 2034 2216 
Q 1584 2216 1326 1975 
Q 1069 1734 1069 1313 
Q 1069 891 1326 650 
Q 1584 409 2034 409 
Q 2484 409 2743 651 
Q 3003 894 3003 1313 
Q 3003 1734 2745 1975 
Q 2488 2216 2034 2216 
z
M 1403 2484 
Q 997 2584 770 2862 
Q 544 3141 544 3541 
Q 544 4100 942 4425 
Q 1341 4750 2034 4750 
Q 2731 4750 3128 4425 
Q 3525 4100 3525 3541 
Q 3525 3141 3298 2862 
Q 3072 2584 2669 2484 
Q 3125 2378 3379 2068 
Q 3634 1759 3634 1313 
Q 3634 634 3220 271 
Q 2806 -91 2034 -91 
Q 1263 -91 848 271 
Q 434 634 434 1313 
Q 434 1759 690 2068 
Q 947 2378 1403 2484 
z
M 1172 3481 
Q 1172 3119 1398 2916 
Q 1625 2713 2034 2713 
Q 2441 2713 2670 2916 
Q 2900 3119 2900 3481 
Q 2900 3844 2670 4047 
Q 2441 4250 2034 4250 
Q 1625 4250 1398 4047 
Q 1172 3844 1172 3481 
z
" transform="scale(0.015625)"/>
       </defs>
       <use xlink:href="#DejaVuSans-38"/>
       <use xlink:href="#DejaVuSans-30" transform="translate(63.623047 0)"/>
       <use xlink:href="#DejaVuSans-30" transform="translate(127.246094 0)"/>
       <use xlink:href="#DejaVuSans-30" transform="translate(190.869141 0)"/>
      </g>
     </g>
    </g>
    <g id="ytick_5">
     <g id="line2d_14">
      <path d="M 62.190625 136.841765 
L 738.930625 136.841765 
" clip-path="url(#pf61d867631)" style="fill: none; stroke: #e9eef2; stroke-width: 0.85; stroke-linecap: square"/>
     </g>
     <g id="line2d_15"/>
     <g id="text_10">
      <!-- 10000 -->
      <g style="fill: #687486" transform="translate(26.878125 140.640984) scale(0.1 -0.1)">
       <use xlink:href="#DejaVuSans-31"/>
       <use xlink:href="#DejaVuSans-30" transform="translate(63.623047 0)"/>
       <use xlink:href="#DejaVuSans-30" transform="translate(127.246094 0)"/>
       <use xlink:href="#DejaVuSans-30" transform="translate(190.869141 0)"/>
       <use xlink:href="#DejaVuSans-30" transform="translate(254.492188 0)"/>
      </g>
     </g>
    </g>
    <g id="ytick_6">
     <g id="line2d_16">
      <path d="M 62.190625 106.679028 
L 738.930625 106.679028 
" clip-path="url(#pf61d867631)" style="fill: none; stroke: #e9eef2; stroke-width: 0.85; stroke-linecap: square"/>
     </g>
     <g id="line2d_17"/>
     <g id="text_11">
      <!-- 12000 -->
      <g style="fill: #687486" transform="translate(26.878125 110.478247) scale(0.1 -0.1)">
       <use xlink:href="#DejaVuSans-31"/>
       <use xlink:href="#DejaVuSans-32" transform="translate(63.623047 0)"/>
       <use xlink:href="#DejaVuSans-30" transform="translate(127.246094 0)"/>
       <use xlink:href="#DejaVuSans-30" transform="translate(190.869141 0)"/>
       <use xlink:href="#DejaVuSans-30" transform="translate(254.492188 0)"/>
      </g>
     </g>
    </g>
    <g id="ytick_7">
     <g id="line2d_18">
      <path d="M 62.190625 76.516291 
L 738.930625 76.516291 
" clip-path="url(#pf61d867631)" style="fill: none; stroke: #e9eef2; stroke-width: 0.85; stroke-linecap: square"/>
     </g>
     <g id="line2d_19"/>
     <g id="text_12">
      <!-- 14000 -->
      <g style="fill: #687486" transform="translate(26.878125 80.31551) scale(0.1 -0.1)">
       <use xlink:href="#DejaVuSans-31"/>
       <use xlink:href="#DejaVuSans-34" transform="translate(63.623047 0)"/>
       <use xlink:href="#DejaVuSans-30" transform="translate(127.246094 0)"/>
       <use xlink:href="#DejaVuSans-30" transform="translate(190.869141 0)"/>
       <use xlink:href="#DejaVuSans-30" transform="translate(254.492188 0)"/>
      </g>
     </g>
    </g>
    <g id="ytick_8">
     <g id="line2d_20">
      <path d="M 62.190625 46.353554 
L 738.930625 46.353554 
" clip-path="url(#pf61d867631)" style="fill: none; stroke: #e9eef2; stroke-width: 0.85; stroke-linecap: square"/>
     </g>
     <g id="line2d_21"/>
     <g id="text_13">
      <!-- 16000 -->
      <g style="fill: #687486" transform="translate(26.878125 50.152773) scale(0.1 -0.1)">
       <use xlink:href="#DejaVuSans-31"/>
       <use xlink:href="#DejaVuSans-36" transform="translate(63.623047 0)"/>
       <use xlink:href="#DejaVuSans-30" transform="translate(127.246094 0)"/>
       <use xlink:href="#DejaVuSans-30" transform="translate(190.869141 0)"/>
       <use xlink:href="#DejaVuSans-30" transform="translate(254.492188 0)"/>
      </g>
     </g>
    </g>
    <g id="text_14">
     <!-- ₹ per gram -->
     <g style="fill: #687486" transform="translate(14.798438 186.567031) rotate(-90) scale(0.1 -0.1)">
      <defs>
       <path id="DejaVuSans-20b9" d="M 331 4281 
L 503 4666 
L 3747 4666 
L 3575 4281 
L 2469 4281 
Q 2716 4038 2781 3634 
L 3747 3634 
L 3575 3250 
L 2806 3250 
Q 2791 2856 2600 2591 
Q 2397 2300 2006 2188 
Q 2209 2119 2400 1894 
Q 2584 1681 2788 1275 
L 3428 0 
L 2750 0 
L 2153 1197 
Q 1919 1669 1706 1819 
Q 1488 1972 1113 1972 
L 425 1972 
L 425 2491 
L 1219 2491 
Q 1675 2491 1906 2700 
Q 2119 2894 2138 3250 
L 331 3250 
L 503 3634 
L 2103 3634 
Q 2047 3844 1906 4006 
Q 1675 4281 1219 4281 
L 331 4281 
z
" transform="scale(0.015625)"/>
       <path id="DejaVuSans-20" transform="scale(0.015625)"/>
       <path id="DejaVuSans-70" d="M 1159 525 
L 1159 -1331 
L 581 -1331 
L 581 3500 
L 1159 3500 
L 1159 2969 
Q 1341 3281 1617 3432 
Q 1894 3584 2278 3584 
Q 2916 3584 3314 3078 
Q 3713 2572 3713 1747 
Q 3713 922 3314 415 
Q 2916 -91 2278 -91 
Q 1894 -91 1617 61 
Q 1341 213 1159 525 
z
M 3116 1747 
Q 3116 2381 2855 2742 
Q 2594 3103 2138 3103 
Q 1681 3103 1420 2742 
Q 1159 2381 1159 1747 
Q 1159 1113 1420 752 
Q 1681 391 2138 391 
Q 2594 391 2855 752 
Q 3116 1113 3116 1747 
z
" transform="scale(0.015625)"/>
       <path id="DejaVuSans-65" d="M 3597 1894 
L 3597 1613 
L 953 1613 
Q 991 1019 1311 708 
Q 1631 397 2203 397 
Q 2534 397 2845 478 
Q 3156 559 3463 722 
L 3463 178 
Q 3153 47 2828 -22 
Q 2503 -91 2169 -91 
Q 1331 -91 842 396 
Q 353 884 353 1716 
Q 353 2575 817 3079 
Q 1281 3584 2069 3584 
Q 2775 3584 3186 3129 
Q 3597 2675 3597 1894 
z
M 3022 2063 
Q 3016 2534 2758 2815 
Q 2500 3097 2075 3097 
Q 1594 3097 1305 2825 
Q 1016 2553 972 2059 
L 3022 2063 
z
" transform="scale(0.015625)"/>
       <path id="DejaVuSans-72" d="M 2631 2963 
Q 2534 3019 2420 3045 
Q 2306 3072 2169 3072 
Q 1681 3072 1420 2755 
Q 1159 2438 1159 1844 
L 1159 0 
L 581 0 
L 581 3500 
L 1159 3500 
L 1159 2956 
Q 1341 3275 1631 3429 
Q 1922 3584 2338 3584 
Q 2397 3584 2469 3576 
Q 2541 3569 2628 3553 
L 2631 2963 
z
" transform="scale(0.015625)"/>
       <path id="DejaVuSans-67" d="M 2906 1791 
Q 2906 2416 2648 2759 
Q 2391 3103 1925 3103 
Q 1463 3103 1205 2759 
Q 947 2416 947 1791 
Q 947 1169 1205 825 
Q 1463 481 1925 481 
Q 2391 481 2648 825 
Q 2906 1169 2906 1791 
z
M 3481 434 
Q 3481 -459 3084 -895 
Q 2688 -1331 1869 -1331 
Q 1566 -1331 1297 -1286 
Q 1028 -1241 775 -1147 
L 775 -588 
Q 1028 -725 1275 -790 
Q 1522 -856 1778 -856 
Q 2344 -856 2625 -561 
Q 2906 -266 2906 331 
L 2906 616 
Q 2728 306 2450 153 
Q 2172 0 1784 0 
Q 1141 0 747 490 
Q 353 981 353 1791 
Q 353 2603 747 3093 
Q 1141 3584 1784 3584 
Q 2172 3584 2450 3431 
Q 2728 3278 2906 2969 
L 2906 3500 
L 3481 3500 
L 3481 434 
z
" transform="scale(0.015625)"/>
       <path id="DejaVuSans-61" d="M 2194 1759 
Q 1497 1759 1228 1600 
Q 959 1441 959 1056 
Q 959 750 1161 570 
Q 1363 391 1709 391 
Q 2188 391 2477 730 
Q 2766 1069 2766 1631 
L 2766 1759 
L 2194 1759 
z
M 3341 1997 
L 3341 0 
L 2766 0 
L 2766 531 
Q 2569 213 2275 61 
Q 1981 -91 1556 -91 
Q 1019 -91 701 211 
Q 384 513 384 1019 
Q 384 1609 779 1909 
Q 1175 2209 1959 2209 
L 2766 2209 
L 2766 2266 
Q 2766 2663 2505 2880 
Q 2244 3097 1772 3097 
Q 1472 3097 1187 3025 
Q 903 2953 641 2809 
L 641 3341 
Q 956 3463 1253 3523 
Q 1550 3584 1831 3584 
Q 2591 3584 2966 3190 
Q 3341 2797 3341 1997 
z
" transform="scale(0.015625)"/>
       <path id="DejaVuSans-6d" d="M 3328 2828 
Q 3544 3216 3844 3400 
Q 4144 3584 4550 3584 
Q 5097 3584 5394 3201 
Q 5691 2819 5691 2113 
L 5691 0 
L 5113 0 
L 5113 2094 
Q 5113 2597 4934 2840 
Q 4756 3084 4391 3084 
Q 3944 3084 3684 2787 
Q 3425 2491 3425 1978 
L 3425 0 
L 2847 0 
L 2847 2094 
Q 2847 2600 2669 2842 
Q 2491 3084 2119 3084 
Q 1678 3084 1418 2786 
Q 1159 2488 1159 1978 
L 1159 0 
L 581 0 
L 581 3500 
L 1159 3500 
L 1159 2956 
Q 1356 3278 1631 3431 
Q 1906 3584 2284 3584 
Q 2666 3584 2933 3390 
Q 3200 3197 3328 2828 
z
" transform="scale(0.015625)"/>
      </defs>
      <use xlink:href="#DejaVuSans-20b9"/>
      <use xlink:href="#DejaVuSans-20" transform="translate(63.623047 0)"/>
      <use xlink:href="#DejaVuSans-70" transform="translate(95.410156 0)"/>
      <use xlink:href="#DejaVuSans-65" transform="translate(158.886719 0)"/>
      <use xlink:href="#DejaVuSans-72" transform="translate(220.410156 0)"/>
      <use xlink:href="#DejaVuSans-20" transform="translate(261.523438 0)"/>
      <use xlink:href="#DejaVuSans-67" transform="translate(293.310547 0)"/>
      <use xlink:href="#DejaVuSans-72" transform="translate(356.787109 0)"/>
      <use xlink:href="#DejaVuSans-61" transform="translate(397.900391 0)"/>
      <use xlink:href="#DejaVuSans-6d" transform="translate(459.179688 0)"/>
     </g>
    </g>
   </g>
   <g id="line2d_22">
    <path d="M 72.046062 255.467397 
L 75.644631 254.081661 
L 78.894952 254.096169 
L 82.493521 250.72363 
L 89.574577 252.846867 
L 93.057064 248.27291 
L 96.655633 240.619844 
L 100.254203 246.170846 
L 107.335259 239.958498 
L 110.817745 243.964601 
L 118.014884 243.483416 
L 121.381288 241.482647 
L 128.462344 241.994749 
L 132.060913 240.867145 
L 139.141969 240.784511 
L 142.740539 237.342795 
L 149.821595 238.260271 
L 153.304081 239.377459 
L 156.90265 241.054475 
L 160.50122 242.919881 
L 163.751541 242.12435 
L 167.35011 243.958134 
L 170.832597 244.012771 
L 174.431166 248.476798 
L 177.913653 242.261635 
L 181.512222 241.415802 
L 192.191847 246.575905 
L 199.272903 246.974342 
L 202.871473 244.509068 
L 206.121793 246.832283 
L 209.720363 247.479648 
L 213.202849 248.283846 
L 223.882475 245.98761 
L 227.481044 248.504273 
L 234.5621 249.386121 
L 238.044587 248.152288 
L 241.643156 245.914552 
L 252.090616 247.924077 
L 255.573102 247.752107 
L 259.171672 248.109633 
L 262.654158 249.528097 
L 266.252728 248.382961 
L 269.851297 249.221261 
L 280.41484 250.558794 
L 284.013409 247.63328 
L 287.611978 243.007178 
L 290.978382 244.498611 
L 294.576951 242.090104 
L 301.658007 241.394702 
L 305.140494 239.981084 
L 308.739063 241.682423 
L 312.337633 241.481417 
L 319.418689 245.365632 
L 322.901175 246.518472 
L 330.098314 243.673725 
L 333.348635 245.45875 
L 336.947204 244.582576 
L 340.429691 244.270353 
L 344.02826 245.770088 
L 347.510747 244.993939 
L 351.109316 242.364416 
L 354.707886 243.907672 
L 361.788942 244.47764 
L 365.271428 243.749883 
L 368.869998 242.700799 
L 372.468567 242.70016 
L 375.718888 241.266777 
L 382.799944 240.566103 
L 386.398513 242.407213 
L 397.078138 241.455115 
L 404.159194 242.738452 
L 407.641681 240.598035 
L 411.24025 238.241988 
L 414.83882 238.45196 
L 418.089141 240.132251 
L 421.68771 240.393543 
L 425.170197 239.996458 
L 428.768766 236.388013 
L 435.849822 231.272759 
L 446.529447 232.314558 
L 453.610503 227.953657 
L 457.209073 228.242766 
L 464.174046 220.698628 
L 467.656532 218.432676 
L 471.255102 216.867074 
L 474.737588 212.087111 
L 478.336158 211.15989 
L 481.934727 213.857616 
L 492.49827 214.764903 
L 496.096839 216.749512 
L 499.695408 220.697707 
L 502.945729 220.791713 
L 506.544299 220.297605 
L 510.026785 213.247508 
L 513.625354 218.431562 
L 517.107841 217.599889 
L 524.30498 218.53365 
L 531.386036 217.572391 
L 534.868522 216.042641 
L 538.467092 216.741804 
L 542.065661 212.588356 
L 545.315982 209.059333 
L 548.914551 209.731441 
L 555.995607 212.077262 
L 559.478094 213.700399 
L 563.076663 214.180518 
L 566.675233 215.678621 
L 573.756289 212.618162 
L 577.238775 208.388709 
L 584.435914 208.072204 
L 587.686235 202.915666 
L 591.284804 201.024284 
L 594.767291 202.793949 
L 598.36586 204.463946 
L 601.848347 201.860372 
L 605.446916 202.764052 
L 609.045486 206.609646 
L 616.126541 198.241199 
L 619.609028 198.291657 
L 623.207597 198.027225 
L 626.806167 198.358395 
L 630.172571 190.234037 
L 633.77114 187.139922 
L 637.253626 185.599149 
L 640.852196 185.035198 
L 644.334682 180.480022 
L 647.933252 177.742088 
L 658.612877 169.366387 
L 665.693933 159.356118 
L 669.292503 157.232025 
L 672.542823 147.627988 
L 676.141393 138.85812 
L 679.623879 139.687392 
L 686.704935 134.792414 
L 690.303505 125.431017 
L 693.902074 108.428709 
L 700.98313 89.238085 
L 704.465617 83.221503 
L 708.064186 60.122573 
L 718.511646 56.843058 
L 721.994132 60.064191 
L 725.592702 85.322808 
L 729.075188 82.808741 
L 729.075188 82.808741 
" clip-path="url(#pf61d867631)" style="fill: none; opacity: 0.1; stroke: #b8872e; stroke-width: 4.5; stroke-linecap: round"/>
    <path d="M 72.046062 255.467397 
L 75.644631 254.081661 
L 78.894952 254.096169 
L 82.493521 250.72363 
L 89.574577 252.846867 
L 93.057064 248.27291 
L 96.655633 240.619844 
L 100.254203 246.170846 
L 107.335259 239.958498 
L 110.817745 243.964601 
L 118.014884 243.483416 
L 121.381288 241.482647 
L 128.462344 241.994749 
L 132.060913 240.867145 
L 139.141969 240.784511 
L 142.740539 237.342795 
L 149.821595 238.260271 
L 153.304081 239.377459 
L 156.90265 241.054475 
L 160.50122 242.919881 
L 163.751541 242.12435 
L 167.35011 243.958134 
L 170.832597 244.012771 
L 174.431166 248.476798 
L 177.913653 242.261635 
L 181.512222 241.415802 
L 192.191847 246.575905 
L 199.272903 246.974342 
L 202.871473 244.509068 
L 206.121793 246.832283 
L 209.720363 247.479648 
L 213.202849 248.283846 
L 223.882475 245.98761 
L 227.481044 248.504273 
L 234.5621 249.386121 
L 238.044587 248.152288 
L 241.643156 245.914552 
L 252.090616 247.924077 
L 255.573102 247.752107 
L 259.171672 248.109633 
L 262.654158 249.528097 
L 266.252728 248.382961 
L 269.851297 249.221261 
L 280.41484 250.558794 
L 284.013409 247.63328 
L 287.611978 243.007178 
L 290.978382 244.498611 
L 294.576951 242.090104 
L 301.658007 241.394702 
L 305.140494 239.981084 
L 308.739063 241.682423 
L 312.337633 241.481417 
L 319.418689 245.365632 
L 322.901175 246.518472 
L 330.098314 243.673725 
L 333.348635 245.45875 
L 336.947204 244.582576 
L 340.429691 244.270353 
L 344.02826 245.770088 
L 347.510747 244.993939 
L 351.109316 242.364416 
L 354.707886 243.907672 
L 361.788942 244.47764 
L 365.271428 243.749883 
L 368.869998 242.700799 
L 372.468567 242.70016 
L 375.718888 241.266777 
L 382.799944 240.566103 
L 386.398513 242.407213 
L 397.078138 241.455115 
L 404.159194 242.738452 
L 407.641681 240.598035 
L 411.24025 238.241988 
L 414.83882 238.45196 
L 418.089141 240.132251 
L 421.68771 240.393543 
L 425.170197 239.996458 
L 428.768766 236.388013 
L 435.849822 231.272759 
L 446.529447 232.314558 
L 453.610503 227.953657 
L 457.209073 228.242766 
L 464.174046 220.698628 
L 467.656532 218.432676 
L 471.255102 216.867074 
L 474.737588 212.087111 
L 478.336158 211.15989 
L 481.934727 213.857616 
L 492.49827 214.764903 
L 496.096839 216.749512 
L 499.695408 220.697707 
L 502.945729 220.791713 
L 506.544299 220.297605 
L 510.026785 213.247508 
L 513.625354 218.431562 
L 517.107841 217.599889 
L 524.30498 218.53365 
L 531.386036 217.572391 
L 534.868522 216.042641 
L 538.467092 216.741804 
L 542.065661 212.588356 
L 545.315982 209.059333 
L 548.914551 209.731441 
L 555.995607 212.077262 
L 559.478094 213.700399 
L 563.076663 214.180518 
L 566.675233 215.678621 
L 573.756289 212.618162 
L 577.238775 208.388709 
L 584.435914 208.072204 
L 587.686235 202.915666 
L 591.284804 201.024284 
L 594.767291 202.793949 
L 598.36586 204.463946 
L 601.848347 201.860372 
L 605.446916 202.764052 
L 609.045486 206.609646 
L 616.126541 198.241199 
L 619.609028 198.291657 
L 623.207597 198.027225 
L 626.806167 198.358395 
L 630.172571 190.234037 
L 633.77114 187.139922 
L 637.253626 185.599149 
L 640.852196 185.035198 
L 644.334682 180.480022 
L 647.933252 177.742088 
L 658.612877 169.366387 
L 665.693933 159.356118 
L 669.292503 157.232025 
L 672.542823 147.627988 
L 676.141393 138.85812 
L 679.623879 139.687392 
L 686.704935 134.792414 
L 690.303505 125.431017 
L 693.902074 108.428709 
L 700.98313 89.238085 
L 704.465617 83.221503 
L 708.064186 60.122573 
L 718.511646 56.843058 
L 721.994132 60.064191 
L 725.592702 85.322808 
L 729.075188 82.808741 
L 729.075188 82.808741 
" clip-path="url(#pf61d867631)" style="fill: none; stroke: #b8872e; stroke-width: 2.7; stroke-linecap: round"/>
   </g>
   <g id="patch_3">
    <path d="M 62.190625 271.357344 
L 738.930625 271.357344 
" style="fill: none; stroke: #dce4eb; stroke-width: 0.8; stroke-linejoin: miter; stroke-linecap: square"/>
   </g>
   <g id="text_15">
    <!-- Monthly trend · Jan 2011 to Jul 2026 -->
    <g style="fill: #7a8594" transform="translate(62.190625 38.614625) scale(0.09 -0.09)">
     <defs>
      <path id="DejaVuSans-4d" d="M 628 4666 
L 1569 4666 
L 2759 1491 
L 3956 4666 
L 4897 4666 
L 4897 0 
L 4281 0 
L 4281 4097 
L 3078 897 
L 2444 897 
L 1241 4097 
L 1241 0 
L 628 0 
L 628 4666 
z
" transform="scale(0.015625)"/>
      <path id="DejaVuSans-6f" d="M 1959 3097 
Q 1497 3097 1228 2736 
Q 959 2375 959 1747 
Q 959 1119 1226 758 
Q 1494 397 1959 397 
Q 2419 397 2687 759 
Q 2956 1122 2956 1747 
Q 2956 2369 2687 2733 
Q 2419 3097 1959 3097 
z
M 1959 3584 
Q 2709 3584 3137 3096 
Q 3566 2609 3566 1747 
Q 3566 888 3137 398 
Q 2709 -91 1959 -91 
Q 1206 -91 779 398 
Q 353 888 353 1747 
Q 353 2609 779 3096 
Q 1206 3584 1959 3584 
z
" transform="scale(0.015625)"/>
      <path id="DejaVuSans-6e" d="M 3513 2113 
L 3513 0 
L 2938 0 
L 2938 2094 
Q 2938 2591 2744 2837 
Q 2550 3084 2163 3084 
Q 1697 3084 1428 2787 
Q 1159 2491 1159 1978 
L 1159 0 
L 581 0 
L 581 3500 
L 1159 3500 
L 1159 2956 
Q 1366 3272 1645 3428 
Q 1925 3584 2291 3584 
Q 2894 3584 3203 3211 
Q 3513 2838 3513 2113 
z
" transform="scale(0.015625)"/>
      <path id="DejaVuSans-74" d="M 1172 4494 
L 1172 3500 
L 2356 3500 
L 2356 3053 
L 1172 3053 
L 1172 1153 
Q 1172 725 1289 603 
Q 1406 481 1766 481 
L 2356 481 
L 2356 0 
L 1766 0 
Q 1100 0 847 248 
Q 594 497 594 1153 
L 594 3053 
L 172 3053 
L 172 3500 
L 594 3500 
L 594 4494 
L 1172 4494 
z
" transform="scale(0.015625)"/>
      <path id="DejaVuSans-68" d="M 3513 2113 
L 3513 0 
L 2938 0 
L 2938 2094 
Q 2938 2591 2744 2837 
Q 2550 3084 2163 3084 
Q 1697 3084 1428 2787 
Q 1159 2491 1159 1978 
L 1159 0 
L 581 0 
L 581 4863 
L 1159 4863 
L 1159 2956 
Q 1366 3272 1645 3428 
Q 1925 3584 2291 3584 
Q 2894 3584 3203 3211 
Q 3513 2838 3513 2113 
z
" transform="scale(0.015625)"/>
      <path id="DejaVuSans-6c" d="M 603 4863 
L 1178 4863 
L 1178 0 
L 603 0 
L 603 4863 
z
" transform="scale(0.015625)"/>
      <path id="DejaVuSans-79" d="M 2059 -325 
Q 1816 -950 1584 -1140 
Q 1353 -1331 966 -1331 
L 506 -1331 
L 506 -850 
L 844 -850 
Q 1081 -850 1212 -737 
Q 1344 -625 1503 -206 
L 1606 56 
L 191 3500 
L 800 3500 
L 1894 763 
L 2988 3500 
L 3597 3500 
L 2059 -325 
z
" transform="scale(0.015625)"/>
      <path id="DejaVuSans-64" d="M 2906 2969 
L 2906 4863 
L 3481 4863 
L 3481 0 
L 2906 0 
L 2906 525 
Q 2725 213 2448 61 
Q 2172 -91 1784 -91 
Q 1150 -91 751 415 
Q 353 922 353 1747 
Q 353 2572 751 3078 
Q 1150 3584 1784 3584 
Q 2172 3584 2448 3432 
Q 2725 3281 2906 2969 
z
M 947 1747 
Q 947 1113 1208 752 
Q 1469 391 1925 391 
Q 2381 391 2643 752 
Q 2906 1113 2906 1747 
Q 2906 2381 2643 2742 
Q 2381 3103 1925 3103 
Q 1469 3103 1208 2742 
Q 947 2381 947 1747 
z
" transform="scale(0.015625)"/>
      <path id="DejaVuSans-b7" d="M 684 2619 
L 1344 2619 
L 1344 1825 
L 684 1825 
L 684 2619 
z
" transform="scale(0.015625)"/>
      <path id="DejaVuSans-4a" d="M 628 4666 
L 1259 4666 
L 1259 325 
Q 1259 -519 939 -900 
Q 619 -1281 -91 -1281 
L -331 -1281 
L -331 -750 
L -134 -750 
Q 284 -750 456 -515 
Q 628 -281 628 325 
L 628 4666 
z
" transform="scale(0.015625)"/>
      <path id="DejaVuSans-75" d="M 544 1381 
L 544 3500 
L 1119 3500 
L 1119 1403 
Q 1119 906 1312 657 
Q 1506 409 1894 409 
Q 2359 409 2629 706 
Q 2900 1003 2900 1516 
L 2900 3500 
L 3475 3500 
L 3475 0 
L 2900 0 
L 2900 538 
Q 2691 219 2414 64 
Q 2138 -91 1772 -91 
Q 1169 -91 856 284 
Q 544 659 544 1381 
z
M 1991 3584 
L 1991 3584 
z
" transform="scale(0.015625)"/>
     </defs>
     <use xlink:href="#DejaVuSans-4d"/>
     <use xlink:href="#DejaVuSans-6f" transform="translate(86.279297 0)"/>
     <use xlink:href="#DejaVuSans-6e" transform="translate(147.460938 0)"/>
     <use xlink:href="#DejaVuSans-74" transform="translate(210.839844 0)"/>
     <use xlink:href="#DejaVuSans-68" transform="translate(250.048828 0)"/>
     <use xlink:href="#DejaVuSans-6c" transform="translate(313.427734 0)"/>
     <use xlink:href="#DejaVuSans-79" transform="translate(341.210938 0)"/>
     <use xlink:href="#DejaVuSans-20" transform="translate(400.390625 0)"/>
     <use xlink:href="#DejaVuSans-74" transform="translate(432.177734 0)"/>
     <use xlink:href="#DejaVuSans-72" transform="translate(471.386719 0)"/>
     <use xlink:href="#DejaVuSans-65" transform="translate(510.25 0)"/>
     <use xlink:href="#DejaVuSans-6e" transform="translate(571.773438 0)"/>
     <use xlink:href="#DejaVuSans-64" transform="translate(635.152344 0)"/>
     <use xlink:href="#DejaVuSans-20" transform="translate(698.628906 0)"/>
     <use xlink:href="#DejaVuSans-b7" transform="translate(730.416016 0)"/>
     <use xlink:href="#DejaVuSans-20" transform="translate(762.203125 0)"/>
     <use xlink:href="#DejaVuSans-4a" transform="translate(793.990234 0)"/>
     <use xlink:href="#DejaVuSans-61" transform="translate(823.482422 0)"/>
     <use xlink:href="#DejaVuSans-6e" transform="translate(884.761719 0)"/>
     <use xlink:href="#DejaVuSans-20" transform="translate(948.140625 0)"/>
     <use xlink:href="#DejaVuSans-32" transform="translate(979.927734 0)"/>
     <use xlink:href="#DejaVuSans-30" transform="translate(1043.550781 0)"/>
     <use xlink:href="#DejaVuSans-31" transform="translate(1107.173828 0)"/>
     <use xlink:href="#DejaVuSans-31" transform="translate(1170.796875 0)"/>
     <use xlink:href="#DejaVuSans-20" transform="translate(1234.419922 0)"/>
     <use xlink:href="#DejaVuSans-74" transform="translate(1266.207031 0)"/>
     <use xlink:href="#DejaVuSans-6f" transform="translate(1305.416016 0)"/>
     <use xlink:href="#DejaVuSans-20" transform="translate(1366.597656 0)"/>
     <use xlink:href="#DejaVuSans-4a" transform="translate(1398.384766 0)"/>
     <use xlink:href="#DejaVuSans-75" transform="translate(1427.876953 0)"/>
     <use xlink:href="#DejaVuSans-6c" transform="translate(1491.255859 0)"/>
     <use xlink:href="#DejaVuSans-20" transform="translate(1519.039062 0)"/>
     <use xlink:href="#DejaVuSans-32" transform="translate(1550.826172 0)"/>
     <use xlink:href="#DejaVuSans-30" transform="translate(1614.449219 0)"/>
     <use xlink:href="#DejaVuSans-32" transform="translate(1678.072266 0)"/>
     <use xlink:href="#DejaVuSans-36" transform="translate(1741.695312 0)"/>
    </g>
   </g>
   <g id="text_16">
    <!-- ₹13,583/g -->
    <g style="fill: #b8872e" transform="translate(654.39625 24.861425) scale(0.15 -0.15)">
     <defs>
      <path id="DejaVuSans-Bold-20b9" d="M 322 4056 
L 597 4666 
L 4141 4666 
L 3872 4056 
L 2884 4056 
Q 2984 3881 3022 3650 
L 4141 3650 
L 3872 3041 
L 3006 3041 
Q 2953 2800 2819 2619 
Q 2594 2322 2144 2181 
Q 2391 2125 2588 1925 
Q 2784 1725 2981 1325 
L 3634 0 
L 2353 0 
L 1784 1159 
Q 1613 1509 1436 1637 
Q 1259 1766 966 1766 
L 497 1766 
L 497 2597 
L 1131 2597 
Q 1509 2597 1675 2806 
Q 1756 2909 1797 3041 
L 322 3041 
L 597 3650 
L 1788 3650 
Q 1747 3766 1675 3856 
Q 1509 4056 1131 4056 
L 322 4056 
z
" transform="scale(0.015625)"/>
      <path id="DejaVuSans-Bold-31" d="M 750 831 
L 1813 831 
L 1813 3847 
L 722 3622 
L 722 4441 
L 1806 4666 
L 2950 4666 
L 2950 831 
L 4013 831 
L 4013 0 
L 750 0 
L 750 831 
z
" transform="scale(0.015625)"/>
      <path id="DejaVuSans-Bold-33" d="M 2981 2516 
Q 3453 2394 3698 2092 
Q 3944 1791 3944 1325 
Q 3944 631 3412 270 
Q 2881 -91 1863 -91 
Q 1503 -91 1142 -33 
Q 781 25 428 141 
L 428 1069 
Q 766 900 1098 814 
Q 1431 728 1753 728 
Q 2231 728 2486 893 
Q 2741 1059 2741 1369 
Q 2741 1688 2480 1852 
Q 2219 2016 1709 2016 
L 1228 2016 
L 1228 2791 
L 1734 2791 
Q 2188 2791 2409 2933 
Q 2631 3075 2631 3366 
Q 2631 3634 2415 3781 
Q 2200 3928 1806 3928 
Q 1516 3928 1219 3862 
Q 922 3797 628 3669 
L 628 4550 
Q 984 4650 1334 4700 
Q 1684 4750 2022 4750 
Q 2931 4750 3382 4451 
Q 3834 4153 3834 3553 
Q 3834 3144 3618 2883 
Q 3403 2622 2981 2516 
z
" transform="scale(0.015625)"/>
      <path id="DejaVuSans-Bold-2c" d="M 653 1209 
L 1778 1209 
L 1778 256 
L 1006 -909 
L 341 -909 
L 653 256 
L 653 1209 
z
" transform="scale(0.015625)"/>
      <path id="DejaVuSans-Bold-35" d="M 678 4666 
L 3669 4666 
L 3669 3781 
L 1638 3781 
L 1638 3059 
Q 1775 3097 1914 3117 
Q 2053 3138 2203 3138 
Q 3056 3138 3531 2711 
Q 4006 2284 4006 1522 
Q 4006 766 3489 337 
Q 2972 -91 2053 -91 
Q 1656 -91 1267 -14 
Q 878 63 494 219 
L 494 1166 
Q 875 947 1217 837 
Q 1559 728 1863 728 
Q 2300 728 2551 942 
Q 2803 1156 2803 1522 
Q 2803 1891 2551 2103 
Q 2300 2316 1863 2316 
Q 1603 2316 1309 2248 
Q 1016 2181 678 2041 
L 678 4666 
z
" transform="scale(0.015625)"/>
      <path id="DejaVuSans-Bold-38" d="M 2228 2088 
Q 1891 2088 1709 1903 
Q 1528 1719 1528 1375 
Q 1528 1031 1709 848 
Q 1891 666 2228 666 
Q 2563 666 2741 848 
Q 2919 1031 2919 1375 
Q 2919 1722 2741 1905 
Q 2563 2088 2228 2088 
z
M 1350 2484 
Q 925 2613 709 2878 
Q 494 3144 494 3541 
Q 494 4131 934 4440 
Q 1375 4750 2228 4750 
Q 3075 4750 3515 4442 
Q 3956 4134 3956 3541 
Q 3956 3144 3739 2878 
Q 3522 2613 3097 2484 
Q 3572 2353 3814 2058 
Q 4056 1763 4056 1313 
Q 4056 619 3595 264 
Q 3134 -91 2228 -91 
Q 1319 -91 855 264 
Q 391 619 391 1313 
Q 391 1763 633 2058 
Q 875 2353 1350 2484 
z
M 1631 3419 
Q 1631 3141 1786 2991 
Q 1941 2841 2228 2841 
Q 2509 2841 2662 2991 
Q 2816 3141 2816 3419 
Q 2816 3697 2662 3845 
Q 2509 3994 2228 3994 
Q 1941 3994 1786 3844 
Q 1631 3694 1631 3419 
z
" transform="scale(0.015625)"/>
      <path id="DejaVuSans-Bold-2f" d="M 1644 4666 
L 2338 4666 
L 691 -594 
L 0 -594 
L 1644 4666 
z
" transform="scale(0.015625)"/>
      <path id="DejaVuSans-Bold-67" d="M 2919 594 
Q 2688 288 2409 144 
Q 2131 0 1766 0 
Q 1125 0 706 504 
Q 288 1009 288 1791 
Q 288 2575 706 3076 
Q 1125 3578 1766 3578 
Q 2131 3578 2409 3434 
Q 2688 3291 2919 2981 
L 2919 3500 
L 4044 3500 
L 4044 353 
Q 4044 -491 3511 -936 
Q 2978 -1381 1966 -1381 
Q 1638 -1381 1331 -1331 
Q 1025 -1281 716 -1178 
L 716 -306 
Q 1009 -475 1290 -558 
Q 1572 -641 1856 -641 
Q 2406 -641 2662 -400 
Q 2919 -159 2919 353 
L 2919 594 
z
M 2181 2772 
Q 1834 2772 1640 2515 
Q 1447 2259 1447 1791 
Q 1447 1309 1634 1061 
Q 1822 813 2181 813 
Q 2531 813 2725 1069 
Q 2919 1325 2919 1791 
Q 2919 2259 2725 2515 
Q 2531 2772 2181 2772 
z
" transform="scale(0.015625)"/>
     </defs>
     <use xlink:href="#DejaVuSans-Bold-20b9"/>
     <use xlink:href="#DejaVuSans-Bold-31" transform="translate(69.580078 0)"/>
     <use xlink:href="#DejaVuSans-Bold-33" transform="translate(139.160156 0)"/>
     <use xlink:href="#DejaVuSans-Bold-2c" transform="translate(208.740234 0)"/>
     <use xlink:href="#DejaVuSans-Bold-35" transform="translate(246.728516 0)"/>
     <use xlink:href="#DejaVuSans-Bold-38" transform="translate(316.308594 0)"/>
     <use xlink:href="#DejaVuSans-Bold-33" transform="translate(385.888672 0)"/>
     <use xlink:href="#DejaVuSans-Bold-2f" transform="translate(455.46875 0)"/>
     <use xlink:href="#DejaVuSans-Bold-67" transform="translate(491.992188 0)"/>
    </g>
   </g>
   <g id="text_17">
    <!-- Indicative 22K gold · India -->
    <g style="fill: #10233f" transform="translate(62.190625 20.117344) scale(0.17 -0.17)">
     <defs>
      <path id="DejaVuSans-Bold-49" d="M 588 4666 
L 1791 4666 
L 1791 0 
L 588 0 
L 588 4666 
z
" transform="scale(0.015625)"/>
      <path id="DejaVuSans-Bold-6e" d="M 4056 2131 
L 4056 0 
L 2931 0 
L 2931 347 
L 2931 1631 
Q 2931 2084 2911 2256 
Q 2891 2428 2841 2509 
Q 2775 2619 2662 2680 
Q 2550 2741 2406 2741 
Q 2056 2741 1856 2470 
Q 1656 2200 1656 1722 
L 1656 0 
L 538 0 
L 538 3500 
L 1656 3500 
L 1656 2988 
Q 1909 3294 2193 3439 
Q 2478 3584 2822 3584 
Q 3428 3584 3742 3212 
Q 4056 2841 4056 2131 
z
" transform="scale(0.015625)"/>
      <path id="DejaVuSans-Bold-64" d="M 2919 2988 
L 2919 4863 
L 4044 4863 
L 4044 0 
L 2919 0 
L 2919 506 
Q 2688 197 2409 53 
Q 2131 -91 1766 -91 
Q 1119 -91 703 423 
Q 288 938 288 1747 
Q 288 2556 703 3070 
Q 1119 3584 1766 3584 
Q 2128 3584 2408 3439 
Q 2688 3294 2919 2988 
z
M 2181 722 
Q 2541 722 2730 984 
Q 2919 1247 2919 1747 
Q 2919 2247 2730 2509 
Q 2541 2772 2181 2772 
Q 1825 2772 1636 2509 
Q 1447 2247 1447 1747 
Q 1447 1247 1636 984 
Q 1825 722 2181 722 
z
" transform="scale(0.015625)"/>
      <path id="DejaVuSans-Bold-69" d="M 538 3500 
L 1656 3500 
L 1656 0 
L 538 0 
L 538 3500 
z
M 538 4863 
L 1656 4863 
L 1656 3950 
L 538 3950 
L 538 4863 
z
" transform="scale(0.015625)"/>
      <path id="DejaVuSans-Bold-63" d="M 3366 3391 
L 3366 2478 
Q 3138 2634 2908 2709 
Q 2678 2784 2431 2784 
Q 1963 2784 1702 2511 
Q 1441 2238 1441 1747 
Q 1441 1256 1702 982 
Q 1963 709 2431 709 
Q 2694 709 2930 787 
Q 3166 866 3366 1019 
L 3366 103 
Q 3103 6 2833 -42 
Q 2563 -91 2291 -91 
Q 1344 -91 809 395 
Q 275 881 275 1747 
Q 275 2613 809 3098 
Q 1344 3584 2291 3584 
Q 2566 3584 2833 3536 
Q 3100 3488 3366 3391 
z
" transform="scale(0.015625)"/>
      <path id="DejaVuSans-Bold-61" d="M 2106 1575 
Q 1756 1575 1579 1456 
Q 1403 1338 1403 1106 
Q 1403 894 1545 773 
Q 1688 653 1941 653 
Q 2256 653 2472 879 
Q 2688 1106 2688 1447 
L 2688 1575 
L 2106 1575 
z
M 3816 1997 
L 3816 0 
L 2688 0 
L 2688 519 
Q 2463 200 2181 54 
Q 1900 -91 1497 -91 
Q 953 -91 614 226 
Q 275 544 275 1050 
Q 275 1666 698 1953 
Q 1122 2241 2028 2241 
L 2688 2241 
L 2688 2328 
Q 2688 2594 2478 2717 
Q 2269 2841 1825 2841 
Q 1466 2841 1156 2769 
Q 847 2697 581 2553 
L 581 3406 
Q 941 3494 1303 3539 
Q 1666 3584 2028 3584 
Q 2975 3584 3395 3211 
Q 3816 2838 3816 1997 
z
" transform="scale(0.015625)"/>
      <path id="DejaVuSans-Bold-74" d="M 1759 4494 
L 1759 3500 
L 2913 3500 
L 2913 2700 
L 1759 2700 
L 1759 1216 
Q 1759 972 1856 886 
Q 1953 800 2241 800 
L 2816 800 
L 2816 0 
L 1856 0 
Q 1194 0 917 276 
Q 641 553 641 1216 
L 641 2700 
L 84 2700 
L 84 3500 
L 641 3500 
L 641 4494 
L 1759 4494 
z
" transform="scale(0.015625)"/>
      <path id="DejaVuSans-Bold-76" d="M 97 3500 
L 1216 3500 
L 2088 1081 
L 2956 3500 
L 4078 3500 
L 2700 0 
L 1472 0 
L 97 3500 
z
" transform="scale(0.015625)"/>
      <path id="DejaVuSans-Bold-65" d="M 4031 1759 
L 4031 1441 
L 1416 1441 
Q 1456 1047 1700 850 
Q 1944 653 2381 653 
Q 2734 653 3104 758 
Q 3475 863 3866 1075 
L 3866 213 
Q 3469 63 3072 -14 
Q 2675 -91 2278 -91 
Q 1328 -91 801 392 
Q 275 875 275 1747 
Q 275 2603 792 3093 
Q 1309 3584 2216 3584 
Q 3041 3584 3536 3087 
Q 4031 2591 4031 1759 
z
M 2881 2131 
Q 2881 2450 2695 2645 
Q 2509 2841 2209 2841 
Q 1884 2841 1681 2658 
Q 1478 2475 1428 2131 
L 2881 2131 
z
" transform="scale(0.015625)"/>
      <path id="DejaVuSans-Bold-20" transform="scale(0.015625)"/>
      <path id="DejaVuSans-Bold-32" d="M 1844 884 
L 3897 884 
L 3897 0 
L 506 0 
L 506 884 
L 2209 2388 
Q 2438 2594 2547 2791 
Q 2656 2988 2656 3200 
Q 2656 3528 2436 3728 
Q 2216 3928 1850 3928 
Q 1569 3928 1234 3808 
Q 900 3688 519 3450 
L 519 4475 
Q 925 4609 1322 4679 
Q 1719 4750 2100 4750 
Q 2938 4750 3402 4381 
Q 3866 4013 3866 3353 
Q 3866 2972 3669 2642 
Q 3472 2313 2841 1759 
L 1844 884 
z
" transform="scale(0.015625)"/>
      <path id="DejaVuSans-Bold-4b" d="M 588 4666 
L 1791 4666 
L 1791 2963 
L 3525 4666 
L 4922 4666 
L 2675 2456 
L 5153 0 
L 3647 0 
L 1791 1838 
L 1791 0 
L 588 0 
L 588 4666 
z
" transform="scale(0.015625)"/>
      <path id="DejaVuSans-Bold-6f" d="M 2203 2784 
Q 1831 2784 1636 2517 
Q 1441 2250 1441 1747 
Q 1441 1244 1636 976 
Q 1831 709 2203 709 
Q 2569 709 2762 976 
Q 2956 1244 2956 1747 
Q 2956 2250 2762 2517 
Q 2569 2784 2203 2784 
z
M 2203 3584 
Q 3106 3584 3614 3096 
Q 4122 2609 4122 1747 
Q 4122 884 3614 396 
Q 3106 -91 2203 -91 
Q 1297 -91 786 396 
Q 275 884 275 1747 
Q 275 2609 786 3096 
Q 1297 3584 2203 3584 
z
" transform="scale(0.015625)"/>
      <path id="DejaVuSans-Bold-6c" d="M 538 4863 
L 1656 4863 
L 1656 0 
L 538 0 
L 538 4863 
z
" transform="scale(0.015625)"/>
      <path id="DejaVuSans-Bold-b7" d="M 653 2828 
L 1778 2828 
L 1778 1619 
L 653 1619 
L 653 2828 
z
" transform="scale(0.015625)"/>
     </defs>
     <use xlink:href="#DejaVuSans-Bold-49"/>
     <use xlink:href="#DejaVuSans-Bold-6e" transform="translate(37.207031 0)"/>
     <use xlink:href="#DejaVuSans-Bold-64" transform="translate(108.398438 0)"/>
     <use xlink:href="#DejaVuSans-Bold-69" transform="translate(179.980469 0)"/>
     <use xlink:href="#DejaVuSans-Bold-63" transform="translate(214.257812 0)"/>
     <use xlink:href="#DejaVuSans-Bold-61" transform="translate(273.535156 0)"/>
     <use xlink:href="#DejaVuSans-Bold-74" transform="translate(341.015625 0)"/>
     <use xlink:href="#DejaVuSans-Bold-69" transform="translate(388.818359 0)"/>
     <use xlink:href="#DejaVuSans-Bold-76" transform="translate(423.095703 0)"/>
     <use xlink:href="#DejaVuSans-Bold-65" transform="translate(488.28125 0)"/>
     <use xlink:href="#DejaVuSans-Bold-20" transform="translate(556.103516 0)"/>
     <use xlink:href="#DejaVuSans-Bold-32" transform="translate(590.917969 0)"/>
     <use xlink:href="#DejaVuSans-Bold-32" transform="translate(660.498047 0)"/>
     <use xlink:href="#DejaVuSans-Bold-4b" transform="translate(730.078125 0)"/>
     <use xlink:href="#DejaVuSans-Bold-20" transform="translate(807.568359 0)"/>
     <use xlink:href="#DejaVuSans-Bold-67" transform="translate(842.382812 0)"/>
     <use xlink:href="#DejaVuSans-Bold-6f" transform="translate(913.964844 0)"/>
     <use xlink:href="#DejaVuSans-Bold-6c" transform="translate(982.666016 0)"/>
     <use xlink:href="#DejaVuSans-Bold-64" transform="translate(1016.943359 0)"/>
     <use xlink:href="#DejaVuSans-Bold-20" transform="translate(1088.525391 0)"/>
     <use xlink:href="#DejaVuSans-Bold-b7" transform="translate(1123.339844 0)"/>
     <use xlink:href="#DejaVuSans-Bold-20" transform="translate(1161.328125 0)"/>
     <use xlink:href="#DejaVuSans-Bold-49" transform="translate(1196.142578 0)"/>
     <use xlink:href="#DejaVuSans-Bold-6e" transform="translate(1233.349609 0)"/>
     <use xlink:href="#DejaVuSans-Bold-64" transform="translate(1304.541016 0)"/>
     <use xlink:href="#DejaVuSans-Bold-69" transform="translate(1376.123047 0)"/>
     <use xlink:href="#DejaVuSans-Bold-61" transform="translate(1410.400391 0)"/>
    </g>
   </g>
   <g id="PathCollection_1">
    <defs>
     <path id="mb56227a93a" d="M 0 4.062019 
C 1.07726 4.062019 2.110543 3.634019 2.872281 2.872281 
C 3.634019 2.110543 4.062019 1.07726 4.062019 0 
C 4.062019 -1.07726 3.634019 -2.110543 2.872281 -2.872281 
C 2.110543 -3.634019 1.07726 -4.062019 0 -4.062019 
C -1.07726 -4.062019 -2.110543 -3.634019 -2.872281 -2.872281 
C -3.634019 -2.110543 -4.062019 -1.07726 -4.062019 0 
C -4.062019 1.07726 -3.634019 2.110543 -2.872281 2.872281 
C -2.110543 3.634019 -1.07726 4.062019 0 4.062019 
z
" style="stroke: #b8872e; stroke-width: 2.5"/>
    </defs>
    <g clip-path="url(#pf61d867631)">
     <use xlink:href="#mb56227a93a" x="729.075188" y="82.808741" style="fill: #ffffff; stroke: #b8872e; stroke-width: 2.5"/>
    </g>
   </g>
  </g>
 </g>
 <defs>
  <clipPath id="pf61d867631">
   <rect x="62.190625" y="46.117344" width="676.74" height="225.24"/>
  </clipPath>
 </defs>
</svg>
