<?xml version="1.0" encoding="utf-8" standalone="no"?>
<!DOCTYPE svg PUBLIC "-//W3C//DTD SVG 1.1//EN"
  "http://www.w3.org/Graphics/SVG/1.1/DTD/svg11.dtd">
<svg xmlns:xlink="http://www.w3.org/1999/xlink" width="712.683125pt" height="291.835625pt" viewBox="0 0 712.683125 291.835625" xmlns="http://www.w3.org/2000/svg" version="1.1">
 <metadata>
  <rdf:RDF xmlns:dc="http://purl.org/dc/elements/1.1/" xmlns:cc="http://creativecommons.org/ns#" xmlns:rdf="http://www.w3.org/1999/02/22-rdf-syntax-ns#">
   <cc:Work>
    <dc:type rdf:resource="http://purl.org/dc/dcmitype/StillImage"/>
    <dc:date>2026-07-13T02:43:16.717609</dc:date>
    <dc:format>image/svg+xml</dc:format>
    <dc:creator>
     <cc:Agent>
      <dc:title>Matplotlib v3.10.8, https://matplotlib.org/</dc:title>
     </cc:Agent>
    </dc:creator>
   </cc:Work>
  </rdf:RDF>
 </metadata>
 <defs>
  <style type="text/css">*{stroke-linejoin: round; stroke-linecap: butt}</style>
 </defs>
 <g id="figure_1">
  <g id="patch_1">
   <path d="M 0 291.835625 
L 712.683125 291.835625 
L 712.683125 0 
L 0 0 
z
" style="fill: #ffffff"/>
  </g>
  <g id="axes_1">
   <g id="patch_2">
    <path d="M 66.053125 267.9575 
L 705.483125 267.9575 
L 705.483125 33.3575 
L 66.053125 33.3575 
z
" style="fill: #ffffff"/>
   </g>
   <g id="FillBetweenPolyCollection_1">
    <defs>
     <path id="m681575b102" d="M 72.322047 -34.541761 
L 72.322047 -34.541761 
L 75.755555 -36.029694 
L 78.856788 -36.014116 
L 82.290296 -39.635377 
L 89.046555 -37.355553 
L 92.369305 -42.266836 
L 95.802813 -50.48431 
L 99.236321 -44.523925 
L 105.992579 -51.194429 
L 109.315329 -46.892879 
L 116.182346 -47.409551 
L 119.394337 -49.557875 
L 126.150596 -49.008006 
L 129.584104 -50.21877 
L 136.340362 -50.307499 
L 139.773871 -54.003038 
L 146.530129 -53.017899 
L 149.852879 -51.818319 
L 153.286387 -50.017625 
L 156.719895 -48.014646 
L 159.821129 -48.868848 
L 163.254637 -46.899823 
L 166.577387 -46.841157 
L 170.010895 -42.047911 
L 173.333645 -48.721437 
L 176.767153 -49.62965 
L 186.95692 -44.088993 
L 193.713178 -43.661172 
L 197.146686 -46.308259 
L 200.24792 -43.813708 
L 203.681428 -43.1186 
L 207.004178 -42.255093 
L 213.760436 -43.810796 
L 217.193944 -44.720675 
L 220.627453 -42.01841 
L 227.383711 -41.071527 
L 230.706461 -42.396354 
L 234.139969 -44.799121 
L 244.108219 -42.641395 
L 247.430969 -42.826047 
L 250.864477 -42.442154 
L 254.187227 -40.919079 
L 257.620735 -42.148669 
L 261.054244 -41.248545 
L 271.133252 -39.81237 
L 274.56676 -42.953638 
L 278.000268 -47.920911 
L 281.21226 -46.319486 
L 284.645768 -48.905619 
L 291.402026 -49.652307 
L 294.724776 -51.170178 
L 298.158285 -49.343366 
L 301.591793 -49.559196 
L 308.348051 -45.388523 
L 311.670801 -44.150662 
L 318.537818 -47.205207 
L 321.639051 -45.288538 
L 325.072559 -46.229329 
L 328.395309 -46.564579 
L 331.828818 -44.954239 
L 335.151567 -45.787628 
L 338.585076 -48.611076 
L 342.018584 -46.954007 
L 348.774842 -46.342003 
L 352.097592 -47.123432 
L 355.5311 -48.249886 
L 358.964609 -48.250571 
L 362.065842 -49.789666 
L 368.8221 -50.542014 
L 372.255609 -48.565123 
L 379.011867 -49.180296 
L 382.445375 -49.587437 
L 389.201633 -48.209456 
L 392.524383 -50.507727 
L 395.957892 -53.03753 
L 399.3914 -52.812073 
L 402.492633 -51.007861 
L 405.926141 -50.7273 
L 409.248891 -51.15367 
L 412.6824 -55.028235 
L 416.00515 -57.766891 
L 419.438658 -60.520734 
L 429.628424 -59.402104 
L 436.384683 -64.084618 
L 439.818191 -63.774187 
L 446.463691 -71.8747 
L 449.786441 -74.307764 
L 453.219949 -75.988827 
L 456.542699 -81.121309 
L 459.976207 -82.116911 
L 463.409715 -79.22023 
L 473.488724 -78.246032 
L 476.922232 -76.11506 
L 480.35574 -71.875689 
L 483.456973 -71.77475 
L 486.890482 -72.305298 
L 490.213232 -79.875334 
L 493.64674 -74.30896 
L 496.96949 -75.201968 
L 503.836506 -74.199343 
L 510.592765 -75.231493 
L 513.915515 -76.874062 
L 517.349023 -76.123336 
L 520.782531 -80.583098 
L 523.883765 -84.372383 
L 527.317273 -83.650708 
L 534.073531 -81.131884 
L 537.396281 -79.389043 
L 540.829789 -78.873515 
L 544.263298 -77.264928 
L 551.019556 -80.551093 
L 554.342306 -85.092465 
L 561.209322 -85.432313 
L 564.310556 -90.969141 
L 567.744064 -93.00001 
L 571.066814 -91.099834 
L 574.500322 -89.306676 
L 577.823072 -92.102262 
L 581.25658 -91.131936 
L 584.690089 -87.002733 
L 591.446347 -95.988346 
L 594.769097 -95.934167 
L 598.202605 -96.2181 
L 601.636113 -95.862507 
L 604.848105 -104.58603 
L 608.281613 -107.908334 
L 611.604363 -109.562737 
L 615.037871 -110.168279 
L 618.360621 -115.059396 
L 621.79413 -117.99925 
L 631.983896 -126.992652 
L 638.740154 -137.741171 
L 642.173663 -140.021914 
L 645.274896 -150.334242 
L 648.708404 -159.750881 
L 652.031154 -158.86045 
L 658.787412 -164.116429 
L 662.220921 -174.168221 
L 665.654429 -192.424437 
L 672.410687 -213.030354 
L 675.733437 -219.490655 
L 679.166945 -244.293112 
L 689.135195 -247.814489 
L 692.457945 -244.355799 
L 695.891453 -217.23438 
L 699.214203 -219.933857 
L 699.214203 -34.541761 
L 699.214203 -34.541761 
L 695.891453 -34.541761 
L 692.457945 -34.541761 
L 689.135195 -34.541761 
L 679.166945 -34.541761 
L 675.733437 -34.541761 
L 672.410687 -34.541761 
L 665.654429 -34.541761 
L 662.220921 -34.541761 
L 658.787412 -34.541761 
L 652.031154 -34.541761 
L 648.708404 -34.541761 
L 645.274896 -34.541761 
L 642.173663 -34.541761 
L 638.740154 -34.541761 
L 631.983896 -34.541761 
L 621.79413 -34.541761 
L 618.360621 -34.541761 
L 615.037871 -34.541761 
L 611.604363 -34.541761 
L 608.281613 -34.541761 
L 604.848105 -34.541761 
L 601.636113 -34.541761 
L 598.202605 -34.541761 
L 594.769097 -34.541761 
L 591.446347 -34.541761 
L 584.690089 -34.541761 
L 581.25658 -34.541761 
L 577.823072 -34.541761 
L 574.500322 -34.541761 
L 571.066814 -34.541761 
L 567.744064 -34.541761 
L 564.310556 -34.541761 
L 561.209322 -34.541761 
L 554.342306 -34.541761 
L 551.019556 -34.541761 
L 544.263298 -34.541761 
L 540.829789 -34.541761 
L 537.396281 -34.541761 
L 534.073531 -34.541761 
L 527.317273 -34.541761 
L 523.883765 -34.541761 
L 520.782531 -34.541761 
L 517.349023 -34.541761 
L 513.915515 -34.541761 
L 510.592765 -34.541761 
L 503.836506 -34.541761 
L 496.96949 -34.541761 
L 493.64674 -34.541761 
L 490.213232 -34.541761 
L 486.890482 -34.541761 
L 483.456973 -34.541761 
L 480.35574 -34.541761 
L 476.922232 -34.541761 
L 473.488724 -34.541761 
L 463.409715 -34.541761 
L 459.976207 -34.541761 
L 456.542699 -34.541761 
L 453.219949 -34.541761 
L 449.786441 -34.541761 
L 446.463691 -34.541761 
L 439.818191 -34.541761 
L 436.384683 -34.541761 
L 429.628424 -34.541761 
L 419.438658 -34.541761 
L 416.00515 -34.541761 
L 412.6824 -34.541761 
L 409.248891 -34.541761 
L 405.926141 -34.541761 
L 402.492633 -34.541761 
L 399.3914 -34.541761 
L 395.957892 -34.541761 
L 392.524383 -34.541761 
L 389.201633 -34.541761 
L 382.445375 -34.541761 
L 379.011867 -34.541761 
L 372.255609 -34.541761 
L 368.8221 -34.541761 
L 362.065842 -34.541761 
L 358.964609 -34.541761 
L 355.5311 -34.541761 
L 352.097592 -34.541761 
L 348.774842 -34.541761 
L 342.018584 -34.541761 
L 338.585076 -34.541761 
L 335.151567 -34.541761 
L 331.828818 -34.541761 
L 328.395309 -34.541761 
L 325.072559 -34.541761 
L 321.639051 -34.541761 
L 318.537818 -34.541761 
L 311.670801 -34.541761 
L 308.348051 -34.541761 
L 301.591793 -34.541761 
L 298.158285 -34.541761 
L 294.724776 -34.541761 
L 291.402026 -34.541761 
L 284.645768 -34.541761 
L 281.21226 -34.541761 
L 278.000268 -34.541761 
L 274.56676 -34.541761 
L 271.133252 -34.541761 
L 261.054244 -34.541761 
L 257.620735 -34.541761 
L 254.187227 -34.541761 
L 250.864477 -34.541761 
L 247.430969 -34.541761 
L 244.108219 -34.541761 
L 234.139969 -34.541761 
L 230.706461 -34.541761 
L 227.383711 -34.541761 
L 220.627453 -34.541761 
L 217.193944 -34.541761 
L 213.760436 -34.541761 
L 207.004178 -34.541761 
L 203.681428 -34.541761 
L 200.24792 -34.541761 
L 197.146686 -34.541761 
L 193.713178 -34.541761 
L 186.95692 -34.541761 
L 176.767153 -34.541761 
L 173.333645 -34.541761 
L 170.010895 -34.541761 
L 166.577387 -34.541761 
L 163.254637 -34.541761 
L 159.821129 -34.541761 
L 156.719895 -34.541761 
L 153.286387 -34.541761 
L 149.852879 -34.541761 
L 146.530129 -34.541761 
L 139.773871 -34.541761 
L 136.340362 -34.541761 
L 129.584104 -34.541761 
L 126.150596 -34.541761 
L 119.394337 -34.541761 
L 116.182346 -34.541761 
L 109.315329 -34.541761 
L 105.992579 -34.541761 
L 99.236321 -34.541761 
L 95.802813 -34.541761 
L 92.369305 -34.541761 
L 89.046555 -34.541761 
L 82.290296 -34.541761 
L 78.856788 -34.541761 
L 75.755555 -34.541761 
L 72.322047 -34.541761 
z
" style="stroke: #b8892d; stroke-opacity: 0.08"/>
    </defs>
    <g clip-path="url(#pb8d7283306)">
     <use xlink:href="#m681575b102" x="0" y="291.835625" style="fill: #b8892d; fill-opacity: 0.08; stroke: #b8892d; stroke-opacity: 0.08"/>
    </g>
   </g>
   <g id="matplotlib.axis_1">
    <g id="xtick_1">
     <g id="line2d_1">
      <defs>
       <path id="m21271df66b" d="M 0 0 
L 0 3.5 
" style="stroke: #5d6878; stroke-width: 0.8"/>
      </defs>
      <g>
       <use xlink:href="#m21271df66b" x="153.286387" y="267.9575" style="fill: #5d6878; stroke: #5d6878; stroke-width: 0.8"/>
      </g>
     </g>
     <g id="text_1">
      <!-- 2013 -->
      <g style="fill: #5d6878" transform="translate(140.561387 282.555938) scale(0.1 -0.1)">
       <defs>
        <path id="DejaVuSans-32" d="M 1228 531 
L 3431 531 
L 3431 0 
L 469 0 
L 469 531 
Q 828 903 1448 1529 
Q 2069 2156 2228 2338 
Q 2531 2678 2651 2914 
Q 2772 3150 2772 3378 
Q 2772 3750 2511 3984 
Q 2250 4219 1831 4219 
Q 1534 4219 1204 4116 
Q 875 4013 500 3803 
L 500 4441 
Q 881 4594 1212 4672 
Q 1544 4750 1819 4750 
Q 2544 4750 2975 4387 
Q 3406 4025 3406 3419 
Q 3406 3131 3298 2873 
Q 3191 2616 2906 2266 
Q 2828 2175 2409 1742 
Q 1991 1309 1228 531 
z
" transform="scale(0.015625)"/>
        <path id="DejaVuSans-30" d="M 2034 4250 
Q 1547 4250 1301 3770 
Q 1056 3291 1056 2328 
Q 1056 1369 1301 889 
Q 1547 409 2034 409 
Q 2525 409 2770 889 
Q 3016 1369 3016 2328 
Q 3016 3291 2770 3770 
Q 2525 4250 2034 4250 
z
M 2034 4750 
Q 2819 4750 3233 4129 
Q 3647 3509 3647 2328 
Q 3647 1150 3233 529 
Q 2819 -91 2034 -91 
Q 1250 -91 836 529 
Q 422 1150 422 2328 
Q 422 3509 836 4129 
Q 1250 4750 2034 4750 
z
" transform="scale(0.015625)"/>
        <path id="DejaVuSans-31" d="M 794 531 
L 1825 531 
L 1825 4091 
L 703 3866 
L 703 4441 
L 1819 4666 
L 2450 4666 
L 2450 531 
L 3481 531 
L 3481 0 
L 794 0 
L 794 531 
z
" transform="scale(0.015625)"/>
        <path id="DejaVuSans-33" d="M 2597 2516 
Q 3050 2419 3304 2112 
Q 3559 1806 3559 1356 
Q 3559 666 3084 287 
Q 2609 -91 1734 -91 
Q 1441 -91 1130 -33 
Q 819 25 488 141 
L 488 750 
Q 750 597 1062 519 
Q 1375 441 1716 441 
Q 2309 441 2620 675 
Q 2931 909 2931 1356 
Q 2931 1769 2642 2001 
Q 2353 2234 1838 2234 
L 1294 2234 
L 1294 2753 
L 1863 2753 
Q 2328 2753 2575 2939 
Q 2822 3125 2822 3475 
Q 2822 3834 2567 4026 
Q 2313 4219 1838 4219 
Q 1578 4219 1281 4162 
Q 984 4106 628 3988 
L 628 4550 
Q 988 4650 1302 4700 
Q 1616 4750 1894 4750 
Q 2613 4750 3031 4423 
Q 3450 4097 3450 3541 
Q 3450 3153 3228 2886 
Q 3006 2619 2597 2516 
z
" transform="scale(0.015625)"/>
       </defs>
       <use xlink:href="#DejaVuSans-32"/>
       <use xlink:href="#DejaVuSans-30" transform="translate(63.623047 0)"/>
       <use xlink:href="#DejaVuSans-31" transform="translate(127.246094 0)"/>
       <use xlink:href="#DejaVuSans-33" transform="translate(190.869141 0)"/>
      </g>
     </g>
    </g>
    <g id="xtick_2">
     <g id="line2d_2">
      <g>
       <use xlink:href="#m21271df66b" x="274.56676" y="267.9575" style="fill: #5d6878; stroke: #5d6878; stroke-width: 0.8"/>
      </g>
     </g>
     <g id="text_2">
      <!-- 2016 -->
      <g style="fill: #5d6878" transform="translate(261.84176 282.555938) scale(0.1 -0.1)">
       <defs>
        <path id="DejaVuSans-36" d="M 2113 2584 
Q 1688 2584 1439 2293 
Q 1191 2003 1191 1497 
Q 1191 994 1439 701 
Q 1688 409 2113 409 
Q 2538 409 2786 701 
Q 3034 994 3034 1497 
Q 3034 2003 2786 2293 
Q 2538 2584 2113 2584 
z
M 3366 4563 
L 3366 3988 
Q 3128 4100 2886 4159 
Q 2644 4219 2406 4219 
Q 1781 4219 1451 3797 
Q 1122 3375 1075 2522 
Q 1259 2794 1537 2939 
Q 1816 3084 2150 3084 
Q 2853 3084 3261 2657 
Q 3669 2231 3669 1497 
Q 3669 778 3244 343 
Q 2819 -91 2113 -91 
Q 1303 -91 875 529 
Q 447 1150 447 2328 
Q 447 3434 972 4092 
Q 1497 4750 2381 4750 
Q 2619 4750 2861 4703 
Q 3103 4656 3366 4563 
z
" transform="scale(0.015625)"/>
       </defs>
       <use xlink:href="#DejaVuSans-32"/>
       <use xlink:href="#DejaVuSans-30" transform="translate(63.623047 0)"/>
       <use xlink:href="#DejaVuSans-31" transform="translate(127.246094 0)"/>
       <use xlink:href="#DejaVuSans-36" transform="translate(190.869141 0)"/>
      </g>
     </g>
    </g>
    <g id="xtick_3">
     <g id="line2d_3">
      <g>
       <use xlink:href="#m21271df66b" x="395.957892" y="267.9575" style="fill: #5d6878; stroke: #5d6878; stroke-width: 0.8"/>
      </g>
     </g>
     <g id="text_3">
      <!-- 2019 -->
      <g style="fill: #5d6878" transform="translate(383.232892 282.555938) scale(0.1 -0.1)">
       <defs>
        <path id="DejaVuSans-39" d="M 703 97 
L 703 672 
Q 941 559 1184 500 
Q 1428 441 1663 441 
Q 2288 441 2617 861 
Q 2947 1281 2994 2138 
Q 2813 1869 2534 1725 
Q 2256 1581 1919 1581 
Q 1219 1581 811 2004 
Q 403 2428 403 3163 
Q 403 3881 828 4315 
Q 1253 4750 1959 4750 
Q 2769 4750 3195 4129 
Q 3622 3509 3622 2328 
Q 3622 1225 3098 567 
Q 2575 -91 1691 -91 
Q 1453 -91 1209 -44 
Q 966 3 703 97 
z
M 1959 2075 
Q 2384 2075 2632 2365 
Q 2881 2656 2881 3163 
Q 2881 3666 2632 3958 
Q 2384 4250 1959 4250 
Q 1534 4250 1286 3958 
Q 1038 3666 1038 3163 
Q 1038 2656 1286 2365 
Q 1534 2075 1959 2075 
z
" transform="scale(0.015625)"/>
       </defs>
       <use xlink:href="#DejaVuSans-32"/>
       <use xlink:href="#DejaVuSans-30" transform="translate(63.623047 0)"/>
       <use xlink:href="#DejaVuSans-31" transform="translate(127.246094 0)"/>
       <use xlink:href="#DejaVuSans-39" transform="translate(190.869141 0)"/>
      </g>
     </g>
    </g>
    <g id="xtick_4">
     <g id="line2d_4">
      <g>
       <use xlink:href="#m21271df66b" x="517.349023" y="267.9575" style="fill: #5d6878; stroke: #5d6878; stroke-width: 0.8"/>
      </g>
     </g>
     <g id="text_4">
      <!-- 2022 -->
      <g style="fill: #5d6878" transform="translate(504.624023 282.555938) scale(0.1 -0.1)">
       <use xlink:href="#DejaVuSans-32"/>
       <use xlink:href="#DejaVuSans-30" transform="translate(63.623047 0)"/>
       <use xlink:href="#DejaVuSans-32" transform="translate(127.246094 0)"/>
       <use xlink:href="#DejaVuSans-32" transform="translate(190.869141 0)"/>
      </g>
     </g>
    </g>
    <g id="xtick_5">
     <g id="line2d_5">
      <g>
       <use xlink:href="#m21271df66b" x="638.740154" y="267.9575" style="fill: #5d6878; stroke: #5d6878; stroke-width: 0.8"/>
      </g>
     </g>
     <g id="text_5">
      <!-- 2025 -->
      <g style="fill: #5d6878" transform="translate(626.015154 282.555938) scale(0.1 -0.1)">
       <defs>
        <path id="DejaVuSans-35" d="M 691 4666 
L 3169 4666 
L 3169 4134 
L 1269 4134 
L 1269 2991 
Q 1406 3038 1543 3061 
Q 1681 3084 1819 3084 
Q 2600 3084 3056 2656 
Q 3513 2228 3513 1497 
Q 3513 744 3044 326 
Q 2575 -91 1722 -91 
Q 1428 -91 1123 -41 
Q 819 9 494 109 
L 494 744 
Q 775 591 1075 516 
Q 1375 441 1709 441 
Q 2250 441 2565 725 
Q 2881 1009 2881 1497 
Q 2881 1984 2565 2268 
Q 2250 2553 1709 2553 
Q 1456 2553 1204 2497 
Q 953 2441 691 2322 
L 691 4666 
z
" transform="scale(0.015625)"/>
       </defs>
       <use xlink:href="#DejaVuSans-32"/>
       <use xlink:href="#DejaVuSans-30" transform="translate(63.623047 0)"/>
       <use xlink:href="#DejaVuSans-32" transform="translate(127.246094 0)"/>
       <use xlink:href="#DejaVuSans-35" transform="translate(190.869141 0)"/>
      </g>
     </g>
    </g>
   </g>
   <g id="matplotlib.axis_2">
    <g id="ytick_1">
     <g id="line2d_6">
      <path d="M 66.053125 256.689993 
L 705.483125 256.689993 
" clip-path="url(#pb8d7283306)" style="fill: none; stroke: #e7edf1; stroke-width: 0.8; stroke-linecap: square"/>
     </g>
     <g id="line2d_7">
      <defs>
       <path id="mb5a4af2ee9" d="M 0 0 
L -3.5 0 
" style="stroke: #5d6878; stroke-width: 0.8"/>
      </defs>
      <g>
       <use xlink:href="#mb5a4af2ee9" x="66.053125" y="256.689993" style="fill: #5d6878; stroke: #5d6878; stroke-width: 0.8"/>
      </g>
     </g>
     <g id="text_6">
      <!-- 20000 -->
      <g style="fill: #5d6878" transform="translate(27.240625 260.489212) scale(0.1 -0.1)">
       <use xlink:href="#DejaVuSans-32"/>
       <use xlink:href="#DejaVuSans-30" transform="translate(63.623047 0)"/>
       <use xlink:href="#DejaVuSans-30" transform="translate(127.246094 0)"/>
       <use xlink:href="#DejaVuSans-30" transform="translate(190.869141 0)"/>
       <use xlink:href="#DejaVuSans-30" transform="translate(254.492188 0)"/>
      </g>
     </g>
    </g>
    <g id="ytick_2">
     <g id="line2d_8">
      <path d="M 66.053125 221.524224 
L 705.483125 221.524224 
" clip-path="url(#pb8d7283306)" style="fill: none; stroke: #e7edf1; stroke-width: 0.8; stroke-linecap: square"/>
     </g>
     <g id="line2d_9">
      <g>
       <use xlink:href="#mb5a4af2ee9" x="66.053125" y="221.524224" style="fill: #5d6878; stroke: #5d6878; stroke-width: 0.8"/>
      </g>
     </g>
     <g id="text_7">
      <!-- 40000 -->
      <g style="fill: #5d6878" transform="translate(27.240625 225.323443) scale(0.1 -0.1)">
       <defs>
        <path id="DejaVuSans-34" d="M 2419 4116 
L 825 1625 
L 2419 1625 
L 2419 4116 
z
M 2253 4666 
L 3047 4666 
L 3047 1625 
L 3713 1625 
L 3713 1100 
L 3047 1100 
L 3047 0 
L 2419 0 
L 2419 1100 
L 313 1100 
L 313 1709 
L 2253 4666 
z
" transform="scale(0.015625)"/>
       </defs>
       <use xlink:href="#DejaVuSans-34"/>
       <use xlink:href="#DejaVuSans-30" transform="translate(63.623047 0)"/>
       <use xlink:href="#DejaVuSans-30" transform="translate(127.246094 0)"/>
       <use xlink:href="#DejaVuSans-30" transform="translate(190.869141 0)"/>
       <use xlink:href="#DejaVuSans-30" transform="translate(254.492188 0)"/>
      </g>
     </g>
    </g>
    <g id="ytick_3">
     <g id="line2d_10">
      <path d="M 66.053125 186.358456 
L 705.483125 186.358456 
" clip-path="url(#pb8d7283306)" style="fill: none; stroke: #e7edf1; stroke-width: 0.8; stroke-linecap: square"/>
     </g>
     <g id="line2d_11">
      <g>
       <use xlink:href="#mb5a4af2ee9" x="66.053125" y="186.358456" style="fill: #5d6878; stroke: #5d6878; stroke-width: 0.8"/>
      </g>
     </g>
     <g id="text_8">
      <!-- 60000 -->
      <g style="fill: #5d6878" transform="translate(27.240625 190.157675) scale(0.1 -0.1)">
       <use xlink:href="#DejaVuSans-36"/>
       <use xlink:href="#DejaVuSans-30" transform="translate(63.623047 0)"/>
       <use xlink:href="#DejaVuSans-30" transform="translate(127.246094 0)"/>
       <use xlink:href="#DejaVuSans-30" transform="translate(190.869141 0)"/>
       <use xlink:href="#DejaVuSans-30" transform="translate(254.492188 0)"/>
      </g>
     </g>
    </g>
    <g id="ytick_4">
     <g id="line2d_12">
      <path d="M 66.053125 151.192688 
L 705.483125 151.192688 
" clip-path="url(#pb8d7283306)" style="fill: none; stroke: #e7edf1; stroke-width: 0.8; stroke-linecap: square"/>
     </g>
     <g id="line2d_13">
      <g>
       <use xlink:href="#mb5a4af2ee9" x="66.053125" y="151.192688" style="fill: #5d6878; stroke: #5d6878; stroke-width: 0.8"/>
      </g>
     </g>
     <g id="text_9">
      <!-- 80000 -->
      <g style="fill: #5d6878" transform="translate(27.240625 154.991906) scale(0.1 -0.1)">
       <defs>
        <path id="DejaVuSans-38" d="M 2034 2216 
Q 1584 2216 1326 1975 
Q 1069 1734 1069 1313 
Q 1069 891 1326 650 
Q 1584 409 2034 409 
Q 2484 409 2743 651 
Q 3003 894 3003 1313 
Q 3003 1734 2745 1975 
Q 2488 2216 2034 2216 
z
M 1403 2484 
Q 997 2584 770 2862 
Q 544 3141 544 3541 
Q 544 4100 942 4425 
Q 1341 4750 2034 4750 
Q 2731 4750 3128 4425 
Q 3525 4100 3525 3541 
Q 3525 3141 3298 2862 
Q 3072 2584 2669 2484 
Q 3125 2378 3379 2068 
Q 3634 1759 3634 1313 
Q 3634 634 3220 271 
Q 2806 -91 2034 -91 
Q 1263 -91 848 271 
Q 434 634 434 1313 
Q 434 1759 690 2068 
Q 947 2378 1403 2484 
z
M 1172 3481 
Q 1172 3119 1398 2916 
Q 1625 2713 2034 2713 
Q 2441 2713 2670 2916 
Q 2900 3119 2900 3481 
Q 2900 3844 2670 4047 
Q 2441 4250 2034 4250 
Q 1625 4250 1398 4047 
Q 1172 3844 1172 3481 
z
" transform="scale(0.015625)"/>
       </defs>
       <use xlink:href="#DejaVuSans-38"/>
       <use xlink:href="#DejaVuSans-30" transform="translate(63.623047 0)"/>
       <use xlink:href="#DejaVuSans-30" transform="translate(127.246094 0)"/>
       <use xlink:href="#DejaVuSans-30" transform="translate(190.869141 0)"/>
       <use xlink:href="#DejaVuSans-30" transform="translate(254.492188 0)"/>
      </g>
     </g>
    </g>
    <g id="ytick_5">
     <g id="line2d_14">
      <path d="M 66.053125 116.026919 
L 705.483125 116.026919 
" clip-path="url(#pb8d7283306)" style="fill: none; stroke: #e7edf1; stroke-width: 0.8; stroke-linecap: square"/>
     </g>
     <g id="line2d_15">
      <g>
       <use xlink:href="#mb5a4af2ee9" x="66.053125" y="116.026919" style="fill: #5d6878; stroke: #5d6878; stroke-width: 0.8"/>
      </g>
     </g>
     <g id="text_10">
      <!-- 100000 -->
      <g style="fill: #5d6878" transform="translate(20.878125 119.826138) scale(0.1 -0.1)">
       <use xlink:href="#DejaVuSans-31"/>
       <use xlink:href="#DejaVuSans-30" transform="translate(63.623047 0)"/>
       <use xlink:href="#DejaVuSans-30" transform="translate(127.246094 0)"/>
       <use xlink:href="#DejaVuSans-30" transform="translate(190.869141 0)"/>
       <use xlink:href="#DejaVuSans-30" transform="translate(254.492188 0)"/>
       <use xlink:href="#DejaVuSans-30" transform="translate(318.115234 0)"/>
      </g>
     </g>
    </g>
    <g id="ytick_6">
     <g id="line2d_16">
      <path d="M 66.053125 80.861151 
L 705.483125 80.861151 
" clip-path="url(#pb8d7283306)" style="fill: none; stroke: #e7edf1; stroke-width: 0.8; stroke-linecap: square"/>
     </g>
     <g id="line2d_17">
      <g>
       <use xlink:href="#mb5a4af2ee9" x="66.053125" y="80.861151" style="fill: #5d6878; stroke: #5d6878; stroke-width: 0.8"/>
      </g>
     </g>
     <g id="text_11">
      <!-- 120000 -->
      <g style="fill: #5d6878" transform="translate(20.878125 84.66037) scale(0.1 -0.1)">
       <use xlink:href="#DejaVuSans-31"/>
       <use xlink:href="#DejaVuSans-32" transform="translate(63.623047 0)"/>
       <use xlink:href="#DejaVuSans-30" transform="translate(127.246094 0)"/>
       <use xlink:href="#DejaVuSans-30" transform="translate(190.869141 0)"/>
       <use xlink:href="#DejaVuSans-30" transform="translate(254.492188 0)"/>
       <use xlink:href="#DejaVuSans-30" transform="translate(318.115234 0)"/>
      </g>
     </g>
    </g>
    <g id="ytick_7">
     <g id="line2d_18">
      <path d="M 66.053125 45.695382 
L 705.483125 45.695382 
" clip-path="url(#pb8d7283306)" style="fill: none; stroke: #e7edf1; stroke-width: 0.8; stroke-linecap: square"/>
     </g>
     <g id="line2d_19">
      <g>
       <use xlink:href="#mb5a4af2ee9" x="66.053125" y="45.695382" style="fill: #5d6878; stroke: #5d6878; stroke-width: 0.8"/>
      </g>
     </g>
     <g id="text_12">
      <!-- 140000 -->
      <g style="fill: #5d6878" transform="translate(20.878125 49.494601) scale(0.1 -0.1)">
       <use xlink:href="#DejaVuSans-31"/>
       <use xlink:href="#DejaVuSans-34" transform="translate(63.623047 0)"/>
       <use xlink:href="#DejaVuSans-30" transform="translate(127.246094 0)"/>
       <use xlink:href="#DejaVuSans-30" transform="translate(190.869141 0)"/>
       <use xlink:href="#DejaVuSans-30" transform="translate(254.492188 0)"/>
       <use xlink:href="#DejaVuSans-30" transform="translate(318.115234 0)"/>
      </g>
     </g>
    </g>
    <g id="text_13">
     <!-- Approx. ₹ per 10 g -->
     <g style="fill: #5d6878" transform="translate(14.798438 197.20125) rotate(-90) scale(0.1 -0.1)">
      <defs>
       <path id="DejaVuSans-41" d="M 2188 4044 
L 1331 1722 
L 3047 1722 
L 2188 4044 
z
M 1831 4666 
L 2547 4666 
L 4325 0 
L 3669 0 
L 3244 1197 
L 1141 1197 
L 716 0 
L 50 0 
L 1831 4666 
z
" transform="scale(0.015625)"/>
       <path id="DejaVuSans-70" d="M 1159 525 
L 1159 -1331 
L 581 -1331 
L 581 3500 
L 1159 3500 
L 1159 2969 
Q 1341 3281 1617 3432 
Q 1894 3584 2278 3584 
Q 2916 3584 3314 3078 
Q 3713 2572 3713 1747 
Q 3713 922 3314 415 
Q 2916 -91 2278 -91 
Q 1894 -91 1617 61 
Q 1341 213 1159 525 
z
M 3116 1747 
Q 3116 2381 2855 2742 
Q 2594 3103 2138 3103 
Q 1681 3103 1420 2742 
Q 1159 2381 1159 1747 
Q 1159 1113 1420 752 
Q 1681 391 2138 391 
Q 2594 391 2855 752 
Q 3116 1113 3116 1747 
z
" transform="scale(0.015625)"/>
       <path id="DejaVuSans-72" d="M 2631 2963 
Q 2534 3019 2420 3045 
Q 2306 3072 2169 3072 
Q 1681 3072 1420 2755 
Q 1159 2438 1159 1844 
L 1159 0 
L 581 0 
L 581 3500 
L 1159 3500 
L 1159 2956 
Q 1341 3275 1631 3429 
Q 1922 3584 2338 3584 
Q 2397 3584 2469 3576 
Q 2541 3569 2628 3553 
L 2631 2963 
z
" transform="scale(0.015625)"/>
       <path id="DejaVuSans-6f" d="M 1959 3097 
Q 1497 3097 1228 2736 
Q 959 2375 959 1747 
Q 959 1119 1226 758 
Q 1494 397 1959 397 
Q 2419 397 2687 759 
Q 2956 1122 2956 1747 
Q 2956 2369 2687 2733 
Q 2419 3097 1959 3097 
z
M 1959 3584 
Q 2709 3584 3137 3096 
Q 3566 2609 3566 1747 
Q 3566 888 3137 398 
Q 2709 -91 1959 -91 
Q 1206 -91 779 398 
Q 353 888 353 1747 
Q 353 2609 779 3096 
Q 1206 3584 1959 3584 
z
" transform="scale(0.015625)"/>
       <path id="DejaVuSans-78" d="M 3513 3500 
L 2247 1797 
L 3578 0 
L 2900 0 
L 1881 1375 
L 863 0 
L 184 0 
L 1544 1831 
L 300 3500 
L 978 3500 
L 1906 2253 
L 2834 3500 
L 3513 3500 
z
" transform="scale(0.015625)"/>
       <path id="DejaVuSans-2e" d="M 684 794 
L 1344 794 
L 1344 0 
L 684 0 
L 684 794 
z
" transform="scale(0.015625)"/>
       <path id="DejaVuSans-20" transform="scale(0.015625)"/>
       <path id="DejaVuSans-20b9" d="M 331 4281 
L 503 4666 
L 3747 4666 
L 3575 4281 
L 2469 4281 
Q 2716 4038 2781 3634 
L 3747 3634 
L 3575 3250 
L 2806 3250 
Q 2791 2856 2600 2591 
Q 2397 2300 2006 2188 
Q 2209 2119 2400 1894 
Q 2584 1681 2788 1275 
L 3428 0 
L 2750 0 
L 2153 1197 
Q 1919 1669 1706 1819 
Q 1488 1972 1113 1972 
L 425 1972 
L 425 2491 
L 1219 2491 
Q 1675 2491 1906 2700 
Q 2119 2894 2138 3250 
L 331 3250 
L 503 3634 
L 2103 3634 
Q 2047 3844 1906 4006 
Q 1675 4281 1219 4281 
L 331 4281 
z
" transform="scale(0.015625)"/>
       <path id="DejaVuSans-65" d="M 3597 1894 
L 3597 1613 
L 953 1613 
Q 991 1019 1311 708 
Q 1631 397 2203 397 
Q 2534 397 2845 478 
Q 3156 559 3463 722 
L 3463 178 
Q 3153 47 2828 -22 
Q 2503 -91 2169 -91 
Q 1331 -91 842 396 
Q 353 884 353 1716 
Q 353 2575 817 3079 
Q 1281 3584 2069 3584 
Q 2775 3584 3186 3129 
Q 3597 2675 3597 1894 
z
M 3022 2063 
Q 3016 2534 2758 2815 
Q 2500 3097 2075 3097 
Q 1594 3097 1305 2825 
Q 1016 2553 972 2059 
L 3022 2063 
z
" transform="scale(0.015625)"/>
       <path id="DejaVuSans-67" d="M 2906 1791 
Q 2906 2416 2648 2759 
Q 2391 3103 1925 3103 
Q 1463 3103 1205 2759 
Q 947 2416 947 1791 
Q 947 1169 1205 825 
Q 1463 481 1925 481 
Q 2391 481 2648 825 
Q 2906 1169 2906 1791 
z
M 3481 434 
Q 3481 -459 3084 -895 
Q 2688 -1331 1869 -1331 
Q 1566 -1331 1297 -1286 
Q 1028 -1241 775 -1147 
L 775 -588 
Q 1028 -725 1275 -790 
Q 1522 -856 1778 -856 
Q 2344 -856 2625 -561 
Q 2906 -266 2906 331 
L 2906 616 
Q 2728 306 2450 153 
Q 2172 0 1784 0 
Q 1141 0 747 490 
Q 353 981 353 1791 
Q 353 2603 747 3093 
Q 1141 3584 1784 3584 
Q 2172 3584 2450 3431 
Q 2728 3278 2906 2969 
L 2906 3500 
L 3481 3500 
L 3481 434 
z
" transform="scale(0.015625)"/>
      </defs>
      <use xlink:href="#DejaVuSans-41"/>
      <use xlink:href="#DejaVuSans-70" transform="translate(68.408203 0)"/>
      <use xlink:href="#DejaVuSans-70" transform="translate(131.884766 0)"/>
      <use xlink:href="#DejaVuSans-72" transform="translate(195.361328 0)"/>
      <use xlink:href="#DejaVuSans-6f" transform="translate(234.224609 0)"/>
      <use xlink:href="#DejaVuSans-78" transform="translate(292.28125 0)"/>
      <use xlink:href="#DejaVuSans-2e" transform="translate(351.460938 0)"/>
      <use xlink:href="#DejaVuSans-20" transform="translate(383.248047 0)"/>
      <use xlink:href="#DejaVuSans-20b9" transform="translate(415.035156 0)"/>
      <use xlink:href="#DejaVuSans-20" transform="translate(478.658203 0)"/>
      <use xlink:href="#DejaVuSans-70" transform="translate(510.445312 0)"/>
      <use xlink:href="#DejaVuSans-65" transform="translate(573.921875 0)"/>
      <use xlink:href="#DejaVuSans-72" transform="translate(635.445312 0)"/>
      <use xlink:href="#DejaVuSans-20" transform="translate(676.558594 0)"/>
      <use xlink:href="#DejaVuSans-31" transform="translate(708.345703 0)"/>
      <use xlink:href="#DejaVuSans-30" transform="translate(771.96875 0)"/>
      <use xlink:href="#DejaVuSans-20" transform="translate(835.591797 0)"/>
      <use xlink:href="#DejaVuSans-67" transform="translate(867.378906 0)"/>
     </g>
    </g>
   </g>
   <g id="line2d_20">
    <path d="M 72.322047 257.293864 
L 75.755555 255.805931 
L 78.856788 255.821509 
L 82.290296 252.200248 
L 89.046555 254.480072 
L 92.369305 249.568789 
L 95.802813 241.351315 
L 99.236321 247.3117 
L 105.992579 240.641196 
L 109.315329 244.942746 
L 116.182346 244.426074 
L 119.394337 242.27775 
L 126.150596 242.827619 
L 129.584104 241.616855 
L 136.340362 241.528126 
L 139.773871 237.832587 
L 146.530129 238.817726 
L 149.852879 240.017306 
L 153.286387 241.818 
L 156.719895 243.820979 
L 159.821129 242.966777 
L 163.254637 244.935802 
L 166.577387 244.994468 
L 170.010895 249.787714 
L 173.333645 243.114188 
L 176.767153 242.205975 
L 186.95692 247.746632 
L 193.713178 248.174453 
L 197.146686 245.527366 
L 200.24792 248.021917 
L 203.681428 248.717025 
L 207.004178 249.580532 
L 213.760436 248.024829 
L 217.193944 247.11495 
L 220.627453 249.817215 
L 227.383711 250.764098 
L 230.706461 249.439271 
L 234.139969 247.036504 
L 244.108219 249.19423 
L 247.430969 249.009578 
L 250.864477 249.393471 
L 254.187227 250.916546 
L 257.620735 249.686956 
L 261.054244 250.58708 
L 271.133252 252.023255 
L 274.56676 248.881987 
L 278.000268 243.914714 
L 281.21226 245.516139 
L 284.645768 242.930006 
L 291.402026 242.183318 
L 294.724776 240.665447 
L 298.158285 242.492259 
L 301.591793 242.276429 
L 308.348051 246.447102 
L 311.670801 247.684963 
L 318.537818 244.630418 
L 321.639051 246.547087 
L 325.072559 245.606296 
L 328.395309 245.271046 
L 331.828818 246.881386 
L 335.151567 246.047997 
L 338.585076 243.224549 
L 342.018584 244.881618 
L 348.774842 245.493622 
L 352.097592 244.712193 
L 355.5311 243.585739 
L 358.964609 243.585054 
L 362.065842 242.045959 
L 368.8221 241.293611 
L 372.255609 243.270502 
L 382.445375 242.248188 
L 389.201633 243.626169 
L 392.524383 241.327898 
L 395.957892 238.798095 
L 399.3914 239.023552 
L 402.492633 240.827764 
L 405.926141 241.108325 
L 409.248891 240.681955 
L 412.6824 236.80739 
L 419.438658 231.314891 
L 429.628424 232.433521 
L 436.384683 227.751007 
L 439.818191 228.061438 
L 446.463691 219.960925 
L 449.786441 217.527861 
L 453.219949 215.846798 
L 456.542699 210.714316 
L 459.976207 209.718714 
L 463.409715 212.615395 
L 473.488724 213.589593 
L 476.922232 215.720565 
L 480.35574 219.959936 
L 483.456973 220.060875 
L 486.890482 219.530327 
L 490.213232 211.960291 
L 493.64674 217.526665 
L 496.96949 216.633657 
L 503.836506 217.636282 
L 510.592765 216.604132 
L 513.915515 214.961563 
L 517.349023 215.712289 
L 520.782531 211.252527 
L 523.883765 207.463242 
L 527.317273 208.184917 
L 534.073531 210.703741 
L 537.396281 212.446582 
L 540.829789 212.96211 
L 544.263298 214.570697 
L 551.019556 211.284532 
L 554.342306 206.74316 
L 561.209322 206.403312 
L 564.310556 200.866484 
L 567.744064 198.835615 
L 571.066814 200.735791 
L 574.500322 202.528949 
L 577.823072 199.733363 
L 581.25658 200.703689 
L 584.690089 204.832892 
L 591.446347 195.847279 
L 594.769097 195.901458 
L 598.202605 195.617525 
L 601.636113 195.973118 
L 604.848105 187.249595 
L 608.281613 183.927291 
L 611.604363 182.272888 
L 615.037871 181.667346 
L 618.360621 176.776229 
L 621.79413 173.836375 
L 631.983896 164.842973 
L 638.740154 154.094454 
L 642.173663 151.813711 
L 645.274896 141.501383 
L 648.708404 132.084744 
L 652.031154 132.975175 
L 658.787412 127.719196 
L 662.220921 117.667404 
L 665.654429 99.411188 
L 672.410687 78.805271 
L 675.733437 72.34497 
L 679.166945 47.542513 
L 689.135195 44.021136 
L 692.457945 47.479826 
L 695.891453 74.601245 
L 699.214203 71.901768 
L 699.214203 71.901768 
" clip-path="url(#pb8d7283306)" style="fill: none; stroke: #b8892d; stroke-width: 2.25; stroke-linecap: square"/>
   </g>
   <g id="patch_3">
    <path d="M 66.053125 267.9575 
L 66.053125 33.3575 
" style="fill: none; stroke: #dce4eb; stroke-width: 0.8; stroke-linejoin: miter; stroke-linecap: square"/>
   </g>
   <g id="patch_4">
    <path d="M 66.053125 267.9575 
L 705.483125 267.9575 
" style="fill: none; stroke: #dce4eb; stroke-width: 0.8; stroke-linejoin: miter; stroke-linecap: square"/>
   </g>
   <g id="text_14">
    <!-- Gold in Indian rupees -->
    <g style="fill: #10233f" transform="translate(66.053125 19.3575) scale(0.16 -0.16)">
     <defs>
      <path id="DejaVuSans-47" d="M 3809 666 
L 3809 1919 
L 2778 1919 
L 2778 2438 
L 4434 2438 
L 4434 434 
Q 4069 175 3628 42 
Q 3188 -91 2688 -91 
Q 1594 -91 976 548 
Q 359 1188 359 2328 
Q 359 3472 976 4111 
Q 1594 4750 2688 4750 
Q 3144 4750 3555 4637 
Q 3966 4525 4313 4306 
L 4313 3634 
Q 3963 3931 3569 4081 
Q 3175 4231 2741 4231 
Q 1884 4231 1454 3753 
Q 1025 3275 1025 2328 
Q 1025 1384 1454 906 
Q 1884 428 2741 428 
Q 3075 428 3337 486 
Q 3600 544 3809 666 
z
" transform="scale(0.015625)"/>
      <path id="DejaVuSans-6c" d="M 603 4863 
L 1178 4863 
L 1178 0 
L 603 0 
L 603 4863 
z
" transform="scale(0.015625)"/>
      <path id="DejaVuSans-64" d="M 2906 2969 
L 2906 4863 
L 3481 4863 
L 3481 0 
L 2906 0 
L 2906 525 
Q 2725 213 2448 61 
Q 2172 -91 1784 -91 
Q 1150 -91 751 415 
Q 353 922 353 1747 
Q 353 2572 751 3078 
Q 1150 3584 1784 3584 
Q 2172 3584 2448 3432 
Q 2725 3281 2906 2969 
z
M 947 1747 
Q 947 1113 1208 752 
Q 1469 391 1925 391 
Q 2381 391 2643 752 
Q 2906 1113 2906 1747 
Q 2906 2381 2643 2742 
Q 2381 3103 1925 3103 
Q 1469 3103 1208 2742 
Q 947 2381 947 1747 
z
" transform="scale(0.015625)"/>
      <path id="DejaVuSans-69" d="M 603 3500 
L 1178 3500 
L 1178 0 
L 603 0 
L 603 3500 
z
M 603 4863 
L 1178 4863 
L 1178 4134 
L 603 4134 
L 603 4863 
z
" transform="scale(0.015625)"/>
      <path id="DejaVuSans-6e" d="M 3513 2113 
L 3513 0 
L 2938 0 
L 2938 2094 
Q 2938 2591 2744 2837 
Q 2550 3084 2163 3084 
Q 1697 3084 1428 2787 
Q 1159 2491 1159 1978 
L 1159 0 
L 581 0 
L 581 3500 
L 1159 3500 
L 1159 2956 
Q 1366 3272 1645 3428 
Q 1925 3584 2291 3584 
Q 2894 3584 3203 3211 
Q 3513 2838 3513 2113 
z
" transform="scale(0.015625)"/>
      <path id="DejaVuSans-49" d="M 628 4666 
L 1259 4666 
L 1259 0 
L 628 0 
L 628 4666 
z
" transform="scale(0.015625)"/>
      <path id="DejaVuSans-61" d="M 2194 1759 
Q 1497 1759 1228 1600 
Q 959 1441 959 1056 
Q 959 750 1161 570 
Q 1363 391 1709 391 
Q 2188 391 2477 730 
Q 2766 1069 2766 1631 
L 2766 1759 
L 2194 1759 
z
M 3341 1997 
L 3341 0 
L 2766 0 
L 2766 531 
Q 2569 213 2275 61 
Q 1981 -91 1556 -91 
Q 1019 -91 701 211 
Q 384 513 384 1019 
Q 384 1609 779 1909 
Q 1175 2209 1959 2209 
L 2766 2209 
L 2766 2266 
Q 2766 2663 2505 2880 
Q 2244 3097 1772 3097 
Q 1472 3097 1187 3025 
Q 903 2953 641 2809 
L 641 3341 
Q 956 3463 1253 3523 
Q 1550 3584 1831 3584 
Q 2591 3584 2966 3190 
Q 3341 2797 3341 1997 
z
" transform="scale(0.015625)"/>
      <path id="DejaVuSans-75" d="M 544 1381 
L 544 3500 
L 1119 3500 
L 1119 1403 
Q 1119 906 1312 657 
Q 1506 409 1894 409 
Q 2359 409 2629 706 
Q 2900 1003 2900 1516 
L 2900 3500 
L 3475 3500 
L 3475 0 
L 2900 0 
L 2900 538 
Q 2691 219 2414 64 
Q 2138 -91 1772 -91 
Q 1169 -91 856 284 
Q 544 659 544 1381 
z
M 1991 3584 
L 1991 3584 
z
" transform="scale(0.015625)"/>
      <path id="DejaVuSans-73" d="M 2834 3397 
L 2834 2853 
Q 2591 2978 2328 3040 
Q 2066 3103 1784 3103 
Q 1356 3103 1142 2972 
Q 928 2841 928 2578 
Q 928 2378 1081 2264 
Q 1234 2150 1697 2047 
L 1894 2003 
Q 2506 1872 2764 1633 
Q 3022 1394 3022 966 
Q 3022 478 2636 193 
Q 2250 -91 1575 -91 
Q 1294 -91 989 -36 
Q 684 19 347 128 
L 347 722 
Q 666 556 975 473 
Q 1284 391 1588 391 
Q 1994 391 2212 530 
Q 2431 669 2431 922 
Q 2431 1156 2273 1281 
Q 2116 1406 1581 1522 
L 1381 1569 
Q 847 1681 609 1914 
Q 372 2147 372 2553 
Q 372 3047 722 3315 
Q 1072 3584 1716 3584 
Q 2034 3584 2315 3537 
Q 2597 3491 2834 3397 
z
" transform="scale(0.015625)"/>
     </defs>
     <use xlink:href="#DejaVuSans-47"/>
     <use xlink:href="#DejaVuSans-6f" transform="translate(77.490234 0)"/>
     <use xlink:href="#DejaVuSans-6c" transform="translate(138.671875 0)"/>
     <use xlink:href="#DejaVuSans-64" transform="translate(166.455078 0)"/>
     <use xlink:href="#DejaVuSans-20" transform="translate(229.931641 0)"/>
     <use xlink:href="#DejaVuSans-69" transform="translate(261.71875 0)"/>
     <use xlink:href="#DejaVuSans-6e" transform="translate(289.501953 0)"/>
     <use xlink:href="#DejaVuSans-20" transform="translate(352.880859 0)"/>
     <use xlink:href="#DejaVuSans-49" transform="translate(384.667969 0)"/>
     <use xlink:href="#DejaVuSans-6e" transform="translate(414.160156 0)"/>
     <use xlink:href="#DejaVuSans-64" transform="translate(477.539062 0)"/>
     <use xlink:href="#DejaVuSans-69" transform="translate(541.015625 0)"/>
     <use xlink:href="#DejaVuSans-61" transform="translate(568.798828 0)"/>
     <use xlink:href="#DejaVuSans-6e" transform="translate(630.078125 0)"/>
     <use xlink:href="#DejaVuSans-20" transform="translate(693.457031 0)"/>
     <use xlink:href="#DejaVuSans-72" transform="translate(725.244141 0)"/>
     <use xlink:href="#DejaVuSans-75" transform="translate(766.357422 0)"/>
     <use xlink:href="#DejaVuSans-70" transform="translate(829.736328 0)"/>
     <use xlink:href="#DejaVuSans-65" transform="translate(893.212891 0)"/>
     <use xlink:href="#DejaVuSans-65" transform="translate(954.736328 0)"/>
     <use xlink:href="#DejaVuSans-73" transform="translate(1016.259766 0)"/>
    </g>
   </g>
  </g>
 </g>
 <defs>
  <clipPath id="pb8d7283306">
   <rect x="66.053125" y="33.3575" width="639.43" height="234.6"/>
  </clipPath>
 </defs>
</svg>
