<svg xmlns="http://www.w3.org/2000/svg" viewBox="0 0 360 360" role="img" aria-labelledby="title desc"><title id="title">NIFTY 50 long-term trend</title><desc id="desc">A simplified rising long-term index trend with several market drawdowns.</desc><defs><linearGradient id="bg" x1="0" y1="0" x2="0" y2="1"><stop offset="0" stop-color="#f9fbfc"/><stop offset="1" stop-color="#eef4f7"/></linearGradient><linearGradient id="fill" x1="0" y1="0" x2="0" y2="1"><stop offset="0" stop-color="#2a699f" stop-opacity=".28"/><stop offset="1" stop-color="#2a699f" stop-opacity=".02"/></linearGradient></defs><rect width="360" height="360" rx="12" fill="url(#bg)"/><g stroke="#d7e1e7" stroke-width="1"><path d="M30 82H330M30 142H330M30 202H330M30 262H330"/><path d="M30 55V292"/></g><text x="30" y="35" font-family="Inter,Arial,sans-serif" font-size="17" font-weight="700" fill="#10233f">NIFTY 50</text><text x="330" y="35" text-anchor="end" font-family="Inter,Arial,sans-serif" font-size="11" fill="#687486">long-term trend</text><path d="M30 274 L45 263 L60 268 L75 253 L90 247 L105 252 L120 232 L135 220 L150 229 L165 205 L180 196 L195 214 L210 178 L225 164 L240 172 L255 137 L270 118 L285 148 L300 102 L315 86 L330 96 L330 292 L30 292 Z" fill="url(#fill)"/><path d="M30 274 L45 263 L60 268 L75 253 L90 247 L105 252 L120 232 L135 220 L150 229 L165 205 L180 196 L195 214 L210 178 L225 164 L240 172 L255 137 L270 118 L285 148 L300 102 L315 86 L330 96" fill="none" stroke="#245b8f" stroke-width="5" stroke-linecap="round" stroke-linejoin="round"/><circle cx="330" cy="96" r="6" fill="#fff" stroke="#245b8f" stroke-width="4"/><text x="30" y="316" font-family="Inter,Arial,sans-serif" font-size="11" fill="#687486">2011</text><text x="330" y="316" text-anchor="end" font-family="Inter,Arial,sans-serif" font-size="11" fill="#687486">2026</text></svg>