<?xml version="1.0" encoding="utf-8" standalone="no"?>
<!DOCTYPE svg PUBLIC "-//W3C//DTD SVG 1.1//EN"
  "http://www.w3.org/Graphics/SVG/1.1/DTD/svg11.dtd">
<svg xmlns:xlink="http://www.w3.org/1999/xlink" width="712.620625pt" height="291.835625pt" viewBox="0 0 712.620625 291.835625" xmlns="http://www.w3.org/2000/svg" version="1.1">
 <metadata>
  <rdf:RDF xmlns:dc="http://purl.org/dc/elements/1.1/" xmlns:cc="http://creativecommons.org/ns#" xmlns:rdf="http://www.w3.org/1999/02/22-rdf-syntax-ns#">
   <cc:Work>
    <dc:type rdf:resource="http://purl.org/dc/dcmitype/StillImage"/>
    <dc:date>2026-07-13T02:43:16.504826</dc:date>
    <dc:format>image/svg+xml</dc:format>
    <dc:creator>
     <cc:Agent>
      <dc:title>Matplotlib v3.10.8, https://matplotlib.org/</dc:title>
     </cc:Agent>
    </dc:creator>
   </cc:Work>
  </rdf:RDF>
 </metadata>
 <defs>
  <style type="text/css">*{stroke-linejoin: round; stroke-linecap: butt}</style>
 </defs>
 <g id="figure_1">
  <g id="patch_1">
   <path d="M 0 291.835625 
L 712.620625 291.835625 
L 712.620625 0 
L 0 0 
z
" style="fill: #ffffff"/>
  </g>
  <g id="axes_1">
   <g id="patch_2">
    <path d="M 59.690625 267.9575 
L 705.420625 267.9575 
L 705.420625 33.3575 
L 59.690625 33.3575 
z
" style="fill: #ffffff"/>
   </g>
   <g id="FillBetweenPolyCollection_1">
    <defs>
     <path id="m5b0f01634a" d="M 66.021311 -34.541761 
L 66.021311 -41.548675 
L 69.488648 -46.495371 
L 72.620437 -45.662685 
L 76.087774 -42.930885 
L 79.443261 -44.653578 
L 82.910598 -43.018847 
L 86.266085 -38.26488 
L 89.733422 -37.694108 
L 93.200759 -41.482951 
L 96.556247 -36.59506 
L 100.023584 -34.541761 
L 103.379071 -40.224286 
L 106.846408 -42.062126 
L 110.313745 -41.176065 
L 113.557383 -40.707588 
L 117.02472 -37.506321 
L 120.380208 -41.011506 
L 123.847545 -40.51832 
L 127.203032 -40.809883 
L 130.670369 -45.206065 
L 134.137706 -44.379808 
L 137.493193 -46.951001 
L 140.96053 -47.20056 
L 144.316018 -48.481955 
L 147.783355 -45.104759 
L 151.250692 -45.000982 
L 154.38248 -47.448637 
L 157.849817 -47.999642 
L 161.205305 -46.578888 
L 164.672642 -45.588559 
L 168.028129 -42.918033 
L 171.495466 -45.522337 
L 174.962803 -51.095154 
L 178.31829 -49.87899 
L 181.785627 -51.14309 
L 185.141115 -49.023077 
L 188.608452 -50.875743 
L 192.075789 -55.098471 
L 195.207577 -55.021377 
L 198.674914 -60.294725 
L 202.030402 -64.064293 
L 205.497739 -65.150982 
L 208.853226 -67.454336 
L 212.320563 -67.557616 
L 215.7879 -71.089985 
L 219.143387 -73.71949 
L 222.610724 -70.699586 
L 225.966212 -75.90029 
L 229.433549 -76.253123 
L 232.900886 -72.758319 
L 236.032674 -69.699374 
L 239.500011 -72.191504 
L 242.855499 -71.547589 
L 246.322836 -73.17194 
L 249.678323 -67.621858 
L 253.14566 -67.400469 
L 256.612997 -68.55585 
L 259.968484 -67.26556 
L 263.435821 -67.375268 
L 266.791309 -63.591859 
L 270.258646 -57.894017 
L 273.725983 -65.319991 
L 276.969621 -66.421012 
L 280.436958 -69.487867 
L 283.792445 -70.749496 
L 287.259782 -74.216136 
L 290.61527 -75.675932 
L 294.082607 -73.945826 
L 297.549944 -74.211194 
L 300.905431 -70.124364 
L 304.372768 -69.741871 
L 307.728255 -73.453127 
L 311.195592 -76.599046 
L 314.662929 -79.506283 
L 317.794718 -80.794102 
L 321.262055 -83.929152 
L 324.617542 -82.937346 
L 328.084879 -88.434545 
L 331.440367 -86.861099 
L 334.907704 -85.583153 
L 338.375041 -90.986468 
L 341.730528 -89.911637 
L 345.197865 -92.91771 
L 348.553352 -97.829812 
L 352.020689 -92.543613 
L 355.488026 -88.796287 
L 358.619815 -94.979897 
L 362.087152 -94.948278 
L 365.442639 -94.732318 
L 368.909976 -101.079507 
L 372.265464 -104.281764 
L 375.732801 -96.868641 
L 379.200138 -91.49349 
L 382.555625 -96.337895 
L 386.022962 -96.197547 
L 389.378449 -95.885232 
L 392.845786 -95.50521 
L 396.313123 -103.722361 
L 399.444912 -104.950387 
L 402.912249 -106.676535 
L 406.267736 -105.352638 
L 409.735073 -98.722291 
L 413.090561 -97.785829 
L 416.557898 -102.245269 
L 420.025235 -106.228322 
L 423.380722 -107.993513 
L 426.848059 -109.104423 
L 430.203546 -107.064955 
L 433.670883 -99.550035 
L 437.13822 -73.813383 
L 440.381858 -86.287855 
L 443.849195 -83.524421 
L 447.204683 -90.658334 
L 450.67202 -98.281983 
L 454.027507 -101.385896 
L 457.494844 -100.002697 
L 460.962181 -103.905206 
L 464.317669 -117.01617 
L 467.785006 -127.026184 
L 471.140493 -123.59512 
L 474.60783 -132.436419 
L 478.075167 -134.033098 
L 481.206955 -133.444035 
L 484.674292 -142.85017 
L 488.02978 -144.221014 
L 491.497117 -144.631672 
L 494.852604 -158.16367 
L 498.319941 -162.966571 
L 501.787278 -163.495339 
L 505.142766 -156.691027 
L 508.610103 -160.356341 
L 511.96559 -160.215984 
L 515.432927 -154.820091 
L 518.900264 -161.450438 
L 522.032052 -157.870639 
L 525.499389 -152.750983 
L 528.854877 -144.80167 
L 532.322214 -158.421143 
L 535.677701 -164.361632 
L 539.145038 -157.789583 
L 542.612375 -166.861156 
L 545.967863 -174.235738 
L 549.4352 -167.781326 
L 552.790687 -163.401446 
L 556.258024 -159.861162 
L 559.725361 -160.412669 
L 562.857149 -167.383013 
L 566.324486 -172.022334 
L 569.679974 -178.492576 
L 573.147311 -184.074286 
L 576.502798 -179.132533 
L 579.970135 -182.932741 
L 583.437472 -177.410815 
L 586.79296 -187.823591 
L 590.260297 -203.619906 
L 593.615784 -203.563558 
L 597.083121 -206.104623 
L 600.550458 -209.505534 
L 603.794096 -212.252647 
L 607.261433 -211.519781 
L 610.61692 -226.146386 
L 614.084257 -235.442326 
L 617.439745 -238.256655 
L 620.907082 -243.939169 
L 624.374419 -228.071199 
L 627.729906 -227.337349 
L 631.197243 -222.531011 
L 634.552731 -221.182897 
L 638.020068 -207.507077 
L 641.487405 -221.291114 
L 644.619193 -229.344685 
L 648.08653 -233.461166 
L 651.442017 -241.035407 
L 654.909354 -233.635614 
L 658.264842 -230.260396 
L 661.732179 -232.081432 
L 665.199516 -243.062008 
L 668.555003 -247.814489 
L 672.02234 -247.089537 
L 675.377828 -239.094282 
L 678.845165 -237.690824 
L 682.312502 -209.55001 
L 685.44429 -226.017418 
L 688.911627 -221.571809 
L 692.267114 -224.714764 
L 695.734451 -228.086527 
L 699.089939 -228.086527 
L 699.089939 -34.541761 
L 699.089939 -34.541761 
L 695.734451 -34.541761 
L 692.267114 -34.541761 
L 688.911627 -34.541761 
L 685.44429 -34.541761 
L 682.312502 -34.541761 
L 678.845165 -34.541761 
L 675.377828 -34.541761 
L 672.02234 -34.541761 
L 668.555003 -34.541761 
L 665.199516 -34.541761 
L 661.732179 -34.541761 
L 658.264842 -34.541761 
L 654.909354 -34.541761 
L 651.442017 -34.541761 
L 648.08653 -34.541761 
L 644.619193 -34.541761 
L 641.487405 -34.541761 
L 638.020068 -34.541761 
L 634.552731 -34.541761 
L 631.197243 -34.541761 
L 627.729906 -34.541761 
L 624.374419 -34.541761 
L 620.907082 -34.541761 
L 617.439745 -34.541761 
L 614.084257 -34.541761 
L 610.61692 -34.541761 
L 607.261433 -34.541761 
L 603.794096 -34.541761 
L 600.550458 -34.541761 
L 597.083121 -34.541761 
L 593.615784 -34.541761 
L 590.260297 -34.541761 
L 586.79296 -34.541761 
L 583.437472 -34.541761 
L 579.970135 -34.541761 
L 576.502798 -34.541761 
L 573.147311 -34.541761 
L 569.679974 -34.541761 
L 566.324486 -34.541761 
L 562.857149 -34.541761 
L 559.725361 -34.541761 
L 556.258024 -34.541761 
L 552.790687 -34.541761 
L 549.4352 -34.541761 
L 545.967863 -34.541761 
L 542.612375 -34.541761 
L 539.145038 -34.541761 
L 535.677701 -34.541761 
L 532.322214 -34.541761 
L 528.854877 -34.541761 
L 525.499389 -34.541761 
L 522.032052 -34.541761 
L 518.900264 -34.541761 
L 515.432927 -34.541761 
L 511.96559 -34.541761 
L 508.610103 -34.541761 
L 505.142766 -34.541761 
L 501.787278 -34.541761 
L 498.319941 -34.541761 
L 494.852604 -34.541761 
L 491.497117 -34.541761 
L 488.02978 -34.541761 
L 484.674292 -34.541761 
L 481.206955 -34.541761 
L 478.075167 -34.541761 
L 474.60783 -34.541761 
L 471.140493 -34.541761 
L 467.785006 -34.541761 
L 464.317669 -34.541761 
L 460.962181 -34.541761 
L 457.494844 -34.541761 
L 454.027507 -34.541761 
L 450.67202 -34.541761 
L 447.204683 -34.541761 
L 443.849195 -34.541761 
L 440.381858 -34.541761 
L 437.13822 -34.541761 
L 433.670883 -34.541761 
L 430.203546 -34.541761 
L 426.848059 -34.541761 
L 423.380722 -34.541761 
L 420.025235 -34.541761 
L 416.557898 -34.541761 
L 413.090561 -34.541761 
L 409.735073 -34.541761 
L 406.267736 -34.541761 
L 402.912249 -34.541761 
L 399.444912 -34.541761 
L 396.313123 -34.541761 
L 392.845786 -34.541761 
L 389.378449 -34.541761 
L 386.022962 -34.541761 
L 382.555625 -34.541761 
L 379.200138 -34.541761 
L 375.732801 -34.541761 
L 372.265464 -34.541761 
L 368.909976 -34.541761 
L 365.442639 -34.541761 
L 362.087152 -34.541761 
L 358.619815 -34.541761 
L 355.488026 -34.541761 
L 352.020689 -34.541761 
L 348.553352 -34.541761 
L 345.197865 -34.541761 
L 341.730528 -34.541761 
L 338.375041 -34.541761 
L 334.907704 -34.541761 
L 331.440367 -34.541761 
L 328.084879 -34.541761 
L 324.617542 -34.541761 
L 321.262055 -34.541761 
L 317.794718 -34.541761 
L 314.662929 -34.541761 
L 311.195592 -34.541761 
L 307.728255 -34.541761 
L 304.372768 -34.541761 
L 300.905431 -34.541761 
L 297.549944 -34.541761 
L 294.082607 -34.541761 
L 290.61527 -34.541761 
L 287.259782 -34.541761 
L 283.792445 -34.541761 
L 280.436958 -34.541761 
L 276.969621 -34.541761 
L 273.725983 -34.541761 
L 270.258646 -34.541761 
L 266.791309 -34.541761 
L 263.435821 -34.541761 
L 259.968484 -34.541761 
L 256.612997 -34.541761 
L 253.14566 -34.541761 
L 249.678323 -34.541761 
L 246.322836 -34.541761 
L 242.855499 -34.541761 
L 239.500011 -34.541761 
L 236.032674 -34.541761 
L 232.900886 -34.541761 
L 229.433549 -34.541761 
L 225.966212 -34.541761 
L 222.610724 -34.541761 
L 219.143387 -34.541761 
L 215.7879 -34.541761 
L 212.320563 -34.541761 
L 208.853226 -34.541761 
L 205.497739 -34.541761 
L 202.030402 -34.541761 
L 198.674914 -34.541761 
L 195.207577 -34.541761 
L 192.075789 -34.541761 
L 188.608452 -34.541761 
L 185.141115 -34.541761 
L 181.785627 -34.541761 
L 178.31829 -34.541761 
L 174.962803 -34.541761 
L 171.495466 -34.541761 
L 168.028129 -34.541761 
L 164.672642 -34.541761 
L 161.205305 -34.541761 
L 157.849817 -34.541761 
L 154.38248 -34.541761 
L 151.250692 -34.541761 
L 147.783355 -34.541761 
L 144.316018 -34.541761 
L 140.96053 -34.541761 
L 137.493193 -34.541761 
L 134.137706 -34.541761 
L 130.670369 -34.541761 
L 127.203032 -34.541761 
L 123.847545 -34.541761 
L 120.380208 -34.541761 
L 117.02472 -34.541761 
L 113.557383 -34.541761 
L 110.313745 -34.541761 
L 106.846408 -34.541761 
L 103.379071 -34.541761 
L 100.023584 -34.541761 
L 96.556247 -34.541761 
L 93.200759 -34.541761 
L 89.733422 -34.541761 
L 86.266085 -34.541761 
L 82.910598 -34.541761 
L 79.443261 -34.541761 
L 76.087774 -34.541761 
L 72.620437 -34.541761 
L 69.488648 -34.541761 
L 66.021311 -34.541761 
z
" style="stroke: #245b8f; stroke-opacity: 0.08"/>
    </defs>
    <g clip-path="url(#p9c9aacd371)">
     <use xlink:href="#m5b0f01634a" x="0" y="291.835625" style="fill: #245b8f; fill-opacity: 0.08; stroke: #245b8f; stroke-opacity: 0.08"/>
    </g>
   </g>
   <g id="matplotlib.axis_1">
    <g id="xtick_1">
     <g id="line2d_1">
      <defs>
       <path id="m9a169d2ad4" d="M 0 0 
L 0 3.5 
" style="stroke: #5d6878; stroke-width: 0.8"/>
      </defs>
      <g>
       <use xlink:href="#m9a169d2ad4" x="147.783355" y="267.9575" style="fill: #5d6878; stroke: #5d6878; stroke-width: 0.8"/>
      </g>
     </g>
     <g id="text_1">
      <!-- 2013 -->
      <g style="fill: #5d6878" transform="translate(135.058355 282.555938) scale(0.1 -0.1)">
       <defs>
        <path id="DejaVuSans-32" d="M 1228 531 
L 3431 531 
L 3431 0 
L 469 0 
L 469 531 
Q 828 903 1448 1529 
Q 2069 2156 2228 2338 
Q 2531 2678 2651 2914 
Q 2772 3150 2772 3378 
Q 2772 3750 2511 3984 
Q 2250 4219 1831 4219 
Q 1534 4219 1204 4116 
Q 875 4013 500 3803 
L 500 4441 
Q 881 4594 1212 4672 
Q 1544 4750 1819 4750 
Q 2544 4750 2975 4387 
Q 3406 4025 3406 3419 
Q 3406 3131 3298 2873 
Q 3191 2616 2906 2266 
Q 2828 2175 2409 1742 
Q 1991 1309 1228 531 
z
" transform="scale(0.015625)"/>
        <path id="DejaVuSans-30" d="M 2034 4250 
Q 1547 4250 1301 3770 
Q 1056 3291 1056 2328 
Q 1056 1369 1301 889 
Q 1547 409 2034 409 
Q 2525 409 2770 889 
Q 3016 1369 3016 2328 
Q 3016 3291 2770 3770 
Q 2525 4250 2034 4250 
z
M 2034 4750 
Q 2819 4750 3233 4129 
Q 3647 3509 3647 2328 
Q 3647 1150 3233 529 
Q 2819 -91 2034 -91 
Q 1250 -91 836 529 
Q 422 1150 422 2328 
Q 422 3509 836 4129 
Q 1250 4750 2034 4750 
z
" transform="scale(0.015625)"/>
        <path id="DejaVuSans-31" d="M 794 531 
L 1825 531 
L 1825 4091 
L 703 3866 
L 703 4441 
L 1819 4666 
L 2450 4666 
L 2450 531 
L 3481 531 
L 3481 0 
L 794 0 
L 794 531 
z
" transform="scale(0.015625)"/>
        <path id="DejaVuSans-33" d="M 2597 2516 
Q 3050 2419 3304 2112 
Q 3559 1806 3559 1356 
Q 3559 666 3084 287 
Q 2609 -91 1734 -91 
Q 1441 -91 1130 -33 
Q 819 25 488 141 
L 488 750 
Q 750 597 1062 519 
Q 1375 441 1716 441 
Q 2309 441 2620 675 
Q 2931 909 2931 1356 
Q 2931 1769 2642 2001 
Q 2353 2234 1838 2234 
L 1294 2234 
L 1294 2753 
L 1863 2753 
Q 2328 2753 2575 2939 
Q 2822 3125 2822 3475 
Q 2822 3834 2567 4026 
Q 2313 4219 1838 4219 
Q 1578 4219 1281 4162 
Q 984 4106 628 3988 
L 628 4550 
Q 988 4650 1302 4700 
Q 1616 4750 1894 4750 
Q 2613 4750 3031 4423 
Q 3450 4097 3450 3541 
Q 3450 3153 3228 2886 
Q 3006 2619 2597 2516 
z
" transform="scale(0.015625)"/>
       </defs>
       <use xlink:href="#DejaVuSans-32"/>
       <use xlink:href="#DejaVuSans-30" transform="translate(63.623047 0)"/>
       <use xlink:href="#DejaVuSans-31" transform="translate(127.246094 0)"/>
       <use xlink:href="#DejaVuSans-33" transform="translate(190.869141 0)"/>
      </g>
     </g>
    </g>
    <g id="xtick_2">
     <g id="line2d_2">
      <g>
       <use xlink:href="#m9a169d2ad4" x="270.258646" y="267.9575" style="fill: #5d6878; stroke: #5d6878; stroke-width: 0.8"/>
      </g>
     </g>
     <g id="text_2">
      <!-- 2016 -->
      <g style="fill: #5d6878" transform="translate(257.533646 282.555938) scale(0.1 -0.1)">
       <defs>
        <path id="DejaVuSans-36" d="M 2113 2584 
Q 1688 2584 1439 2293 
Q 1191 2003 1191 1497 
Q 1191 994 1439 701 
Q 1688 409 2113 409 
Q 2538 409 2786 701 
Q 3034 994 3034 1497 
Q 3034 2003 2786 2293 
Q 2538 2584 2113 2584 
z
M 3366 4563 
L 3366 3988 
Q 3128 4100 2886 4159 
Q 2644 4219 2406 4219 
Q 1781 4219 1451 3797 
Q 1122 3375 1075 2522 
Q 1259 2794 1537 2939 
Q 1816 3084 2150 3084 
Q 2853 3084 3261 2657 
Q 3669 2231 3669 1497 
Q 3669 778 3244 343 
Q 2819 -91 2113 -91 
Q 1303 -91 875 529 
Q 447 1150 447 2328 
Q 447 3434 972 4092 
Q 1497 4750 2381 4750 
Q 2619 4750 2861 4703 
Q 3103 4656 3366 4563 
z
" transform="scale(0.015625)"/>
       </defs>
       <use xlink:href="#DejaVuSans-32"/>
       <use xlink:href="#DejaVuSans-30" transform="translate(63.623047 0)"/>
       <use xlink:href="#DejaVuSans-31" transform="translate(127.246094 0)"/>
       <use xlink:href="#DejaVuSans-36" transform="translate(190.869141 0)"/>
      </g>
     </g>
    </g>
    <g id="xtick_3">
     <g id="line2d_3">
      <g>
       <use xlink:href="#m9a169d2ad4" x="392.845786" y="267.9575" style="fill: #5d6878; stroke: #5d6878; stroke-width: 0.8"/>
      </g>
     </g>
     <g id="text_3">
      <!-- 2019 -->
      <g style="fill: #5d6878" transform="translate(380.120786 282.555938) scale(0.1 -0.1)">
       <defs>
        <path id="DejaVuSans-39" d="M 703 97 
L 703 672 
Q 941 559 1184 500 
Q 1428 441 1663 441 
Q 2288 441 2617 861 
Q 2947 1281 2994 2138 
Q 2813 1869 2534 1725 
Q 2256 1581 1919 1581 
Q 1219 1581 811 2004 
Q 403 2428 403 3163 
Q 403 3881 828 4315 
Q 1253 4750 1959 4750 
Q 2769 4750 3195 4129 
Q 3622 3509 3622 2328 
Q 3622 1225 3098 567 
Q 2575 -91 1691 -91 
Q 1453 -91 1209 -44 
Q 966 3 703 97 
z
M 1959 2075 
Q 2384 2075 2632 2365 
Q 2881 2656 2881 3163 
Q 2881 3666 2632 3958 
Q 2384 4250 1959 4250 
Q 1534 4250 1286 3958 
Q 1038 3666 1038 3163 
Q 1038 2656 1286 2365 
Q 1534 2075 1959 2075 
z
" transform="scale(0.015625)"/>
       </defs>
       <use xlink:href="#DejaVuSans-32"/>
       <use xlink:href="#DejaVuSans-30" transform="translate(63.623047 0)"/>
       <use xlink:href="#DejaVuSans-31" transform="translate(127.246094 0)"/>
       <use xlink:href="#DejaVuSans-39" transform="translate(190.869141 0)"/>
      </g>
     </g>
    </g>
    <g id="xtick_4">
     <g id="line2d_4">
      <g>
       <use xlink:href="#m9a169d2ad4" x="515.432927" y="267.9575" style="fill: #5d6878; stroke: #5d6878; stroke-width: 0.8"/>
      </g>
     </g>
     <g id="text_4">
      <!-- 2022 -->
      <g style="fill: #5d6878" transform="translate(502.707927 282.555938) scale(0.1 -0.1)">
       <use xlink:href="#DejaVuSans-32"/>
       <use xlink:href="#DejaVuSans-30" transform="translate(63.623047 0)"/>
       <use xlink:href="#DejaVuSans-32" transform="translate(127.246094 0)"/>
       <use xlink:href="#DejaVuSans-32" transform="translate(190.869141 0)"/>
      </g>
     </g>
    </g>
    <g id="xtick_5">
     <g id="line2d_5">
      <g>
       <use xlink:href="#m9a169d2ad4" x="638.020068" y="267.9575" style="fill: #5d6878; stroke: #5d6878; stroke-width: 0.8"/>
      </g>
     </g>
     <g id="text_5">
      <!-- 2025 -->
      <g style="fill: #5d6878" transform="translate(625.295068 282.555938) scale(0.1 -0.1)">
       <defs>
        <path id="DejaVuSans-35" d="M 691 4666 
L 3169 4666 
L 3169 4134 
L 1269 4134 
L 1269 2991 
Q 1406 3038 1543 3061 
Q 1681 3084 1819 3084 
Q 2600 3084 3056 2656 
Q 3513 2228 3513 1497 
Q 3513 744 3044 326 
Q 2575 -91 1722 -91 
Q 1428 -91 1123 -41 
Q 819 9 494 109 
L 494 744 
Q 775 591 1075 516 
Q 1375 441 1709 441 
Q 2250 441 2565 725 
Q 2881 1009 2881 1497 
Q 2881 1984 2565 2268 
Q 2250 2553 1709 2553 
Q 1456 2553 1204 2497 
Q 953 2441 691 2322 
L 691 4666 
z
" transform="scale(0.015625)"/>
       </defs>
       <use xlink:href="#DejaVuSans-32"/>
       <use xlink:href="#DejaVuSans-30" transform="translate(63.623047 0)"/>
       <use xlink:href="#DejaVuSans-32" transform="translate(127.246094 0)"/>
       <use xlink:href="#DejaVuSans-35" transform="translate(190.869141 0)"/>
      </g>
     </g>
    </g>
   </g>
   <g id="matplotlib.axis_2">
    <g id="ytick_1">
     <g id="line2d_6">
      <path d="M 59.690625 253.580628 
L 705.420625 253.580628 
" clip-path="url(#p9c9aacd371)" style="fill: none; stroke: #e7edf1; stroke-width: 0.8; stroke-linecap: square"/>
     </g>
     <g id="line2d_7">
      <defs>
       <path id="m531f80d946" d="M 0 0 
L -3.5 0 
" style="stroke: #5d6878; stroke-width: 0.8"/>
      </defs>
      <g>
       <use xlink:href="#m531f80d946" x="59.690625" y="253.580628" style="fill: #5d6878; stroke: #5d6878; stroke-width: 0.8"/>
      </g>
     </g>
     <g id="text_6">
      <!-- 5000 -->
      <g style="fill: #5d6878" transform="translate(27.240625 257.379847) scale(0.1 -0.1)">
       <use xlink:href="#DejaVuSans-35"/>
       <use xlink:href="#DejaVuSans-30" transform="translate(63.623047 0)"/>
       <use xlink:href="#DejaVuSans-30" transform="translate(127.246094 0)"/>
       <use xlink:href="#DejaVuSans-30" transform="translate(190.869141 0)"/>
      </g>
     </g>
    </g>
    <g id="ytick_2">
     <g id="line2d_8">
      <path d="M 59.690625 204.163094 
L 705.420625 204.163094 
" clip-path="url(#p9c9aacd371)" style="fill: none; stroke: #e7edf1; stroke-width: 0.8; stroke-linecap: square"/>
     </g>
     <g id="line2d_9">
      <g>
       <use xlink:href="#m531f80d946" x="59.690625" y="204.163094" style="fill: #5d6878; stroke: #5d6878; stroke-width: 0.8"/>
      </g>
     </g>
     <g id="text_7">
      <!-- 10000 -->
      <g style="fill: #5d6878" transform="translate(20.878125 207.962313) scale(0.1 -0.1)">
       <use xlink:href="#DejaVuSans-31"/>
       <use xlink:href="#DejaVuSans-30" transform="translate(63.623047 0)"/>
       <use xlink:href="#DejaVuSans-30" transform="translate(127.246094 0)"/>
       <use xlink:href="#DejaVuSans-30" transform="translate(190.869141 0)"/>
       <use xlink:href="#DejaVuSans-30" transform="translate(254.492188 0)"/>
      </g>
     </g>
    </g>
    <g id="ytick_3">
     <g id="line2d_10">
      <path d="M 59.690625 154.745561 
L 705.420625 154.745561 
" clip-path="url(#p9c9aacd371)" style="fill: none; stroke: #e7edf1; stroke-width: 0.8; stroke-linecap: square"/>
     </g>
     <g id="line2d_11">
      <g>
       <use xlink:href="#m531f80d946" x="59.690625" y="154.745561" style="fill: #5d6878; stroke: #5d6878; stroke-width: 0.8"/>
      </g>
     </g>
     <g id="text_8">
      <!-- 15000 -->
      <g style="fill: #5d6878" transform="translate(20.878125 158.544779) scale(0.1 -0.1)">
       <use xlink:href="#DejaVuSans-31"/>
       <use xlink:href="#DejaVuSans-35" transform="translate(63.623047 0)"/>
       <use xlink:href="#DejaVuSans-30" transform="translate(127.246094 0)"/>
       <use xlink:href="#DejaVuSans-30" transform="translate(190.869141 0)"/>
       <use xlink:href="#DejaVuSans-30" transform="translate(254.492188 0)"/>
      </g>
     </g>
    </g>
    <g id="ytick_4">
     <g id="line2d_12">
      <path d="M 59.690625 105.328027 
L 705.420625 105.328027 
" clip-path="url(#p9c9aacd371)" style="fill: none; stroke: #e7edf1; stroke-width: 0.8; stroke-linecap: square"/>
     </g>
     <g id="line2d_13">
      <g>
       <use xlink:href="#m531f80d946" x="59.690625" y="105.328027" style="fill: #5d6878; stroke: #5d6878; stroke-width: 0.8"/>
      </g>
     </g>
     <g id="text_9">
      <!-- 20000 -->
      <g style="fill: #5d6878" transform="translate(20.878125 109.127246) scale(0.1 -0.1)">
       <use xlink:href="#DejaVuSans-32"/>
       <use xlink:href="#DejaVuSans-30" transform="translate(63.623047 0)"/>
       <use xlink:href="#DejaVuSans-30" transform="translate(127.246094 0)"/>
       <use xlink:href="#DejaVuSans-30" transform="translate(190.869141 0)"/>
       <use xlink:href="#DejaVuSans-30" transform="translate(254.492188 0)"/>
      </g>
     </g>
    </g>
    <g id="ytick_5">
     <g id="line2d_14">
      <path d="M 59.690625 55.910493 
L 705.420625 55.910493 
" clip-path="url(#p9c9aacd371)" style="fill: none; stroke: #e7edf1; stroke-width: 0.8; stroke-linecap: square"/>
     </g>
     <g id="line2d_15">
      <g>
       <use xlink:href="#m531f80d946" x="59.690625" y="55.910493" style="fill: #5d6878; stroke: #5d6878; stroke-width: 0.8"/>
      </g>
     </g>
     <g id="text_10">
      <!-- 25000 -->
      <g style="fill: #5d6878" transform="translate(20.878125 59.709712) scale(0.1 -0.1)">
       <use xlink:href="#DejaVuSans-32"/>
       <use xlink:href="#DejaVuSans-35" transform="translate(63.623047 0)"/>
       <use xlink:href="#DejaVuSans-30" transform="translate(127.246094 0)"/>
       <use xlink:href="#DejaVuSans-30" transform="translate(190.869141 0)"/>
       <use xlink:href="#DejaVuSans-30" transform="translate(254.492188 0)"/>
      </g>
     </g>
    </g>
    <g id="text_11">
     <!-- Index level -->
     <g style="fill: #5d6878" transform="translate(14.798438 177.903594) rotate(-90) scale(0.1 -0.1)">
      <defs>
       <path id="DejaVuSans-49" d="M 628 4666 
L 1259 4666 
L 1259 0 
L 628 0 
L 628 4666 
z
" transform="scale(0.015625)"/>
       <path id="DejaVuSans-6e" d="M 3513 2113 
L 3513 0 
L 2938 0 
L 2938 2094 
Q 2938 2591 2744 2837 
Q 2550 3084 2163 3084 
Q 1697 3084 1428 2787 
Q 1159 2491 1159 1978 
L 1159 0 
L 581 0 
L 581 3500 
L 1159 3500 
L 1159 2956 
Q 1366 3272 1645 3428 
Q 1925 3584 2291 3584 
Q 2894 3584 3203 3211 
Q 3513 2838 3513 2113 
z
" transform="scale(0.015625)"/>
       <path id="DejaVuSans-64" d="M 2906 2969 
L 2906 4863 
L 3481 4863 
L 3481 0 
L 2906 0 
L 2906 525 
Q 2725 213 2448 61 
Q 2172 -91 1784 -91 
Q 1150 -91 751 415 
Q 353 922 353 1747 
Q 353 2572 751 3078 
Q 1150 3584 1784 3584 
Q 2172 3584 2448 3432 
Q 2725 3281 2906 2969 
z
M 947 1747 
Q 947 1113 1208 752 
Q 1469 391 1925 391 
Q 2381 391 2643 752 
Q 2906 1113 2906 1747 
Q 2906 2381 2643 2742 
Q 2381 3103 1925 3103 
Q 1469 3103 1208 2742 
Q 947 2381 947 1747 
z
" transform="scale(0.015625)"/>
       <path id="DejaVuSans-65" d="M 3597 1894 
L 3597 1613 
L 953 1613 
Q 991 1019 1311 708 
Q 1631 397 2203 397 
Q 2534 397 2845 478 
Q 3156 559 3463 722 
L 3463 178 
Q 3153 47 2828 -22 
Q 2503 -91 2169 -91 
Q 1331 -91 842 396 
Q 353 884 353 1716 
Q 353 2575 817 3079 
Q 1281 3584 2069 3584 
Q 2775 3584 3186 3129 
Q 3597 2675 3597 1894 
z
M 3022 2063 
Q 3016 2534 2758 2815 
Q 2500 3097 2075 3097 
Q 1594 3097 1305 2825 
Q 1016 2553 972 2059 
L 3022 2063 
z
" transform="scale(0.015625)"/>
       <path id="DejaVuSans-78" d="M 3513 3500 
L 2247 1797 
L 3578 0 
L 2900 0 
L 1881 1375 
L 863 0 
L 184 0 
L 1544 1831 
L 300 3500 
L 978 3500 
L 1906 2253 
L 2834 3500 
L 3513 3500 
z
" transform="scale(0.015625)"/>
       <path id="DejaVuSans-20" transform="scale(0.015625)"/>
       <path id="DejaVuSans-6c" d="M 603 4863 
L 1178 4863 
L 1178 0 
L 603 0 
L 603 4863 
z
" transform="scale(0.015625)"/>
       <path id="DejaVuSans-76" d="M 191 3500 
L 800 3500 
L 1894 563 
L 2988 3500 
L 3597 3500 
L 2284 0 
L 1503 0 
L 191 3500 
z
" transform="scale(0.015625)"/>
      </defs>
      <use xlink:href="#DejaVuSans-49"/>
      <use xlink:href="#DejaVuSans-6e" transform="translate(29.492188 0)"/>
      <use xlink:href="#DejaVuSans-64" transform="translate(92.871094 0)"/>
      <use xlink:href="#DejaVuSans-65" transform="translate(156.347656 0)"/>
      <use xlink:href="#DejaVuSans-78" transform="translate(216.121094 0)"/>
      <use xlink:href="#DejaVuSans-20" transform="translate(275.300781 0)"/>
      <use xlink:href="#DejaVuSans-6c" transform="translate(307.087891 0)"/>
      <use xlink:href="#DejaVuSans-65" transform="translate(334.871094 0)"/>
      <use xlink:href="#DejaVuSans-76" transform="translate(396.394531 0)"/>
      <use xlink:href="#DejaVuSans-65" transform="translate(455.574219 0)"/>
      <use xlink:href="#DejaVuSans-6c" transform="translate(517.097656 0)"/>
     </g>
    </g>
   </g>
   <g id="line2d_16">
    <path d="M 66.021311 250.28695 
L 69.488648 245.340254 
L 72.620437 246.17294 
L 76.087774 248.90474 
L 79.443261 247.182047 
L 82.910598 248.816778 
L 86.266085 253.570745 
L 89.733422 254.141517 
L 93.200759 250.352674 
L 96.556247 255.240565 
L 100.023584 257.293864 
L 103.379071 251.611339 
L 106.846408 249.773499 
L 110.313745 250.65956 
L 113.557383 251.128037 
L 117.02472 254.329304 
L 120.380208 250.824119 
L 123.847545 251.317305 
L 127.203032 251.025742 
L 130.670369 246.62956 
L 134.137706 247.455817 
L 137.493193 244.884624 
L 140.96053 244.635065 
L 144.316018 243.35367 
L 147.783355 246.730866 
L 151.250692 246.834643 
L 154.38248 244.386988 
L 157.849817 243.835983 
L 161.205305 245.256737 
L 164.672642 246.247066 
L 168.028129 248.917592 
L 171.495466 246.313288 
L 174.962803 240.740471 
L 178.31829 241.956635 
L 181.785627 240.692535 
L 185.141115 242.812548 
L 188.608452 240.959882 
L 192.075789 236.737154 
L 195.207577 236.814248 
L 198.674914 231.5409 
L 202.030402 227.771332 
L 205.497739 226.684643 
L 208.853226 224.381289 
L 212.320563 224.278009 
L 215.7879 220.74564 
L 219.143387 218.116135 
L 222.610724 221.136039 
L 225.966212 215.935335 
L 229.433549 215.582502 
L 236.032674 222.136251 
L 239.500011 219.644121 
L 242.855499 220.288036 
L 246.322836 218.663685 
L 249.678323 224.213767 
L 253.14566 224.435156 
L 256.612997 223.279775 
L 259.968484 224.570065 
L 263.435821 224.460357 
L 266.791309 228.243766 
L 270.258646 233.941608 
L 273.725983 226.515634 
L 276.969621 225.414613 
L 280.436958 222.347758 
L 283.792445 221.086129 
L 287.259782 217.619489 
L 290.61527 216.159693 
L 294.082607 217.889799 
L 297.549944 217.624431 
L 300.905431 221.711261 
L 304.372768 222.093754 
L 307.728255 218.382498 
L 311.195592 215.236579 
L 314.662929 212.329342 
L 317.794718 211.041523 
L 321.262055 207.906473 
L 324.617542 208.898279 
L 328.084879 203.40108 
L 331.440367 204.974526 
L 334.907704 206.252472 
L 338.375041 200.849157 
L 341.730528 201.923988 
L 345.197865 198.917915 
L 348.553352 194.005813 
L 352.020689 199.292012 
L 355.488026 203.039338 
L 358.619815 196.855728 
L 362.087152 196.887347 
L 365.442639 197.103307 
L 368.909976 190.756118 
L 372.265464 187.553861 
L 375.732801 194.966984 
L 379.200138 200.342135 
L 382.555625 195.49773 
L 386.022962 195.638078 
L 392.845786 196.330415 
L 396.313123 188.113264 
L 399.444912 186.885238 
L 402.912249 185.15909 
L 406.267736 186.482987 
L 409.735073 193.113334 
L 413.090561 194.049796 
L 416.557898 189.590356 
L 420.025235 185.607303 
L 423.380722 183.842112 
L 426.848059 182.731202 
L 430.203546 184.77067 
L 433.670883 192.28559 
L 437.13822 218.022242 
L 440.381858 205.54777 
L 443.849195 208.311204 
L 450.67202 193.553642 
L 454.027507 190.449729 
L 457.494844 191.832928 
L 460.962181 187.930419 
L 464.317669 174.819455 
L 467.785006 164.809441 
L 471.140493 168.240505 
L 474.60783 159.399206 
L 478.075167 157.802527 
L 481.206955 158.39159 
L 484.674292 148.985455 
L 488.02978 147.614611 
L 491.497117 147.203953 
L 494.852604 133.671955 
L 498.319941 128.869054 
L 501.787278 128.340286 
L 505.142766 135.144598 
L 508.610103 131.479284 
L 511.96559 131.619641 
L 515.432927 137.015534 
L 518.900264 130.385187 
L 522.032052 133.964986 
L 525.499389 139.084642 
L 528.854877 147.033955 
L 532.322214 133.414482 
L 535.677701 127.473993 
L 539.145038 134.046042 
L 542.612375 124.974469 
L 545.967863 117.599887 
L 549.4352 124.054299 
L 552.790687 128.434179 
L 556.258024 131.974463 
L 559.725361 131.422956 
L 562.857149 124.452612 
L 566.324486 119.813291 
L 569.679974 113.343049 
L 573.147311 107.761339 
L 576.502798 112.703092 
L 579.970135 108.902884 
L 583.437472 114.42481 
L 586.79296 104.012034 
L 590.260297 88.215719 
L 593.615784 88.272067 
L 597.083121 85.731002 
L 600.550458 82.330091 
L 603.794096 79.582978 
L 607.261433 80.315844 
L 610.61692 65.689239 
L 614.084257 56.393299 
L 617.439745 53.57897 
L 620.907082 47.896456 
L 624.374419 63.764426 
L 627.729906 64.498276 
L 631.197243 69.304614 
L 634.552731 70.652728 
L 638.020068 84.328548 
L 641.487405 70.544511 
L 644.619193 62.49094 
L 648.08653 58.374459 
L 651.442017 50.800218 
L 654.909354 58.200011 
L 658.264842 61.575229 
L 661.732179 59.754193 
L 665.199516 48.773617 
L 668.555003 44.021136 
L 672.02234 44.746088 
L 675.377828 52.741343 
L 678.845165 54.144801 
L 682.312502 82.285615 
L 685.44429 65.818207 
L 688.911627 70.263816 
L 695.734451 63.749098 
L 699.089939 63.749098 
L 699.089939 63.749098 
" clip-path="url(#p9c9aacd371)" style="fill: none; stroke: #245b8f; stroke-width: 2.25; stroke-linecap: square"/>
   </g>
   <g id="patch_3">
    <path d="M 59.690625 267.9575 
L 59.690625 33.3575 
" style="fill: none; stroke: #dce4eb; stroke-width: 0.8; stroke-linejoin: miter; stroke-linecap: square"/>
   </g>
   <g id="patch_4">
    <path d="M 59.690625 267.9575 
L 705.420625 267.9575 
" style="fill: none; stroke: #dce4eb; stroke-width: 0.8; stroke-linejoin: miter; stroke-linecap: square"/>
   </g>
   <g id="text_12">
    <!-- NIFTY 50 -->
    <g style="fill: #10233f" transform="translate(59.690625 19.3575) scale(0.16 -0.16)">
     <defs>
      <path id="DejaVuSans-4e" d="M 628 4666 
L 1478 4666 
L 3547 763 
L 3547 4666 
L 4159 4666 
L 4159 0 
L 3309 0 
L 1241 3903 
L 1241 0 
L 628 0 
L 628 4666 
z
" transform="scale(0.015625)"/>
      <path id="DejaVuSans-46" d="M 628 4666 
L 3309 4666 
L 3309 4134 
L 1259 4134 
L 1259 2759 
L 3109 2759 
L 3109 2228 
L 1259 2228 
L 1259 0 
L 628 0 
L 628 4666 
z
" transform="scale(0.015625)"/>
      <path id="DejaVuSans-54" d="M -19 4666 
L 3928 4666 
L 3928 4134 
L 2272 4134 
L 2272 0 
L 1638 0 
L 1638 4134 
L -19 4134 
L -19 4666 
z
" transform="scale(0.015625)"/>
      <path id="DejaVuSans-59" d="M -13 4666 
L 666 4666 
L 1959 2747 
L 3244 4666 
L 3922 4666 
L 2272 2222 
L 2272 0 
L 1638 0 
L 1638 2222 
L -13 4666 
z
" transform="scale(0.015625)"/>
     </defs>
     <use xlink:href="#DejaVuSans-4e"/>
     <use xlink:href="#DejaVuSans-49" transform="translate(74.804688 0)"/>
     <use xlink:href="#DejaVuSans-46" transform="translate(104.296875 0)"/>
     <use xlink:href="#DejaVuSans-54" transform="translate(160.066406 0)"/>
     <use xlink:href="#DejaVuSans-59" transform="translate(221.150391 0)"/>
     <use xlink:href="#DejaVuSans-20" transform="translate(282.234375 0)"/>
     <use xlink:href="#DejaVuSans-35" transform="translate(314.021484 0)"/>
     <use xlink:href="#DejaVuSans-30" transform="translate(377.644531 0)"/>
    </g>
   </g>
  </g>
 </g>
 <defs>
  <clipPath id="p9c9aacd371">
   <rect x="59.690625" y="33.3575" width="645.73" height="234.6"/>
  </clipPath>
 </defs>
</svg>
