<?xml version="1.0" encoding="utf-8" standalone="no"?>
<!DOCTYPE svg PUBLIC "-//W3C//DTD SVG 1.1//EN"
  "http://www.w3.org/Graphics/SVG/1.1/DTD/svg11.dtd">
<svg xmlns:xlink="http://www.w3.org/1999/xlink" width="746.220625pt" height="295.235469pt" viewBox="0 0 746.220625 295.235469" xmlns="http://www.w3.org/2000/svg" version="1.1">
 <metadata>
  <rdf:RDF xmlns:dc="http://purl.org/dc/elements/1.1/" xmlns:cc="http://creativecommons.org/ns#" xmlns:rdf="http://www.w3.org/1999/02/22-rdf-syntax-ns#">
   <cc:Work>
    <dc:type rdf:resource="http://purl.org/dc/dcmitype/StillImage"/>
    <dc:date>2026-07-13T03:16:48.689368</dc:date>
    <dc:format>image/svg+xml</dc:format>
    <dc:creator>
     <cc:Agent>
      <dc:title>Matplotlib v3.10.8, https://matplotlib.org/</dc:title>
     </cc:Agent>
    </dc:creator>
   </cc:Work>
  </rdf:RDF>
 </metadata>
 <defs>
  <style type="text/css">*{stroke-linejoin: round; stroke-linecap: butt}</style>
 </defs>
 <g id="figure_1">
  <g id="patch_1">
   <path d="M 0 295.235469 
L 746.220625 295.235469 
L 746.220625 0 
L 0 0 
z
" style="fill: #ffffff"/>
  </g>
  <g id="axes_1">
   <g id="patch_2">
    <path d="M 62.190625 271.357344 
L 739.020625 271.357344 
L 739.020625 46.117344 
L 62.190625 46.117344 
z
" style="fill: #ffffff"/>
   </g>
   <g id="FillBetweenPolyCollection_1">
    <defs>
     <path id="m0a3a4626b9" d="M 72.047373 -23.878125 
L 72.047373 -46.293724 
L 75.646421 -50.900662 
L 78.897174 -50.125168 
L 82.496222 -47.580998 
L 85.979171 -49.18537 
L 89.578219 -47.662919 
L 93.061169 -43.235473 
L 96.660217 -42.703903 
L 100.259265 -46.232514 
L 103.742215 -41.680342 
L 107.341263 -39.768072 
L 110.824212 -45.060299 
L 114.42326 -46.771909 
L 118.022308 -45.946707 
L 121.38916 -45.510406 
L 124.988208 -42.529015 
L 128.471157 -45.79345 
L 132.070205 -45.334138 
L 135.553155 -45.605675 
L 139.152203 -49.699911 
L 142.751251 -48.930404 
L 146.234201 -51.324998 
L 149.833249 -51.557416 
L 153.316198 -52.7508 
L 156.915246 -49.605563 
L 160.514294 -49.508914 
L 163.765047 -51.788454 
L 167.364095 -52.301614 
L 170.847045 -50.978443 
L 174.446093 -50.056133 
L 177.929043 -47.56903 
L 181.528091 -49.99446 
L 185.127139 -55.184514 
L 188.610088 -54.051881 
L 192.209136 -55.229157 
L 195.692086 -53.254756 
L 199.291134 -54.980173 
L 202.890182 -58.912868 
L 206.140935 -58.841069 
L 209.739983 -63.752223 
L 213.222933 -67.262883 
L 216.821981 -68.274934 
L 220.30493 -70.420085 
L 223.903978 -70.516271 
L 227.503026 -73.806023 
L 230.985976 -76.254924 
L 234.585024 -73.442439 
L 238.067974 -78.285938 
L 241.667022 -78.614537 
L 245.26607 -75.35977 
L 248.516823 -72.510925 
L 252.115871 -74.831886 
L 255.59882 -74.232198 
L 259.197868 -75.744982 
L 262.680818 -70.576101 
L 266.279866 -70.369918 
L 269.878914 -71.445943 
L 273.361864 -70.244275 
L 276.960912 -70.346447 
L 280.443861 -66.822897 
L 284.042909 -61.516405 
L 287.641957 -68.432335 
L 291.008809 -69.457734 
L 294.607857 -72.313946 
L 298.090806 -73.488921 
L 301.689854 -76.717459 
L 305.172804 -78.07699 
L 308.771852 -76.465715 
L 312.3709 -76.712856 
L 315.85385 -72.906725 
L 319.452898 -72.550503 
L 322.935847 -76.006856 
L 326.534895 -78.936701 
L 330.133943 -81.644258 
L 333.384696 -82.843625 
L 336.983744 -85.763348 
L 340.466694 -84.839663 
L 344.065742 -89.959293 
L 347.548692 -88.493917 
L 351.14774 -87.303746 
L 354.746788 -92.33594 
L 358.229737 -91.334932 
L 361.828785 -94.134536 
L 365.311735 -98.709257 
L 368.910783 -93.786134 
L 372.509831 -90.296189 
L 375.760584 -96.055085 
L 379.359632 -96.025637 
L 382.842582 -95.82451 
L 386.44163 -101.735751 
L 389.924579 -104.718064 
L 393.523627 -97.814103 
L 397.122675 -92.808138 
L 400.605625 -97.31981 
L 404.204673 -97.189102 
L 407.687623 -96.898238 
L 411.286671 -96.544317 
L 414.885719 -104.197083 
L 418.136472 -105.340763 
L 421.73552 -106.948353 
L 425.218469 -105.715386 
L 428.817517 -99.540437 
L 432.300467 -98.668295 
L 435.899515 -102.821443 
L 439.498563 -106.530925 
L 442.981513 -108.174876 
L 446.580561 -109.209484 
L 450.06351 -107.310095 
L 453.662558 -100.311328 
L 457.261606 -76.342368 
L 460.628458 -87.960046 
L 464.227506 -85.386415 
L 467.710455 -92.030343 
L 471.309503 -99.130371 
L 474.792453 -102.021095 
L 478.391501 -100.7329 
L 481.990549 -104.367369 
L 485.473499 -116.577822 
L 489.072547 -125.90031 
L 492.555496 -122.704905 
L 496.154544 -130.938949 
L 499.753592 -132.425962 
L 503.004345 -131.877358 
L 506.603393 -140.637444 
L 510.086343 -141.914134 
L 513.685391 -142.296586 
L 517.168341 -154.899154 
L 520.767389 -159.372174 
L 524.366437 -159.864624 
L 527.849386 -153.527658 
L 531.448434 -156.941224 
L 534.931384 -156.810507 
L 538.530432 -151.785225 
L 542.12948 -157.960174 
L 545.380233 -154.62625 
L 548.979281 -149.858231 
L 552.462231 -142.454908 
L 556.061279 -155.138943 
L 559.544228 -160.671416 
L 563.143276 -154.550761 
L 566.742324 -162.999263 
L 570.225274 -169.867331 
L 573.824322 -163.856232 
L 577.307272 -159.777179 
L 580.90632 -156.480056 
L 584.505368 -156.993684 
L 587.756121 -163.485277 
L 591.355169 -167.805952 
L 594.838118 -173.831793 
L 598.437166 -179.03013 
L 601.920116 -174.427795 
L 605.519164 -177.966991 
L 609.118212 -172.824331 
L 612.601162 -182.521918 
L 616.20021 -197.233281 
L 619.683159 -197.180804 
L 623.282207 -199.547339 
L 626.881255 -202.714662 
L 630.248107 -205.273093 
L 633.847155 -204.590563 
L 637.330104 -218.212557 
L 640.929152 -226.870016 
L 644.412102 -229.491046 
L 648.01115 -234.783263 
L 651.610198 -220.005166 
L 655.093148 -219.32172 
L 658.692196 -214.8455 
L 662.175145 -213.589979 
L 665.774193 -200.853467 
L 669.373241 -213.690763 
L 672.623994 -221.191184 
L 676.223042 -225.024929 
L 679.705992 -232.078942 
L 683.30504 -225.187395 
L 686.78799 -222.044001 
L 690.387038 -223.739961 
L 693.986086 -233.966349 
L 697.469035 -238.392411 
L 701.068083 -237.717252 
L 704.551033 -230.271141 
L 708.150081 -228.964078 
L 711.749129 -202.756083 
L 714.999882 -218.092447 
L 718.59893 -213.952179 
L 722.08188 -216.879264 
L 725.680928 -220.019441 
L 729.163877 -220.019441 
L 729.163877 -23.878125 
L 729.163877 -23.878125 
L 725.680928 -23.878125 
L 722.08188 -23.878125 
L 718.59893 -23.878125 
L 714.999882 -23.878125 
L 711.749129 -23.878125 
L 708.150081 -23.878125 
L 704.551033 -23.878125 
L 701.068083 -23.878125 
L 697.469035 -23.878125 
L 693.986086 -23.878125 
L 690.387038 -23.878125 
L 686.78799 -23.878125 
L 683.30504 -23.878125 
L 679.705992 -23.878125 
L 676.223042 -23.878125 
L 672.623994 -23.878125 
L 669.373241 -23.878125 
L 665.774193 -23.878125 
L 662.175145 -23.878125 
L 658.692196 -23.878125 
L 655.093148 -23.878125 
L 651.610198 -23.878125 
L 648.01115 -23.878125 
L 644.412102 -23.878125 
L 640.929152 -23.878125 
L 637.330104 -23.878125 
L 633.847155 -23.878125 
L 630.248107 -23.878125 
L 626.881255 -23.878125 
L 623.282207 -23.878125 
L 619.683159 -23.878125 
L 616.20021 -23.878125 
L 612.601162 -23.878125 
L 609.118212 -23.878125 
L 605.519164 -23.878125 
L 601.920116 -23.878125 
L 598.437166 -23.878125 
L 594.838118 -23.878125 
L 591.355169 -23.878125 
L 587.756121 -23.878125 
L 584.505368 -23.878125 
L 580.90632 -23.878125 
L 577.307272 -23.878125 
L 573.824322 -23.878125 
L 570.225274 -23.878125 
L 566.742324 -23.878125 
L 563.143276 -23.878125 
L 559.544228 -23.878125 
L 556.061279 -23.878125 
L 552.462231 -23.878125 
L 548.979281 -23.878125 
L 545.380233 -23.878125 
L 542.12948 -23.878125 
L 538.530432 -23.878125 
L 534.931384 -23.878125 
L 531.448434 -23.878125 
L 527.849386 -23.878125 
L 524.366437 -23.878125 
L 520.767389 -23.878125 
L 517.168341 -23.878125 
L 513.685391 -23.878125 
L 510.086343 -23.878125 
L 506.603393 -23.878125 
L 503.004345 -23.878125 
L 499.753592 -23.878125 
L 496.154544 -23.878125 
L 492.555496 -23.878125 
L 489.072547 -23.878125 
L 485.473499 -23.878125 
L 481.990549 -23.878125 
L 478.391501 -23.878125 
L 474.792453 -23.878125 
L 471.309503 -23.878125 
L 467.710455 -23.878125 
L 464.227506 -23.878125 
L 460.628458 -23.878125 
L 457.261606 -23.878125 
L 453.662558 -23.878125 
L 450.06351 -23.878125 
L 446.580561 -23.878125 
L 442.981513 -23.878125 
L 439.498563 -23.878125 
L 435.899515 -23.878125 
L 432.300467 -23.878125 
L 428.817517 -23.878125 
L 425.218469 -23.878125 
L 421.73552 -23.878125 
L 418.136472 -23.878125 
L 414.885719 -23.878125 
L 411.286671 -23.878125 
L 407.687623 -23.878125 
L 404.204673 -23.878125 
L 400.605625 -23.878125 
L 397.122675 -23.878125 
L 393.523627 -23.878125 
L 389.924579 -23.878125 
L 386.44163 -23.878125 
L 382.842582 -23.878125 
L 379.359632 -23.878125 
L 375.760584 -23.878125 
L 372.509831 -23.878125 
L 368.910783 -23.878125 
L 365.311735 -23.878125 
L 361.828785 -23.878125 
L 358.229737 -23.878125 
L 354.746788 -23.878125 
L 351.14774 -23.878125 
L 347.548692 -23.878125 
L 344.065742 -23.878125 
L 340.466694 -23.878125 
L 336.983744 -23.878125 
L 333.384696 -23.878125 
L 330.133943 -23.878125 
L 326.534895 -23.878125 
L 322.935847 -23.878125 
L 319.452898 -23.878125 
L 315.85385 -23.878125 
L 312.3709 -23.878125 
L 308.771852 -23.878125 
L 305.172804 -23.878125 
L 301.689854 -23.878125 
L 298.090806 -23.878125 
L 294.607857 -23.878125 
L 291.008809 -23.878125 
L 287.641957 -23.878125 
L 284.042909 -23.878125 
L 280.443861 -23.878125 
L 276.960912 -23.878125 
L 273.361864 -23.878125 
L 269.878914 -23.878125 
L 266.279866 -23.878125 
L 262.680818 -23.878125 
L 259.197868 -23.878125 
L 255.59882 -23.878125 
L 252.115871 -23.878125 
L 248.516823 -23.878125 
L 245.26607 -23.878125 
L 241.667022 -23.878125 
L 238.067974 -23.878125 
L 234.585024 -23.878125 
L 230.985976 -23.878125 
L 227.503026 -23.878125 
L 223.903978 -23.878125 
L 220.30493 -23.878125 
L 216.821981 -23.878125 
L 213.222933 -23.878125 
L 209.739983 -23.878125 
L 206.140935 -23.878125 
L 202.890182 -23.878125 
L 199.291134 -23.878125 
L 195.692086 -23.878125 
L 192.209136 -23.878125 
L 188.610088 -23.878125 
L 185.127139 -23.878125 
L 181.528091 -23.878125 
L 177.929043 -23.878125 
L 174.446093 -23.878125 
L 170.847045 -23.878125 
L 167.364095 -23.878125 
L 163.765047 -23.878125 
L 160.514294 -23.878125 
L 156.915246 -23.878125 
L 153.316198 -23.878125 
L 149.833249 -23.878125 
L 146.234201 -23.878125 
L 142.751251 -23.878125 
L 139.152203 -23.878125 
L 135.553155 -23.878125 
L 132.070205 -23.878125 
L 128.471157 -23.878125 
L 124.988208 -23.878125 
L 121.38916 -23.878125 
L 118.022308 -23.878125 
L 114.42326 -23.878125 
L 110.824212 -23.878125 
L 107.341263 -23.878125 
L 103.742215 -23.878125 
L 100.259265 -23.878125 
L 96.660217 -23.878125 
L 93.061169 -23.878125 
L 89.578219 -23.878125 
L 85.979171 -23.878125 
L 82.496222 -23.878125 
L 78.897174 -23.878125 
L 75.646421 -23.878125 
L 72.047373 -23.878125 
z
" style="stroke: #245b8f; stroke-opacity: 0.09"/>
    </defs>
    <g clip-path="url(#p258f25b418)">
     <use xlink:href="#m0a3a4626b9" x="0" y="295.235469" style="fill: #245b8f; fill-opacity: 0.09; stroke: #245b8f; stroke-opacity: 0.09"/>
    </g>
   </g>
   <g id="matplotlib.axis_1">
    <g id="xtick_1">
     <g id="line2d_1">
      <defs>
       <path id="mcbd8c3f0f7" d="M 0 0 
L 0 3.5 
" style="stroke: #687486; stroke-width: 0.8"/>
      </defs>
      <g>
       <use xlink:href="#mcbd8c3f0f7" x="156.915246" y="271.357344" style="fill: #687486; stroke: #687486; stroke-width: 0.8"/>
      </g>
     </g>
     <g id="text_1">
      <!-- 2013 -->
      <g style="fill: #687486" transform="translate(144.190246 285.955781) scale(0.1 -0.1)">
       <defs>
        <path id="DejaVuSans-32" d="M 1228 531 
L 3431 531 
L 3431 0 
L 469 0 
L 469 531 
Q 828 903 1448 1529 
Q 2069 2156 2228 2338 
Q 2531 2678 2651 2914 
Q 2772 3150 2772 3378 
Q 2772 3750 2511 3984 
Q 2250 4219 1831 4219 
Q 1534 4219 1204 4116 
Q 875 4013 500 3803 
L 500 4441 
Q 881 4594 1212 4672 
Q 1544 4750 1819 4750 
Q 2544 4750 2975 4387 
Q 3406 4025 3406 3419 
Q 3406 3131 3298 2873 
Q 3191 2616 2906 2266 
Q 2828 2175 2409 1742 
Q 1991 1309 1228 531 
z
" transform="scale(0.015625)"/>
        <path id="DejaVuSans-30" d="M 2034 4250 
Q 1547 4250 1301 3770 
Q 1056 3291 1056 2328 
Q 1056 1369 1301 889 
Q 1547 409 2034 409 
Q 2525 409 2770 889 
Q 3016 1369 3016 2328 
Q 3016 3291 2770 3770 
Q 2525 4250 2034 4250 
z
M 2034 4750 
Q 2819 4750 3233 4129 
Q 3647 3509 3647 2328 
Q 3647 1150 3233 529 
Q 2819 -91 2034 -91 
Q 1250 -91 836 529 
Q 422 1150 422 2328 
Q 422 3509 836 4129 
Q 1250 4750 2034 4750 
z
" transform="scale(0.015625)"/>
        <path id="DejaVuSans-31" d="M 794 531 
L 1825 531 
L 1825 4091 
L 703 3866 
L 703 4441 
L 1819 4666 
L 2450 4666 
L 2450 531 
L 3481 531 
L 3481 0 
L 794 0 
L 794 531 
z
" transform="scale(0.015625)"/>
        <path id="DejaVuSans-33" d="M 2597 2516 
Q 3050 2419 3304 2112 
Q 3559 1806 3559 1356 
Q 3559 666 3084 287 
Q 2609 -91 1734 -91 
Q 1441 -91 1130 -33 
Q 819 25 488 141 
L 488 750 
Q 750 597 1062 519 
Q 1375 441 1716 441 
Q 2309 441 2620 675 
Q 2931 909 2931 1356 
Q 2931 1769 2642 2001 
Q 2353 2234 1838 2234 
L 1294 2234 
L 1294 2753 
L 1863 2753 
Q 2328 2753 2575 2939 
Q 2822 3125 2822 3475 
Q 2822 3834 2567 4026 
Q 2313 4219 1838 4219 
Q 1578 4219 1281 4162 
Q 984 4106 628 3988 
L 628 4550 
Q 988 4650 1302 4700 
Q 1616 4750 1894 4750 
Q 2613 4750 3031 4423 
Q 3450 4097 3450 3541 
Q 3450 3153 3228 2886 
Q 3006 2619 2597 2516 
z
" transform="scale(0.015625)"/>
       </defs>
       <use xlink:href="#DejaVuSans-32"/>
       <use xlink:href="#DejaVuSans-30" transform="translate(63.623047 0)"/>
       <use xlink:href="#DejaVuSans-31" transform="translate(127.246094 0)"/>
       <use xlink:href="#DejaVuSans-33" transform="translate(190.869141 0)"/>
      </g>
     </g>
    </g>
    <g id="xtick_2">
     <g id="line2d_2">
      <g>
       <use xlink:href="#mcbd8c3f0f7" x="284.042909" y="271.357344" style="fill: #687486; stroke: #687486; stroke-width: 0.8"/>
      </g>
     </g>
     <g id="text_2">
      <!-- 2016 -->
      <g style="fill: #687486" transform="translate(271.317909 285.955781) scale(0.1 -0.1)">
       <defs>
        <path id="DejaVuSans-36" d="M 2113 2584 
Q 1688 2584 1439 2293 
Q 1191 2003 1191 1497 
Q 1191 994 1439 701 
Q 1688 409 2113 409 
Q 2538 409 2786 701 
Q 3034 994 3034 1497 
Q 3034 2003 2786 2293 
Q 2538 2584 2113 2584 
z
M 3366 4563 
L 3366 3988 
Q 3128 4100 2886 4159 
Q 2644 4219 2406 4219 
Q 1781 4219 1451 3797 
Q 1122 3375 1075 2522 
Q 1259 2794 1537 2939 
Q 1816 3084 2150 3084 
Q 2853 3084 3261 2657 
Q 3669 2231 3669 1497 
Q 3669 778 3244 343 
Q 2819 -91 2113 -91 
Q 1303 -91 875 529 
Q 447 1150 447 2328 
Q 447 3434 972 4092 
Q 1497 4750 2381 4750 
Q 2619 4750 2861 4703 
Q 3103 4656 3366 4563 
z
" transform="scale(0.015625)"/>
       </defs>
       <use xlink:href="#DejaVuSans-32"/>
       <use xlink:href="#DejaVuSans-30" transform="translate(63.623047 0)"/>
       <use xlink:href="#DejaVuSans-31" transform="translate(127.246094 0)"/>
       <use xlink:href="#DejaVuSans-36" transform="translate(190.869141 0)"/>
      </g>
     </g>
    </g>
    <g id="xtick_3">
     <g id="line2d_3">
      <g>
       <use xlink:href="#mcbd8c3f0f7" x="411.286671" y="271.357344" style="fill: #687486; stroke: #687486; stroke-width: 0.8"/>
      </g>
     </g>
     <g id="text_3">
      <!-- 2019 -->
      <g style="fill: #687486" transform="translate(398.561671 285.955781) scale(0.1 -0.1)">
       <defs>
        <path id="DejaVuSans-39" d="M 703 97 
L 703 672 
Q 941 559 1184 500 
Q 1428 441 1663 441 
Q 2288 441 2617 861 
Q 2947 1281 2994 2138 
Q 2813 1869 2534 1725 
Q 2256 1581 1919 1581 
Q 1219 1581 811 2004 
Q 403 2428 403 3163 
Q 403 3881 828 4315 
Q 1253 4750 1959 4750 
Q 2769 4750 3195 4129 
Q 3622 3509 3622 2328 
Q 3622 1225 3098 567 
Q 2575 -91 1691 -91 
Q 1453 -91 1209 -44 
Q 966 3 703 97 
z
M 1959 2075 
Q 2384 2075 2632 2365 
Q 2881 2656 2881 3163 
Q 2881 3666 2632 3958 
Q 2384 4250 1959 4250 
Q 1534 4250 1286 3958 
Q 1038 3666 1038 3163 
Q 1038 2656 1286 2365 
Q 1534 2075 1959 2075 
z
" transform="scale(0.015625)"/>
       </defs>
       <use xlink:href="#DejaVuSans-32"/>
       <use xlink:href="#DejaVuSans-30" transform="translate(63.623047 0)"/>
       <use xlink:href="#DejaVuSans-31" transform="translate(127.246094 0)"/>
       <use xlink:href="#DejaVuSans-39" transform="translate(190.869141 0)"/>
      </g>
     </g>
    </g>
    <g id="xtick_4">
     <g id="line2d_4">
      <g>
       <use xlink:href="#mcbd8c3f0f7" x="538.530432" y="271.357344" style="fill: #687486; stroke: #687486; stroke-width: 0.8"/>
      </g>
     </g>
     <g id="text_4">
      <!-- 2022 -->
      <g style="fill: #687486" transform="translate(525.805432 285.955781) scale(0.1 -0.1)">
       <use xlink:href="#DejaVuSans-32"/>
       <use xlink:href="#DejaVuSans-30" transform="translate(63.623047 0)"/>
       <use xlink:href="#DejaVuSans-32" transform="translate(127.246094 0)"/>
       <use xlink:href="#DejaVuSans-32" transform="translate(190.869141 0)"/>
      </g>
     </g>
    </g>
    <g id="xtick_5">
     <g id="line2d_5">
      <g>
       <use xlink:href="#mcbd8c3f0f7" x="665.774193" y="271.357344" style="fill: #687486; stroke: #687486; stroke-width: 0.8"/>
      </g>
     </g>
     <g id="text_5">
      <!-- 2025 -->
      <g style="fill: #687486" transform="translate(653.049193 285.955781) scale(0.1 -0.1)">
       <defs>
        <path id="DejaVuSans-35" d="M 691 4666 
L 3169 4666 
L 3169 4134 
L 1269 4134 
L 1269 2991 
Q 1406 3038 1543 3061 
Q 1681 3084 1819 3084 
Q 2600 3084 3056 2656 
Q 3513 2228 3513 1497 
Q 3513 744 3044 326 
Q 2575 -91 1722 -91 
Q 1428 -91 1123 -41 
Q 819 9 494 109 
L 494 744 
Q 775 591 1075 516 
Q 1375 441 1709 441 
Q 2250 441 2565 725 
Q 2881 1009 2881 1497 
Q 2881 1984 2565 2268 
Q 2250 2553 1709 2553 
Q 1456 2553 1204 2497 
Q 953 2441 691 2322 
L 691 4666 
z
" transform="scale(0.015625)"/>
       </defs>
       <use xlink:href="#DejaVuSans-32"/>
       <use xlink:href="#DejaVuSans-30" transform="translate(63.623047 0)"/>
       <use xlink:href="#DejaVuSans-32" transform="translate(127.246094 0)"/>
       <use xlink:href="#DejaVuSans-35" transform="translate(190.869141 0)"/>
      </g>
     </g>
    </g>
   </g>
   <g id="matplotlib.axis_2">
    <g id="ytick_1">
     <g id="line2d_6">
      <path d="M 62.190625 252.0092 
L 739.020625 252.0092 
" clip-path="url(#p258f25b418)" style="fill: none; stroke: #e9eef2; stroke-width: 0.85; stroke-linecap: square"/>
     </g>
     <g id="line2d_7"/>
     <g id="text_6">
      <!-- 5000 -->
      <g style="fill: #687486" transform="translate(33.240625 255.808419) scale(0.1 -0.1)">
       <use xlink:href="#DejaVuSans-35"/>
       <use xlink:href="#DejaVuSans-30" transform="translate(63.623047 0)"/>
       <use xlink:href="#DejaVuSans-30" transform="translate(127.246094 0)"/>
       <use xlink:href="#DejaVuSans-30" transform="translate(190.869141 0)"/>
      </g>
     </g>
    </g>
    <g id="ytick_2">
     <g id="line2d_8">
      <path d="M 62.190625 205.985852 
L 739.020625 205.985852 
" clip-path="url(#p258f25b418)" style="fill: none; stroke: #e9eef2; stroke-width: 0.85; stroke-linecap: square"/>
     </g>
     <g id="line2d_9"/>
     <g id="text_7">
      <!-- 10000 -->
      <g style="fill: #687486" transform="translate(26.878125 209.785071) scale(0.1 -0.1)">
       <use xlink:href="#DejaVuSans-31"/>
       <use xlink:href="#DejaVuSans-30" transform="translate(63.623047 0)"/>
       <use xlink:href="#DejaVuSans-30" transform="translate(127.246094 0)"/>
       <use xlink:href="#DejaVuSans-30" transform="translate(190.869141 0)"/>
       <use xlink:href="#DejaVuSans-30" transform="translate(254.492188 0)"/>
      </g>
     </g>
    </g>
    <g id="ytick_3">
     <g id="line2d_10">
      <path d="M 62.190625 159.962504 
L 739.020625 159.962504 
" clip-path="url(#p258f25b418)" style="fill: none; stroke: #e9eef2; stroke-width: 0.85; stroke-linecap: square"/>
     </g>
     <g id="line2d_11"/>
     <g id="text_8">
      <!-- 15000 -->
      <g style="fill: #687486" transform="translate(26.878125 163.761723) scale(0.1 -0.1)">
       <use xlink:href="#DejaVuSans-31"/>
       <use xlink:href="#DejaVuSans-35" transform="translate(63.623047 0)"/>
       <use xlink:href="#DejaVuSans-30" transform="translate(127.246094 0)"/>
       <use xlink:href="#DejaVuSans-30" transform="translate(190.869141 0)"/>
       <use xlink:href="#DejaVuSans-30" transform="translate(254.492188 0)"/>
      </g>
     </g>
    </g>
    <g id="ytick_4">
     <g id="line2d_12">
      <path d="M 62.190625 113.939156 
L 739.020625 113.939156 
" clip-path="url(#p258f25b418)" style="fill: none; stroke: #e9eef2; stroke-width: 0.85; stroke-linecap: square"/>
     </g>
     <g id="line2d_13"/>
     <g id="text_9">
      <!-- 20000 -->
      <g style="fill: #687486" transform="translate(26.878125 117.738375) scale(0.1 -0.1)">
       <use xlink:href="#DejaVuSans-32"/>
       <use xlink:href="#DejaVuSans-30" transform="translate(63.623047 0)"/>
       <use xlink:href="#DejaVuSans-30" transform="translate(127.246094 0)"/>
       <use xlink:href="#DejaVuSans-30" transform="translate(190.869141 0)"/>
       <use xlink:href="#DejaVuSans-30" transform="translate(254.492188 0)"/>
      </g>
     </g>
    </g>
    <g id="ytick_5">
     <g id="line2d_14">
      <path d="M 62.190625 67.915808 
L 739.020625 67.915808 
" clip-path="url(#p258f25b418)" style="fill: none; stroke: #e9eef2; stroke-width: 0.85; stroke-linecap: square"/>
     </g>
     <g id="line2d_15"/>
     <g id="text_10">
      <!-- 25000 -->
      <g style="fill: #687486" transform="translate(26.878125 71.715027) scale(0.1 -0.1)">
       <use xlink:href="#DejaVuSans-32"/>
       <use xlink:href="#DejaVuSans-35" transform="translate(63.623047 0)"/>
       <use xlink:href="#DejaVuSans-30" transform="translate(127.246094 0)"/>
       <use xlink:href="#DejaVuSans-30" transform="translate(190.869141 0)"/>
       <use xlink:href="#DejaVuSans-30" transform="translate(254.492188 0)"/>
      </g>
     </g>
    </g>
    <g id="text_11">
     <!-- Index level -->
     <g style="fill: #687486" transform="translate(14.798438 185.983437) rotate(-90) scale(0.1 -0.1)">
      <defs>
       <path id="DejaVuSans-49" d="M 628 4666 
L 1259 4666 
L 1259 0 
L 628 0 
L 628 4666 
z
" transform="scale(0.015625)"/>
       <path id="DejaVuSans-6e" d="M 3513 2113 
L 3513 0 
L 2938 0 
L 2938 2094 
Q 2938 2591 2744 2837 
Q 2550 3084 2163 3084 
Q 1697 3084 1428 2787 
Q 1159 2491 1159 1978 
L 1159 0 
L 581 0 
L 581 3500 
L 1159 3500 
L 1159 2956 
Q 1366 3272 1645 3428 
Q 1925 3584 2291 3584 
Q 2894 3584 3203 3211 
Q 3513 2838 3513 2113 
z
" transform="scale(0.015625)"/>
       <path id="DejaVuSans-64" d="M 2906 2969 
L 2906 4863 
L 3481 4863 
L 3481 0 
L 2906 0 
L 2906 525 
Q 2725 213 2448 61 
Q 2172 -91 1784 -91 
Q 1150 -91 751 415 
Q 353 922 353 1747 
Q 353 2572 751 3078 
Q 1150 3584 1784 3584 
Q 2172 3584 2448 3432 
Q 2725 3281 2906 2969 
z
M 947 1747 
Q 947 1113 1208 752 
Q 1469 391 1925 391 
Q 2381 391 2643 752 
Q 2906 1113 2906 1747 
Q 2906 2381 2643 2742 
Q 2381 3103 1925 3103 
Q 1469 3103 1208 2742 
Q 947 2381 947 1747 
z
" transform="scale(0.015625)"/>
       <path id="DejaVuSans-65" d="M 3597 1894 
L 3597 1613 
L 953 1613 
Q 991 1019 1311 708 
Q 1631 397 2203 397 
Q 2534 397 2845 478 
Q 3156 559 3463 722 
L 3463 178 
Q 3153 47 2828 -22 
Q 2503 -91 2169 -91 
Q 1331 -91 842 396 
Q 353 884 353 1716 
Q 353 2575 817 3079 
Q 1281 3584 2069 3584 
Q 2775 3584 3186 3129 
Q 3597 2675 3597 1894 
z
M 3022 2063 
Q 3016 2534 2758 2815 
Q 2500 3097 2075 3097 
Q 1594 3097 1305 2825 
Q 1016 2553 972 2059 
L 3022 2063 
z
" transform="scale(0.015625)"/>
       <path id="DejaVuSans-78" d="M 3513 3500 
L 2247 1797 
L 3578 0 
L 2900 0 
L 1881 1375 
L 863 0 
L 184 0 
L 1544 1831 
L 300 3500 
L 978 3500 
L 1906 2253 
L 2834 3500 
L 3513 3500 
z
" transform="scale(0.015625)"/>
       <path id="DejaVuSans-20" transform="scale(0.015625)"/>
       <path id="DejaVuSans-6c" d="M 603 4863 
L 1178 4863 
L 1178 0 
L 603 0 
L 603 4863 
z
" transform="scale(0.015625)"/>
       <path id="DejaVuSans-76" d="M 191 3500 
L 800 3500 
L 1894 563 
L 2988 3500 
L 3597 3500 
L 2284 0 
L 1503 0 
L 191 3500 
z
" transform="scale(0.015625)"/>
      </defs>
      <use xlink:href="#DejaVuSans-49"/>
      <use xlink:href="#DejaVuSans-6e" transform="translate(29.492188 0)"/>
      <use xlink:href="#DejaVuSans-64" transform="translate(92.871094 0)"/>
      <use xlink:href="#DejaVuSans-65" transform="translate(156.347656 0)"/>
      <use xlink:href="#DejaVuSans-78" transform="translate(216.121094 0)"/>
      <use xlink:href="#DejaVuSans-20" transform="translate(275.300781 0)"/>
      <use xlink:href="#DejaVuSans-6c" transform="translate(307.087891 0)"/>
      <use xlink:href="#DejaVuSans-65" transform="translate(334.871094 0)"/>
      <use xlink:href="#DejaVuSans-76" transform="translate(396.394531 0)"/>
      <use xlink:href="#DejaVuSans-65" transform="translate(455.574219 0)"/>
      <use xlink:href="#DejaVuSans-6c" transform="translate(517.097656 0)"/>
     </g>
    </g>
   </g>
   <g id="line2d_16">
    <path d="M 72.047373 248.941744 
L 75.646421 244.334807 
L 78.897174 245.110301 
L 82.496222 247.65447 
L 85.979171 246.050098 
L 89.578219 247.57255 
L 93.061169 251.999996 
L 96.660217 252.531565 
L 100.259265 249.002954 
L 103.742215 253.555127 
L 107.341263 255.467397 
L 110.824212 250.17517 
L 114.42326 248.46356 
L 118.022308 249.288762 
L 121.38916 249.725063 
L 124.988208 252.706454 
L 128.471157 249.442019 
L 132.070205 249.901331 
L 135.553155 249.629793 
L 139.152203 245.535558 
L 142.751251 246.305065 
L 146.234201 243.910471 
L 149.833249 243.678053 
L 153.316198 242.484669 
L 156.915246 245.629906 
L 160.514294 245.726555 
L 163.765047 243.447015 
L 167.364095 242.933855 
L 170.847045 244.257026 
L 174.446093 245.179336 
L 177.929043 247.666439 
L 181.528091 245.241009 
L 185.127139 240.050955 
L 188.610088 241.183588 
L 192.209136 240.006311 
L 195.692086 241.980713 
L 199.291134 240.255296 
L 202.890182 236.322601 
L 206.140935 236.3944 
L 209.739983 231.483246 
L 213.222933 227.972586 
L 216.821981 226.960535 
L 220.30493 224.815384 
L 223.903978 224.719198 
L 227.503026 221.429445 
L 230.985976 218.980545 
L 234.585024 221.79303 
L 238.067974 216.949531 
L 241.667022 216.620931 
L 248.516823 222.724544 
L 252.115871 220.403583 
L 255.59882 221.003271 
L 259.197868 219.490487 
L 262.680818 224.659367 
L 266.279866 224.865551 
L 269.878914 223.789526 
L 273.361864 224.991194 
L 276.960912 224.889021 
L 280.443861 228.412571 
L 284.042909 233.719064 
L 287.641957 226.803134 
L 291.008809 225.777735 
L 294.607857 222.921523 
L 298.090806 221.746548 
L 301.689854 218.51801 
L 305.172804 217.158479 
L 308.771852 218.769754 
L 312.3709 218.522612 
L 315.85385 222.328743 
L 319.452898 222.684966 
L 322.935847 219.228612 
L 326.534895 216.298768 
L 330.133943 213.591211 
L 333.384696 212.391844 
L 336.983744 209.472121 
L 340.466694 210.395806 
L 344.065742 205.276176 
L 347.548692 206.741552 
L 351.14774 207.931723 
L 354.746788 202.899528 
L 358.229737 203.900536 
L 361.828785 201.100932 
L 365.311735 196.526212 
L 368.910783 201.449335 
L 372.509831 204.93928 
L 375.760584 199.180384 
L 379.359632 199.209831 
L 382.842582 199.410959 
L 386.44163 193.499718 
L 389.924579 190.517405 
L 393.523627 197.421366 
L 397.122675 202.427331 
L 400.605625 197.915658 
L 404.204673 198.046366 
L 411.286671 198.691152 
L 414.885719 191.038386 
L 418.136472 189.894706 
L 421.73552 188.287115 
L 425.218469 189.520083 
L 428.817517 195.695032 
L 432.300467 196.567174 
L 435.899515 192.414025 
L 439.498563 188.704544 
L 442.981513 187.060593 
L 446.580561 186.025985 
L 450.06351 187.925374 
L 453.662558 194.924141 
L 457.261606 218.8931 
L 460.628458 207.275423 
L 464.227506 209.849054 
L 471.309503 196.105098 
L 474.792453 193.214373 
L 478.391501 194.502569 
L 481.990549 190.868099 
L 485.473499 178.657647 
L 489.072547 169.335159 
L 492.555496 172.530564 
L 496.154544 164.296519 
L 499.753592 162.809507 
L 503.004345 163.358111 
L 506.603393 154.598025 
L 510.086343 153.321335 
L 513.685391 152.938883 
L 517.168341 140.336315 
L 520.767389 135.863295 
L 524.366437 135.370845 
L 527.849386 141.707811 
L 531.448434 138.294245 
L 534.931384 138.424962 
L 538.530432 143.450244 
L 542.12948 137.275295 
L 545.380233 140.609219 
L 548.979281 145.377238 
L 552.462231 152.780561 
L 556.061279 140.096526 
L 559.544228 134.564052 
L 563.143276 140.684708 
L 566.742324 132.236206 
L 570.225274 125.368138 
L 573.824322 131.379237 
L 577.307272 135.45829 
L 580.90632 138.755413 
L 584.505368 138.241785 
L 587.756121 131.750192 
L 591.355169 127.429516 
L 594.838118 121.403676 
L 598.437166 116.205339 
L 601.920116 120.807674 
L 605.519164 117.268478 
L 609.118212 122.411138 
L 612.601162 112.713551 
L 616.20021 98.002188 
L 619.683159 98.054665 
L 623.282207 95.68813 
L 626.881255 92.520807 
L 630.248107 89.962376 
L 633.847155 90.644906 
L 637.330104 77.022912 
L 640.929152 68.365453 
L 644.412102 65.744423 
L 648.01115 60.452205 
L 651.610198 75.230302 
L 655.093148 75.913749 
L 658.692196 80.389969 
L 662.175145 81.64549 
L 665.774193 94.382002 
L 669.373241 81.544706 
L 672.623994 74.044284 
L 676.223042 70.210539 
L 679.705992 63.156527 
L 683.30504 70.048073 
L 686.78799 73.191468 
L 690.387038 71.495508 
L 693.986086 61.26912 
L 697.469035 56.843058 
L 701.068083 57.518217 
L 704.551033 64.964327 
L 708.150081 66.27139 
L 711.749129 92.479386 
L 714.999882 77.143022 
L 718.59893 81.28329 
L 725.680928 75.216028 
L 729.163877 75.216028 
L 729.163877 75.216028 
" clip-path="url(#p258f25b418)" style="fill: none; opacity: 0.1; stroke: #245b8f; stroke-width: 4.5; stroke-linecap: round"/>
    <path d="M 72.047373 248.941744 
L 75.646421 244.334807 
L 78.897174 245.110301 
L 82.496222 247.65447 
L 85.979171 246.050098 
L 89.578219 247.57255 
L 93.061169 251.999996 
L 96.660217 252.531565 
L 100.259265 249.002954 
L 103.742215 253.555127 
L 107.341263 255.467397 
L 110.824212 250.17517 
L 114.42326 248.46356 
L 118.022308 249.288762 
L 121.38916 249.725063 
L 124.988208 252.706454 
L 128.471157 249.442019 
L 132.070205 249.901331 
L 135.553155 249.629793 
L 139.152203 245.535558 
L 142.751251 246.305065 
L 146.234201 243.910471 
L 149.833249 243.678053 
L 153.316198 242.484669 
L 156.915246 245.629906 
L 160.514294 245.726555 
L 163.765047 243.447015 
L 167.364095 242.933855 
L 170.847045 244.257026 
L 174.446093 245.179336 
L 177.929043 247.666439 
L 181.528091 245.241009 
L 185.127139 240.050955 
L 188.610088 241.183588 
L 192.209136 240.006311 
L 195.692086 241.980713 
L 199.291134 240.255296 
L 202.890182 236.322601 
L 206.140935 236.3944 
L 209.739983 231.483246 
L 213.222933 227.972586 
L 216.821981 226.960535 
L 220.30493 224.815384 
L 223.903978 224.719198 
L 227.503026 221.429445 
L 230.985976 218.980545 
L 234.585024 221.79303 
L 238.067974 216.949531 
L 241.667022 216.620931 
L 248.516823 222.724544 
L 252.115871 220.403583 
L 255.59882 221.003271 
L 259.197868 219.490487 
L 262.680818 224.659367 
L 266.279866 224.865551 
L 269.878914 223.789526 
L 273.361864 224.991194 
L 276.960912 224.889021 
L 280.443861 228.412571 
L 284.042909 233.719064 
L 287.641957 226.803134 
L 291.008809 225.777735 
L 294.607857 222.921523 
L 298.090806 221.746548 
L 301.689854 218.51801 
L 305.172804 217.158479 
L 308.771852 218.769754 
L 312.3709 218.522612 
L 315.85385 222.328743 
L 319.452898 222.684966 
L 322.935847 219.228612 
L 326.534895 216.298768 
L 330.133943 213.591211 
L 333.384696 212.391844 
L 336.983744 209.472121 
L 340.466694 210.395806 
L 344.065742 205.276176 
L 347.548692 206.741552 
L 351.14774 207.931723 
L 354.746788 202.899528 
L 358.229737 203.900536 
L 361.828785 201.100932 
L 365.311735 196.526212 
L 368.910783 201.449335 
L 372.509831 204.93928 
L 375.760584 199.180384 
L 379.359632 199.209831 
L 382.842582 199.410959 
L 386.44163 193.499718 
L 389.924579 190.517405 
L 393.523627 197.421366 
L 397.122675 202.427331 
L 400.605625 197.915658 
L 404.204673 198.046366 
L 411.286671 198.691152 
L 414.885719 191.038386 
L 418.136472 189.894706 
L 421.73552 188.287115 
L 425.218469 189.520083 
L 428.817517 195.695032 
L 432.300467 196.567174 
L 435.899515 192.414025 
L 439.498563 188.704544 
L 442.981513 187.060593 
L 446.580561 186.025985 
L 450.06351 187.925374 
L 453.662558 194.924141 
L 457.261606 218.8931 
L 460.628458 207.275423 
L 464.227506 209.849054 
L 471.309503 196.105098 
L 474.792453 193.214373 
L 478.391501 194.502569 
L 481.990549 190.868099 
L 485.473499 178.657647 
L 489.072547 169.335159 
L 492.555496 172.530564 
L 496.154544 164.296519 
L 499.753592 162.809507 
L 503.004345 163.358111 
L 506.603393 154.598025 
L 510.086343 153.321335 
L 513.685391 152.938883 
L 517.168341 140.336315 
L 520.767389 135.863295 
L 524.366437 135.370845 
L 527.849386 141.707811 
L 531.448434 138.294245 
L 534.931384 138.424962 
L 538.530432 143.450244 
L 542.12948 137.275295 
L 545.380233 140.609219 
L 548.979281 145.377238 
L 552.462231 152.780561 
L 556.061279 140.096526 
L 559.544228 134.564052 
L 563.143276 140.684708 
L 566.742324 132.236206 
L 570.225274 125.368138 
L 573.824322 131.379237 
L 577.307272 135.45829 
L 580.90632 138.755413 
L 584.505368 138.241785 
L 587.756121 131.750192 
L 591.355169 127.429516 
L 594.838118 121.403676 
L 598.437166 116.205339 
L 601.920116 120.807674 
L 605.519164 117.268478 
L 609.118212 122.411138 
L 612.601162 112.713551 
L 616.20021 98.002188 
L 619.683159 98.054665 
L 623.282207 95.68813 
L 626.881255 92.520807 
L 630.248107 89.962376 
L 633.847155 90.644906 
L 637.330104 77.022912 
L 640.929152 68.365453 
L 644.412102 65.744423 
L 648.01115 60.452205 
L 651.610198 75.230302 
L 655.093148 75.913749 
L 658.692196 80.389969 
L 662.175145 81.64549 
L 665.774193 94.382002 
L 669.373241 81.544706 
L 672.623994 74.044284 
L 676.223042 70.210539 
L 679.705992 63.156527 
L 683.30504 70.048073 
L 686.78799 73.191468 
L 690.387038 71.495508 
L 693.986086 61.26912 
L 697.469035 56.843058 
L 701.068083 57.518217 
L 704.551033 64.964327 
L 708.150081 66.27139 
L 711.749129 92.479386 
L 714.999882 77.143022 
L 718.59893 81.28329 
L 725.680928 75.216028 
L 729.163877 75.216028 
L 729.163877 75.216028 
" clip-path="url(#p258f25b418)" style="fill: none; stroke: #245b8f; stroke-width: 2.7; stroke-linecap: round"/>
   </g>
   <g id="patch_3">
    <path d="M 62.190625 271.357344 
L 739.020625 271.357344 
" style="fill: none; stroke: #dce4eb; stroke-width: 0.8; stroke-linejoin: miter; stroke-linecap: square"/>
   </g>
   <g id="text_12">
    <!-- Monthly trend · Jan 2011 to Jul 2026 -->
    <g style="fill: #7a8594" transform="translate(62.190625 38.614625) scale(0.09 -0.09)">
     <defs>
      <path id="DejaVuSans-4d" d="M 628 4666 
L 1569 4666 
L 2759 1491 
L 3956 4666 
L 4897 4666 
L 4897 0 
L 4281 0 
L 4281 4097 
L 3078 897 
L 2444 897 
L 1241 4097 
L 1241 0 
L 628 0 
L 628 4666 
z
" transform="scale(0.015625)"/>
      <path id="DejaVuSans-6f" d="M 1959 3097 
Q 1497 3097 1228 2736 
Q 959 2375 959 1747 
Q 959 1119 1226 758 
Q 1494 397 1959 397 
Q 2419 397 2687 759 
Q 2956 1122 2956 1747 
Q 2956 2369 2687 2733 
Q 2419 3097 1959 3097 
z
M 1959 3584 
Q 2709 3584 3137 3096 
Q 3566 2609 3566 1747 
Q 3566 888 3137 398 
Q 2709 -91 1959 -91 
Q 1206 -91 779 398 
Q 353 888 353 1747 
Q 353 2609 779 3096 
Q 1206 3584 1959 3584 
z
" transform="scale(0.015625)"/>
      <path id="DejaVuSans-74" d="M 1172 4494 
L 1172 3500 
L 2356 3500 
L 2356 3053 
L 1172 3053 
L 1172 1153 
Q 1172 725 1289 603 
Q 1406 481 1766 481 
L 2356 481 
L 2356 0 
L 1766 0 
Q 1100 0 847 248 
Q 594 497 594 1153 
L 594 3053 
L 172 3053 
L 172 3500 
L 594 3500 
L 594 4494 
L 1172 4494 
z
" transform="scale(0.015625)"/>
      <path id="DejaVuSans-68" d="M 3513 2113 
L 3513 0 
L 2938 0 
L 2938 2094 
Q 2938 2591 2744 2837 
Q 2550 3084 2163 3084 
Q 1697 3084 1428 2787 
Q 1159 2491 1159 1978 
L 1159 0 
L 581 0 
L 581 4863 
L 1159 4863 
L 1159 2956 
Q 1366 3272 1645 3428 
Q 1925 3584 2291 3584 
Q 2894 3584 3203 3211 
Q 3513 2838 3513 2113 
z
" transform="scale(0.015625)"/>
      <path id="DejaVuSans-79" d="M 2059 -325 
Q 1816 -950 1584 -1140 
Q 1353 -1331 966 -1331 
L 506 -1331 
L 506 -850 
L 844 -850 
Q 1081 -850 1212 -737 
Q 1344 -625 1503 -206 
L 1606 56 
L 191 3500 
L 800 3500 
L 1894 763 
L 2988 3500 
L 3597 3500 
L 2059 -325 
z
" transform="scale(0.015625)"/>
      <path id="DejaVuSans-72" d="M 2631 2963 
Q 2534 3019 2420 3045 
Q 2306 3072 2169 3072 
Q 1681 3072 1420 2755 
Q 1159 2438 1159 1844 
L 1159 0 
L 581 0 
L 581 3500 
L 1159 3500 
L 1159 2956 
Q 1341 3275 1631 3429 
Q 1922 3584 2338 3584 
Q 2397 3584 2469 3576 
Q 2541 3569 2628 3553 
L 2631 2963 
z
" transform="scale(0.015625)"/>
      <path id="DejaVuSans-b7" d="M 684 2619 
L 1344 2619 
L 1344 1825 
L 684 1825 
L 684 2619 
z
" transform="scale(0.015625)"/>
      <path id="DejaVuSans-4a" d="M 628 4666 
L 1259 4666 
L 1259 325 
Q 1259 -519 939 -900 
Q 619 -1281 -91 -1281 
L -331 -1281 
L -331 -750 
L -134 -750 
Q 284 -750 456 -515 
Q 628 -281 628 325 
L 628 4666 
z
" transform="scale(0.015625)"/>
      <path id="DejaVuSans-61" d="M 2194 1759 
Q 1497 1759 1228 1600 
Q 959 1441 959 1056 
Q 959 750 1161 570 
Q 1363 391 1709 391 
Q 2188 391 2477 730 
Q 2766 1069 2766 1631 
L 2766 1759 
L 2194 1759 
z
M 3341 1997 
L 3341 0 
L 2766 0 
L 2766 531 
Q 2569 213 2275 61 
Q 1981 -91 1556 -91 
Q 1019 -91 701 211 
Q 384 513 384 1019 
Q 384 1609 779 1909 
Q 1175 2209 1959 2209 
L 2766 2209 
L 2766 2266 
Q 2766 2663 2505 2880 
Q 2244 3097 1772 3097 
Q 1472 3097 1187 3025 
Q 903 2953 641 2809 
L 641 3341 
Q 956 3463 1253 3523 
Q 1550 3584 1831 3584 
Q 2591 3584 2966 3190 
Q 3341 2797 3341 1997 
z
" transform="scale(0.015625)"/>
      <path id="DejaVuSans-75" d="M 544 1381 
L 544 3500 
L 1119 3500 
L 1119 1403 
Q 1119 906 1312 657 
Q 1506 409 1894 409 
Q 2359 409 2629 706 
Q 2900 1003 2900 1516 
L 2900 3500 
L 3475 3500 
L 3475 0 
L 2900 0 
L 2900 538 
Q 2691 219 2414 64 
Q 2138 -91 1772 -91 
Q 1169 -91 856 284 
Q 544 659 544 1381 
z
M 1991 3584 
L 1991 3584 
z
" transform="scale(0.015625)"/>
     </defs>
     <use xlink:href="#DejaVuSans-4d"/>
     <use xlink:href="#DejaVuSans-6f" transform="translate(86.279297 0)"/>
     <use xlink:href="#DejaVuSans-6e" transform="translate(147.460938 0)"/>
     <use xlink:href="#DejaVuSans-74" transform="translate(210.839844 0)"/>
     <use xlink:href="#DejaVuSans-68" transform="translate(250.048828 0)"/>
     <use xlink:href="#DejaVuSans-6c" transform="translate(313.427734 0)"/>
     <use xlink:href="#DejaVuSans-79" transform="translate(341.210938 0)"/>
     <use xlink:href="#DejaVuSans-20" transform="translate(400.390625 0)"/>
     <use xlink:href="#DejaVuSans-74" transform="translate(432.177734 0)"/>
     <use xlink:href="#DejaVuSans-72" transform="translate(471.386719 0)"/>
     <use xlink:href="#DejaVuSans-65" transform="translate(510.25 0)"/>
     <use xlink:href="#DejaVuSans-6e" transform="translate(571.773438 0)"/>
     <use xlink:href="#DejaVuSans-64" transform="translate(635.152344 0)"/>
     <use xlink:href="#DejaVuSans-20" transform="translate(698.628906 0)"/>
     <use xlink:href="#DejaVuSans-b7" transform="translate(730.416016 0)"/>
     <use xlink:href="#DejaVuSans-20" transform="translate(762.203125 0)"/>
     <use xlink:href="#DejaVuSans-4a" transform="translate(793.990234 0)"/>
     <use xlink:href="#DejaVuSans-61" transform="translate(823.482422 0)"/>
     <use xlink:href="#DejaVuSans-6e" transform="translate(884.761719 0)"/>
     <use xlink:href="#DejaVuSans-20" transform="translate(948.140625 0)"/>
     <use xlink:href="#DejaVuSans-32" transform="translate(979.927734 0)"/>
     <use xlink:href="#DejaVuSans-30" transform="translate(1043.550781 0)"/>
     <use xlink:href="#DejaVuSans-31" transform="translate(1107.173828 0)"/>
     <use xlink:href="#DejaVuSans-31" transform="translate(1170.796875 0)"/>
     <use xlink:href="#DejaVuSans-20" transform="translate(1234.419922 0)"/>
     <use xlink:href="#DejaVuSans-74" transform="translate(1266.207031 0)"/>
     <use xlink:href="#DejaVuSans-6f" transform="translate(1305.416016 0)"/>
     <use xlink:href="#DejaVuSans-20" transform="translate(1366.597656 0)"/>
     <use xlink:href="#DejaVuSans-4a" transform="translate(1398.384766 0)"/>
     <use xlink:href="#DejaVuSans-75" transform="translate(1427.876953 0)"/>
     <use xlink:href="#DejaVuSans-6c" transform="translate(1491.255859 0)"/>
     <use xlink:href="#DejaVuSans-20" transform="translate(1519.039062 0)"/>
     <use xlink:href="#DejaVuSans-32" transform="translate(1550.826172 0)"/>
     <use xlink:href="#DejaVuSans-30" transform="translate(1614.449219 0)"/>
     <use xlink:href="#DejaVuSans-32" transform="translate(1678.072266 0)"/>
     <use xlink:href="#DejaVuSans-36" transform="translate(1741.695312 0)"/>
    </g>
   </g>
   <g id="text_13">
    <!-- 24,207 -->
    <g style="fill: #245b8f" transform="translate(681.139375 24.978612) scale(0.15 -0.15)">
     <defs>
      <path id="DejaVuSans-Bold-32" d="M 1844 884 
L 3897 884 
L 3897 0 
L 506 0 
L 506 884 
L 2209 2388 
Q 2438 2594 2547 2791 
Q 2656 2988 2656 3200 
Q 2656 3528 2436 3728 
Q 2216 3928 1850 3928 
Q 1569 3928 1234 3808 
Q 900 3688 519 3450 
L 519 4475 
Q 925 4609 1322 4679 
Q 1719 4750 2100 4750 
Q 2938 4750 3402 4381 
Q 3866 4013 3866 3353 
Q 3866 2972 3669 2642 
Q 3472 2313 2841 1759 
L 1844 884 
z
" transform="scale(0.015625)"/>
      <path id="DejaVuSans-Bold-34" d="M 2356 3675 
L 1038 1722 
L 2356 1722 
L 2356 3675 
z
M 2156 4666 
L 3494 4666 
L 3494 1722 
L 4159 1722 
L 4159 850 
L 3494 850 
L 3494 0 
L 2356 0 
L 2356 850 
L 288 850 
L 288 1881 
L 2156 4666 
z
" transform="scale(0.015625)"/>
      <path id="DejaVuSans-Bold-2c" d="M 653 1209 
L 1778 1209 
L 1778 256 
L 1006 -909 
L 341 -909 
L 653 256 
L 653 1209 
z
" transform="scale(0.015625)"/>
      <path id="DejaVuSans-Bold-30" d="M 2944 2338 
Q 2944 3213 2780 3570 
Q 2616 3928 2228 3928 
Q 1841 3928 1675 3570 
Q 1509 3213 1509 2338 
Q 1509 1453 1675 1090 
Q 1841 728 2228 728 
Q 2613 728 2778 1090 
Q 2944 1453 2944 2338 
z
M 4147 2328 
Q 4147 1169 3647 539 
Q 3147 -91 2228 -91 
Q 1306 -91 806 539 
Q 306 1169 306 2328 
Q 306 3491 806 4120 
Q 1306 4750 2228 4750 
Q 3147 4750 3647 4120 
Q 4147 3491 4147 2328 
z
" transform="scale(0.015625)"/>
      <path id="DejaVuSans-Bold-37" d="M 428 4666 
L 3944 4666 
L 3944 3988 
L 2125 0 
L 953 0 
L 2675 3781 
L 428 3781 
L 428 4666 
z
" transform="scale(0.015625)"/>
     </defs>
     <use xlink:href="#DejaVuSans-Bold-32"/>
     <use xlink:href="#DejaVuSans-Bold-34" transform="translate(69.580078 0)"/>
     <use xlink:href="#DejaVuSans-Bold-2c" transform="translate(139.160156 0)"/>
     <use xlink:href="#DejaVuSans-Bold-32" transform="translate(177.148438 0)"/>
     <use xlink:href="#DejaVuSans-Bold-30" transform="translate(246.728516 0)"/>
     <use xlink:href="#DejaVuSans-Bold-37" transform="translate(316.308594 0)"/>
    </g>
   </g>
   <g id="text_14">
    <!-- NIFTY 50 -->
    <g style="fill: #10233f" transform="translate(62.190625 20.117344) scale(0.17 -0.17)">
     <defs>
      <path id="DejaVuSans-Bold-4e" d="M 588 4666 
L 1931 4666 
L 3628 1466 
L 3628 4666 
L 4769 4666 
L 4769 0 
L 3425 0 
L 1728 3200 
L 1728 0 
L 588 0 
L 588 4666 
z
" transform="scale(0.015625)"/>
      <path id="DejaVuSans-Bold-49" d="M 588 4666 
L 1791 4666 
L 1791 0 
L 588 0 
L 588 4666 
z
" transform="scale(0.015625)"/>
      <path id="DejaVuSans-Bold-46" d="M 588 4666 
L 3834 4666 
L 3834 3756 
L 1791 3756 
L 1791 2888 
L 3713 2888 
L 3713 1978 
L 1791 1978 
L 1791 0 
L 588 0 
L 588 4666 
z
" transform="scale(0.015625)"/>
      <path id="DejaVuSans-Bold-54" d="M 31 4666 
L 4331 4666 
L 4331 3756 
L 2784 3756 
L 2784 0 
L 1581 0 
L 1581 3756 
L 31 3756 
L 31 4666 
z
" transform="scale(0.015625)"/>
      <path id="DejaVuSans-Bold-59" d="M -63 4666 
L 1253 4666 
L 2316 3003 
L 3378 4666 
L 4697 4666 
L 2919 1966 
L 2919 0 
L 1716 0 
L 1716 1966 
L -63 4666 
z
" transform="scale(0.015625)"/>
      <path id="DejaVuSans-Bold-20" transform="scale(0.015625)"/>
      <path id="DejaVuSans-Bold-35" d="M 678 4666 
L 3669 4666 
L 3669 3781 
L 1638 3781 
L 1638 3059 
Q 1775 3097 1914 3117 
Q 2053 3138 2203 3138 
Q 3056 3138 3531 2711 
Q 4006 2284 4006 1522 
Q 4006 766 3489 337 
Q 2972 -91 2053 -91 
Q 1656 -91 1267 -14 
Q 878 63 494 219 
L 494 1166 
Q 875 947 1217 837 
Q 1559 728 1863 728 
Q 2300 728 2551 942 
Q 2803 1156 2803 1522 
Q 2803 1891 2551 2103 
Q 2300 2316 1863 2316 
Q 1603 2316 1309 2248 
Q 1016 2181 678 2041 
L 678 4666 
z
" transform="scale(0.015625)"/>
     </defs>
     <use xlink:href="#DejaVuSans-Bold-4e"/>
     <use xlink:href="#DejaVuSans-Bold-49" transform="translate(83.691406 0)"/>
     <use xlink:href="#DejaVuSans-Bold-46" transform="translate(120.898438 0)"/>
     <use xlink:href="#DejaVuSans-Bold-54" transform="translate(189.208984 0)"/>
     <use xlink:href="#DejaVuSans-Bold-59" transform="translate(257.421875 0)"/>
     <use xlink:href="#DejaVuSans-Bold-20" transform="translate(329.833984 0)"/>
     <use xlink:href="#DejaVuSans-Bold-35" transform="translate(364.648438 0)"/>
     <use xlink:href="#DejaVuSans-Bold-30" transform="translate(434.228516 0)"/>
    </g>
   </g>
   <g id="PathCollection_1">
    <defs>
     <path id="mfc23e9c228" d="M 0 4.062019 
C 1.07726 4.062019 2.110543 3.634019 2.872281 2.872281 
C 3.634019 2.110543 4.062019 1.07726 4.062019 0 
C 4.062019 -1.07726 3.634019 -2.110543 2.872281 -2.872281 
C 2.110543 -3.634019 1.07726 -4.062019 0 -4.062019 
C -1.07726 -4.062019 -2.110543 -3.634019 -2.872281 -2.872281 
C -3.634019 -2.110543 -4.062019 -1.07726 -4.062019 0 
C -4.062019 1.07726 -3.634019 2.110543 -2.872281 2.872281 
C -2.110543 3.634019 -1.07726 4.062019 0 4.062019 
z
" style="stroke: #245b8f; stroke-width: 2.5"/>
    </defs>
    <g clip-path="url(#p258f25b418)">
     <use xlink:href="#mfc23e9c228" x="729.163877" y="75.216028" style="fill: #ffffff; stroke: #245b8f; stroke-width: 2.5"/>
    </g>
   </g>
  </g>
 </g>
 <defs>
  <clipPath id="p258f25b418">
   <rect x="62.190625" y="46.117344" width="676.83" height="225.24"/>
  </clipPath>
 </defs>
</svg>
